<svg width="43" height="43" viewBox="0 0 43 43" fill="none" xmlns="http://www.w3.org/2000/svg">
<circle cx="21.5" cy="21.5" r="21" fill="white" stroke="#0B132A"/>
<g clip-path="url(#clip0)">
<path d="M22.4192 11.6695L22.5521 11.6938H24.3905V14.0215H22.5521C22.4487 14.0215 22.3491 14.0296 22.2531 14.0458C22.1571 14.062 22.0796 14.0902 22.0205 14.1307C21.9615 14.1711 21.9061 14.2155 21.8544 14.264C21.8027 14.3125 21.7584 14.361 21.7215 14.4095C21.6846 14.458 21.6551 14.5105 21.6329 14.5671C21.6108 14.6237 21.596 14.6722 21.5886 14.7126L21.5665 14.8338L21.5554 14.9187V18.6528H25.1436L24.6341 20.9806H21.5554V32.6195H19.4291V20.9806H16.5939V18.6528H19.4291V15.0399C19.4291 14.5388 19.4881 14.0902 19.6062 13.6942C19.7244 13.2982 19.8831 12.987 20.0825 12.7607C20.2818 12.5344 20.4848 12.3404 20.6916 12.1787C20.8983 12.0171 21.1272 11.9039 21.3782 11.8393C21.6292 11.7746 21.8286 11.7301 21.9762 11.7059C22.1239 11.6816 22.2715 11.6695 22.4192 11.6695ZM22.4192 10.1177C21.5037 10.1177 20.6842 10.3602 19.9606 10.8451C18.6612 11.7019 18.0115 13.1001 18.0115 15.0399V17.101H16.5939C16.21 17.101 15.8778 17.2546 15.5972 17.5617C15.3167 17.8688 15.1764 18.2326 15.1764 18.6528V20.9806C15.1764 21.4009 15.3167 21.7646 15.5972 22.0718C15.8778 22.3789 16.21 22.5325 16.5939 22.5325H18.0115V32.5952C18.0115 33.0317 18.1481 33.3995 18.4213 33.6985C18.6944 33.9976 19.0304 34.1471 19.4291 34.1471H21.5554C21.9393 34.1471 22.2715 33.9976 22.5521 33.6985C22.8327 33.3995 22.9729 33.0317 22.9729 32.5952V22.5325H24.6341C24.959 22.5325 25.2469 22.4274 25.498 22.2172C25.749 22.0071 25.9188 21.7404 26.0074 21.4171L26.4947 19.0893C26.6276 18.5882 26.5537 18.1315 26.2732 17.7193C25.9926 17.3071 25.6161 17.101 25.1436 17.101H22.9729V15.5734H24.3905C24.7744 15.5734 25.1066 15.4198 25.3872 15.1127C25.6678 14.8056 25.808 14.4418 25.808 14.0215V11.6938C25.808 11.2573 25.6715 10.8896 25.3983 10.5905C25.1251 10.2915 24.7966 10.1419 24.4126 10.1419H22.5964C22.5373 10.1258 22.4783 10.1177 22.4192 10.1177Z" fill="black"/>
</g>
<defs>
<clipPath id="clip0">
<rect width="25.2941" height="25.2941" fill="white" transform="translate(8.85291 8.85303)"/>
</clipPath>
</defs>
</svg>
