<svg width="43" height="43" viewBox="0 0 43 43" fill="none" xmlns="http://www.w3.org/2000/svg">
<circle cx="21.5" cy="21.5" r="21" fill="white" stroke="#0B132A"/>
<g clip-path="url(#clip0)">
<path d="M33.569 32.7523H28.9449C28.7819 32.7523 28.6411 32.6981 28.5225 32.5898C28.404 32.4814 28.3447 32.3477 28.3447 32.1888V24.9282C28.3447 24.4514 28.2965 24.0468 28.2002 23.7145C28.1039 23.3822 27.9927 23.1366 27.8667 22.9776C27.7407 22.8187 27.5814 22.6923 27.3888 22.5983C27.1961 22.5044 27.0516 22.4538 26.9552 22.4466C26.8589 22.4394 26.7366 22.4358 26.5884 22.4358C26.2327 22.4358 25.9141 22.5225 25.6325 22.6959C25.3509 22.8692 25.1545 23.039 25.0434 23.2052C24.9322 23.3714 24.8396 23.5411 24.7655 23.7145C24.7358 23.8012 24.7099 23.9204 24.6877 24.0721C24.6654 24.2238 24.6543 24.4008 24.6543 24.6031V32.1888C24.6543 32.3477 24.595 32.485 24.4765 32.6006C24.3579 32.7162 24.2171 32.774 24.0541 32.774H19.43C19.3559 32.774 19.2818 32.7595 19.2077 32.7306C19.1336 32.7017 19.0669 32.6584 19.0076 32.6006C18.889 32.485 18.8372 32.3477 18.852 32.1888V30.1949L18.8631 28.1792L18.8742 25.8385V21.2654L18.8631 19.5749L18.852 18.6429C18.8372 18.484 18.889 18.3431 19.0076 18.2203C19.1262 18.0975 19.267 18.0361 19.43 18.0361H24.0541C24.143 18.0361 24.2245 18.0505 24.2986 18.0794C24.3727 18.1083 24.4357 18.1481 24.4876 18.1986C24.5395 18.2492 24.5802 18.3106 24.6099 18.3829C24.6395 18.4551 24.6543 18.5346 24.6543 18.6213V18.9464C25.6029 18.1228 26.7959 17.711 28.2335 17.711C30.0861 17.711 31.5349 18.3034 32.5797 19.4882C33.6246 20.673 34.147 22.313 34.147 24.4081V32.1888C34.147 32.261 34.1322 32.3333 34.1026 32.4055C34.0729 32.4778 34.0322 32.5392 33.9803 32.5898C33.9284 32.6403 33.8654 32.6801 33.7913 32.709C33.7172 32.7379 33.6431 32.7523 33.569 32.7523ZM29.5229 31.6036H32.9688V24.4081C32.9688 22.6453 32.5575 21.2835 31.7349 20.3226C30.9124 19.3618 29.7453 18.8813 28.2335 18.8813C26.6922 18.8813 25.4917 19.5027 24.6321 20.7453C24.558 21.0198 24.3727 21.1571 24.0763 21.1571H24.0319C23.8095 21.1571 23.6391 21.0559 23.5205 20.8536C23.4316 20.7091 23.4168 20.5574 23.4761 20.3985V19.1848H20.0302C20.0599 20.7886 20.0599 24.9282 20.0302 31.6036H23.4761V24.6031C23.4761 24.0396 23.5428 23.5989 23.6762 23.281C23.7799 23.0354 23.9059 22.8078 24.0541 22.5983C24.2023 22.3888 24.369 22.201 24.5543 22.0348C24.7395 21.8687 24.9396 21.7314 25.1545 21.623C25.3694 21.5147 25.5991 21.428 25.8437 21.3629C26.0882 21.2979 26.3365 21.2654 26.5884 21.2654C27.2109 21.2654 27.7407 21.4099 28.178 21.6989C28.6152 21.9879 28.9486 22.4033 29.1784 22.9451C29.4081 23.4869 29.5229 24.148 29.5229 24.9282V31.6036ZM16.8734 32.7523H12.2493C12.0863 32.7523 11.9455 32.6981 11.8269 32.5898C11.7084 32.4814 11.6491 32.3477 11.6491 32.1888V18.6213C11.6491 18.4623 11.7084 18.3251 11.8269 18.2095C11.9455 18.0939 12.0863 18.0361 12.2493 18.0361H16.8734C17.0364 18.0361 17.1772 18.0939 17.2958 18.2095C17.4144 18.3251 17.4737 18.4623 17.4737 18.6213V32.1888C17.4737 32.2899 17.4477 32.3839 17.3959 32.4706C17.344 32.5573 17.2699 32.6259 17.1735 32.6765C17.0772 32.727 16.9772 32.7523 16.8734 32.7523ZM12.8496 31.6036H16.2954V19.1848H12.8496V31.6036ZM14.5614 17.3425H14.5391C13.6203 17.3425 12.8644 17.0644 12.2716 16.5081C11.6787 15.9518 11.3823 15.2511 11.3823 14.4058C11.3823 13.5605 11.6862 12.8634 12.2938 12.3143C12.9015 11.7653 13.6721 11.4907 14.6058 11.4907C15.5099 11.4907 16.2584 11.7616 16.8512 12.3035C17.444 12.8453 17.7478 13.5425 17.7627 14.395C17.7627 15.2474 17.4625 15.9518 16.8623 16.5081C16.2621 17.0644 15.4951 17.3425 14.5614 17.3425ZM14.6058 12.6394C13.9982 12.6394 13.5054 12.802 13.1275 13.1271C12.7495 13.4522 12.5606 13.882 12.5606 14.4166C12.5606 14.9368 12.7458 15.363 13.1164 15.6954C13.4869 16.0277 13.9611 16.1938 14.5391 16.1938H14.5614C14.9615 16.1938 15.3135 16.118 15.6174 15.9663C15.9212 15.8146 16.1583 15.6051 16.3288 15.3377C16.4992 15.0704 16.5844 14.7634 16.5844 14.4166C16.5696 13.882 16.3843 13.4522 16.0286 13.1271C15.6729 12.802 15.1987 12.6394 14.6058 12.6394Z" fill="black"/>
</g>
<defs>
<clipPath id="clip0">
<rect width="22.7647" height="21.5" fill="white" transform="translate(11.3823 11.3823)"/>
</clipPath>
</defs>
</svg>
