<svg width="43" height="43" viewBox="0 0 43 43" fill="none" xmlns="http://www.w3.org/2000/svg">
<circle cx="21.5" cy="21.5" r="21" fill="white" stroke="#0B132A"/>
<path fill-rule="evenodd" clip-rule="evenodd" d="M20.6364 16.6555C20.6364 13.7434 22.9972 11.3826 25.9094 11.3826C27.6193 11.3826 28.9835 12.1903 29.8974 13.3639C30.8642 13.1658 31.7909 12.8073 32.6393 12.3033C32.3108 13.3255 31.6231 14.1941 30.7035 14.7484L30.7069 14.7534C31.5799 14.648 32.4323 14.4132 33.2363 14.057L33.2346 14.0604C32.6663 14.9119 31.953 15.6623 31.1301 16.2744C31.174 16.5729 31.1976 16.8714 31.1976 17.1682C31.1976 23.3855 26.4608 30.6162 17.7495 30.6162C15.1808 30.6185 12.6658 29.8808 10.5053 28.4915C10.4036 28.4262 10.3171 28.3398 10.2517 28.2382C10.1863 28.1366 10.1435 28.022 10.1262 27.9024C10.1089 27.7828 10.1176 27.6609 10.1516 27.5449C10.1855 27.4289 10.2441 27.3216 10.3232 27.2302C10.3984 27.1051 10.5081 27.0044 10.6391 26.9401C10.7701 26.8758 10.9168 26.8506 11.0618 26.8676C12.6064 27.0497 14.1476 26.8609 15.5085 26.2673C14.8373 25.9707 14.2364 25.5356 13.7452 24.9904C13.2541 24.4452 12.8838 23.8023 12.6587 23.1039C12.617 22.974 12.6112 22.8352 12.6418 22.7023C12.6723 22.5693 12.7382 22.4471 12.8323 22.3484C12.2782 21.8621 11.8343 21.263 11.5304 20.5912C11.2265 19.9194 11.0696 19.1904 11.0702 18.4531V18.3958C11.0701 18.2194 11.1316 18.0485 11.2439 17.9124C11.3562 17.7764 11.5124 17.6838 11.6857 17.6504C11.3034 16.9127 11.1044 16.0936 11.1056 15.2627C11.1056 14.4735 11.1107 13.4786 11.6654 12.5815C11.7247 12.4865 11.8043 12.4057 11.8985 12.3451C11.9926 12.2844 12.0991 12.2454 12.2101 12.2308C12.3711 12.18 12.5437 12.1787 12.7054 12.2271C12.8672 12.2755 13.0107 12.3714 13.1173 12.5023C14.9971 14.8146 17.6856 16.3259 20.6381 16.7297V16.6555H20.6364ZM17.7495 28.9299C16.4593 28.9309 15.1779 28.7184 13.9571 28.301C15.4255 28.0588 16.8105 27.4549 17.9873 26.5439C18.1106 26.4471 18.201 26.3146 18.2459 26.1644C18.2909 26.0142 18.2882 25.8538 18.2383 25.7052C18.1884 25.5566 18.0937 25.4272 17.9672 25.3346C17.8408 25.242 17.6887 25.1908 17.532 25.1881C16.9675 25.1779 16.4129 25.0375 15.9115 24.7778C15.4102 24.518 14.9756 24.146 14.6417 23.6907C14.9621 23.6654 15.2758 23.6097 15.5793 23.5288C15.7447 23.4846 15.8904 23.3857 15.9925 23.2482C16.0946 23.1107 16.1472 22.9427 16.1417 22.7715C16.1363 22.6003 16.073 22.436 15.9624 22.3053C15.8517 22.1746 15.7 22.0852 15.5321 22.0516C14.8905 21.9217 14.2953 21.6227 13.808 21.1858C13.3206 20.7488 12.9588 20.1897 12.7598 19.5661C13.0971 19.647 13.4495 19.6959 13.8104 19.7077C13.9753 19.7133 14.1375 19.6649 14.2725 19.57C14.4074 19.475 14.5078 19.3387 14.5583 19.1816C14.6088 19.0246 14.6067 18.8553 14.5524 18.6995C14.4981 18.5437 14.3945 18.4098 14.2572 18.3182C13.7541 17.983 13.3415 17.5287 13.0561 16.9956C12.7708 16.4626 12.6215 15.8673 12.6216 15.2627C12.6216 14.9794 12.6266 14.7281 12.6435 14.4988C15.003 16.9068 18.1832 18.3373 21.5504 18.5054C21.6804 18.512 21.8102 18.4884 21.9296 18.4365C22.049 18.3845 22.1547 18.3057 22.2385 18.206C22.3223 18.1064 22.3819 17.9887 22.4126 17.8622C22.4433 17.7356 22.4443 17.6037 22.4154 17.4768C22.2916 16.9502 22.2884 16.4025 22.4062 15.8746C22.524 15.3466 22.7597 14.8522 23.0956 14.4282C23.4315 14.0043 23.8589 13.6617 24.3459 13.4263C24.8329 13.1909 25.3668 13.0687 25.9077 13.0688C27.9886 13.0688 29.5096 14.9963 29.5096 17.1699C29.5096 22.6604 25.3344 28.9299 17.7478 28.9299H17.7495Z" fill="black"/>
</svg>
