<svg width="30" height="20" viewBox="0 0 30 20" fill="none" xmlns="http://www.w3.org/2000/svg">
<mask id="mask0" mask-type="alpha" maskUnits="userSpaceOnUse" x="0" y="0" width="30" height="20">
<rect width="30" height="20" fill="#C4C4C4"/>
</mask>
<g mask="url(#mask0)">
<path d="M0 0V20H30V0H0Z" fill="#012169"/>
<path d="M0 0L30 20L0 0ZM30 0L0 20L30 0Z" fill="black"/>
<path d="M30 0L0 20M0 0L30 20L0 0Z" stroke="white" stroke-width="3"/>
<path d="M0 0L30 20L0 0ZM30 0L0 20L30 0Z" fill="black"/>
<path d="M30 0L0 20M0 0L30 20L0 0Z" stroke="#C8102E" stroke-width="2"/>
<path d="M15 0V20V0ZM0 10H30H0Z" fill="black"/>
<path d="M0 10H30M15 0V20V0Z" stroke="white" stroke-width="5"/>
<path d="M15 0V20V0ZM0 10H30H0Z" fill="black"/>
<path d="M0 10H30M15 0V20V0Z" stroke="#C8102E" stroke-width="3"/>
</g>
</svg>
