<svg width="30" height="20" viewBox="0 0 30 20" fill="none" xmlns="http://www.w3.org/2000/svg">
<g clip-path="url(#clip0)">
<path d="M15.0001 33.987C30.1953 33.987 42.5135 23.2478 42.5135 10.0003C42.5135 -3.24713 30.1953 -13.9863 15.0001 -13.9863C-0.195045 -13.9863 -12.5132 -3.24713 -12.5132 10.0003C-12.5132 23.2478 -0.195045 33.987 15.0001 33.987Z" fill="#FDFDFD"/>
<path d="M6.52037 12.0134C4.42371 12.0134 2.33037 12.0134 0.233704 12.0134C0.0103706 12.0134 0.0337039 12.0434 0.0337039 11.8201C0.0337039 10.6201 0.0337039 9.42007 0.0337039 8.22007C0.0337039 7.98007 0.000370607 8.01341 0.250371 8.01341C4.43704 8.01341 8.62371 8.01341 12.807 8.01341C12.8804 8.01341 12.967 8.04674 13.0204 7.99007C13.0637 7.94007 13.037 7.85674 13.037 7.79007C13.037 5.26674 13.037 2.74674 13.037 0.223405C13.037 0.160071 13.0104 0.0834048 13.0504 0.0367381C13.097 -0.0132619 13.1804 0.0167381 13.247 0.0167381C14.4404 0.0167381 15.637 0.0167381 16.8304 0.0167381C16.867 0.0167381 16.9037 0.0167381 16.9437 0.0167381C17.027 0.0200715 17.0304 0.0234048 17.0337 0.110071C17.0337 0.153405 17.0337 0.196738 17.0337 0.236738C17.0337 2.76007 17.0337 5.28007 17.0337 7.80341C17.0337 7.87007 17.0037 7.95341 17.057 8.00007C17.1037 8.04007 17.1804 8.01341 17.2437 8.01341C21.4337 8.01341 25.627 8.01341 29.817 8.01341C30.067 8.01341 30.0304 7.97674 30.0304 8.22007C30.0304 9.42674 30.0304 10.6301 30.0304 11.8367C30.0304 12.0334 30.0504 12.0134 29.847 12.0134C25.6437 12.0134 21.4437 12.0134 17.2404 12.0134C17.177 12.0134 17.1004 11.9867 17.0537 12.0267C17.0004 12.0734 17.0304 12.1567 17.0304 12.2234C17.0304 14.7501 17.0304 17.2801 17.0304 19.8067C17.0304 20.0401 17.0604 20.0101 16.827 20.0101C15.6204 20.0101 14.417 20.0101 13.2104 20.0101C13.0104 20.0101 13.0304 20.0334 13.0304 19.8334C13.0304 17.3067 13.0304 14.7767 13.0304 12.2501C13.0304 12.1767 13.0604 12.0867 13.0137 12.0334C12.9637 11.9767 12.8737 12.0101 12.8004 12.0101C10.7104 12.0134 8.61704 12.0134 6.52037 12.0134Z" fill="#FF0000"/>
<path d="M24.2594 17.9966C24.1061 18.0132 23.9594 17.9699 23.8127 17.9732C23.6627 17.9732 23.5127 17.9732 23.3661 17.9732C23.2194 17.9732 23.0727 18.0132 22.9127 17.9966C22.9261 17.9132 22.9394 17.8332 22.9494 17.7566C23.0027 17.4199 23.0461 17.0799 23.0627 16.7399C23.0661 16.7032 23.0661 16.6666 23.0661 16.6266C23.0661 16.6032 23.0527 16.5866 23.0261 16.5866C22.9894 16.5866 22.9527 16.5866 22.9127 16.5899C22.5127 16.6132 22.1161 16.6632 21.7227 16.7332C21.7027 16.7366 21.6827 16.7366 21.6561 16.7432C21.6427 16.5866 21.6827 16.4399 21.6794 16.2932C21.6761 16.1432 21.6827 15.9932 21.6794 15.8466C21.6727 15.6999 21.6594 15.5499 21.6494 15.3899C21.7294 15.4032 21.7961 15.4099 21.8627 15.4232C22.2294 15.4832 22.5994 15.5299 22.9727 15.5466C23.0627 15.5499 23.0661 15.5466 23.0627 15.4632C23.0561 15.2499 23.0361 15.0366 23.0094 14.8265C22.9794 14.5999 22.9461 14.3732 22.9127 14.1399C23.0227 14.1166 23.1327 14.1566 23.2427 14.1566C23.3561 14.1566 23.4661 14.1632 23.5794 14.1632C23.6927 14.1632 23.8027 14.1632 23.9161 14.1566C24.0261 14.1499 24.1361 14.1399 24.2461 14.1299C24.2794 14.1732 24.2527 14.2099 24.2494 14.2432C24.2461 14.2799 24.2394 14.3166 24.2327 14.3532C24.1761 14.6999 24.1327 15.0499 24.1127 15.3999C24.1127 15.4266 24.1094 15.4532 24.1094 15.4799C24.1094 15.5366 24.1194 15.5499 24.1727 15.5466C24.2994 15.5399 24.4294 15.5332 24.5561 15.5232C24.8761 15.4966 25.1894 15.4466 25.5061 15.3932C25.5427 15.4299 25.5261 15.4766 25.5227 15.5132C25.4927 15.7632 25.4927 16.0132 25.4994 16.2632C25.5027 16.3632 25.5127 16.4666 25.5194 16.5666C25.5227 16.6232 25.5394 16.6832 25.5194 16.7432C25.3661 16.7199 25.2127 16.6932 25.0627 16.6732C24.7727 16.6332 24.4827 16.5966 24.1894 16.5899C24.1227 16.5866 24.1161 16.5966 24.1194 16.6632C24.1227 16.8832 24.1461 17.0999 24.1761 17.3166C24.2027 17.5266 24.2394 17.7366 24.2694 17.9499C24.2627 17.9599 24.2594 17.9766 24.2594 17.9966Z" fill="#FF0000"/>
<path d="M21.6567 3.29695C21.7034 3.27362 21.7367 3.29028 21.7734 3.29695C22.15 3.36362 22.5334 3.40695 22.9167 3.43695C22.95 3.44028 22.98 3.44028 23.0134 3.44028C23.0534 3.44028 23.0734 3.42362 23.07 3.38362C23.0634 3.26695 23.0567 3.15028 23.0467 3.03362C23.02 2.71028 22.9734 2.38695 22.9167 2.06695C22.9167 2.05695 22.92 2.04695 22.9267 2.02695C23.0134 2.02028 23.1034 2.03695 23.19 2.04028C23.28 2.04362 23.37 2.05362 23.46 2.05695C23.5467 2.06028 23.63 2.06028 23.7167 2.05695C23.8067 2.05362 23.8967 2.04362 23.9867 2.04028C24.0767 2.03695 24.1634 2.02028 24.2634 2.03028C24.25 2.11362 24.24 2.18362 24.2267 2.25695C24.17 2.61028 24.1234 2.96362 24.11 3.32028C24.11 3.34695 24.11 3.37362 24.11 3.40028C24.11 3.42695 24.13 3.43695 24.1534 3.43695C24.2 3.43695 24.25 3.43695 24.2967 3.43362C24.6734 3.40028 25.05 3.36362 25.4234 3.29362C25.4434 3.29028 25.4667 3.28695 25.4867 3.28695C25.5134 3.28695 25.5234 3.30028 25.5234 3.32695C25.5234 3.36028 25.52 3.39028 25.5167 3.42362C25.4767 3.78695 25.4767 4.14695 25.5167 4.51028C25.52 4.53695 25.52 4.56362 25.52 4.59028C25.52 4.60028 25.5167 4.61028 25.51 4.62695C25.4734 4.64362 25.43 4.63028 25.39 4.62362C24.9967 4.55028 24.6 4.51362 24.2 4.48362C24.18 4.48362 24.1567 4.48028 24.1367 4.48362C24.1234 4.48695 24.11 4.50362 24.1067 4.51362C24.1034 4.54362 24.1034 4.57695 24.1067 4.61028C24.1234 4.96695 24.1667 5.32028 24.2267 5.67362C24.2367 5.73028 24.2467 5.79028 24.2567 5.84695C24.2634 5.89028 24.2467 5.90695 24.2067 5.90362C23.8767 5.86028 23.5467 5.86695 23.2167 5.88028C23.13 5.88362 23.0467 5.89695 22.9634 5.90362C22.9234 5.90695 22.9067 5.89028 22.9167 5.84695C22.9734 5.53362 23.0167 5.21695 23.0434 4.89695C23.0534 4.77362 23.06 4.65362 23.0634 4.53028C23.0634 4.50028 23.0467 4.48028 23.0134 4.48362C22.87 4.49362 22.7267 4.50028 22.5834 4.51695C22.3134 4.54695 22.0434 4.57695 21.7767 4.63028C21.74 4.63695 21.7034 4.63695 21.66 4.64362C21.64 4.49028 21.6867 4.34695 21.6834 4.19695C21.68 4.04695 21.68 3.89695 21.6834 3.75028C21.6867 3.58695 21.65 3.44028 21.6567 3.29695Z" fill="#FF0000"/>
<path d="M8.41316 3.29292C8.40983 3.51958 8.37983 3.73625 8.37983 3.95292C8.37983 4.17292 8.40983 4.38625 8.41316 4.59958C8.38649 4.63958 8.34983 4.62292 8.32316 4.61958C8.05983 4.57292 7.79649 4.53625 7.53316 4.50958C7.37316 4.49292 7.21316 4.48292 7.05649 4.46958C7.02649 4.46625 7.00316 4.48292 7.00316 4.51292C7.00316 4.56625 7.00316 4.61958 7.00649 4.67292C7.03649 5.04625 7.07649 5.41625 7.14316 5.78292C7.14649 5.80959 7.15316 5.83625 7.15316 5.86292C7.15316 5.87958 7.13983 5.88959 7.12316 5.89292C7.11316 5.89292 7.10316 5.89292 7.08983 5.89292C6.68649 5.84959 6.28316 5.84959 5.87649 5.89292C5.81316 5.89959 5.80316 5.88625 5.81316 5.81959C5.83983 5.63625 5.87316 5.45292 5.89649 5.26625C5.92316 5.02292 5.94316 4.77958 5.96316 4.53292C5.96649 4.48625 5.94649 4.46625 5.89649 4.46958C5.64649 4.49292 5.39649 4.51292 5.14983 4.53958C4.98649 4.55958 4.82316 4.58958 4.65983 4.61292C4.63983 4.61625 4.61649 4.61958 4.59649 4.61958C4.55649 4.62292 4.53649 4.60625 4.54649 4.56292C4.56983 4.41958 4.57316 4.27625 4.57649 4.13292C4.58316 3.87292 4.58316 3.60958 4.54649 3.34958C4.54649 3.34292 4.54649 3.33958 4.54649 3.33292C4.54316 3.28292 4.55983 3.26625 4.61316 3.27625C4.85316 3.32292 5.09649 3.35625 5.33983 3.38292C5.52649 3.40292 5.70983 3.41625 5.89649 3.42958C5.95649 3.43292 5.96983 3.41625 5.96649 3.35292C5.93983 2.95958 5.90316 2.56625 5.82983 2.17958C5.82316 2.13625 5.81649 2.09625 5.81649 2.05292C5.81316 2.02625 5.83316 2.01625 5.85649 2.01625C5.93649 2.01958 6.01649 2.02292 6.09649 2.03292C6.37316 2.05958 6.64983 2.05625 6.92649 2.02958C6.95983 2.02625 6.98983 2.02625 7.02316 2.02292C7.14649 2.01292 7.17316 1.98958 7.14316 2.14958C7.07316 2.52625 7.02983 2.90958 7.00649 3.29292C6.99649 3.44958 6.99649 3.44292 7.15316 3.42958C7.53983 3.40292 7.92649 3.35958 8.30983 3.28958C8.33649 3.28958 8.36649 3.27625 8.41316 3.29292Z" fill="#FF0000"/>
<path d="M5.81645 14.1299C5.97645 14.1399 6.12311 14.1532 6.27311 14.1566C6.41645 14.1599 6.55978 14.1599 6.70645 14.1566C6.85311 14.1532 7.00311 14.1399 7.15978 14.1299C7.14311 14.2299 7.13311 14.3199 7.11645 14.4066C7.06311 14.7232 7.03311 15.0399 7.00645 15.3599C7.00311 15.3799 7.00311 15.4032 7.00311 15.4232C6.99645 15.5532 6.99978 15.5466 7.11978 15.5432C7.48645 15.5266 7.85311 15.4799 8.21645 15.4199C8.27978 15.4099 8.33978 15.4032 8.40978 15.3932C8.41978 15.5499 8.38978 15.6966 8.38645 15.8466C8.38311 15.9966 8.38311 16.1466 8.38645 16.2932C8.38978 16.4399 8.41311 16.5866 8.41311 16.7466C8.31978 16.7332 8.24311 16.7199 8.16645 16.7066C7.82311 16.6499 7.47978 16.6099 7.13311 16.5899C7.09978 16.5866 7.06978 16.5866 7.03645 16.5899C7.00978 16.5899 6.99978 16.6066 6.99978 16.6332C6.99978 16.6866 6.99978 16.7399 7.00645 16.7932C7.03645 17.1666 7.07645 17.5366 7.14645 17.9032C7.14978 17.9232 7.15311 17.9466 7.15645 17.9666C7.15978 17.9932 7.14311 18.0032 7.11645 18.0032C7.07311 18.0032 7.02978 17.9999 6.98978 17.9966C6.65311 17.9599 6.31978 17.9599 5.98311 17.9966C5.92978 18.0032 5.87978 18.0032 5.81645 18.0066C5.80311 17.9532 5.81311 17.9066 5.82311 17.8599C5.89645 17.4666 5.93645 17.0699 5.96311 16.6699C5.96645 16.5999 5.95645 16.5866 5.88311 16.5899C5.69311 16.6032 5.49978 16.6132 5.30978 16.6366C5.07645 16.6632 4.84645 16.7032 4.61311 16.7399C4.54978 16.7499 4.53645 16.7399 4.54645 16.6732C4.58645 16.3666 4.58311 16.0566 4.56978 15.7466C4.56645 15.6599 4.55645 15.5766 4.54978 15.4932C4.54645 15.4632 4.53311 15.4299 4.56311 15.3932C4.62978 15.4032 4.70311 15.4166 4.77645 15.4266C5.13311 15.4832 5.49311 15.5299 5.85645 15.5432C5.88311 15.5432 5.90978 15.5466 5.93645 15.5399C5.94645 15.5366 5.95978 15.5199 5.96311 15.5066C5.96645 15.4966 5.96645 15.4866 5.96311 15.4766C5.93645 15.0832 5.89978 14.6899 5.82645 14.3032C5.81978 14.2499 5.80645 14.1965 5.81645 14.1299Z" fill="#FF0000"/>
</g>
<path d="M0 0V-1H-1V0H0ZM30 0H31V-1H30V0ZM30 20V21H31V20H30ZM0 20H-1V21H0V20ZM0 1H30V-1H0V1ZM29 0V20H31V0H29ZM30 19H0V21H30V19ZM1 20V0H-1V20H1Z" fill="#ECECEC"/>
<defs>
<clipPath id="clip0">
<path d="M0 0H30V20H0V0Z" fill="white"/>
</clipPath>
</defs>
</svg>
