<svg width="30" height="20" viewBox="0 0 30 20" fill="none" xmlns="http://www.w3.org/2000/svg">
<path d="M30 0H0V20H30V0Z" fill="#B22234"/>
<path d="M0 2.30762H30H0ZM30 5.38454H0H30ZM0 8.46146H30H0ZM30 11.5384H0H30ZM0 14.6153H30H0ZM30 17.6922H0H30Z" fill="black"/>
<path d="M30 18.4612H0V16.9227H30V18.4612ZM30 15.3842H0V13.8458H30V15.3842ZM30 12.3073H0V10.7689H30V12.3073ZM30 9.23039H0V7.69193H30V9.23039ZM30 6.15347H0V4.61501H30V6.15347ZM30 3.07655H0V1.53809H30V3.07655Z" fill="white"/>
<path d="M12 0H0V10.7692H12V0Z" fill="#3C3B6E"/>
<path d="M1.00108 0.461914L1.28772 1.57576L0.537109 0.886529H1.46019L0.714437 1.57576L1.00108 0.461914Z" fill="white"/>
<path d="M1.00108 2.61523L1.28772 3.72908L0.537109 3.03985H1.46019L0.712008 3.72908L1.00108 2.61523Z" fill="white"/>
<path d="M1.00036 4.76855L1.287 5.8824L0.538818 5.19317H1.4619L0.713717 5.8824L1.00036 4.76855Z" fill="white"/>
<path d="M1.00036 6.92285L1.287 8.0367L0.538818 7.34747H1.4619L0.713717 8.0367L1.00036 6.92285Z" fill="white"/>
<path d="M1.00036 9.07715L1.287 10.191L0.538818 9.50176H1.4619L0.713717 10.191L1.00036 9.07715Z" fill="white"/>
<path d="M1.99914 1.53809L2.28578 2.65193L1.5376 1.9627H2.46068L1.71493 2.65193L1.99914 1.53809Z" fill="white"/>
<path d="M1.99914 3.69238L2.28578 4.80623L1.5376 4.117H2.46068L1.7125 4.80623L1.99914 3.69238Z" fill="white"/>
<path d="M1.99914 5.8457L2.28578 6.95955L1.5376 6.27032H2.46068L1.7125 6.95955L1.99914 5.8457Z" fill="white"/>
<path d="M1.99914 8L2.28578 9.11385L1.5376 8.42462H2.46068L1.7125 9.11385L1.99914 8Z" fill="white"/>
<path d="M3.0006 0.461914L3.28724 1.57576L2.53906 0.886529H3.46214L2.71396 1.57576L3.0006 0.461914Z" fill="white"/>
<path d="M3.0006 2.61523L3.28724 3.72908L2.53906 3.03985H3.46214L2.71396 3.72908L3.0006 2.61523Z" fill="white"/>
<path d="M3.0006 4.76855L3.28724 5.8824L2.53906 5.19317H3.46214L2.71396 5.8824L3.0006 4.76855Z" fill="white"/>
<path d="M3.0006 6.92285L3.28724 8.0367L2.53906 7.34747H3.46214L2.71396 8.0367L3.0006 6.92285Z" fill="white"/>
<path d="M3.0006 9.07715L3.28724 10.191L2.53906 9.50176H3.46214L2.71396 10.191L3.0006 9.07715Z" fill="white"/>
<path d="M4.00158 1.53809L4.28822 2.65193L3.54004 1.9627H4.46312L3.71494 2.65193L4.00158 1.53809Z" fill="white"/>
<path d="M4.00158 3.69238L4.28822 4.80623L3.54004 4.117H4.46312L3.71494 4.80623L4.00158 3.69238Z" fill="white"/>
<path d="M4.00158 5.8457L4.28822 6.95955L3.54004 6.27032H4.46312L3.71494 6.95955L4.00158 5.8457Z" fill="white"/>
<path d="M4.00158 8L4.28822 9.11385L3.54004 8.42462H4.46312L3.71494 9.11385L4.00158 8Z" fill="white"/>
<path d="M4.99962 0.461914L5.28626 1.57576L4.53809 0.886529H5.46116L4.71298 1.57576L4.99962 0.461914Z" fill="white"/>
<path d="M4.99962 2.61523L5.28626 3.72908L4.53809 3.03985H5.46116L4.71298 3.72908L4.99962 2.61523Z" fill="white"/>
<path d="M4.99962 4.76855L5.28626 5.8824L4.53809 5.19317H5.46116L4.71298 5.8824L4.99962 4.76855Z" fill="white"/>
<path d="M4.99962 6.92285L5.28626 8.0367L4.53809 7.34747H5.46116L4.71298 8.0367L4.99962 6.92285Z" fill="white"/>
<path d="M4.99962 9.07715L5.28626 10.191L4.53809 9.50176H5.46116L4.71298 10.191L4.99962 9.07715Z" fill="white"/>
<path d="M5.99914 1.53809L6.28577 2.65193L5.5376 1.9627H6.46067L5.7125 2.65193L5.99914 1.53809Z" fill="white"/>
<path d="M5.99914 3.69238L6.28577 4.80623L5.5376 4.117H6.46067L5.7125 4.80623L5.99914 3.69238Z" fill="white"/>
<path d="M5.99914 5.8457L6.28577 6.95955L5.5376 6.27032H6.46067L5.7125 6.95955L5.99914 5.8457Z" fill="white"/>
<path d="M5.99914 8L6.28577 9.11385L5.5376 8.42462H6.46067L5.7125 9.11385L5.99914 8Z" fill="white"/>
<path d="M7.00109 0.461914L7.28773 1.57576L6.53955 0.886529H7.46263L6.71445 1.57576L7.00109 0.461914Z" fill="white"/>
<path d="M7.00109 2.61523L7.28773 3.72908L6.53955 3.03985H7.46263L6.71445 3.72908L7.00109 2.61523Z" fill="white"/>
<path d="M7.00109 4.76855L7.28773 5.8824L6.53955 5.19317H7.46263L6.71445 5.8824L7.00109 4.76855Z" fill="white"/>
<path d="M7.00109 6.92285L7.28773 8.0367L6.53955 7.34747H7.46263L6.71445 8.0367L7.00109 6.92285Z" fill="white"/>
<path d="M7.00109 9.07715L7.28773 10.191L6.53955 9.50176H7.46263L6.71445 10.191L7.00109 9.07715Z" fill="white"/>
<path d="M7.99914 1.53809L8.28578 2.65193L7.5376 1.9627H8.46068L7.7125 2.65193L7.99914 1.53809Z" fill="white"/>
<path d="M7.99914 3.69238L8.28578 4.80623L7.5376 4.117H8.46068L7.7125 4.80623L7.99914 3.69238Z" fill="white"/>
<path d="M7.99914 5.8457L8.28578 6.95955L7.5376 6.27032H8.46068L7.7125 6.95955L7.99914 5.8457Z" fill="white"/>
<path d="M7.99914 8L8.28578 9.11385L7.5376 8.42462H8.46068L7.7125 9.11385L7.99914 8Z" fill="white"/>
<path d="M8.99963 0.461914L9.28627 1.57576L8.53809 0.886529H9.46117L8.71299 1.57576L8.99963 0.461914Z" fill="white"/>
<path d="M8.99963 2.61523L9.28627 3.72908L8.53809 3.03985H9.46117L8.71299 3.72908L8.99963 2.61523Z" fill="white"/>
<path d="M8.99963 4.76855L9.28627 5.8824L8.53809 5.19317H9.46117L8.71299 5.8824L8.99963 4.76855Z" fill="white"/>
<path d="M8.99963 6.92285L9.28627 8.0367L8.53809 7.34747H9.46117L8.71299 8.0367L8.99963 6.92285Z" fill="white"/>
<path d="M8.99963 9.07715L9.28627 10.191L8.53809 9.50176H9.46117L8.71299 10.191L8.99963 9.07715Z" fill="white"/>
<path d="M10.0001 1.53809L10.2868 2.65193L9.53857 1.9627H10.4617L9.71347 2.65193L10.0001 1.53809Z" fill="white"/>
<path d="M10.0001 3.69238L10.2868 4.80623L9.53857 4.117H10.4617L9.71347 4.80623L10.0001 3.69238Z" fill="white"/>
<path d="M10.0001 5.8457L10.2868 6.95955L9.53857 6.27032H10.4617L9.71347 6.95955L10.0001 5.8457Z" fill="white"/>
<path d="M10.0001 8L10.2868 9.11385L9.53857 8.42462H10.4617L9.71347 9.11385L10.0001 8Z" fill="white"/>
<path d="M10.9986 0.461914L11.2853 1.57576L10.5371 0.886529H11.4602L10.712 1.57576L10.9986 0.461914Z" fill="white"/>
<path d="M10.9986 2.61523L11.2853 3.72908L10.5371 3.03985H11.4602L10.712 3.72908L10.9986 2.61523Z" fill="white"/>
<path d="M10.9986 4.76855L11.2853 5.8824L10.5371 5.19317H11.4602L10.712 5.8824L10.9986 4.76855Z" fill="white"/>
<path d="M10.9986 6.92285L11.2853 8.0367L10.5371 7.34747H11.4602L10.712 8.0367L10.9986 6.92285Z" fill="white"/>
<path d="M10.9986 9.07715L11.2853 10.191L10.5371 9.50176H11.4602L10.712 10.191L10.9986 9.07715Z" fill="white"/>
</svg>
