<svg width="26" height="26" viewBox="0 0 26 26" fill="none" xmlns="http://www.w3.org/2000/svg">
<path d="M13 24.375C9.98316 24.375 7.08989 23.1766 4.95666 21.0433C2.82343 18.9101 1.625 16.0168 1.625 13C1.625 9.98316 2.82343 7.08989 4.95666 4.95666C7.08989 2.82343 9.98316 1.625 13 1.625C16.0168 1.625 18.9101 2.82343 21.0433 4.95666C23.1766 7.08989 24.375 9.98316 24.375 13C24.375 16.0168 23.1766 18.9101 21.0433 21.0433C18.9101 23.1766 16.0168 24.375 13 24.375ZM13 26C16.4478 26 19.7544 24.6304 22.1924 22.1924C24.6304 19.7544 26 16.4478 26 13C26 9.55219 24.6304 6.24558 22.1924 3.80761C19.7544 1.36964 16.4478 0 13 0C9.55219 0 6.24558 1.36964 3.80761 3.80761C1.36964 6.24558 0 9.55219 0 13C0 16.4478 1.36964 19.7544 3.80761 22.1924C6.24558 24.6304 9.55219 26 13 26Z" fill="#DD0000"/>
<path d="M6.96482 20.2036C7.15143 20.3114 7.3732 20.3406 7.58134 20.2848C7.78949 20.229 7.96695 20.0929 8.0747 19.9063C8.57375 19.0412 9.29191 18.3229 10.1569 17.8237C11.0218 17.3244 12.003 17.0619 13.0017 17.0625C15.1061 17.0625 16.9439 18.2049 17.9287 19.9063C18.0372 20.0913 18.2145 20.226 18.422 20.2808C18.6294 20.3357 18.8501 20.3063 19.0359 20.199C19.2217 20.0917 19.3575 19.9153 19.4137 19.7082C19.47 19.5012 19.442 19.2803 19.3359 19.0938C18.6943 17.9817 17.771 17.0582 16.659 16.4164C15.547 15.7745 14.2856 15.4369 13.0017 15.4375C11.7178 15.4372 10.4565 15.775 9.34463 16.4168C8.23272 17.0586 7.30937 17.9819 6.66745 19.0938C6.55971 19.2804 6.53051 19.5021 6.58628 19.7103C6.64205 19.9184 6.77821 20.0959 6.96482 20.2036ZM11.3767 10.5625C11.3767 11.908 10.6487 13 9.7517 13C8.8547 13 8.1267 11.908 8.1267 10.5625C8.1267 9.217 8.8547 8.125 9.7517 8.125C10.6487 8.125 11.3767 9.217 11.3767 10.5625ZM17.8767 10.5625C17.8767 11.908 17.1487 13 16.2517 13C15.3547 13 14.6267 11.908 14.6267 10.5625C14.6267 9.217 15.3547 8.125 16.2517 8.125C17.1487 8.125 17.8767 9.217 17.8767 10.5625Z" fill="#DD0000"/>
</svg>
