<svg width="26" height="26" viewBox="0 0 26 26" fill="none" xmlns="http://www.w3.org/2000/svg">
<path d="M13 24.375C9.98316 24.375 7.08989 23.1766 4.95666 21.0433C2.82343 18.9101 1.625 16.0168 1.625 13C1.625 9.98316 2.82343 7.08989 4.95666 4.95666C7.08989 2.82343 9.98316 1.625 13 1.625C16.0168 1.625 18.9101 2.82343 21.0433 4.95666C23.1766 7.08989 24.375 9.98316 24.375 13C24.375 16.0168 23.1766 18.9101 21.0433 21.0433C18.9101 23.1766 16.0168 24.375 13 24.375ZM13 26C16.4478 26 19.7544 24.6304 22.1924 22.1924C24.6304 19.7544 26 16.4478 26 13C26 9.55219 24.6304 6.24558 22.1924 3.80761C19.7544 1.36964 16.4478 0 13 0C9.55219 0 6.24558 1.36964 3.80761 3.80761C1.36964 6.24558 0 9.55219 0 13C0 16.4478 1.36964 19.7544 3.80761 22.1924C6.24558 24.6304 9.55219 26 13 26Z" fill="#28C76F"/>
<path d="M6.96482 15.5464C7.15143 15.4386 7.3732 15.4094 7.58134 15.4652C7.78949 15.521 7.96695 15.6571 8.0747 15.8437C8.57375 16.7088 9.29191 17.4271 10.1569 17.9263C11.0218 18.4256 12.003 18.6881 13.0017 18.6875C14.0004 18.6881 14.9816 18.4256 15.8465 17.9263C16.7115 17.4271 17.4296 16.7088 17.9287 15.8437C17.9817 15.7506 18.0525 15.6688 18.1372 15.6032C18.2219 15.5375 18.3187 15.4893 18.4221 15.4612C18.5255 15.4331 18.6335 15.4258 18.7397 15.4396C18.846 15.4534 18.9485 15.4881 19.0413 15.5417C19.1341 15.5953 19.2154 15.6667 19.2804 15.7518C19.3455 15.8369 19.3931 15.9341 19.4205 16.0377C19.4479 16.1412 19.4545 16.2492 19.44 16.3554C19.4255 16.4616 19.3901 16.5638 19.3359 16.6562C18.6943 17.7683 17.771 18.6918 16.659 19.3336C15.547 19.9755 14.2856 20.3131 13.0017 20.3125C11.7178 20.3131 10.4564 19.9755 9.34438 19.3336C8.23241 18.6918 7.30912 17.7683 6.66745 16.6562C6.55971 16.4696 6.53051 16.2479 6.58628 16.0397C6.64205 15.8316 6.77821 15.6541 6.96482 15.5464ZM11.3767 10.5625C11.3767 11.908 10.6487 13 9.7517 13C8.8547 13 8.1267 11.908 8.1267 10.5625C8.1267 9.217 8.8547 8.125 9.7517 8.125C10.6487 8.125 11.3767 9.217 11.3767 10.5625ZM17.8767 10.5625C17.8767 11.908 17.1487 13 16.2517 13C15.3547 13 14.6267 11.908 14.6267 10.5625C14.6267 9.217 15.3547 8.125 16.2517 8.125C17.1487 8.125 17.8767 9.217 17.8767 10.5625Z" fill="#28C76F"/>
</svg>
