<svg width="26" height="26" viewBox="0 0 26 26" fill="none" xmlns="http://www.w3.org/2000/svg">
<path d="M13 24.375C9.98316 24.375 7.08989 23.1766 4.95666 21.0433C2.82343 18.9101 1.625 16.0168 1.625 13C1.625 9.98316 2.82343 7.08989 4.95666 4.95666C7.08989 2.82343 9.98316 1.625 13 1.625C16.0168 1.625 18.9101 2.82343 21.0433 4.95666C23.1766 7.08989 24.375 9.98316 24.375 13C24.375 16.0168 23.1766 18.9101 21.0433 21.0433C18.9101 23.1766 16.0168 24.375 13 24.375ZM13 26C16.4478 26 19.7544 24.6304 22.1924 22.1924C24.6304 19.7544 26 16.4478 26 13C26 9.55219 24.6304 6.24558 22.1924 3.80761C19.7544 1.36964 16.4478 0 13 0C9.55219 0 6.24558 1.36964 3.80761 3.80761C1.36964 6.24558 0 9.55219 0 13C0 16.4478 1.36964 19.7544 3.80761 22.1924C6.24558 24.6304 9.55219 26 13 26Z" fill="#EEC000"/>
<path d="M6.5 17.0625C6.5 17.278 6.5856 17.4847 6.73798 17.637C6.89035 17.7894 7.09701 17.875 7.3125 17.875H18.6875C18.903 17.875 19.1097 17.7894 19.262 17.637C19.4144 17.4847 19.5 17.278 19.5 17.0625C19.5 16.847 19.4144 16.6403 19.262 16.488C19.1097 16.3356 18.903 16.25 18.6875 16.25H7.3125C7.09701 16.25 6.89035 16.3356 6.73798 16.488C6.5856 16.6403 6.5 16.847 6.5 17.0625ZM11.375 10.5625C11.375 9.217 10.647 8.125 9.75 8.125C8.853 8.125 8.125 9.217 8.125 10.5625C8.125 11.908 8.853 13 9.75 13C10.647 13 11.375 11.908 11.375 10.5625ZM17.875 10.5625C17.875 9.217 17.147 8.125 16.25 8.125C15.353 8.125 14.625 9.217 14.625 10.5625C14.625 11.908 15.353 13 16.25 13C17.147 13 17.875 11.908 17.875 10.5625Z" fill="#EEC000"/>
</svg>
