<svg width="34" height="34" viewBox="0 0 34 34" fill="none" xmlns="http://www.w3.org/2000/svg">
<path d="M16.0897 4.24877C16.02 4.30904 15.9442 4.36127 15.9203 4.36529C15.8983 4.36931 15.8046 4.34721 15.7169 4.31506C15.5853 4.27087 15.5435 4.26484 15.4996 4.28091C15.4657 4.29498 15.4338 4.29498 15.4099 4.28091C15.3501 4.24877 15.3182 4.25681 15.2943 4.31105C15.2763 4.34721 15.2564 4.36127 15.2125 4.36127C15.1747 4.36127 15.1428 4.37734 15.1228 4.40547L15.0929 4.44966L14.9972 4.39743C14.9115 4.35123 14.8716 4.3452 14.6184 4.33515L14.3354 4.32511L14.2696 4.38939C14.2038 4.45368 14.1978 4.45569 13.9845 4.46573C13.7233 4.47779 13.6236 4.51395 13.6037 4.59631C13.5798 4.69475 13.5578 4.7068 13.4422 4.69274C13.2807 4.67265 13.1412 4.72087 13.0136 4.84341C12.9259 4.92779 12.896 4.94386 12.8322 4.94386C12.7903 4.94386 12.7245 4.92979 12.6826 4.91171C12.5949 4.87555 12.3577 4.88962 12.2321 4.93984C12.1623 4.96796 12.1504 4.96796 12.0905 4.93582C12.0547 4.91573 11.9829 4.85145 11.9311 4.79118C11.8812 4.73091 11.8234 4.6827 11.8035 4.6827C11.7536 4.6827 11.7058 4.76105 11.6898 4.86752C11.6699 5.00212 11.4466 5.36774 11.329 5.45814C11.2512 5.5164 11.01 5.61685 10.8665 5.64698C10.7568 5.67109 10.6292 5.72332 10.5814 5.7635C10.5375 5.79966 10.5355 5.86997 10.5734 5.9443C10.5973 5.99251 10.5973 6.02064 10.5754 6.1251C10.5614 6.19542 10.5355 6.26774 10.5176 6.28783C10.4737 6.33604 10.4777 6.46662 10.5256 6.54095C10.5834 6.62934 10.5794 6.76796 10.5156 6.85434C10.4897 6.89251 10.4418 6.95881 10.4119 7.00501C10.3242 7.13358 10.085 7.34854 9.96535 7.40479C9.90554 7.4309 9.8238 7.45501 9.78194 7.45501C9.65036 7.45501 9.57261 7.50122 9.52675 7.6097C9.40714 7.89095 9.35929 7.96126 9.19581 8.07778C9.07221 8.16617 9.02636 8.27063 9.0124 8.49965L9.00044 8.68849L8.93465 8.70858C8.89677 8.71862 8.85092 8.75478 8.827 8.78893C8.80307 8.82309 8.75921 8.87733 8.72931 8.91148C8.6994 8.94362 8.64757 9.04608 8.61368 9.13648C8.52397 9.38558 8.47811 9.46594 8.37245 9.56438C8.29271 9.63871 8.27476 9.67085 8.2628 9.7492C8.24287 9.88581 8.2947 10.0304 8.40435 10.1389C8.45818 10.1912 8.49207 10.2414 8.49207 10.2715C8.49207 10.2956 8.49805 10.3499 8.50403 10.39C8.514 10.4523 8.50802 10.4724 8.45419 10.5267C8.40634 10.5749 8.39438 10.603 8.40236 10.6351C8.41631 10.6833 8.52596 10.7979 8.57381 10.8139C8.59773 10.822 8.59773 10.83 8.57381 10.8762C8.55387 10.9124 8.54988 10.9626 8.55985 11.059C8.57381 11.1775 8.56982 11.1976 8.51998 11.284C8.46017 11.3865 8.43425 11.497 8.41432 11.7441L8.40236 11.9048L8.30666 11.967C8.15913 12.0635 8.11328 12.1157 8.11328 12.18C8.11328 12.2563 8.14319 12.3126 8.22492 12.3889C8.28872 12.4492 8.29271 12.4592 8.29271 12.5938C8.29271 12.6722 8.28274 12.7827 8.27078 12.8369C8.2329 13.0197 8.32062 13.1603 8.48808 13.1865C8.61368 13.2086 8.66551 13.2608 8.68146 13.3914C8.69342 13.4938 8.6994 13.5059 8.76121 13.53C8.81503 13.5541 8.84095 13.5882 8.89877 13.7068C8.93664 13.7871 8.97054 13.8715 8.97452 13.8936C8.97851 13.9217 8.99845 13.9358 9.03832 13.9398C9.0742 13.9438 9.13202 13.986 9.20379 14.0563C9.31144 14.1648 9.31144 14.1668 9.28951 14.2371C9.24964 14.3557 9.27755 14.43 9.41112 14.5606C9.47691 14.6249 9.55068 14.7112 9.5746 14.7534C9.60251 14.8036 9.6364 14.8338 9.67627 14.8438C9.72213 14.8559 9.74406 14.878 9.76001 14.9242C9.7919 15.0226 9.95737 15.1793 10.1388 15.2818C10.3302 15.3903 10.4338 15.4907 10.4697 15.6012C10.4937 15.6735 10.5036 15.6815 10.5694 15.6876C10.6232 15.6916 10.6512 15.7077 10.6671 15.7378C10.697 15.7961 10.7229 15.8121 10.7847 15.8121C10.8126 15.8121 10.8645 15.8302 10.9004 15.8523C10.9362 15.8744 10.9781 15.8925 10.996 15.8925C11.0279 15.8925 11.2333 15.792 11.3409 15.7217C11.3848 15.6936 11.4606 15.6715 11.5323 15.6635C11.6081 15.6554 11.6739 15.6353 11.7118 15.6072C11.7855 15.551 11.9091 15.5409 12.1822 15.567C12.4115 15.5891 12.5511 15.6374 12.6428 15.7257L12.6966 15.776L12.7584 15.7318C12.7943 15.7057 12.8621 15.6775 12.9119 15.6695C12.9598 15.6594 13.0375 15.6253 13.0834 15.5932C13.1292 15.561 13.203 15.5249 13.2448 15.5148C13.2867 15.5028 13.3425 15.4726 13.3665 15.4505C13.4003 15.4184 13.4582 15.4003 13.5877 15.3842C13.7492 15.3621 13.7652 15.3561 13.7751 15.3099C13.7851 15.2677 13.805 15.2577 13.9147 15.2376C14.0483 15.2115 14.6743 15.2034 14.7819 15.2275C14.8238 15.2356 14.8437 15.2536 14.8477 15.2858C14.8517 15.3139 14.8816 15.344 14.9294 15.3702C15.0072 15.4083 15.1089 15.5128 15.1129 15.557C15.1149 15.5711 15.1168 15.6293 15.1188 15.6896C15.1208 15.7719 15.1308 15.8041 15.1607 15.8262C15.2743 15.9065 15.3561 15.9528 15.384 15.9528C15.4019 15.9528 15.4737 15.9206 15.5435 15.8824C15.6651 15.8161 15.679 15.8121 15.8664 15.8121H16.0638L16.1854 15.9447C16.3629 16.1416 16.4147 16.2581 16.4227 16.4952C16.4286 16.6539 16.4227 16.7222 16.3808 16.8789C16.3529 16.9833 16.325 17.1219 16.317 17.1882C16.309 17.2545 16.2811 17.3771 16.2532 17.4594C16.2253 17.5418 16.1994 17.6684 16.1934 17.7407C16.1814 17.8954 16.2233 18.0159 16.3569 18.2128C16.4027 18.2791 16.4645 18.3755 16.4944 18.4277C16.5223 18.48 16.5921 18.5744 16.6479 18.6387C16.7018 18.701 16.7516 18.7733 16.7556 18.7994C16.7616 18.8255 16.7696 18.8657 16.7755 18.8918C16.7815 18.9199 16.8094 18.9501 16.8493 18.9681C16.8932 18.9862 16.9171 19.0123 16.9211 19.0465C16.9251 19.0746 16.945 19.1148 16.9649 19.1369C17.0447 19.2273 17.1244 19.378 17.1244 19.4422C17.1244 19.4945 17.1364 19.5146 17.1743 19.5327C17.2022 19.5447 17.2241 19.5608 17.2241 19.5688C17.2241 19.5768 17.2022 19.5989 17.1743 19.617C17.1065 19.6612 17.1105 19.6994 17.2042 19.838C17.248 19.9023 17.2839 19.9766 17.2839 20.0027C17.2839 20.0268 17.3238 20.1313 17.3736 20.2338C17.4753 20.4427 17.4813 20.4889 17.4215 20.5853C17.3557 20.6958 17.3637 20.8003 17.4574 21.0052C17.5012 21.1036 17.559 21.2443 17.5829 21.3166C17.6567 21.5255 17.6168 21.632 17.4215 21.7485C17.3377 21.7987 17.26 21.9494 17.248 22.086C17.244 22.1442 17.2241 22.2065 17.2081 22.2266C17.1882 22.2487 17.1683 22.3391 17.1523 22.4717C17.1324 22.6485 17.1204 22.6947 17.0686 22.773C17.0347 22.8253 17.0028 22.9056 16.9968 22.9518C16.933 23.5063 16.9211 23.7956 16.951 23.9161C16.9609 23.9483 17.0108 24.0166 17.0626 24.0668C17.1304 24.1331 17.1683 24.1913 17.1942 24.2697C17.2121 24.33 17.248 24.4023 17.2739 24.4304C17.3298 24.4947 17.3955 24.6554 17.4135 24.7719C17.4374 24.9447 17.4873 25.0532 17.6228 25.246C17.7743 25.459 17.7943 25.5152 17.7644 25.6297C17.7305 25.7523 17.7385 25.8768 17.7943 26.0596C17.8361 26.2023 17.8441 26.2525 17.8341 26.3791C17.8242 26.5016 17.8302 26.5538 17.8621 26.6442C17.884 26.7085 17.9019 26.7889 17.9019 26.823C17.9019 26.9375 17.9677 27.2529 18.0056 27.3233C18.1172 27.5282 18.177 27.6145 18.2309 27.6447C18.3146 27.6909 18.4262 27.9681 18.4223 28.1228C18.4203 28.2494 18.4741 28.394 18.5399 28.4282C18.5638 28.4402 18.6057 28.4985 18.6336 28.5547C18.6595 28.613 18.7034 28.6893 18.7313 28.7275C18.7691 28.7797 18.7791 28.8219 18.7791 28.9083C18.7791 29.0469 18.7672 29.067 18.6794 29.075C18.6316 29.079 18.6077 29.0931 18.6037 29.1172C18.5877 29.1956 18.6236 29.296 18.6914 29.3703C18.7672 29.4547 18.7751 29.4949 18.7273 29.5351C18.6974 29.5592 18.6994 29.5652 18.7392 29.5974C18.7632 29.6174 18.817 29.6395 18.8589 29.6456C18.9147 29.6556 18.9605 29.6837 19.0303 29.7561C19.0841 29.8103 19.142 29.8545 19.1579 29.8545C19.1758 29.8545 19.2297 29.8284 19.2795 29.7962C19.3632 29.74 19.5327 29.6938 19.6982 29.6837C19.738 29.6797 19.7998 29.6576 19.8337 29.6315C19.8756 29.5994 19.9175 29.5873 19.9653 29.5913C20.0969 29.6014 20.2046 29.5974 20.3022 29.5833C20.362 29.5732 20.4498 29.5773 20.5315 29.5933C20.6651 29.6174 20.6671 29.6174 20.8146 29.5511C20.9223 29.5009 20.988 29.4849 21.0618 29.4869C21.1435 29.4889 21.1715 29.4788 21.2253 29.4306C21.2771 29.3864 21.309 29.3744 21.3688 29.3764C21.4326 29.3784 21.4645 29.3643 21.5423 29.3C21.7277 29.1453 22.0108 28.8601 22.0586 28.7777C22.0985 28.7094 22.1224 28.6913 22.1962 28.6712C22.26 28.6552 22.2998 28.629 22.3337 28.5828C22.5331 28.3076 22.6786 28.0866 22.7763 27.9099C22.868 27.7471 22.9019 27.7029 22.9438 27.6929C23.0395 27.6728 23.0455 27.6668 23.0455 27.6025C23.0455 27.5663 23.0754 27.482 23.1132 27.4157C23.187 27.2791 23.2408 27.0641 23.2647 26.807C23.2787 26.6422 23.2827 26.6342 23.3644 26.5498C23.4681 26.4433 23.6336 26.3529 23.7871 26.3208C23.8748 26.3027 23.9246 26.2766 23.9964 26.2103L24.0921 26.1239L24.0941 25.9351C24.0961 25.8145 24.108 25.7141 24.128 25.6579C24.1718 25.5433 24.1699 25.4911 24.122 25.3927C24.0941 25.3384 24.0841 25.2922 24.0921 25.248C24.1001 25.2038 24.0921 25.1536 24.0642 25.0933C24.0423 25.0431 24.0223 24.9728 24.0223 24.9367C24.0223 24.8925 24.0064 24.8583 23.9725 24.8282C23.8628 24.7317 23.9366 24.561 24.1021 24.5308C24.2655 24.5007 24.2974 24.4786 24.3234 24.3902C24.3433 24.3259 24.3852 24.2717 24.5068 24.1632C24.5925 24.0849 24.7081 23.9643 24.762 23.894C24.8716 23.7514 25.0032 23.665 25.1667 23.6288C25.2544 23.6088 25.3042 23.5786 25.4338 23.4641C25.5993 23.3195 25.6152 23.2954 25.6272 23.1728C25.6312 23.1166 25.6611 23.0724 25.7627 22.9679C25.9362 22.7851 25.9641 22.7268 25.9462 22.5842C25.9382 22.5219 25.9342 22.3773 25.9362 22.2608C25.9482 21.5777 25.9501 21.5476 25.984 21.4793C26.0299 21.3909 26.0119 21.3266 25.9202 21.2684C25.7249 21.1418 25.6372 21.0072 25.6372 20.8304C25.6372 20.7882 25.6192 20.7159 25.5993 20.6697C25.5773 20.6215 25.5514 20.515 25.5395 20.4326C25.5155 20.2739 25.5275 20.1916 25.5853 20.1072C25.6491 20.0168 25.6152 19.8922 25.4996 19.7818C25.4278 19.7114 25.4218 19.6572 25.4777 19.5487C25.5255 19.4523 25.5753 19.4242 25.695 19.4202C25.7867 19.4181 25.7867 19.4181 25.7927 19.3438C25.8006 19.2454 25.7707 19.1931 25.697 19.1771C25.6272 19.161 25.6232 19.1409 25.675 19.0726C25.697 19.0465 25.7209 18.9822 25.7269 18.93C25.7528 18.717 25.7588 18.703 25.8485 18.6126C25.8963 18.5623 25.9362 18.5101 25.9362 18.494C25.9362 18.48 25.994 18.4056 26.0658 18.3313C26.1375 18.257 26.1954 18.1806 26.1954 18.1626C26.1954 18.1244 26.3728 17.9155 26.5223 17.7809C26.5761 17.7306 26.6559 17.6362 26.6997 17.5699C26.8572 17.3329 27.3018 16.905 27.5211 16.7784C27.6786 16.688 27.7524 16.6157 27.8002 16.5052C27.8341 16.4289 27.8959 16.3565 28.0434 16.2199C28.2468 16.0311 28.2787 15.9809 28.3365 15.7719C28.3564 15.6996 28.4003 15.6193 28.4641 15.5409C28.5897 15.3842 28.6116 15.342 28.6296 15.2175C28.6375 15.1592 28.6575 15.0829 28.6754 15.0467C28.6914 15.0086 28.7193 14.9382 28.7372 14.892C28.7731 14.7836 28.9466 14.4702 29.0422 14.3396C29.1359 14.209 29.1639 14.1226 29.1658 13.9539C29.1658 13.8715 29.1798 13.7932 29.1958 13.763C29.2117 13.7349 29.2237 13.6766 29.2237 13.6324C29.2237 13.5882 29.2117 13.53 29.1958 13.5019C29.1798 13.4737 29.1678 13.4235 29.1658 13.3894C29.1658 13.3271 29.114 13.2608 29.0682 13.2608C29.0542 13.2608 29.0103 13.2829 28.9705 13.311C28.8429 13.3994 28.5897 13.4878 28.504 13.4737C28.4541 13.4657 28.3983 13.4737 28.3285 13.5019C28.2727 13.524 28.185 13.542 28.1312 13.542C28.0474 13.542 28.0255 13.5521 27.9617 13.6144L27.8859 13.6887L27.7245 13.6766C27.5809 13.6646 27.543 13.6686 27.3776 13.7228C27.1623 13.7932 27.0147 13.8012 26.9669 13.747C26.9489 13.7269 26.919 13.6646 26.9011 13.6063C26.8572 13.4737 26.8154 13.4336 26.7137 13.4376C26.6559 13.4396 26.63 13.4316 26.616 13.4054C26.5881 13.3532 26.626 13.301 26.6918 13.301C26.7655 13.301 26.8014 13.2568 26.7835 13.1865C26.7775 13.1543 26.7655 13.0961 26.7596 13.0539C26.7516 12.9896 26.7376 12.9715 26.6838 12.9474C26.6459 12.9333 26.61 12.8992 26.6021 12.8751C26.5941 12.849 26.5622 12.7907 26.5323 12.7445C26.5004 12.6983 26.4745 12.6521 26.4745 12.642C26.4745 12.6079 26.4047 12.5617 26.315 12.5376C26.2651 12.5255 26.2113 12.5115 26.1914 12.5054C26.1734 12.4994 26.1455 12.4612 26.1296 12.4211C26.0997 12.3467 25.9541 12.2061 25.8265 12.1258C25.7946 12.1037 25.7328 12.0575 25.691 12.0213C25.6511 11.9851 25.6053 11.955 25.5893 11.955C25.5415 11.955 25.4737 11.8505 25.4856 11.7943C25.5016 11.7159 25.3959 11.28 25.3142 11.0912C25.2484 10.9365 25.2444 10.9304 25.1766 10.9304C25.1268 10.9304 25.1168 10.9204 25.1068 10.8702C25.0969 10.824 25.0829 10.8099 25.049 10.8099C24.9095 10.8099 24.8198 10.611 24.8198 10.3017C24.8198 10.0686 24.7958 9.96014 24.6962 9.74116C24.5925 9.52018 24.5147 9.4117 24.445 9.39764C24.3114 9.36951 24.2137 9.19875 24.2616 9.07219C24.2735 9.04206 24.2815 8.99384 24.2815 8.9617C24.2815 8.9155 24.2715 8.89943 24.2317 8.88938C24.1778 8.87532 24.1419 8.8271 24.1419 8.76483C24.1419 8.71661 23.9924 8.42532 23.9326 8.35903C23.9067 8.3309 23.8728 8.28068 23.8569 8.24653C23.8389 8.21438 23.7891 8.14809 23.7452 8.10389C23.6655 8.02554 23.6635 8.01751 23.6635 7.88693C23.6635 7.76238 23.6595 7.74831 23.6017 7.7001C23.3565 7.48313 23.0973 6.99296 23.183 6.90055C23.193 6.8905 23.1571 6.78604 23.0933 6.64541C23.0335 6.51483 22.9856 6.40033 22.9856 6.39229C22.9856 6.38225 23.0096 6.37823 23.0415 6.38225C23.1212 6.3943 23.0793 6.37823 22.8421 6.30992C22.6208 6.24564 22.5869 6.24765 22.5291 6.31796C22.5152 6.33403 22.4773 6.35412 22.4434 6.36015C22.4035 6.37019 22.3696 6.39832 22.3437 6.44251C22.3218 6.48068 22.2879 6.52086 22.2679 6.53091C22.2141 6.55903 22.1104 6.55501 21.9948 6.52086C21.939 6.50479 21.8453 6.48068 21.7875 6.47064C21.7277 6.45858 21.6539 6.43046 21.624 6.40836C21.5921 6.38425 21.4884 6.3501 21.3848 6.33001C21.2831 6.30992 21.1854 6.28582 21.1675 6.27979C21.1455 6.27175 21.1256 6.27979 21.1077 6.30792C21.0678 6.3722 21.0379 6.36015 20.9701 6.24966C20.9382 6.19542 20.8943 6.1472 20.8764 6.14117C20.8585 6.13716 20.7388 6.12711 20.6132 6.11908C20.3182 6.10301 20.3142 6.101 20.3142 6.02064C20.3142 5.94229 20.2644 5.88805 20.1727 5.86997C20.1288 5.86193 20.0969 5.83783 20.075 5.79765C20.0251 5.70524 19.9394 5.70524 19.8377 5.79765C19.7839 5.84586 19.7161 5.88202 19.6264 5.90814C19.4689 5.95435 19.447 5.97042 19.4171 6.05881C19.3991 6.11305 19.4031 6.14519 19.437 6.24162C19.4589 6.30591 19.4769 6.38024 19.4769 6.40635C19.4769 6.49274 19.4151 6.59117 19.3274 6.6414C19.2117 6.7097 19.142 6.70568 19.0263 6.62131C18.825 6.47466 18.815 6.47064 18.6854 6.47064C18.5678 6.47064 18.4761 6.44452 18.2269 6.34006C18.1511 6.30591 18.0754 6.20747 18.0415 6.09899C17.9896 5.93426 17.9558 5.91015 17.7265 5.89408C17.5829 5.88202 17.569 5.87801 17.5072 5.81171C17.4494 5.75144 17.4175 5.73738 17.2979 5.71528C17.2181 5.70122 17.1144 5.68917 17.0646 5.68716C16.9131 5.68515 16.8274 5.65301 16.7815 5.57466C16.7397 5.50435 16.7157 5.4943 16.6679 5.52444C16.6479 5.5385 16.62 5.52845 16.5802 5.4943C16.5483 5.46819 16.5164 5.44609 16.5064 5.44609C16.4984 5.44609 16.4805 5.41997 16.4665 5.38783C16.4326 5.30345 16.4745 5.2231 16.5662 5.19296C16.6101 5.1789 16.642 5.15078 16.6559 5.11662C16.6679 5.0885 16.6978 5.04631 16.7217 5.02421C16.7955 4.95591 16.7815 4.85747 16.6858 4.76305C16.616 4.69475 16.6061 4.67265 16.6061 4.59631C16.6061 4.526 16.62 4.48984 16.6778 4.41551C16.7456 4.32712 16.7536 4.28091 16.6978 4.28091C16.6838 4.28091 16.6519 4.30301 16.626 4.33114L16.5782 4.38136L16.4785 4.28292C16.2951 4.10614 16.2592 4.10212 16.0897 4.24877ZM22.886 17.0175C22.886 17.0275 22.878 17.0376 22.866 17.0376C22.8561 17.0376 22.8461 17.0275 22.8461 17.0175C22.8461 17.0054 22.8561 16.9974 22.866 16.9974C22.878 16.9974 22.886 17.0054 22.886 17.0175Z" fill="black"/>
<path d="M9.31345 16.9547C9.27956 16.9889 9.28355 17.0512 9.32342 17.0652C9.34535 17.0733 9.37127 17.0592 9.40316 17.019C9.42709 16.9869 9.44902 16.9547 9.44902 16.9447C9.44902 16.9206 9.33937 16.9286 9.31345 16.9547Z" fill="black"/>
<path d="M8.07782 16.9664C8.06386 16.9704 8.04393 16.9925 8.03396 17.0126C8.01801 17.0427 8.022 17.0467 8.07981 17.0347C8.1157 17.0267 8.14361 17.0086 8.14361 16.9925C8.14361 16.9624 8.1157 16.9503 8.07782 16.9664Z" fill="black"/>
<path d="M9.19357 16.9268C9.13576 17.0252 9.1238 17.0775 9.14971 17.1096C9.18759 17.1558 9.24541 17.1458 9.29923 17.0875C9.35904 17.0232 9.36303 16.9389 9.31319 16.8927C9.25936 16.8444 9.23743 16.8505 9.19357 16.9268Z" fill="black"/>
<path d="M8.44244 16.9095C8.41852 16.9175 8.38862 16.9396 8.37466 16.9577C8.35074 16.9878 8.35473 16.9999 8.40257 17.0501C8.43447 17.0842 8.47035 17.1104 8.48232 17.1104C8.5182 17.1104 8.60791 17.0039 8.62187 16.9436C8.63582 16.8914 8.63383 16.8894 8.56007 16.8914C8.51621 16.8914 8.46437 16.8994 8.44244 16.9095Z" fill="black"/>
<path d="M8.71161 16.9305C8.67971 16.9686 8.70364 17.053 8.75746 17.0872C8.83721 17.1374 8.90699 17.0108 8.8392 16.9365C8.79734 16.8903 8.7455 16.8883 8.71161 16.9305Z" fill="black"/>
<path d="M6 16.9745C6 17.0147 6.04187 17.0488 6.09171 17.0488C6.1575 17.0488 6.16746 17.0167 6.11563 16.9805C6.0618 16.9424 6 16.9383 6 16.9745Z" fill="black"/>
<path d="M6.1356 16.9242C6.09573 16.9463 6.08576 17.0709 6.11965 17.093C6.14557 17.109 6.25123 17.0508 6.26718 17.0106C6.30107 16.9242 6.22133 16.872 6.1356 16.9242Z" fill="black"/>
<path d="M16.018 16.9132C15.9303 16.9614 15.9064 17.0257 15.9602 17.0779C16.0379 17.1562 16.1476 17.0839 16.1476 16.9553C16.1476 16.8991 16.1396 16.8891 16.1037 16.8891C16.0778 16.8891 16.0399 16.9011 16.018 16.9132Z" fill="black"/>
<path d="M13.7892 16.9717C13.7633 16.9979 13.8191 17.04 13.8789 17.04C13.9248 17.04 13.9368 17.032 13.9308 17.0039C13.9248 16.9697 13.8171 16.9436 13.7892 16.9717Z" fill="black"/>
<path d="M25.5314 16.9224C25.5075 16.9465 25.5155 16.9846 25.5573 17.0328L25.5952 17.0811L25.5972 17.0288C25.5972 16.9726 25.5534 16.9003 25.5314 16.9224Z" fill="black"/>
<path d="M26.6738 16.9999C26.6738 17.026 26.6878 17.04 26.7137 17.04C26.7396 17.04 26.7536 17.026 26.7536 16.9999C26.7536 16.9737 26.7396 16.9597 26.7137 16.9597C26.6878 16.9597 26.6738 16.9737 26.6738 16.9999Z" fill="black"/>
<path d="M28.4403 14.6853C28.4004 14.7295 28.3685 14.7737 28.3685 14.7818C28.3685 14.7918 28.3904 14.8179 28.4183 14.842C28.4462 14.8661 28.4682 14.8963 28.4682 14.9103C28.4682 14.9485 28.2728 15.1273 28.2309 15.1273C28.1751 15.1273 28.1293 15.1815 28.1293 15.2458C28.1293 15.278 28.1093 15.3202 28.0794 15.3483C28.0475 15.3784 28.0296 15.4166 28.0296 15.4548C28.0296 15.511 28.0256 15.513 27.9678 15.501C27.894 15.4869 27.8302 15.517 27.8302 15.5673C27.8302 15.6155 27.7844 15.6536 27.7365 15.6456C27.7106 15.6416 27.6986 15.6536 27.6946 15.6898C27.6847 15.7641 27.6408 15.8023 27.5013 15.8586C27.4315 15.8867 27.3458 15.9269 27.3079 15.951C27.272 15.9731 27.2222 15.9911 27.2002 15.9911C27.1763 15.9911 27.1344 16.0092 27.1045 16.0333C27.0746 16.0554 27.0268 16.0815 26.9969 16.0896C26.951 16.1016 26.943 16.1157 26.9371 16.184C26.9331 16.2322 26.9131 16.2824 26.8832 16.3126C26.8194 16.3829 26.7816 16.4632 26.7437 16.6139C26.7058 16.7626 26.7158 16.8188 26.7955 16.9092C26.8274 16.9454 26.8573 17.0016 26.8653 17.0318C26.8713 17.0619 26.8852 17.1121 26.8952 17.1443C26.9291 17.2507 26.9151 17.3813 26.8633 17.4677C26.7935 17.5842 26.7776 17.6184 26.7537 17.7128C26.7397 17.769 26.6978 17.8373 26.6261 17.9137C26.5682 17.978 26.5045 18.0583 26.4865 18.0945C26.4327 18.2009 26.4446 18.3315 26.5244 18.4822C26.5722 18.5786 26.5982 18.661 26.6121 18.7755C26.654 19.107 26.6679 19.1451 26.7915 19.2617C26.8533 19.3199 26.9311 19.3742 26.965 19.3842C27.1005 19.4224 27.3258 19.342 27.5591 19.1753C27.7026 19.0728 27.7146 19.0507 27.7604 18.7855C27.7784 18.6811 27.8103 18.5806 27.8482 18.5163C27.886 18.4501 27.9199 18.3456 27.9399 18.2331C27.9618 18.1166 27.9917 18.0262 28.0256 17.9759C28.0635 17.9177 28.0774 17.8655 28.0814 17.7851C28.0854 17.6927 28.0954 17.6646 28.1452 17.6103C28.201 17.5541 28.2389 17.4677 28.3206 17.2166C28.3366 17.1684 28.3725 17.1041 28.4004 17.0739C28.4622 17.0076 28.4861 16.9112 28.4881 16.7224C28.4881 16.5456 28.528 16.405 28.6177 16.2744C28.6755 16.19 28.6875 16.1559 28.6875 16.0655C28.6875 15.9369 28.6994 15.9208 28.7632 15.963C28.833 16.0092 28.8749 15.9851 28.8589 15.9068C28.8529 15.8726 28.8569 15.7943 28.8689 15.732C28.8908 15.6295 28.8888 15.6115 28.8489 15.5331C28.8111 15.4588 28.8071 15.4186 28.8091 15.2217C28.8131 15.0108 28.8111 14.9887 28.7632 14.9063C28.7353 14.8561 28.7054 14.7858 28.6974 14.7516C28.6835 14.6813 28.6057 14.605 28.5479 14.605C28.528 14.605 28.4801 14.6411 28.4403 14.6853Z" fill="black"/>
<path d="M30.8644 16.8949C30.8205 16.913 30.7607 17.0215 30.7607 17.0857C30.7607 17.144 30.8365 17.1159 30.9182 17.0255C30.998 16.9391 31.0199 16.8949 30.982 16.8949C30.9721 16.8949 30.9521 16.8909 30.9362 16.8868C30.9222 16.8808 30.8903 16.8848 30.8644 16.8949Z" fill="black"/>
<path d="M30.1169 16.9693C30.0651 17.0195 30.097 17.0637 30.1807 17.0557C30.2425 17.0497 30.2525 17.0436 30.2525 16.9994C30.2525 16.9593 30.2405 16.9472 30.2006 16.9432C30.1707 16.9392 30.1329 16.9512 30.1169 16.9693Z" fill="black"/>
</svg>
