<svg width="34" height="34" viewBox="0 0 34 34" fill="none" xmlns="http://www.w3.org/2000/svg">
<path d="M24.3362 4.39884C24.263 4.43165 24.1921 4.44259 24.0437 4.44259C23.8354 4.44259 23.8465 4.43821 23.7423 4.56946C23.6869 4.63946 23.5717 4.65915 23.2526 4.66134C22.9579 4.66134 22.9114 4.67446 22.8626 4.76634C22.8338 4.82321 22.8228 4.8254 22.6677 4.82759C22.4793 4.82977 22.1647 4.90415 22.127 4.95665C22.1093 4.98071 22.0472 5.0004 21.9519 5.01134C21.8256 5.02665 21.7902 5.04196 21.7215 5.1054C21.6772 5.14696 21.5952 5.20821 21.5354 5.24102C21.4645 5.2804 21.4268 5.31759 21.4179 5.35696C21.3914 5.48165 21.3803 5.50134 21.2894 5.59759C21.1742 5.72227 21.0191 5.82071 20.9415 5.82071C20.8507 5.82071 20.844 5.8579 20.9194 5.94102C21.008 6.04165 21.0612 6.14446 21.0413 6.17727C21.0324 6.19259 20.9947 6.24071 20.9571 6.28665C20.9127 6.34134 20.8994 6.37634 20.9127 6.38946C20.9349 6.41134 21.5287 6.37415 21.8234 6.33477C21.9143 6.32165 21.9209 6.32602 22.0295 6.43759C22.2023 6.61915 22.4062 6.8729 22.5059 7.03696C22.5591 7.12227 22.6344 7.21196 22.6832 7.24477C22.7873 7.31477 22.8183 7.37384 22.8471 7.54227C22.8582 7.61446 22.8892 7.7129 22.9136 7.75884C22.9579 7.83759 22.9601 7.87915 22.9601 8.38009C22.9624 9.2529 22.9912 9.31634 23.5518 9.68602C23.6493 9.75165 23.749 9.80196 23.7711 9.79759C23.8021 9.79321 23.8243 9.7429 23.862 9.59634C23.9794 9.1479 24.2586 8.79352 24.6685 8.57696C24.7904 8.51134 24.8746 8.4479 24.93 8.38009C25.0363 8.24884 25.0541 8.23352 25.2092 8.16352C25.3532 8.09571 25.5393 8.0454 25.8207 7.99727C25.9204 7.97977 26.0157 7.95352 26.0312 7.9404C26.0512 7.9229 26.0623 7.86821 26.0623 7.77415C26.0623 7.66477 26.0778 7.59915 26.1221 7.49852C26.1797 7.37384 26.1797 7.36509 26.142 7.34321C26.0002 7.2579 25.9515 7.17259 25.9515 6.99977C25.9515 6.91446 25.9736 6.88602 26.0623 6.85977C26.0933 6.85102 26.1442 6.81821 26.1775 6.78759C26.2307 6.73946 26.2661 6.73071 26.4389 6.71759C26.6871 6.70009 26.7359 6.66727 26.6738 6.56446C26.6539 6.52727 26.6162 6.42884 26.5918 6.34352L26.5475 6.18821L26.6251 6.07446C26.6672 6.01321 26.7137 5.91259 26.727 5.85352C26.7403 5.79227 26.7824 5.69821 26.8201 5.63915C26.871 5.5604 26.8843 5.52102 26.8732 5.47071C26.8289 5.25852 26.8267 5.27602 26.9176 5.18415C26.9752 5.12509 26.9951 5.09227 26.9796 5.07696C26.9353 5.03321 26.6871 5.01134 26.2174 5.01134C25.741 5.01134 25.7388 5.01134 25.5859 5.07477C25.3842 5.1579 25.1361 5.20165 25.0696 5.16665C25.0408 5.15134 25.0208 5.12071 25.0208 5.09009C25.0208 4.99384 25.3488 4.8254 25.7941 4.69196C26.0778 4.60665 26.0844 4.60446 26.0844 4.56509C26.0844 4.51696 26.0135 4.50821 25.495 4.48634C25.043 4.46884 24.9942 4.46227 24.8702 4.41196C24.6973 4.33977 24.4802 4.3354 24.3362 4.39884Z" fill="black"/>
<path d="M19.2686 4.40601C19.2176 4.42351 19.1312 4.46726 19.0736 4.50664C18.9495 4.59195 18.8542 4.63132 18.6526 4.6882C18.4465 4.74507 18.3291 4.80632 18.3291 4.85882C18.3291 4.92664 18.4421 4.93539 19.1224 4.92882C19.714 4.92445 19.7472 4.92664 19.7472 4.96382C19.7472 5.01851 19.6542 5.13882 19.5633 5.20226C19.519 5.23289 19.3838 5.28101 19.2309 5.31601C19.0891 5.35101 18.9628 5.38601 18.9517 5.39476C18.9074 5.42101 18.9274 5.47132 19.016 5.56757C19.0647 5.62007 19.1046 5.67257 19.1046 5.6857C19.1046 5.69882 19.0647 5.74039 19.016 5.77757C18.903 5.86507 18.8609 5.94601 18.8609 6.06851C18.8609 6.18882 18.8941 6.23476 19.0049 6.25882C19.18 6.30039 19.2043 6.27414 19.1445 6.11445C19.1246 6.05539 19.1246 6.03351 19.1556 5.98757C19.1778 5.95695 19.2154 5.92632 19.2442 5.92195C19.4525 5.88257 19.6076 5.83664 19.6342 5.81039C19.663 5.78195 19.6608 5.77101 19.6165 5.72507C19.5522 5.65726 19.5744 5.60914 19.7184 5.51945C19.8491 5.43851 20.0308 5.38382 20.1704 5.38382C20.3078 5.38382 20.3588 5.36414 20.5183 5.24382C20.6136 5.17164 20.6579 5.11914 20.6845 5.05132C20.7266 4.94414 20.7753 4.90914 21.1365 4.72976C21.3603 4.61601 21.4091 4.57445 21.3581 4.53507C21.2429 4.4432 19.4835 4.33601 19.2686 4.40601Z" fill="black"/>
<path d="M18.923 7.1932C18.697 7.43382 18.8145 7.56726 19.395 7.73789C19.5457 7.78164 19.7518 7.85382 19.8515 7.89976C20.0154 7.97632 20.0642 8.01351 20.3345 8.28257C20.4985 8.44445 20.6336 8.5932 20.6336 8.6107C20.6336 8.65664 20.5738 8.67851 20.4121 8.69601C20.2348 8.7157 20.1971 8.73539 20.1794 8.81851C20.1462 8.97163 20.2437 9.09851 20.5073 9.24288C20.8153 9.41351 21.0923 9.47038 21.1809 9.3807C21.2319 9.33038 21.1965 9.26038 21.0103 9.0307C20.8043 8.77476 20.771 8.70695 20.8109 8.63257C20.8774 8.51226 21.0835 8.5057 21.2452 8.62164C21.3582 8.70039 21.438 8.70257 21.4491 8.6282C21.4535 8.59976 21.4358 8.54945 21.4114 8.51445C21.3538 8.43351 21.1233 8.28039 21.0325 8.2607C20.9239 8.23664 20.7976 8.1032 20.7799 7.99382C20.7644 7.88882 20.7289 7.8582 20.4785 7.74007C20.3877 7.69851 20.2104 7.59789 20.0863 7.51695C19.8204 7.34632 19.7252 7.32226 19.6077 7.39445C19.4349 7.49945 19.1557 7.39882 19.0516 7.19757C19.0161 7.12757 18.9873 7.12539 18.923 7.1932Z" fill="black"/>
<path d="M17.4874 7.63051C17.4874 7.65239 17.5228 7.7377 17.5649 7.82082C17.6514 7.98707 17.658 8.04176 17.607 8.11395C17.4985 8.26707 17.0221 8.34582 16.5346 8.29332C16.4061 8.2802 16.251 8.2627 16.1889 8.25614C16.1225 8.24957 16.056 8.25395 16.0294 8.26926C16.0028 8.28239 15.9474 8.36551 15.9053 8.4552C15.8632 8.5427 15.8122 8.62145 15.7923 8.6302C15.7413 8.64989 15.6815 8.61051 15.6283 8.5252C15.5619 8.41801 15.4333 8.36551 15.2007 8.3502C14.9171 8.33051 14.8063 8.27801 14.8063 8.16207C14.8063 8.12926 14.793 8.09207 14.7775 8.07895C14.7376 8.04614 14.5204 8.01551 14.1061 7.98489C13.3749 7.93457 12.9383 8.04395 12.7567 8.32614C12.7146 8.38957 12.668 8.45082 12.6547 8.45739C12.6436 8.46614 12.5594 8.39832 12.473 8.30645C12.3844 8.21457 12.278 8.12707 12.2359 8.10957C12.0786 8.04614 10.9818 7.82301 10.6184 7.77707C10.5519 7.77051 10.4323 7.73989 10.3547 7.71145C10.1885 7.6502 9.97804 7.64145 9.72544 7.68957C9.55704 7.72239 9.27785 7.84489 9.22245 7.91051C9.18035 7.96082 9.04962 8.02426 8.94991 8.04176C8.75713 8.07895 8.78372 8.17301 9.05848 8.4027C9.29336 8.60176 9.33103 8.65645 9.29336 8.74176C9.25569 8.8227 9.26012 8.85114 9.32216 8.92332C9.35318 8.96051 9.37756 9.01739 9.37756 9.05239C9.37756 9.14645 9.26677 9.28645 9.09615 9.40457C8.87014 9.56207 8.84577 9.59051 8.84577 9.69332C8.84577 9.78957 8.90338 9.86832 8.97871 9.86832C9.00309 9.86832 9.12717 9.92301 9.25569 9.98864C9.38199 10.0543 9.49721 10.1089 9.51272 10.1089C9.52602 10.1089 9.63016 10.1483 9.74316 10.1986C9.85617 10.2468 9.96696 10.2839 9.98912 10.2796C10.0113 10.2752 10.08 10.1921 10.1464 10.0871C10.2883 9.85739 10.4146 9.71082 10.5098 9.66707C10.5962 9.62551 10.6317 9.63645 10.676 9.71739C10.7181 9.79832 10.7491 9.79614 10.8223 9.7152C10.8555 9.67582 10.902 9.64957 10.933 9.64957C10.9641 9.64957 11.1214 9.69989 11.2854 9.76114C11.4493 9.82239 11.7706 9.93395 12.0011 10.0127C12.473 10.1702 12.5905 10.2402 12.8342 10.4961C12.9937 10.6624 13.0846 10.8046 13.3239 11.2683C13.4413 11.4936 13.5122 11.6074 13.5765 11.6621C13.7892 11.848 14.0152 12.0974 14.0684 12.2068C14.1327 12.3358 14.1327 12.3402 14.0285 12.6136C13.9798 12.7383 13.9776 12.7777 13.9753 13.2918V13.8408L14.0773 14.0136C14.1327 14.1099 14.1991 14.2324 14.2257 14.2871C14.2523 14.3418 14.3587 14.4796 14.465 14.5933C14.7021 14.8514 14.7775 14.9586 14.8528 15.1402C14.8838 15.2189 14.9215 15.2824 14.9348 15.2824C14.9481 15.2824 14.9813 15.2474 15.0101 15.2058C15.0389 15.1643 15.0788 15.1271 15.0988 15.1227C15.1519 15.1118 15.2539 15.2255 15.4178 15.4836C15.4998 15.6149 15.6483 15.8424 15.7436 15.9933C16.0693 16.4986 16.1557 16.6452 16.2155 16.7961C16.3462 17.1199 16.7783 17.4218 17.2658 17.5246C17.7954 17.6405 18.3648 17.9708 18.6463 18.3296C18.726 18.4302 18.7947 18.3318 18.7947 18.1152C18.7947 17.9511 18.7393 17.8089 18.6529 17.7543C18.6219 17.7346 18.5399 17.7105 18.4712 17.7018C18.3892 17.6908 18.3338 17.6711 18.3139 17.6449C18.2718 17.5858 18.2784 17.4043 18.3316 17.1396C18.3826 16.8924 18.3781 16.8464 18.3072 16.8464C18.2252 16.8464 18.1765 16.888 18.1167 17.0061C18.0103 17.2161 17.915 17.2839 17.7267 17.2839C17.3146 17.2839 17.0243 16.853 17.0221 16.2427C17.0221 15.8796 17.124 15.7002 17.4231 15.5449L17.5827 15.4618L17.8131 15.4771C17.9461 15.4836 18.0613 15.4814 18.0834 15.4705C18.1056 15.4574 18.1632 15.4093 18.212 15.3611C18.2962 15.278 18.3094 15.2714 18.4269 15.2714C18.5089 15.2714 18.633 15.2977 18.7925 15.348C18.9232 15.3896 19.0407 15.4246 19.054 15.4246C19.0673 15.4246 19.0828 15.3743 19.0894 15.313C19.1071 15.1621 19.1647 15.0527 19.3531 14.8099C19.5636 14.5364 19.65 14.3527 19.6921 14.0836C19.7121 13.9677 19.7364 13.8496 19.7497 13.8211C19.7608 13.7949 19.8273 13.738 19.896 13.6964C20.0378 13.6068 20.2084 13.423 20.3524 13.2021C20.4654 13.0249 20.5629 12.9483 20.8997 12.7689C21.0282 12.7011 21.1412 12.6355 21.1523 12.6246C21.1656 12.6114 21.1412 12.5568 21.0903 12.4846C20.9595 12.2986 20.9684 12.3008 20.7646 12.3949L20.5851 12.478L20.5275 12.4343C20.4433 12.373 20.4433 12.3139 20.523 12.2221C20.7136 12.0099 21.0748 11.8699 21.8791 11.6949C22.0896 11.6511 22.1627 11.5986 22.1627 11.498C22.1627 11.3996 22.1273 11.3799 21.9677 11.3843C21.7417 11.3886 21.7174 11.3252 21.8769 11.1414C21.9123 11.1021 21.9411 11.0627 21.9411 11.0518C21.9411 11.043 21.8813 10.9971 21.8104 10.9533C21.7373 10.9096 21.6332 10.8221 21.5778 10.7586C21.4647 10.6318 21.3207 10.378 21.3207 10.3058C21.3207 10.238 21.2808 10.1746 21.2387 10.1746C21.2188 10.1746 21.17 10.1986 21.1279 10.2314C20.9573 10.3583 20.7623 10.3868 20.6316 10.2993C20.5585 10.2511 20.5252 10.1877 20.4787 10.0018C20.4278 9.81145 20.1153 9.56207 19.927 9.56207C19.7475 9.56426 19.7253 9.63645 19.701 10.2949C19.6921 10.5836 19.6766 10.8811 19.67 10.9577C19.6544 11.1218 19.5437 11.5636 19.4816 11.6971C19.4129 11.8524 19.2999 11.848 19.1182 11.6818C19.003 11.5789 18.9277 11.4586 18.8723 11.2946C18.8523 11.2311 18.8124 11.1546 18.7858 11.1261C18.7615 11.0955 18.5909 10.9927 18.4069 10.8943C17.9904 10.6733 17.853 10.5749 17.6381 10.3518C17.4697 10.1789 17.4652 10.1724 17.4652 10.063C17.4652 9.8027 17.7998 9.29301 18.1189 9.0677C18.1809 9.02614 18.1809 9.01957 18.1543 8.95395C18.1278 8.8927 18.13 8.87739 18.161 8.82926C18.223 8.73739 18.6197 8.56457 18.8435 8.53395C19.0096 8.50989 19.0384 8.48582 19.0384 8.37207C19.0384 8.27145 18.9853 8.05707 18.9542 8.02645C18.941 8.01332 18.8678 8.08551 18.7637 8.21676C18.6684 8.3327 18.5776 8.43332 18.5598 8.43989C18.5044 8.45957 18.4136 8.37426 18.3405 8.23645C18.2673 8.09645 18.2518 8.08989 18.0635 8.12926C17.9505 8.15114 17.8796 8.08551 17.7621 7.84707C17.7068 7.7377 17.6469 7.63489 17.627 7.61957C17.5716 7.5802 17.4874 7.58676 17.4874 7.63051ZM18.4513 12.0711C18.6573 12.3008 18.9675 12.5874 19.0584 12.6355C19.1692 12.6902 19.2534 12.6793 19.2933 12.6005C19.3354 12.5196 19.4018 12.5218 19.4107 12.6049C19.4151 12.6464 19.4018 12.6727 19.362 12.6989C19.3287 12.7186 19.3043 12.7493 19.3043 12.7668C19.3043 12.7821 19.2689 12.863 19.2268 12.9439C19.1049 13.1758 19.1293 13.2086 19.3531 13.1168C19.5769 13.0227 19.7519 12.9724 19.7963 12.9877C19.8384 13.0008 19.8384 13.003 19.7874 13.0555C19.7209 13.1277 19.5348 13.2524 19.3221 13.3661C19.1182 13.4777 19.0274 13.5061 18.9986 13.4711C18.9742 13.4405 18.9853 13.4077 19.0695 13.2852L19.1337 13.1911L19.054 13.1255C19.0096 13.0883 18.9254 13.0008 18.87 12.9286C18.8147 12.8564 18.757 12.8018 18.746 12.8039C18.7327 12.8083 18.6839 12.9177 18.6396 13.0489C18.5177 13.3858 18.4535 13.4427 18.3848 13.2743C18.3383 13.1583 18.3338 12.9658 18.3804 12.863C18.3981 12.8193 18.4513 12.7427 18.4956 12.6924C18.5399 12.6443 18.5709 12.5961 18.5643 12.5852C18.5576 12.5743 18.4313 12.5589 18.2851 12.5524C18.017 12.5371 17.9305 12.5152 17.9305 12.4649C17.9305 12.4496 17.9859 12.373 18.0524 12.2964C18.1654 12.1652 18.1942 12.1061 18.2297 11.9399C18.2363 11.9071 18.2496 11.8808 18.2607 11.8808C18.2696 11.8808 18.356 11.9661 18.4513 12.0711Z" fill="black"/>
<path d="M26.9932 8.80977C26.8093 8.88851 26.7251 9.00445 26.7982 9.07664C26.8691 9.14664 27.1616 9.07664 27.3034 8.95633C27.3965 8.87758 27.4164 8.80977 27.3566 8.78789C27.2924 8.76383 27.0708 8.77695 26.9932 8.80977Z" fill="black"/>
<path d="M20.2524 18.1748C20.2325 18.1792 20.1749 18.247 20.1261 18.3257C20.0774 18.4023 20.0242 18.4657 20.0109 18.4657C19.9954 18.4657 19.9267 18.411 19.8536 18.3432C19.7827 18.2776 19.7162 18.2273 19.7051 18.236C19.6918 18.2426 19.6453 18.3082 19.601 18.3848C19.5545 18.4592 19.488 18.5598 19.4503 18.6079C19.3838 18.691 19.3816 18.702 19.3683 18.9907L19.3528 19.286L19.2066 19.5661C19.0603 19.8461 19.0581 19.8482 19.0049 20.1982C18.9739 20.3907 18.9429 20.557 18.9363 20.5701C18.9274 20.5811 18.9318 20.6139 18.9451 20.6379C19.0005 20.7517 19.0603 20.8939 19.0603 20.9179C19.0603 20.9311 19.0781 20.9748 19.1024 21.012C19.1246 21.0492 19.149 21.1214 19.1578 21.1739C19.1889 21.3817 19.4747 21.9723 19.6453 22.1889C19.7007 22.2567 19.8071 22.3529 19.8802 22.4032C20.0442 22.5126 20.1328 22.6286 20.1705 22.7795C20.2081 22.9348 20.1837 23.5451 20.1128 24.2954C20.0331 25.1507 19.9998 25.3739 19.9378 25.4657C19.909 25.5073 19.8846 25.5729 19.8846 25.6123C19.8846 25.6495 19.8602 25.7239 19.8337 25.7742C19.7893 25.8639 19.7871 25.8901 19.7982 26.1876C19.8071 26.3867 19.8248 26.5507 19.8469 26.6251C19.8669 26.6907 19.889 26.787 19.8957 26.8373C19.9046 26.9161 19.9001 26.9314 19.8492 26.9642C19.8004 26.997 19.7916 27.0189 19.7916 27.1042C19.7916 27.1654 19.7738 27.2311 19.7472 27.277C19.7229 27.3164 19.7029 27.3623 19.7029 27.382C19.7029 27.4236 19.7827 27.5789 19.8514 27.6664L19.9046 27.7364L19.8248 27.7801C19.7539 27.8217 19.7472 27.837 19.7472 27.9223C19.7472 28.0273 19.7982 28.2154 19.858 28.3336C19.9023 28.4145 19.991 28.4692 20.0464 28.4473C20.0885 28.432 20.3233 27.977 20.3898 27.7867C20.4208 27.6948 20.4408 27.5526 20.4563 27.3404C20.4784 26.9904 20.4873 26.9554 20.6025 26.8089C20.6801 26.7082 20.6823 26.6973 20.6712 26.5682C20.6668 26.4961 20.6712 26.4151 20.6845 26.3932C20.751 26.2686 20.9526 26.1176 21.254 25.9689C21.6949 25.7523 21.7836 25.6123 21.6085 25.4132C21.5708 25.3739 21.542 25.3192 21.542 25.2951C21.542 25.247 21.6417 25.1157 21.6794 25.1157C21.6927 25.1157 21.737 25.1464 21.7791 25.1836C21.8412 25.2361 21.87 25.247 21.9165 25.2361C22.0295 25.2076 22.2732 24.9998 22.3397 24.8751C22.3619 24.8336 22.3995 24.7789 22.4261 24.757C22.4527 24.7329 22.4727 24.7023 22.4727 24.687C22.4727 24.6717 22.5015 24.5864 22.5369 24.4989C22.5746 24.4092 22.6123 24.2582 22.6256 24.1554C22.6544 23.9279 22.7142 23.8054 22.8427 23.6982C22.8981 23.6545 22.9956 23.5714 23.0576 23.5145C23.1197 23.4598 23.1972 23.4073 23.2305 23.3986C23.2615 23.3898 23.3102 23.3592 23.339 23.3307C23.3656 23.3023 23.4077 23.2782 23.4299 23.2782C23.4521 23.2782 23.5185 23.2564 23.5806 23.2301C23.667 23.1929 23.698 23.1645 23.7335 23.0945C23.7933 22.9654 23.8598 22.6876 23.9351 22.2392C24.0171 21.7492 24.0415 21.6661 24.1589 21.502C24.3627 21.2132 24.4337 20.9223 24.3317 20.7823C24.2497 20.6686 23.9905 20.5067 23.7157 20.4017C23.5739 20.347 23.3745 20.2529 23.277 20.1939C23.1773 20.1326 23.0887 20.0845 23.0776 20.0845C23.0687 20.0845 23.0022 20.1239 22.9291 20.172C22.7718 20.277 22.7031 20.2879 22.4682 20.2354C22.2666 20.1895 22.2533 20.1064 22.3951 19.7673C22.4793 19.5704 22.4948 19.4304 22.4394 19.3845C22.4217 19.3692 22.3863 19.3145 22.3641 19.2642C22.3153 19.1526 22.2134 19.087 22.0428 19.052C21.9719 19.0389 21.8589 18.9951 21.7902 18.9535C21.7215 18.912 21.6174 18.8529 21.5598 18.8245C21.5021 18.796 21.429 18.7348 21.3958 18.691C21.2119 18.4417 21.1055 18.3651 20.8906 18.3257C20.7975 18.3082 20.6269 18.2623 20.5117 18.2273C20.3965 18.1901 20.299 18.1617 20.2945 18.1617C20.2923 18.1639 20.2724 18.1682 20.2524 18.1748Z" fill="black"/>
</svg>
