<svg width="34" height="34" viewBox="0 0 34 34" fill="none" xmlns="http://www.w3.org/2000/svg">
<path d="M10.9401 12.0856L11.1407 12.2646V12.3708L10.9042 12.5853L10.9401 12.6748L10.7055 12.5144L10.5598 12.6039L10.5957 12.7288L10.45 12.5853L10.3951 12.658L10.45 12.7475L10.3422 13.0327L10.486 13.2658L10.3592 13.3907L10.2873 13.6778L10.4141 13.4634L10.5409 13.4988L10.5598 13.8568L10.3422 13.8755L10.2873 13.6965L10.1416 13.8568L10.1227 14.0358L10.1416 13.9463L10.2324 14.0172L10.1965 14.1439L10.1416 14.0712L10.0697 14.1794H10.1605V14.3229L9.90504 14.8413L9.54171 14.6977L9.26922 14.1962L9.396 13.8382L9.54171 13.786L9.6685 13.607L9.82806 13.6262L9.72528 13.5068L9.65279 13.3795L9.59994 13.2636L9.58137 13.1948L9.57207 13.1356L9.59799 13.1101L9.59228 13.0485L9.56429 12.9685L9.53249 12.8827L9.49396 12.8081L9.4425 12.7072L9.38318 12.6007L9.39653 12.5755L9.37111 12.4788L9.33848 12.3729L9.26955 12.2538L9.22504 12.2354L9.20995 12.1795L9.16167 12.0579L9.11378 11.9508L9.08324 11.8458L9.02188 11.4296L9.03337 11.8892L9.07122 12.1931L8.96147 12.4449L8.85171 12.5157L8.6341 12.4803L8.61707 12.4616L8.45243 12.3013L8.30673 12.0142L8.32565 11.6748L8.16291 11.4958L7.83554 11.4604L7.70876 11.2087L7.63496 11.2982L7.67091 11.3877L7.58008 11.2982L7.5271 11.3709L7.40045 11.0858L7.27163 11.1192L7.1808 11.2087L7.2546 11.2814L7.08997 11.4604V11.5499L7.0351 11.5126L7.07294 11.4063L6.99914 11.4772V11.6562L6.94426 11.6916L6.90831 11.8538L6.8364 11.8706L6.92723 11.9787L6.80045 11.9601L6.90831 12.0328L6.89128 12.3554L6.94426 12.4262L7.07294 12.3013L7.10889 12.3721L7.12593 12.7488L7.27163 12.855L7.41734 12.8028L7.43626 12.9445L7.56305 12.9632L7.34543 13.1962L7.21676 13.4647L6.58113 14.0017L6.41138 14.5284L6.20058 14.7885L6.25546 14.878L6.16463 15.827L6.09083 16.0414L6.16463 16.3285L6.10975 16.7406L6 17.0799L6.03595 17.3484L6.09083 17.6169L6.14571 18.6013L6.01892 18.9593L6 19.6939L6.25546 19.8729L6.38225 19.8188L6.94426 20.0146L7.08997 19.9437L7.65388 20.0519L7.74471 19.8729L8.27077 20.0146L8.39756 19.8542L8.57922 19.9251L8.72493 19.7461L8.94254 19.8002L9.01634 19.4776L9.10717 19.4254L9.16205 19.4962L9.5424 19.1569L9.43454 18.7262L9.16205 18.4577L9.08825 18.262L9.1242 17.9208L9.23396 17.7604L8.59814 18.0998L8.34457 17.9208L8.23482 17.9394L8.12507 17.7418L8.30673 17.367L8.2159 17.2775L8.07208 17.5814L8.05316 17.1694L8.14399 17.0258L8.03423 16.6324L8.10803 16.1141L8.03423 16.06L8.14399 16.0768L8.16291 15.9519V15.9165L8.2897 16.0414L8.34457 15.9519L8.39756 16.1141L8.50731 16.1309V16.185L8.48839 16.8301L8.6341 17.0091L8.76088 17.4025L8.92551 17.5628H9.34371V17.9935L9.8149 18.3682L10.1423 18.6199L11.1774 18.8511L11.1603 19.0842L11.2871 19.1383V19.3881L11.3269 19.3993L11.359 19.3527L11.3912 19.4198L11.4688 19.4422L11.4328 19.5503L11.5766 19.4962L11.4688 19.5671L11.5956 19.8188L11.887 19.8729L11.8132 19.9624L11.5047 19.9251L11.8681 20.4993L12.1954 20.462L12.2863 20.1768L12.432 20.2308L12.3222 20.283L12.3033 20.3725L12.3941 20.3912L12.3033 20.462L12.3582 20.641L12.2503 20.8573L12.2863 21.9126L12.7574 23.3445L12.8123 23.6484L12.8861 23.9523L13.1397 24.2208L13.2665 24.1686L13.3403 24.025L13.5749 24.0064L13.503 23.9523L13.5938 23.8274L13.6298 23.7733L13.7755 23.792V23.434L13.8474 23.2736L13.9572 23.0574L13.9212 22.5745L13.9931 22.4309L14.1748 22.4496L14.2845 22.306L14.557 22.2892V22.1624L15.0661 21.9126L15.3386 21.6627L15.7019 21.5546L15.9006 21.3756L15.8646 21.1966L16.1012 21.1258L16.1731 20.999L16.209 21.178L16.3377 21.0531L16.4285 21.1966V21.0717L16.4815 21.1612L16.5553 21.0717L16.6272 21.1612L16.6632 20.999L16.737 21.1612L16.8278 20.9636L16.8448 21.1258L16.8997 21.0885L16.8827 20.9095L17.0814 20.9282L17.3898 21.6627L17.4636 21.5733L17.4447 21.6795L17.6453 21.7522L17.7172 21.9126L17.5544 21.8939L17.6812 22.0562L17.7361 21.9126L17.844 22.4141L17.7361 22.8262L17.844 22.7535L17.7721 22.8616L17.844 22.7889L17.9348 22.897L17.9897 22.7889L18.0635 22.897L18.1354 22.7721L18.317 22.7367L18.2622 22.6285L18.353 22.718L18.4628 22.6285V22.4496L18.5895 22.718L18.6993 22.6994V23.1469L18.7901 23.5048L18.8261 23.3986L18.9529 23.7025L18.9169 23.9355L19.0077 23.9896L18.881 24.2394L18.9169 24.4184L18.9718 24.3476L18.9529 24.4184L18.8261 24.8845L18.9339 24.8305L19.3162 25.2593L19.3521 25.2947L19.4789 25.8317L19.6795 26.1897L20.3153 26.5476L20.4421 26.4414L20.5329 26.5122L20.2964 26.1729V25.7608L20.2056 25.5818L19.7514 25.2239L19.443 25.1344L19.3162 24.741L19.2802 24.5974L19.0986 24.6161L19.0797 24.4184V24.3289L19.3162 23.8815V23.7733L19.2973 23.5776H19.3162L19.5887 23.5235L19.5527 23.7379L19.8063 23.7211L20.0618 23.8628L20.1885 24.1854L20.3153 24.1145L20.3343 24.2749L20.4062 24.2208L20.7506 24.383L20.6597 24.7056H20.8054L21.0609 24.5266L20.9511 24.383L21.1517 24.4725L21.0779 24.3644L21.042 24.3289L21.1139 24.3644L21.1688 24.4184L21.1328 24.3644L21.0969 24.3103L21.2236 24.3476L21.1139 24.2935H21.2236L21.2047 24.2208L21.3504 24.2581L21.8235 23.971L21.8595 23.6316L21.9314 23.613L21.7686 22.9511L21.587 22.7367L21.2596 22.5577L20.8414 22.0375L20.8963 21.769L21.0779 21.6441L21.0609 21.5192L21.1328 21.536L21.0779 21.4465H21.2596L21.3693 21.2861L21.551 21.2675L21.568 21.1612L21.7327 21.2861L21.8595 21.178L21.9503 21.2507L21.8784 21.411L21.9692 21.59L22.06 21.5733V21.2675L22.0771 21.3216L22.3855 21.1966V21.1258H22.5672V21.0363L22.7129 21.0717L22.6959 20.8741L22.7488 20.999L22.7867 20.9095L22.8586 20.9468L22.7867 20.7137L23.0592 20.9095L23.0213 20.8387L23.167 20.7305L23.186 20.8032L23.2938 20.6951L23.3676 20.7492L23.5852 20.6242L23.6401 20.5348L23.5663 20.4993L23.748 20.4266L23.7669 20.3203L23.8388 20.3725L23.9486 20.1936L23.8577 20.1413L24.0753 20.1041L24.0394 19.9978H24.1492L24.0943 19.8896H24.2021V19.7834L24.293 19.8356L24.2211 19.6398L24.3119 19.5317H24.2211L24.2759 19.5149L24.2021 19.4422L24.3119 19.4608H24.3478L24.4576 19.0842L24.3838 19.0301L24.6203 18.9406L24.5295 18.8344L24.6203 18.7449L24.5295 18.6908L24.6563 18.6554L24.6393 18.5472L24.5125 18.6199L24.6563 18.4577L24.6033 18.441L24.4387 18.3869L24.1851 18.4764L24.5484 18.1893L24.24 17.9935H24.0753L24.5125 17.9748L24.2211 17.7772L24.0034 17.3297H23.9296L23.731 17.2775L23.712 17.188L23.8577 16.9718L23.9126 16.8823L23.8577 16.8301L23.9845 16.8114L23.9675 16.6679L24.2021 16.5075L24.3308 16.5243V16.364L23.8937 16.3453L23.748 16.4721L23.6042 16.6138L23.4585 16.3285H23.203L23.186 16.1309L23.4395 16.0414L23.6042 15.7729L23.748 15.5231L23.9126 15.4149L24.0394 15.5585L23.8937 15.8978L24.0394 15.8624L23.9126 16.0768L24.3478 15.6294L24.7471 15.6126L24.7301 15.8456L24.838 15.8811L24.7112 15.9351L24.6752 16.0768L24.802 16.06L24.766 16.1141L24.8758 16.0955L24.8928 16.0414L25.0934 16.0768L25.2391 16.3099L25.1294 16.2558L25.0745 16.364L25.1653 16.4534V16.364L25.2013 16.5075L25.2921 16.4889L25.2391 16.8114L25.347 16.9196L25.2751 16.9363L25.347 17.0091L25.4567 16.8301L25.5116 16.9196V16.7928L25.6024 16.8468L25.5476 16.7406L25.7103 16.776V16.6324L25.8201 16.6511L25.8371 16.364L25.7292 16.0768L25.3829 15.7188L25.1483 15.6294L25.1294 15.4877L25.4567 15.057L25.3659 14.8071L25.4927 14.6095L25.4567 14.52H25.5646L25.5835 14.2702L25.8749 14.3597L26.1474 14.0185L26.2912 13.1235L26.2742 12.4262V12.2826L26.1285 12.0328L26.0377 11.8538L25.9658 11.4418L25.7103 11.2628H25.8011L25.7841 11.1733L25.4738 11.0651L25.4208 11.0484L25.2751 11.1192L25.311 11.1919L25.2013 11.3709L25.1483 11.1546L25.1104 11.3523L24.9837 11.1379L24.8569 11.2087L24.7301 11.1546L24.9118 10.6363L24.9477 10.2783L24.9666 9.77681L25.2751 9.54375L25.347 9.58104V9.49154L25.6195 9.38341L25.5646 9.23984L25.9279 9.16899L25.856 9.27527L25.9279 9.31256L26.2004 8.99L26.1096 8.93593L26.0566 9.00678L25.9828 8.91729L25.8371 8.43439L25.9828 8.14913L26.0017 8.11184L26.0736 8.21998L26.1096 8.29083L26.1834 8.3449V8.32812L26.2004 8.27405L26.2912 8.38032L26.2004 8.04099L26.2553 7.97014L26.0566 7.82658L26.0926 7.71844L26.1834 7.70166L26.1645 7.80793L26.4729 8.07642L26.437 8.29083L26.5827 8.66745L26.6924 9.00678L26.6186 9.15035L26.7643 9.43747L27.0179 9.77681L27.9451 10.5823L27.8543 10.1348L27.6916 9.99122L27.8183 9.84952V9.83088L27.7994 9.81223L27.7086 9.72274L27.7067 9.72087L27.6537 9.67053L27.6007 9.63324L27.6537 9.32934L27.3812 9.0795L27.455 8.95458L27.1636 8.79237L27.1087 8.66745L26.9649 8.7383L26.6375 8.23863L26.6735 8.16591L26.7643 8.18456L26.6924 7.97014L26.8362 8.07642L26.7454 7.91607L26.8192 7.71844L27.0368 7.75387L26.9271 7.66437L26.7454 7.23555L26.6546 6.85892L26.7832 6.75265L26.6924 6.64451L26.2193 6.51959L26.2912 6.55502L26.1285 6.53824L26.1645 6.66316L26.1096 6.62773L26.0566 6.69858L26.1645 6.39467L26.0926 6.32196L26.0017 6.21568L25.8011 6.14297V6.07212L26.0377 6.18026V6.0367L26.2553 6.05348L26.3821 5.98263L26.3102 5.92856L26.4199 5.9472L26.3821 5.87449L26.2742 5.89313L26.2004 5.80364L26.0926 5.74957L26.0377 5.78499L26.1096 5.67872H26.0017L26.0736 5.64329L25.9279 5.53516L25.7103 5.58923L25.6554 5.67872L25.6744 5.74957L25.9109 5.80364L25.5116 5.73279L25.0934 5.87449L24.766 5.98263L24.7301 6.16161L24.6203 6.21568L24.5655 6.25111L24.5844 6.26975L24.6752 6.3406L24.8569 6.35925L24.8928 6.4301L24.7112 6.48417L24.5484 6.44874L24.5844 6.53824L24.3478 6.734L24.4027 6.87757L24.1662 6.78807V6.80672L24.1492 6.78807L23.8937 6.71722L23.712 6.80672L23.5852 7.00249H23.186L23.203 6.91299H23.0213L22.9494 6.94842L23.0043 7.14605L22.8775 7.02113L22.9683 7.0752L22.9494 6.96706L22.7867 7.0752L22.9305 6.94842L22.4763 7.05656L22.5501 7.11063L22.4953 7.18148L22.4593 7.23555L22.5142 7.20012H22.5312V7.2169L22.5501 7.25419L22.5861 7.28961L22.6221 7.30639L22.6769 7.36046H22.658L22.5142 7.39589L22.5672 7.50403L22.3496 7.44996L22.2228 7.5581L22.06 7.48538L22.096 7.77251L21.6967 7.5581L21.7875 7.50403L21.6589 7.4686L21.7137 7.41453L21.587 7.32504L21.4053 7.36046L21.2047 7.28961L21.1877 7.52267L20.9511 7.53945L20.8054 7.52267L20.8244 7.43318L20.5519 7.44996L20.4251 7.57488L20.3153 7.41453L20.2964 7.48538L20.2245 7.41453L20.0977 7.43318V7.52267L20.1885 7.50403L19.8423 7.64759L19.7893 7.73708L19.8801 7.53945L20.2964 7.14605L20.1696 7.03791L20.2794 7.09198V7.02113L20.0428 6.84214L19.7514 6.93164L19.8063 6.84214L19.5887 6.8235L19.7155 6.75265L19.5698 6.67994L19.407 6.8235L19.3881 6.94842H19.3162H19.2443L19.2973 7.03791L19.2443 6.98571L19.0077 7.0752L19.0437 7.02113L18.862 7.00249L18.8261 7.05656H18.9169L18.3719 7.1647L18.336 7.28961L18.2811 7.2169L18.317 7.44996L17.7721 7.43318L17.7002 7.66437L17.8629 7.88065L17.7361 8.25541L17.7172 8.30947L17.6623 8.23863L17.6453 8.18456L17.7361 8.02235L17.6264 8.09506L17.844 7.862L17.6812 7.82658L17.5904 7.73708L17.4996 7.64759L17.4087 7.66437V7.75387L17.246 7.70166L17.3539 7.9515L17.1722 7.862L17.263 7.48538L17.2082 7.61217L16.9546 7.73708V7.93285L16.8827 8.05964L16.737 8.23863L16.9546 8.27405L17.0814 8.38032L17.0643 8.54253L16.9357 8.63203L17.0454 8.72152L16.8997 8.63203L16.9905 8.3449H16.7918L16.6632 8.57796L16.2279 8.84644L15.9914 8.64881L16.2828 8.66745L16.6461 8.39897L16.6102 8.23863L16.754 8.02235L16.8638 7.84336V7.70166L17.1003 7.4686L17.0265 7.39589L16.9205 7.34368H17.0095L17.0814 7.27097L16.9905 7.25419L16.9186 7.34368L16.8827 7.32504L16.6102 7.57488L16.4096 7.62895L16.2469 7.862L16.192 7.9515L16.2998 8.00557L16.3188 8.14913L16.1182 8.29083L16.0274 8.00557L16.0652 8.04099L15.9741 7.94343L16.0145 8.02467L15.9415 8.29983L15.9385 8.3374L15.6513 8.48093L15.1991 8.58401L14.7717 8.65591L14.3656 9.19813L14.3261 9.1983L14.2477 9.22753L14.2188 9.29844L14.0918 9.4395L13.8371 9.70702L13.4944 10.0478L13.3677 10.0616L13.1926 10.1547L13.1714 10.2471L13.2392 10.3588L13.2456 10.4329L13.1703 10.5156L12.9995 10.5404L12.739 10.461L12.6508 10.4746L12.618 10.5637L12.6261 10.8591L12.6649 10.8754L12.6968 10.928L12.8163 10.934L12.9779 10.9299L13.0515 10.9558L13.0878 11.0314L13.0543 11.0876L12.7917 11.2273L12.7625 11.3065L12.7301 11.3207L12.7155 11.3603L12.7568 11.4441L12.899 11.5738L12.8559 11.5961L12.9244 11.7287L12.98 11.7979L12.9751 11.8454L12.9255 11.8998L12.866 11.9596L12.6896 11.8449L12.5598 11.9043L12.5077 11.6682L12.403 11.6386L12.3813 11.653L12.261 11.5046L12.2242 11.4343L12.1806 11.3423L12.0899 11.2621L11.9415 11.252L11.6638 11.1449L11.4517 11.1243L11.4104 11.1579L11.2755 11.3173L11.2267 11.6556L11.0993 11.7914L11.0021 11.8896L10.9818 11.9872L10.9429 12.0861" fill="black"/>
<path d="M24.5291 5.5L24.4023 5.58949L24.4572 5.62492L24.584 5.73306L24.5651 5.66034L24.5291 5.5Z" fill="black"/>
<path d="M19.1345 5.96387L18.8979 6.1615L19.0077 6.21557L19.1894 6.18014L19.2253 6.09065L19.1345 5.96387Z" fill="black"/>
<path d="M18.8807 6.19727L18.8618 6.26998H18.9526L19.0075 6.23269L18.8807 6.19727Z" fill="black"/>
<path d="M19.2062 6.19727L18.9526 6.3054L19.0983 6.43032L19.316 6.44897V6.26998L19.2611 6.21591L19.2062 6.25134V6.19727Z" fill="black"/>
<path d="M19.4428 6.34082L19.335 6.62795L19.6245 6.51981L19.5166 6.39489L19.4617 6.46574L19.4428 6.34082Z" fill="black"/>
<path d="M24.5841 6.34082L24.5122 6.39489L24.639 6.41167L24.5841 6.34082Z" fill="black"/>
<path d="M22.5667 6.36035L22.2583 6.41256L22.4229 6.50205L22.5667 6.48527V6.36035Z" fill="black"/>
<path d="M21.8952 6.46582L21.969 6.57396L21.8952 6.55531L21.7495 6.51989L21.7684 6.68023L21.9501 6.78837L22.0599 6.7343L22.2585 6.62803L22.2226 6.60752L22.2415 6.46582H21.8952Z" fill="black"/>
<path d="M22.3489 6.84277L22.313 6.98634V7.00312L22.5306 6.93227L22.5136 6.8782L22.3489 6.84277Z" fill="black"/>
<path d="M26.9265 8.32812L26.8735 8.41762L26.9644 8.52389L26.9265 8.32812Z" fill="black"/>
<path d="M27.8896 10.6553L27.9445 10.8865L27.9635 10.7448L27.8896 10.6553Z" fill="black"/>
<path d="M25.8917 10.9951L25.8198 11.1387L25.9466 11.3885L26.2191 11.6402L26.3818 11.9087L26.9268 12.9099L26.8909 12.6769L27.0366 12.6601L27.1274 12.785L27.0915 12.6769L26.7452 12.427L26.6184 12.069L26.7281 11.9609L26.9268 12.0504L26.6184 11.7819L26.274 11.478L25.8917 10.9951Z" fill="black"/>
<path d="M27.9447 12.4609L27.835 12.5691L27.8539 12.873L27.9447 12.4609Z" fill="black"/>
<path d="M27.7994 12.9092L27.7275 12.9278V13.0882L27.7635 13.1963L27.7994 12.9092Z" fill="black"/>
<path d="M26.9648 13.0176L27.1825 13.6086L27.0178 13.6795L27.0916 13.7503L27.0368 13.8771L27.0178 13.9125L27.1465 14.1083L27.1484 14.1102L27.1825 14.1624L27.3452 14.002L27.1465 13.9666L27.1276 13.8584L27.2544 13.8939L27.3092 13.7503L27.6366 13.7876V13.5005L27.8353 13.232L27.7634 13.2861L27.6366 13.0344L27.6177 13.1779L27.436 13.232L26.9648 13.0176Z" fill="black"/>
<path d="M27.4356 14.0723L27.3278 14.1263L27.4545 14.2513L27.2729 14.2158V14.3594V14.4135L27.3278 14.5925L27.3637 14.5552H27.3807L27.4186 14.6279L27.4356 14.6987L27.4716 15.0753L27.254 15.6123L27.1461 15.5582L27.1821 15.4147L27.0912 15.4874L27.1461 15.9871L26.5822 16.2201L26.2378 16.7403L26.2908 16.8298L26.5462 16.7757V16.5967L26.6011 16.6676L26.8736 16.3823L27.0912 16.2928L27.1083 16.5427L27.2899 16.5967L27.3088 16.5073L27.4356 16.2928L27.3088 16.2201V16.0952L27.3807 16.1661V16.0952L27.4716 16.1139L27.4186 16.2033L27.6362 16.0952L27.6911 15.9162L27.763 16.0411L27.7441 15.8454H27.8538L27.8179 15.6832H27.8538H27.8898L27.9087 15.7913V15.8267V15.8808L27.9257 15.8454L27.9995 15.5937L27.8898 15.4687L27.8727 15.2543L27.727 14.9504L27.8179 14.8777L27.763 14.503L27.4356 14.0723Z" fill="black"/>
<path d="M26.9817 16.4717L26.836 16.4885L26.7281 16.6674L26.6732 16.632L26.5635 16.9005L26.6373 16.8464L26.7281 17.0254L26.783 16.9359L26.8549 16.7402L27.0006 16.7756L27.0555 16.578L26.9817 16.4717Z" fill="black"/>
<path d="M26.3097 16.8467L26.0562 17.0797L26.1829 17.1879L26.0921 17.1338L26.147 17.2774L26.2738 17.2047L26.1829 17.0984L26.2378 17.0257L26.3457 17.1879L26.3097 17.5626L26.4365 17.5981V17.4377L26.4725 17.6354L26.5822 17.4918L26.6011 17.0089L26.3097 16.8467Z" fill="black"/>
<path d="M26.4365 18.3682L26.3286 18.4763L26.3816 18.4931L26.4365 18.3682Z" fill="black"/>
<path d="M24.7471 19.7461L24.4746 20.2831V20.4266L24.7112 20.6783L24.8758 19.8002L24.7471 19.7461Z" fill="black"/>
<path d="M25.2011 21.5732L24.7847 21.6254L24.8018 22.2519L24.675 22.2351H24.6561L24.6201 22.3414L24.7109 22.5745L24.7469 22.6472L24.8567 22.718V22.6099L24.9664 22.6285L24.9115 22.8616L25.0932 22.8784L25.2011 22.7534L25.4376 22.9157L25.4016 22.718L25.6193 22.9157L25.8009 22.8784L25.8198 22.9865L25.8369 22.8429L25.729 22.8784L25.6552 22.7534L25.765 22.6826L25.6931 22.6472H25.5833L25.5473 22.7534L25.4565 22.6099L25.3108 22.664L25.3297 22.7534L25.1651 22.6472L25.0572 22.4309L25.2919 21.948L25.184 21.7336L25.2011 21.5732Z" fill="black"/>
<path d="M22.2229 21.626L21.7877 21.6987L21.623 21.8945L21.7498 22.1275L21.8955 22.1629L22.1132 22.0026L22.2589 21.7155L22.2229 21.626Z" fill="black"/>
<path d="M26.0926 22.8975L25.875 22.9683L26.0926 23.1305V23.22H25.911L25.9469 23.3636L26.1286 23.578L26.1096 23.4885L26.1834 23.4699L26.0983 23.2368L26.2913 23.2554L26.2005 22.987L26.0926 22.8975Z" fill="black"/>
<path d="M24.8379 22.9512L24.9666 23.0574V23.0761L25.0744 23.2364L25.1482 23.2197L25.1653 22.9866L24.8379 22.9512Z" fill="black"/>
<path d="M25.6025 23.0215V23.2005L25.6934 23.111L25.8202 23.1837L25.6025 23.0215Z" fill="black"/>
<path d="M25.2749 23.291L25.3468 23.649L25.6193 23.3992V23.291L25.5474 23.3451L25.2749 23.291Z" fill="black"/>
<path d="M25.8561 23.3096L25.7463 23.6676L25.6934 23.8279L25.7653 23.6676L25.8561 23.5426V23.3096Z" fill="black"/>
<path d="M25.6382 23.4336L25.5644 23.6834L25.5285 23.7207L25.4565 23.7729L25.6193 23.9351L25.6931 23.8624L25.6552 23.6834L25.729 23.469L25.6382 23.4336Z" fill="black"/>
<path d="M24.6563 23.542L24.6752 23.721L24.6033 23.6669L24.6203 23.7918L24.4935 23.9354L24.0942 24.4369L24.3119 24.258L24.4935 23.9522L24.5295 23.9354L24.7471 23.7564L24.6563 23.542Z" fill="black"/>
<path d="M26.2381 23.5771L26.274 23.7916L26.0924 23.8456V23.9705H25.9826L25.8199 24.1682L25.8558 24.0414L25.729 23.9892L25.4376 24.2577L25.3657 24.4889L25.4376 24.5262L25.5474 24.2745L25.765 24.3285L25.8199 24.2036L25.9826 24.2745L25.9467 24.5429L26.1832 24.597L26.2551 24.5262L26.2911 24.6511L26.3649 24.5262L26.274 24.364L26.3459 24.2036L26.4917 24.418L26.4727 24.2577L26.5825 24.1309L26.5106 23.8456H26.4197L26.4368 23.6666L26.2381 23.5771Z" fill="black"/>
<path d="M25.8917 23.5947L25.8558 23.632L25.8198 23.7029L25.8747 23.7383L26.0185 23.6674L26.0015 23.5947H25.8917Z" fill="black"/>
<path d="M17.3537 23.6133L17.2817 23.6841L17.3366 23.7568L17.3537 23.6133Z" fill="black"/>
<path d="M13.7755 23.9355L13.8115 23.9523L13.9023 24.025L13.8115 23.9896L13.7944 24.0791L13.7396 24.383L13.7036 24.3103L13.7566 24.6329L13.8304 24.8846L14.1199 24.9013L14.2656 24.7224L14.1388 24.329L13.8664 23.9355H13.8115H13.7755Z" fill="black"/>
<path d="M25.4017 24.5791L25.3828 24.6518L25.4926 24.5791H25.4017Z" fill="black"/>
<path d="M23.9843 24.7764L23.7667 25.1884L23.621 25.2425L23.6948 25.2779L23.6399 25.3674L23.2577 25.4923L23.0041 25.8689L22.55 26.0479L22.4762 26.3686L22.1317 26.3164L22.0598 26.2437L21.8403 26.4768V26.6744L21.9501 26.7266L21.9141 26.8534L22.0409 26.8888H21.9501L22.0598 26.9596L21.986 27.0324L22.1507 26.9783L22.2226 27.3717L22.6219 27.3008L22.6767 27.4612L23.0041 27.2822L23.1668 27.3008V27.3717L23.4034 27.3176L23.4223 27.4966L23.5302 27.4425L23.8935 27.1927L23.8386 27.1386L23.8935 27.1573L23.9843 26.9783L23.8575 26.9056L24.0203 26.7098L24.0752 26.7452L24.2568 26.6017L24.2209 26.4059L24.3836 26.2269L24.3306 26.1542L24.4744 26.2083L24.6391 26.1188L24.3306 25.9752L24.2928 25.9044L24.3836 25.8689L24.0941 25.6005L24.2928 25.5632L24.1849 25.4569L24.5123 25.3488L24.3836 25.2425L24.6939 25.0635L24.4385 25.0094L24.3306 25.0635L24.3477 24.9554L24.2209 25.0262L24.2568 24.8845L24.0941 24.7764L24.0203 24.9013L23.9843 24.7764Z" fill="black"/>
<path d="M17.5356 25.0801L17.5716 25.1882L17.6094 25.1341L17.5356 25.0801Z" fill="black"/>
<path d="M27.1276 25.1162L27.0557 25.2952L27.1276 25.243V25.1162Z" fill="black"/>
<path d="M26.9816 25.2588L26.8359 25.5813L26.9097 25.8498L27.1084 25.9579L27.0006 25.8498L26.9646 25.6708L27.2182 25.6522L27.0365 25.5813L27.1633 25.4732V25.3483L26.8908 25.5813L27.0006 25.4732L26.9816 25.2588Z" fill="black"/>
<path d="M17.9536 25.4922L18.0444 25.7252L18.4267 25.9751L18.6803 26.3163L18.9717 26.458L19.0625 26.7992L19.3161 26.9782L19.4069 27.049L19.7702 27.5692L20.442 28.0167L20.6237 28.1416L20.6066 28.0521L20.7883 28.1062L20.8242 28.0334L20.9321 28.1229L21.0419 27.5319L20.9151 27.3529L20.6975 27.3361L20.6596 27.407L20.6975 27.3007L20.5877 27.2821L20.5688 27.0677L20.2433 26.9949L20.3871 26.7805L20.2603 26.7097L20.2017 26.7395L20.1619 26.6854L20.1884 26.691L20.0976 26.6202L20.0238 26.5848L20.0068 26.6556L19.6075 26.3163L19.5886 26.4412L19.3161 26.1727L19.2442 26.1186L18.79 25.8856L18.826 25.7961L18.6084 25.6003L17.9536 25.4922Z" fill="black"/>
<path d="M26.2742 25.582L25.9468 25.8692L25.1483 25.94L25.0745 26.0836L24.9836 26.0481L24.9117 26.1376V26.1731L24.8568 26.3334L24.802 26.3166L24.8758 26.4956L24.8379 26.4583L24.7301 26.6019V26.7641L24.5654 26.9953L24.6033 27.1575L24.766 27.1221L24.7471 27.4428L24.7301 27.5696L24.8758 27.5509L25.0026 27.5323L24.9477 26.9599L25.1104 26.8536H25.2012L25.1293 27.0494L25.3299 27.1221L25.2921 27.2824H25.4208L25.4567 27.1929L25.6554 27.1221L25.4737 26.9785L25.5646 26.8704L25.2561 26.6373L25.347 26.656L25.82 26.2626L25.347 26.3875L25.2012 26.5665L25.0934 26.5851L24.9288 26.4416L24.9836 26.1898L26.0566 25.94L26.2742 25.582Z" fill="black"/>
<path d="M21.6417 25.7617L21.5679 25.8158L21.6227 25.9053L21.6965 25.8158H21.6776L21.6417 25.7617Z" fill="black"/>
<path d="M26.8742 25.8857L26.8193 25.9398L26.8553 26.0107L26.965 25.9585L26.8742 25.8857Z" fill="black"/>
<path d="M27.5817 25.9746L27.4189 26.0641L27.5628 26.0473L27.5817 25.9746Z" fill="black"/>
<path d="M26.8908 26.1006L26.8359 26.1901L27.0176 26.1547L26.9816 26.1192L26.8908 26.1006Z" fill="black"/>
<path d="M18.0806 26.1729L18.3171 26.2791L18.1714 26.1896V26.1729H18.0806Z" fill="black"/>
<path d="M18.8979 26.1729L19.0796 26.2978L18.9888 26.3164L18.8979 26.1729Z" fill="black"/>
<path d="M27.5627 26.2627L27.2372 26.3335L26.9818 26.4771L26.9458 26.5852L27.0177 26.4585L27.0915 26.5125L27.4548 26.3876L27.6725 26.423L27.5627 26.2627Z" fill="black"/>
<path d="M26.3102 26.3691L26.1096 26.3878L26.0566 26.4959L26.3102 26.3691Z" fill="black"/>
<path d="M25.856 26.3867L25.6743 26.4054L25.6932 26.4762H25.7103L25.856 26.3867Z" fill="black"/>
<path d="M18.5538 26.4961L18.48 26.5129L18.5708 26.621L18.6995 26.7105L18.7165 26.6024L18.5538 26.4961Z" fill="black"/>
<path d="M19.9521 26.5117L19.9711 26.6199L20.024 26.5658L19.9521 26.5117Z" fill="black"/>
<path d="M20.624 26.5479L20.5161 26.5851L20.588 26.6019L20.624 26.6373V26.5479Z" fill="black"/>
<path d="M26.6732 26.5664L26.4727 26.6745L26.6373 26.7454L26.783 26.6373L26.6732 26.5664Z" fill="black"/>
<path d="M20.6068 26.835L20.5879 26.889H20.7336L20.6068 26.835Z" fill="black"/>
<path d="M19.0073 27.085L18.9165 27.139L19.0982 27.2639L19.0073 27.085Z" fill="black"/>
<path d="M25.7103 27.1035L25.6194 27.2471L25.5835 27.4074L25.7292 27.2825H25.6554L25.7103 27.1035Z" fill="black"/>
<path d="M21.042 27.1738L20.8414 27.1925L20.7695 27.3006H20.9512L21.0061 27.4423L21.2237 27.4796L21.2596 27.3715L21.1139 27.3528L21.042 27.1738Z" fill="black"/>
<path d="M25.6195 27.1738L25.5116 27.2279L25.4927 27.3715L25.5646 27.3528L25.6024 27.2633L25.6195 27.1738Z" fill="black"/>
<path d="M21.496 27.3535L21.4771 27.4971H21.5868L21.6587 27.3908L21.496 27.3535Z" fill="black"/>
<path d="M19.3711 27.4971L19.443 27.6052V27.5325L19.3711 27.4971Z" fill="black"/>
<path d="M26.6372 27.5693L26.4196 27.6048L26.3647 27.6943L26.6372 27.5693Z" fill="black"/>
<path d="M26.7285 27.6758L26.1835 27.8734L25.7842 28.1587L25.7464 28.2482L25.7104 28.3209L25.8562 28.2855L25.9829 28.196L26.7285 27.6758Z" fill="black"/>
<path d="M26.1835 27.7646L26.0378 27.8001L25.9829 27.8728L26.1475 27.8187L26.1835 27.7646Z" fill="black"/>
<path d="M25.9829 27.8379L25.8921 27.8733L25.928 27.9087L25.9829 27.8379Z" fill="black"/>
<path d="M25.6021 27.8906L25.4924 28.0174L25.2388 28.0883L24.9663 28.0696L24.8377 28.1777L24.7847 28.2132H24.8377L25.2748 28.1423L25.6381 27.9447L25.6021 27.8906Z" fill="black"/>
<path d="M21.0232 28.1064L20.9513 28.2481L20.7886 28.3022L21.1519 28.3376L21.133 28.4271L21.5323 28.4644L21.8047 28.4103L22.3327 28.4812L23.2221 28.4458L23.3848 28.4644L23.3489 28.2668L23.0045 28.3022L22.8398 28.1419L22.4235 28.1064L22.2419 28.2314L21.8407 28.2481L21.659 28.1419L21.0232 28.1064Z" fill="black"/>
<path d="M23.2768 28.1064L22.8945 28.1773L23.1122 28.1959L23.2768 28.1064Z" fill="black"/>
<path d="M24.2928 28.1768L24.2398 28.2122L24.3836 28.2849L24.0751 28.2663L23.9673 28.3557L24.0392 28.4266L24.6391 28.2122L24.2928 28.1768Z" fill="black"/>
<path d="M23.839 28.2852L23.7671 28.4101H23.9298L23.9677 28.2852H23.839Z" fill="black"/>
<path d="M23.5134 28.3203L23.3677 28.3371L23.5304 28.4639L23.695 28.3371L23.5134 28.3203Z" fill="black"/>
<path d="M24.8208 28.3203L24.5483 28.4098L24.8019 28.4639H24.8208L24.9287 28.4993L25.0385 28.4266V28.4098L24.8379 28.3203H24.8208Z" fill="black"/>
<path d="M7.1449 11.2275L7.12598 11.3338L7.1449 11.3711L7.19978 11.263L7.1449 11.2275Z" fill="black"/>
<path d="M6.74549 12.1035L6.72656 12.1576L6.81739 12.1035H6.74549Z" fill="black"/>
<path d="M6.94428 12.8926L6.92725 13.107L7.08999 13.1424L7.10891 13.0529L7.23569 13.0343L6.94428 12.8926Z" fill="black"/>
<path d="M7.7085 20.9463L7.81636 21.0712H7.94314L7.7085 20.9463Z" fill="black"/>
<path fill-rule="evenodd" clip-rule="evenodd" d="M6.34644 13.7842L6.21461 14.0973L6.12793 14.5226L6.12973 14.8375L6.41868 14.5208L6.58121 14.0013L6.34644 13.7842Z" fill="black"/>
<path d="M20.3509 7.32422L20.2241 7.34286L20.315 7.39507L20.3509 7.32422Z" fill="white"/>
<path d="M24.5288 6.98535L24.474 7.02078L24.3661 7.07485L24.421 7.19976L24.4929 7.36011L24.3661 7.50367L24.474 7.36011L24.402 7.32468L24.421 7.19976L24.3472 7.0562L24.474 7.00213L24.5288 6.98535Z" fill="white"/>
<path d="M23.3481 7.03809L23.3841 7.30657L23.3671 7.28979L23.3481 7.03809Z" fill="white"/>
<path d="M21.7134 8.07617L21.7683 8.61314L22.1316 9.13332L22.7485 9.36451L23.3313 9.27502L23.3843 9.34773L23.3313 9.29366L22.9131 9.4018L23.1307 9.65164L23.0948 9.93877L22.6047 10.2595L23.0948 9.7952L22.9491 9.45401L22.459 9.29366L22.3852 9.45401L22.1865 9.43723H22.3852L22.44 9.32909L22.1505 9.18553L21.7493 8.66721L21.7134 8.07617Z" fill="white"/>
<path d="M19.316 7.23535L19.4258 7.34349L19.6245 7.3062V7.23535L19.7513 7.28942L19.5337 7.37892L19.4618 7.43298L19.352 7.37892L19.3615 7.41434H19.3709L19.388 7.52248L19.3615 7.41434H19.316L19.2441 7.3957L19.316 7.36027L19.352 7.34349L19.316 7.23535Z" fill="white"/>
<path d="M19.7341 7.73633H19.7511L19.4976 7.9321L19.5884 8.02159L19.4976 7.95074L19.3159 8.02159L19.7341 7.73633Z" fill="white"/>
<path d="M18.1544 8.29102V8.30966L18.1354 8.43458L18.0806 8.3283L18.1354 8.30966L18.1544 8.29102Z" fill="white"/>
<path d="M17.7529 8.30859H17.8986L17.9535 8.41673L17.7719 9.07862L17.9346 8.41673L17.7529 8.30859Z" fill="white"/>
<path d="M18.2983 8.43457L18.4629 8.48864L18.1904 8.46999L18.2983 8.43457Z" fill="white"/>
<path d="M15.7373 8.55859L15.9909 8.61266L15.8641 8.64809L15.7373 8.55859Z" fill="white"/>
<path d="M18.1904 8.70312L18.5178 8.72177L18.2623 8.73855L18.1904 8.70312Z" fill="white"/>
<path d="M15.3914 8.8457L15.2835 9.11419L15.2779 9.11978L15.2646 9.14961L15.0659 9.29317L15.2287 9.83014L15.9194 10.0632L16.3186 10.3317L16.3905 10.6356L16.4643 10.6897L16.61 10.7791L16.8996 11.1912L16.9355 11.3702L16.7917 11.0831L16.4643 10.7064L16.3905 10.6356L16.3186 10.3857L15.9913 10.134L15.2646 9.90099L15.3006 10.0278L15.1927 10.2235L15.2835 10.0278L15.0659 9.29317L15.2779 9.11978L15.3914 8.8457Z" fill="white"/>
<path d="M12.7216 11.46L12.7046 11.5849L12.6138 11.5662L12.7216 11.46Z" fill="white"/>
<path d="M7.67091 12.1221L7.58008 12.3011V12.1929L7.67091 12.1221Z" fill="white"/>
<path d="M12.1405 12.873L12.2503 12.998L12.3771 12.9812L12.1594 13.0707L12.1046 13.1956L12.1954 13.4287L12.0856 13.4641L11.868 13.589V13.7139L11.6864 13.6785H11.6315L11.6504 13.5536L11.4688 13.4809L11.5955 13.1956L11.7961 12.9812L11.9229 13.052L11.9778 12.9271L12.0137 13.0166L12.0497 12.9625L12.1405 12.873Z" fill="white"/>
<path d="M8.50732 13.2666L8.72494 13.302L8.57923 13.3915L8.50732 13.2666Z" fill="white"/>
<path d="M8.7798 13.624L8.8517 13.6427V13.6594L8.79872 13.9111L8.68896 13.9279L8.7798 13.624Z" fill="white"/>
<path d="M8.03418 14.8066L8.10798 15.0397L8.25369 15.1814L8.12501 15.1106L8.03418 14.8066Z" fill="white"/>
<path d="M9.01611 17.5811L9.17885 17.6165L9.25265 17.5811H9.01611Z" fill="white"/>
<path d="M11.7053 18.4756L11.5767 18.6173V18.6005L11.7053 18.4756Z" fill="white"/>
<path d="M16.9185 19.9609L16.7009 20.0859L16.646 20.5501L16.682 20.0859L16.9185 19.9609Z" fill="white"/>
<path d="M16.1919 20.2119L16.5193 20.5699L16.2468 20.3555L16.1919 20.2119Z" fill="white"/>
<path d="M17.8989 9.14941L17.9178 9.27433L18.0124 9.26128L18.0257 9.25755L18.0276 9.25942L18.0446 9.25755L18.1544 9.34705V9.56146L18.1354 9.34705L18.0276 9.25942L18.0124 9.26128L17.9178 9.29298L17.9159 9.29671L17.9178 9.31162L17.8667 9.43841L17.7721 9.70503L17.704 9.85605L17.8629 10.1339L17.7002 9.86537L17.704 9.85605L17.7002 9.84859L17.8667 9.43841L17.9159 9.29671L17.8989 9.14941Z" fill="white"/>
<path d="M23.6763 9.34668L23.9677 9.88364H23.8939L23.9488 9.865L23.8579 9.68601L23.6763 9.34668Z" fill="white"/>
<path d="M22.2231 10.3311L22.1682 10.4019L22.2591 10.4746L22.1152 10.4373L22.2231 10.3311Z" fill="white"/>
<path d="M22.1115 10.4414L22.0963 10.475L21.9147 10.6353L21.8957 10.654L21.6422 10.5104L21.3867 10.475L21.6592 10.5104L21.9147 10.6353L22.0963 10.4563L22.1115 10.4414Z" fill="white"/>
<path d="M25.7654 10.833L25.7295 10.8852L25.8922 10.9934L25.7654 10.833Z" fill="white"/>
<path d="M25.02 10.958V11.0829L25.1109 11.0121L25.02 10.958Z" fill="white"/>
<path d="M25.6386 11.333L25.6556 11.3703L25.6745 11.3871L25.8013 11.4598L25.8373 11.6556V11.5493L25.8562 11.6388L25.947 11.6201L25.8562 11.691L25.7464 11.7991L25.6026 12.0863L25.6745 12.1757H25.6196V12.2652V12.5505V12.64L25.3301 12.998L25.2014 13.2497L24.9668 13.4454L25.2204 13.1061L25.0198 13.1602L25.2393 13.0875L25.6196 12.5505L25.6026 12.3715L25.5477 12.3361L25.6026 12.282V12.2652L25.5648 12.1217L25.8013 11.6201L25.8202 11.5847L25.7843 11.4598L25.6745 11.4057L25.6026 11.3703L25.6386 11.333Z" fill="white"/>
<path d="M15.6831 11.71L15.8099 11.7286L15.702 11.8181L15.5923 11.7454L15.6831 11.71Z" fill="white"/>
<path d="M19.6797 11.7803H19.8065L19.8424 11.9071L19.8973 12.3172L19.8614 12.265V12.3172L19.9522 12.4608L19.8973 12.6044L19.8803 12.444L19.7895 12.4254H19.8614L19.7895 11.8176L19.6248 11.8343L19.6419 11.9574L19.6438 11.9593L19.6419 11.9611L19.6608 12.1028L19.6078 11.9965L19.6419 11.9611V11.9574L19.498 11.8343L19.6797 11.7803Z" fill="white"/>
<path d="M20.8417 11.8525H20.9155V12.2646L20.7508 12.4436L20.8417 12.479L20.4253 12.7829L20.3515 12.9433L20.1699 13.0327L19.9712 12.9805L20.2437 12.9078L20.4424 12.6748L20.6978 12.3354L20.8417 11.8525Z" fill="white"/>
<path d="M18.0996 11.9238L18.1167 11.9965L17.8991 12.0674L17.9539 12.2277L17.882 12.3899L17.8271 12.1028L18.0996 11.9238Z" fill="white"/>
<path d="M19.3885 13.0332L19.4434 13.16L19.3525 13.3203L19.3885 13.0332Z" fill="white"/>
<path d="M18.0446 13.2119L18.1165 13.3387L17.9727 13.3909H17.9538L17.8989 13.2846L18.0446 13.2119Z" fill="white"/>
<path d="M16.4097 13.2852L16.3378 13.3392L16.4646 13.4455L16.2905 13.5387L16.2659 13.5574L16.3189 13.6431L16.228 13.6599L16.3908 13.7867L16.3189 13.8389L16.1372 13.6599L16.2659 13.5574L16.264 13.5536L16.2905 13.5387L16.4097 13.4455L16.2829 13.3019L16.4097 13.2852Z" fill="white"/>
<path d="M22.5505 13.3555L22.6413 13.4095L22.4956 13.5699L22.5505 13.3555Z" fill="white"/>
<path d="M18.0088 13.5889L18.1545 13.6597L18.0807 13.697L18.0088 13.5889Z" fill="white"/>
<path d="M14.6121 13.7129L15.1571 13.9646L15.3388 13.9459L15.1571 14.0168L14.6651 13.7856L14.3756 13.9105L14.2658 14.179L14.2109 13.9105L14.4115 13.7856L14.6121 13.7129Z" fill="white"/>
<path d="M25.5647 13.7324L25.5477 13.9282L25.4209 13.7678L25.5647 13.7324Z" fill="white"/>
<path d="M17.8819 13.8389L17.9538 13.8929L17.8081 14.0011L17.8819 13.8389Z" fill="white"/>
<path d="M15.81 14.1074V14.3051L15.7021 14.1801L15.81 14.1074Z" fill="white"/>
<path d="M14.4473 14.9668H14.8106L14.8655 15.0209L14.6838 15.0917L14.4473 14.9668Z" fill="white"/>
<path d="M16.6274 15.4688L16.6633 15.5396L16.5195 15.5042L16.6274 15.4688Z" fill="white"/>
<path d="M19.3883 17.0078L19.4792 17.1868L19.3164 17.1141L19.2256 17.0787L19.3164 17.0432L19.3883 17.0078Z" fill="white"/>
<path d="M23.6765 17.6699L23.7124 17.7408L23.5497 17.8303L23.6046 17.7948L23.5308 17.7408L23.6405 17.7762L23.5856 17.6867L23.6765 17.6699Z" fill="white"/>
<path d="M23.8223 17.6865L23.8355 17.707L23.8393 17.7052V17.7108L23.8942 17.7947L23.8223 17.8133L23.8393 17.7108L23.8355 17.707L23.7314 17.7406L23.8223 17.6865Z" fill="white"/>
<path d="M23.9679 17.9551L23.7673 18.0091L23.7125 18.2608L23.3491 18.6897L23.2942 18.7605H23.2924L23.2772 18.7792V18.9227H23.4229L23.3851 19.029L23.2223 18.9395L23.2772 18.7792L23.1315 18.7251L22.7871 18.6188L22.9309 18.5815L23.0956 18.7083L23.1504 18.7251L23.1864 18.7083H23.2772L23.3132 18.6897H23.3491L23.7125 18.2422L23.7673 17.9924L23.9679 17.9551Z" fill="white"/>
<path d="M24.1306 18.0986L24.2403 18.2068L24.1495 18.2776L24.0946 18.2236L24.0757 18.1881L24.0946 18.1714L24.1306 18.0986Z" fill="white"/>
<path d="M23.4585 18.1885L23.6212 18.2071L23.4944 18.2426L23.4585 18.1885Z" fill="white"/>
<path d="M23.9678 18.6357L24.0037 18.7084L23.877 18.7606L23.9678 18.6357Z" fill="white"/>
<path d="M16.9546 18.6543L17.1362 18.6711L16.9546 18.7606V18.6543Z" fill="white"/>
<path d="M22.5144 19.083L22.3687 19.1912L22.2778 19.1371L22.5144 19.083Z" fill="white"/>
<path d="M16.9736 19.1377L17.0815 19.2085L16.9736 19.2626V19.1377Z" fill="white"/>
<path fill-rule="evenodd" clip-rule="evenodd" d="M18.5839 19.5905L18.3711 19.5234Z" fill="white"/>
<path d="M18.6133 19.5532L18.3179 19.4609L18.2905 19.454L18.586 19.5463L18.6133 19.5532Z" fill="white"/>
</svg>
