<svg width="34" height="34" viewBox="0 0 34 34" fill="none" xmlns="http://www.w3.org/2000/svg">
<path d="M25.7031 5.38643C25.6523 5.41347 25.584 5.46949 25.5488 5.51198C25.5137 5.55448 25.4805 5.58925 25.4727 5.58925C25.4648 5.58925 25.4453 5.55448 25.4277 5.51198C25.3945 5.42506 25.3203 5.38257 25.2578 5.4154C25.2305 5.43086 25.2187 5.45983 25.2148 5.53516C25.2109 5.5989 25.1992 5.63754 25.1797 5.64719C25.1641 5.65492 25.1211 5.67424 25.0859 5.69162C24.9727 5.74763 24.957 5.73798 24.9727 5.62595C24.998 5.44631 24.9043 5.42313 24.7148 5.5622C24.6172 5.63367 24.5723 5.65299 24.4766 5.66651C24.2695 5.69548 24.0859 5.84035 24.0156 6.03157C23.9551 6.19383 23.875 6.25177 23.75 6.2228C23.6816 6.20735 23.6641 6.21314 23.5527 6.28654C23.3789 6.40244 23.3066 6.47584 23.2832 6.56276C23.2676 6.61877 23.2227 6.67479 23.1055 6.78489C23.0176 6.86601 22.8789 7.01474 22.7949 7.11712C22.6426 7.30448 22.4844 7.45707 22.3848 7.51502C22.3535 7.5324 22.3164 7.58069 22.3008 7.61932C22.2832 7.65989 22.1738 7.79316 22.0527 7.92065C21.8027 8.17948 21.75 8.27026 21.7695 8.4074L21.7812 8.49819L21.6738 8.55034C21.498 8.63533 21.4473 8.77054 21.5215 8.9521C21.5586 9.04482 21.5645 9.03323 21.3633 9.1781C21.2832 9.23411 21.2734 9.24957 21.2734 9.31331C21.2734 9.38284 21.2695 9.38864 21.1035 9.48329C20.8809 9.6127 20.6699 9.77688 20.6016 9.87346C20.5488 9.95073 20.5098 10.1091 20.543 10.1091C20.5527 10.1091 20.627 10.0608 20.707 10.0009C20.9375 9.83097 21.0391 9.78847 21.0937 9.84256C21.1426 9.89085 21.1172 9.95073 21 10.057C20.8437 10.2018 20.7305 10.2385 20.5508 10.2076C20.4316 10.1864 20.4082 10.1883 20.2949 10.225C20.0195 10.3158 19.6406 10.5147 19.0898 10.8586C18.8125 11.0324 18.793 11.0498 18.8027 11.0942C18.8516 11.2796 18.8301 11.3646 18.707 11.4863C18.666 11.5288 18.6387 11.5771 18.6289 11.6273C18.623 11.6679 18.6016 11.778 18.584 11.8688C18.543 12.0832 18.5488 12.0986 18.6797 12.0986C18.7852 12.0986 18.8711 12.1353 18.8711 12.1817C18.8711 12.1952 18.7852 12.286 18.6816 12.3845L18.4902 12.5641L18.5371 12.6008C18.5898 12.6453 18.6543 12.6491 18.748 12.6163C18.8984 12.5622 18.8809 12.6974 18.7168 12.8519C18.5918 12.9678 18.5684 13.0258 18.5977 13.1533C18.6191 13.2498 18.6855 13.3039 18.8262 13.3445C18.8887 13.3619 18.9707 13.3947 19.0117 13.416C19.0664 13.4469 19.1016 13.4527 19.168 13.443C19.3711 13.4121 19.6797 13.2383 20.0918 12.9215C20.2871 12.7708 20.3125 12.7418 20.3848 12.6066C20.4277 12.5255 20.4727 12.4598 20.4824 12.4598C20.5312 12.4618 20.5723 12.6086 20.5898 12.8481C20.6191 13.2112 20.6953 13.4488 20.8418 13.6323C20.8809 13.6806 20.8984 13.7192 20.8906 13.7385C20.8828 13.7559 20.873 13.7965 20.8672 13.8312C20.8594 13.8853 20.8672 13.8969 20.9395 13.9413C20.9902 13.9742 21.0195 14.007 21.0195 14.0321C21.0195 14.0939 21.0547 14.1461 21.1777 14.2716L21.291 14.3875L21.3125 14.6676C21.3418 15.0539 21.3457 15.0732 21.4023 15.0732C21.4707 15.0732 21.6504 15.0327 21.6797 15.0114C21.6914 14.9998 21.7031 14.9593 21.7031 14.9206C21.7031 14.826 21.7559 14.6097 21.793 14.5556C21.8203 14.515 21.8301 14.5131 21.9473 14.5247C22.0645 14.5363 22.084 14.5324 22.1992 14.4764C22.4336 14.3624 22.7051 13.9935 22.7324 13.7521C22.7383 13.7038 22.7285 13.5473 22.709 13.4082C22.6562 13.0123 22.6758 12.9756 23.0312 12.7843C23.2617 12.6607 23.3633 12.5912 23.3633 12.5545C23.3633 12.5429 23.4043 12.4502 23.4531 12.3536C23.502 12.2551 23.5391 12.1604 23.5352 12.1431C23.5312 12.1257 23.4922 12.1006 23.4375 12.0851C23.3848 12.0716 23.3437 12.0484 23.3437 12.0368C23.3437 12.0233 23.3711 11.9847 23.4062 11.9499C23.457 11.8997 23.4629 11.8823 23.4434 11.8591C23.418 11.8301 23.2988 11.8012 23.1094 11.7799C22.9551 11.7625 22.9355 11.7548 22.9043 11.693C22.8672 11.6215 22.8672 11.5327 22.9043 11.326C22.9199 11.2352 22.9336 11.1232 22.9336 11.0768C22.9336 11.0015 22.9551 10.9629 23.1523 10.6809C23.7539 9.82131 24.1426 9.33649 24.2266 9.33649C24.2734 9.33649 24.2715 9.29013 24.2129 9.11049C24.1855 9.02744 24.1641 8.94438 24.1641 8.92699C24.1641 8.88064 24.2266 8.84587 24.4141 8.79372C24.502 8.77054 24.5742 8.74543 24.5742 8.73963C24.5742 8.73384 24.5566 8.701 24.5352 8.6701C24.4609 8.56 24.4727 8.53489 24.6836 8.39195L24.8008 8.31276L24.9961 8.39968C25.2871 8.53102 25.3555 8.56965 25.3965 8.61988C25.4531 8.68941 25.4434 8.73191 25.373 8.74736C25.2246 8.7802 25.0645 9.02357 24.9785 9.34808C24.9336 9.51226 24.9199 9.53351 24.8398 9.55669C24.8145 9.56441 24.8086 9.57793 24.8184 9.60304C24.8535 9.6861 24.8516 9.70155 24.7949 9.7286C24.7637 9.74598 24.6777 9.82711 24.5996 9.91016C24.5234 9.99322 24.4297 10.0782 24.3906 10.0995C24.3379 10.1265 24.3203 10.1497 24.3203 10.1864C24.3203 10.2134 24.2988 10.281 24.2715 10.337C24.2227 10.4413 24.2227 10.4413 24.252 10.6268C24.2676 10.7311 24.2988 10.9378 24.3203 11.0884C24.3633 11.3859 24.4121 11.5559 24.4687 11.6196C24.4902 11.6408 24.6289 11.72 24.7793 11.7934C25.041 11.9209 25.0586 11.9267 25.1699 11.9209C25.3359 11.9113 25.5215 11.8186 25.8535 11.579C26.2754 11.2738 26.4687 11.1715 26.623 11.1715C26.6895 11.1715 26.8457 11.0517 27.0645 10.8354C27.375 10.5263 27.6211 10.1168 27.6211 9.91209C27.6211 9.71121 27.4102 9.49488 27.1641 9.44272C27.1133 9.43113 27.1094 9.42727 27.125 9.36932C27.1328 9.33456 27.1406 9.26309 27.1426 9.20707C27.1426 9.1356 27.1562 9.08925 27.1875 9.04868C27.2109 9.01585 27.2305 8.98687 27.2305 8.98301C27.2305 8.97722 27.1562 8.96756 27.0645 8.95983C26.8828 8.94631 26.873 8.93858 26.8496 8.8111C26.8379 8.75315 26.8242 8.7377 26.7598 8.71259C26.707 8.69134 26.6738 8.66237 26.6504 8.61215C26.6133 8.53489 26.6055 8.56965 26.7754 8.08869C26.7793 8.0771 26.6836 7.96121 26.5625 7.82986C26.4414 7.70045 26.332 7.5749 26.3184 7.55172C26.2852 7.4957 26.2871 7.43776 26.3262 7.27164L26.3594 7.12871L26.2344 7.01088C26.1445 6.92782 26.0801 6.88533 26.0117 6.86408L25.9141 6.83318L25.8496 6.584C25.8145 6.44493 25.7871 6.31552 25.791 6.2962C25.793 6.26723 25.8203 6.25177 25.8906 6.23439C25.9648 6.21507 26.0137 6.18417 26.1016 6.09725C26.1641 6.03737 26.2148 5.97556 26.2148 5.96397C26.2148 5.93307 26.168 5.91761 26.0664 5.91761C25.9121 5.91761 25.8477 5.84808 25.957 5.79786C25.998 5.77854 26.0117 5.75536 26.0195 5.69741C26.0293 5.62401 26.0332 5.62015 26.123 5.59697C26.2461 5.56607 26.2539 5.55641 26.1953 5.51005C26.1289 5.45597 25.875 5.33814 25.8301 5.33814C25.8105 5.34007 25.7539 5.36132 25.7031 5.38643Z" fill="black"/>
<path d="M11.9904 6.87774C11.9826 6.88353 11.9767 6.90478 11.9767 6.92216C11.9767 6.96659 11.926 7.00908 11.9084 6.98204C11.8674 6.91637 11.8244 6.92216 11.6291 7.02067C11.4435 7.11339 11.3517 7.1752 11.3517 7.20997C11.3517 7.25826 11.4377 7.32393 11.5451 7.35677C11.7092 7.40506 11.7209 7.4263 11.631 7.4997C11.5607 7.55765 11.5529 7.55958 11.4299 7.54606C11.2814 7.52868 11.2209 7.52868 11.1486 7.54799C11.09 7.56151 11.0549 7.62912 11.0724 7.69286C11.0822 7.72763 11.0978 7.73342 11.1857 7.73342C11.3283 7.73342 11.4181 7.7933 11.426 7.89374C11.4318 7.95748 11.4221 7.9768 11.3537 8.04634C11.2736 8.1236 11.2717 8.1236 11.1662 8.11008C11.0607 8.09849 11.0607 8.09849 11.049 8.15257C11.0178 8.29937 11.0119 8.28778 11.1213 8.3013C11.2795 8.32255 11.3928 8.39595 11.5861 8.60456C11.7697 8.79965 11.8791 8.87305 11.9924 8.87305C12.0256 8.87305 12.1721 8.846 12.3146 8.8151C12.59 8.75522 12.7209 8.74363 12.8068 8.77647C12.8459 8.79192 12.8752 8.78806 12.9357 8.75715C12.9767 8.73591 13.1506 8.67796 13.3205 8.6316C13.8439 8.4848 13.9885 8.38243 14.0041 8.15064C14.0099 8.0502 14.0041 8.0135 13.9611 7.93044C13.9006 7.81069 13.8967 7.75081 13.9494 7.70445C13.9982 7.66195 13.9982 7.6156 13.9533 7.55958C13.9221 7.52288 13.9103 7.51902 13.8752 7.53833C13.8185 7.56731 13.801 7.55572 13.7853 7.47459C13.7658 7.36836 13.6271 7.2853 13.5842 7.35097C13.5764 7.36449 13.5588 7.40506 13.549 7.44176C13.5236 7.52868 13.4982 7.53447 13.4572 7.463C13.4181 7.39733 13.3928 7.39154 13.2971 7.43789C13.2287 7.4688 13.2267 7.4688 13.1799 7.41858C13.1174 7.3529 13.0627 7.34131 12.8693 7.35097C12.7346 7.3587 12.7072 7.36642 12.6838 7.40119C12.6388 7.46687 12.6213 7.45141 12.633 7.3587C12.6486 7.25633 12.631 7.2428 12.5138 7.26212C12.4318 7.27371 12.4201 7.28144 12.3771 7.36836C12.3244 7.4688 12.2814 7.50163 12.2033 7.50163C12.1388 7.50163 12.1388 7.4688 12.2013 7.34711C12.2795 7.19258 12.258 7.00329 12.1506 6.91444C12.0939 6.86615 12.0178 6.84876 11.9904 6.87774Z" fill="black"/>
<path d="M26.3224 11.9458C26.131 11.9709 25.797 12.054 25.6681 12.11C25.6095 12.137 25.5021 12.1988 25.4298 12.2471C25.2658 12.3572 25.258 12.3959 25.379 12.506C25.4591 12.5794 25.4611 12.5813 25.463 12.7107C25.463 12.8382 25.465 12.8421 25.5158 12.8479C25.5431 12.8517 25.6056 12.8343 25.6505 12.8112L25.7345 12.7706L25.7716 12.815C25.7951 12.8459 25.8048 12.8749 25.7951 12.9097C25.7501 13.097 25.7482 13.1318 25.7755 13.3172C25.8126 13.5567 25.7912 13.6301 25.6798 13.661C25.5451 13.6977 25.4005 13.6185 25.2775 13.4408L25.2208 13.3597L25.0294 13.3481L24.838 13.3365L24.7853 13.3983C24.6857 13.5142 24.4376 14.0319 24.4376 14.1227C24.4376 14.1439 24.4591 14.2077 24.4865 14.2656C24.5158 14.3274 24.547 14.4549 24.5646 14.5727C24.59 14.7466 24.6017 14.7794 24.6466 14.82C24.6974 14.8625 24.7091 14.8644 24.8693 14.8528C25.0314 14.8412 25.0412 14.8432 25.0705 14.8837C25.1154 14.9475 25.1076 15.0672 25.0509 15.1889C25.0099 15.2797 25.004 15.3106 25.0138 15.4033C25.0275 15.525 25.0099 15.552 24.9025 15.5675C24.8458 15.5772 24.8341 15.5714 24.8048 15.5173L24.7697 15.4555L24.59 15.469C24.3576 15.4844 24.047 15.5289 23.9162 15.5675C23.7892 15.6023 23.7404 15.5849 23.5607 15.4439C23.4923 15.3879 23.4181 15.3434 23.3966 15.3434C23.2521 15.3434 22.9806 15.4593 22.3966 15.7684C22.2365 15.8534 22.0705 15.9326 22.0314 15.9461C21.9904 15.9577 21.9103 16.0098 21.8498 16.062C21.7912 16.1141 21.7345 16.1528 21.7248 16.147C21.7169 16.1412 21.7033 16.1122 21.6974 16.0813C21.6876 16.0388 21.6603 16.0118 21.5685 15.9635C21.5041 15.9306 21.4455 15.8959 21.4416 15.8862C21.4357 15.8785 21.4533 15.8495 21.4787 15.8263C21.5373 15.7703 21.5392 15.7278 21.4865 15.6197C21.4084 15.4593 21.3048 15.411 21.2111 15.4941C21.1603 15.5366 21.1681 15.5849 21.2287 15.6293L21.2834 15.6679L21.2384 15.7162C21.1427 15.8167 20.8517 15.9248 20.7521 15.8959C20.7326 15.892 20.6974 15.8823 20.674 15.8746C20.6388 15.865 20.6232 15.8785 20.5802 15.9519C20.5373 16.0214 20.5177 16.0388 20.4767 16.0369C20.3615 16.033 20.3263 16.0118 20.3166 15.9422L20.3068 15.8746L20.088 15.8167C19.9669 15.7838 19.8634 15.7529 19.8576 15.7452C19.8498 15.7394 19.8595 15.7066 19.8771 15.6718C19.8947 15.639 19.9064 15.583 19.9025 15.5501C19.8966 15.496 19.883 15.4806 19.7755 15.4284C19.7072 15.3956 19.6466 15.3628 19.6388 15.357C19.631 15.3492 19.6603 15.3067 19.7033 15.2604C19.8576 15.102 20.0646 14.7833 20.0939 14.6616C20.1037 14.6172 20.1369 14.5921 20.2599 14.5302C20.3459 14.4897 20.4142 14.4453 20.4142 14.4356C20.4142 14.4066 20.3556 14.3834 20.2248 14.3583C20.1564 14.3448 20.0919 14.3236 20.0822 14.3081C20.0646 14.2907 20.0783 14.2367 20.1291 14.0995C20.2072 13.8967 20.2209 13.7596 20.1662 13.7596C20.1173 13.7596 20.0119 13.8368 19.9748 13.8986C19.9455 13.9488 19.9337 13.9527 19.8224 13.9527C19.756 13.9527 19.6544 13.9585 19.5978 13.9643C19.4982 13.9778 19.4923 13.9817 19.3966 14.1111C19.338 14.1884 19.3029 14.2521 19.3127 14.2618C19.3224 14.2714 19.3673 14.2618 19.4181 14.2386C19.4669 14.2154 19.5412 14.1942 19.5841 14.1884C19.674 14.1787 19.8087 14.2251 19.8087 14.2656C19.8087 14.3062 19.6388 14.3796 19.5255 14.3912C19.4709 14.395 19.381 14.3873 19.3205 14.3699C19.2619 14.3545 19.2091 14.3467 19.2033 14.3506C19.1994 14.3564 19.1935 14.5322 19.1935 14.7427C19.1935 15.0904 19.1974 15.1271 19.2326 15.1793C19.2638 15.2256 19.2736 15.2797 19.2814 15.4516C19.2912 15.6525 19.2951 15.6737 19.3673 15.8128C19.4513 15.977 19.4494 16.033 19.3537 16.1045C19.3087 16.1373 19.2931 16.1392 19.2599 16.1199C19.2169 16.0929 19.215 16.0948 19.1935 16.2223C19.172 16.344 19.1525 16.3672 19.0685 16.3672C19.0041 16.3672 18.9806 16.3536 18.8888 16.2609L18.7834 16.1547L18.6584 16.2551L18.5334 16.3575L18.3361 16.3594C18.1349 16.3633 17.9533 16.4058 17.8439 16.4773C17.7912 16.5101 17.7834 16.5777 17.8185 16.6955C17.8634 16.8462 17.7931 16.9466 17.6447 16.9466C17.5295 16.9466 17.5041 16.9235 17.5021 16.8134C17.4982 16.6067 17.4826 16.6086 17.3498 16.8443C17.1994 17.1108 17.092 17.2306 16.8888 17.3619C16.8029 17.416 16.7052 17.4913 16.672 17.53C16.6388 17.5667 16.588 17.6034 16.5607 17.6111C16.5334 17.6169 16.4005 17.669 16.2658 17.7251C16.1213 17.7869 16.0119 17.8236 15.9963 17.8139C15.9826 17.8062 15.8888 17.8062 15.7892 17.8139C15.5509 17.8332 15.5236 17.8545 15.424 18.094C15.381 18.1964 15.3205 18.3103 15.2912 18.347C15.1955 18.4649 14.9689 18.5518 14.8673 18.5112C14.7931 18.4803 14.7541 18.5054 14.6427 18.6464C14.5431 18.7739 14.5138 18.7836 14.3791 18.7314C14.2775 18.6908 14.2209 18.6117 14.217 18.5016C14.2131 18.4069 14.2013 18.4011 14.092 18.432C14.0431 18.4455 14.0138 18.4417 13.9611 18.4127C13.8654 18.3625 13.842 18.3663 13.7814 18.4436C13.717 18.5286 13.7111 18.6696 13.7697 18.7681C13.8048 18.828 13.8068 18.8454 13.7853 18.9362C13.7716 18.9922 13.7423 19.0578 13.7189 19.0849C13.6779 19.1312 13.6701 19.1332 13.5041 19.1197C13.2404 19.1003 13.2326 19.0984 13.1759 19.0018L13.1252 18.9168L12.674 18.9265L12.2209 18.9362L12.1623 18.996L12.1037 19.054L12.1447 19.0868C12.1681 19.1042 12.2033 19.1293 12.2228 19.1409C12.2756 19.1718 12.2384 19.2085 12.1154 19.2529C12.0607 19.2722 12.0158 19.2916 12.0158 19.2974C12.0158 19.3283 12.0841 19.4229 12.1427 19.4751C12.2091 19.5311 12.2189 19.5349 12.3185 19.5234C12.4103 19.5118 12.4396 19.5176 12.5334 19.562C12.6642 19.6277 12.7599 19.732 12.8752 19.9425C12.9416 20.0642 12.9787 20.1125 13.0275 20.1376C13.1213 20.182 13.1213 20.182 13.0627 20.2709L13.008 20.3501L13.0666 20.4795C13.133 20.6243 13.1408 20.6533 13.1681 20.9064C13.1798 21.0068 13.2013 21.1343 13.2189 21.1884L13.2482 21.2888L13.1701 21.4105C13.1271 21.4781 13.0158 21.7041 12.924 21.9108C12.7775 22.2372 12.7423 22.3009 12.6545 22.3917C12.5549 22.4922 12.2033 22.7819 12.1369 22.8167C12.1134 22.8283 12.049 22.8167 11.9279 22.78C11.8302 22.751 11.5666 22.6853 11.342 22.6351C10.965 22.5521 10.9084 22.5327 10.6467 22.411C10.3595 22.2778 10.1974 22.2275 10.1076 22.2449C10.0802 22.2507 10.0177 22.2372 9.97087 22.216C9.92204 22.1947 9.80876 22.1657 9.72087 22.1522C9.54509 22.1232 9.47868 22.0962 9.33806 21.9958C9.27165 21.9475 9.22673 21.9301 9.17204 21.9301C9.0822 21.9301 9.07439 21.9359 8.9904 22.0402C8.9279 22.1213 8.924 22.1232 8.81267 22.1232C8.5529 22.1232 8.41814 22.1947 8.36345 22.3608C8.34197 22.4265 8.34587 22.44 8.39079 22.5173C8.41814 22.5656 8.44158 22.6197 8.44158 22.639C8.44158 22.6583 8.40251 22.7182 8.35564 22.7703C8.31072 22.8244 8.25798 22.8939 8.2404 22.9268C8.21111 22.9828 8.12322 23.0562 7.8947 23.2146C7.83611 23.2551 7.76384 23.3092 7.73455 23.3363L7.68181 23.3826L7.72087 23.4638C7.77556 23.5739 7.75212 23.6202 7.58416 23.7535C7.43572 23.8713 7.38689 23.9408 7.38689 24.0336C7.38689 24.0838 7.31462 24.163 6.86931 24.6092L6.35174 25.1268L6.36345 25.2041C6.38299 25.3277 6.44549 25.4745 6.5197 25.5692L6.58806 25.6599L6.55291 25.7314C6.53338 25.77 6.47088 25.8357 6.41619 25.8782C6.30486 25.9593 6.29314 25.9941 6.34588 26.083C6.39666 26.1699 6.34002 26.2896 6.16228 26.4654C6.0822 26.5446 6.0197 26.6122 6.02361 26.6141C6.02752 26.618 6.24431 26.6566 6.50799 26.7011L6.98455 26.7822L7.08806 26.8749C7.14666 26.9271 7.26189 27.0178 7.34587 27.0758C7.65837 27.2941 7.77166 27.4312 7.81853 27.6456C7.84392 27.7615 7.86736 27.7789 8.02556 27.7943C8.1115 27.8021 8.22869 27.7866 8.50017 27.7345C8.95915 27.6475 9.22673 27.6321 9.54509 27.6765C9.71696 27.6997 9.78923 27.7171 9.82048 27.746C9.87321 27.7943 9.90446 27.7924 9.98064 27.7364C10.0256 27.7035 10.0802 27.6881 10.1779 27.6804C10.2795 27.6726 10.3967 27.6379 10.6506 27.5413C10.8381 27.4698 11.0627 27.3964 11.1525 27.3771C11.3537 27.3327 11.3752 27.3172 11.3595 27.2207L11.3478 27.1473L11.4865 27.0584C11.5646 27.0082 11.7345 26.9116 11.8674 26.844C12.131 26.7088 12.1486 26.6895 12.1662 26.5156C12.174 26.4461 12.1642 26.3746 12.133 26.2703C12.0197 25.8917 12.1252 25.7121 12.7287 25.2562C12.8771 25.1423 13.0529 25.0013 13.1193 24.9414C13.2697 24.8023 13.3244 24.7753 13.5099 24.7521C13.6408 24.7367 13.7072 24.7115 13.9963 24.5725L14.3302 24.4122H14.5353H14.7404L14.7697 24.3252C14.8107 24.2035 14.8224 24.19 14.8869 24.19C14.9181 24.19 14.9572 24.1765 14.9728 24.1591C15.0197 24.1147 15.0119 24.02 14.9591 23.9775C14.9201 23.9447 14.9162 23.9254 14.9162 23.7516C14.9162 23.5951 14.924 23.5449 14.9611 23.4657C15.0138 23.3517 15.0998 23.259 15.213 23.1933L15.2951 23.145L15.4865 23.2262C15.9279 23.4116 15.8791 23.3981 16.0099 23.3672C16.0744 23.3537 16.1369 23.3401 16.1505 23.3401C16.1623 23.3401 16.2248 23.3846 16.2873 23.4386C16.4396 23.5719 16.4923 23.5912 16.7052 23.5912C16.9318 23.5912 16.9455 23.5835 17.217 23.288C17.463 23.0195 17.5509 22.9461 17.6037 22.9596C17.6681 22.977 17.7599 22.9403 18.008 22.7993C18.4103 22.5714 18.3908 22.5791 18.4767 22.6235C18.5158 22.6428 18.6115 22.6795 18.6857 22.7027L18.8224 22.7452L18.9728 22.9693C19.1486 23.232 19.1779 23.3054 19.1955 23.5198C19.2033 23.6202 19.2209 23.6994 19.2443 23.738C19.3107 23.8481 19.5041 24.0085 19.8283 24.2229C20.0919 24.3986 20.1798 24.4701 20.3126 24.613C20.5236 24.841 20.6095 24.8912 20.7931 24.895C20.881 24.897 20.9552 24.9105 20.9962 24.9317C21.0724 24.9704 21.1564 25.0805 21.2033 25.2022C21.2462 25.3142 21.3263 25.3586 21.5744 25.4088C21.6701 25.4282 21.756 25.4552 21.7638 25.4687C21.7736 25.4822 21.7814 25.5247 21.7814 25.5614C21.7834 25.5981 21.799 25.6677 21.8166 25.714C21.8478 25.7952 21.8556 25.801 21.9611 25.8241C22.1583 25.8686 22.2931 25.9922 22.3888 26.2124C22.4259 26.2993 22.5822 26.7899 22.5822 26.8208C22.5822 26.8285 22.5353 26.8633 22.4767 26.8942C22.3791 26.9502 22.3693 26.9618 22.3478 27.0545C22.3341 27.1106 22.3009 27.211 22.2736 27.2786C22.2189 27.4157 22.2267 27.4351 22.3419 27.4351C22.4767 27.4351 22.5763 27.2941 22.6974 26.929C22.7658 26.7262 22.7658 26.7262 23.0314 26.5794L23.0939 26.5465L23.0802 26.4055C23.0646 26.224 23.0548 26.1989 23.0119 26.1989C22.9923 26.1989 22.9142 26.1583 22.8361 26.1061C22.6994 26.0173 22.6955 26.0134 22.7052 25.9458C22.7189 25.8473 22.8654 25.5576 22.9513 25.4629L23.0216 25.3837L23.1447 25.4146C23.2111 25.4301 23.3068 25.4649 23.3576 25.4919C23.4982 25.5614 23.6876 25.7082 23.7365 25.7855C23.7853 25.8647 23.8146 25.8628 23.84 25.7778C23.9005 25.5692 23.7345 25.3934 23.2912 25.1964C22.9806 25.0573 22.4103 24.7772 22.3498 24.7328C22.3087 24.7019 22.3068 24.6922 22.3283 24.6517C22.3419 24.6266 22.381 24.5725 22.4123 24.5319C22.5001 24.4237 22.4767 24.4141 22.1271 24.4006C21.8634 24.3909 21.8166 24.3851 21.7052 24.3388C21.3712 24.2016 21.172 23.9389 21.1095 23.5565C21.0685 23.3034 21.0177 23.23 20.7091 22.9944C20.3459 22.7162 20.2873 22.6081 20.3732 22.3743C20.4142 22.2662 20.4142 22.2546 20.3849 22.1715C20.3693 22.1232 20.3556 22.0421 20.3556 21.99C20.3556 21.8721 20.3712 21.8586 20.7052 21.6693L20.9689 21.5206L21.0412 21.5612C21.0802 21.5843 21.1271 21.6017 21.1466 21.6017C21.1642 21.6017 21.1955 21.6114 21.2169 21.621C21.2521 21.6404 21.2521 21.6461 21.1935 21.7601L21.133 21.8799L21.1818 21.9803C21.2091 22.0344 21.2384 22.1117 21.2443 22.1503C21.2521 22.1889 21.2658 22.2198 21.2736 22.2198C21.3048 22.2198 21.3888 22.102 21.4084 22.0325C21.4318 21.9513 21.5001 21.8721 21.549 21.8721C21.5685 21.8721 21.6115 21.9108 21.6466 21.9591C21.6818 22.0054 21.7248 22.0498 21.7423 22.0556C21.7599 22.0614 21.8009 22.0923 21.8322 22.1252C21.8869 22.1812 21.8888 22.1928 21.8888 22.3589V22.5327L22.0001 22.6332C22.0646 22.6892 22.1173 22.7549 22.1251 22.7858C22.1408 22.8495 22.2208 22.9152 22.3693 22.9789C22.463 23.0195 22.4845 23.0388 22.5041 23.0968L22.5275 23.1663H22.6466C22.8458 23.1682 23.0431 23.2667 23.2833 23.485C23.3458 23.5429 23.4142 23.5912 23.4337 23.5912C23.5353 23.5932 23.8517 23.7612 24.0431 23.9157C24.1525 24.0027 24.1603 24.0046 24.2951 23.966C24.3263 23.9582 24.34 23.964 24.3498 24.0007C24.3576 24.0239 24.383 24.0606 24.4044 24.078C24.4415 24.107 24.4455 24.1263 24.4396 24.2518C24.4357 24.3619 24.4435 24.416 24.4767 24.4991C24.5001 24.557 24.5412 24.6633 24.5646 24.7347L24.6095 24.8622L24.5548 24.9665C24.4415 25.1713 24.4826 25.2678 24.8224 25.5923C25.049 25.8087 25.0685 25.8338 25.0841 25.9188C25.0939 25.9709 25.1154 26.0269 25.131 26.0443C25.1837 26.1023 25.3986 26.1969 25.5314 26.2201C25.6935 26.251 25.7111 26.2684 25.6447 26.3205C25.4962 26.4403 25.5705 26.6141 25.797 26.6817C25.8888 26.7088 26.1759 26.7011 26.5822 26.6605C26.8146 26.6373 26.8439 26.6373 26.8712 26.6663C26.9005 26.6953 26.9005 26.703 26.8673 26.7725C26.838 26.8285 26.8107 26.8517 26.7482 26.8749C26.672 26.9 26.6408 26.8981 26.3947 26.8575C26.0509 26.7996 25.8693 26.8054 25.7931 26.8749C25.7248 26.9386 25.6876 27.0275 25.6876 27.1357C25.6876 27.2071 25.6974 27.2342 25.7384 27.2709C25.7833 27.3114 25.9552 27.3771 26.0177 27.3771C26.0314 27.3771 26.0626 27.3984 26.088 27.4254C26.133 27.4679 26.1369 27.4891 26.1388 27.6417C26.1408 27.916 26.1564 27.9778 26.2326 28.028C26.3244 28.0879 26.4201 28.086 26.4611 28.0242C26.4787 27.9971 26.5001 27.9469 26.506 27.9122C26.5138 27.8793 26.5314 27.8484 26.547 27.8465C26.5646 27.8445 26.633 27.916 26.7033 28.0107C26.7736 28.1034 26.84 28.1787 26.8497 28.1787C26.8712 28.1787 26.8908 28.1188 26.9083 28.0087C26.9259 27.8948 26.963 27.8986 27.1037 28.0319C27.2736 28.1942 27.297 28.1903 27.2853 28.0049C27.2736 27.8272 27.2345 27.7634 27.047 27.6263C26.924 27.5336 26.9142 27.5239 26.9259 27.4698C26.9318 27.437 26.9376 27.3906 26.9376 27.3655C26.9376 27.3037 26.9708 27.3056 27.129 27.3848C27.3224 27.4814 27.4181 27.5027 27.4767 27.464C27.5372 27.4254 27.5392 27.3481 27.4806 27.3153C27.4552 27.3018 27.3693 27.2651 27.2892 27.2322L27.1427 27.1743L27.1369 27.0236C27.133 26.9328 27.1388 26.8749 27.1505 26.8749C27.1622 26.8749 27.2365 26.8961 27.3165 26.9213C27.4162 26.9541 27.506 27.0024 27.5919 27.0661C27.7228 27.1666 27.7697 27.1801 27.838 27.1453C27.8986 27.1125 27.8829 27.0719 27.7579 26.9444C27.6935 26.8768 27.6408 26.8092 27.6408 26.7938C27.6408 26.7378 27.4767 26.6122 27.2521 26.4963C27.129 26.4345 26.9884 26.3457 26.9376 26.3012C26.8048 26.1834 26.631 25.8377 26.6798 25.7894C26.6935 25.7758 26.7482 25.7855 26.8537 25.8203C27.047 25.884 27.0744 25.884 27.0744 25.8222C27.0744 25.77 27.0783 25.7739 26.7482 25.5595C26.506 25.405 26.4787 25.3625 26.4826 25.1693C26.4865 24.9762 26.5197 24.8332 26.5646 24.8216C26.6564 24.7985 26.7189 24.868 26.8869 25.1751C27.0431 25.461 27.1134 25.5247 27.1935 25.4533C27.2521 25.4011 27.2404 25.3161 27.1622 25.2292C27.0997 25.1616 27.088 25.1172 27.133 25.1172C27.1408 25.1172 27.2072 25.1693 27.2775 25.2331C27.3497 25.2968 27.424 25.349 27.4474 25.349C27.5255 25.349 27.5099 25.2929 27.3888 25.1519C27.3224 25.0747 27.2697 25.0032 27.2697 24.9897C27.2697 24.9356 27.3341 24.953 27.4962 25.0496C27.5939 25.1075 27.6779 25.1461 27.6876 25.1365C27.715 25.1094 27.6837 25.0264 27.6212 24.9684C27.588 24.9395 27.549 24.895 27.5333 24.8719C27.504 24.8294 27.504 24.8294 27.5509 24.8487C27.6251 24.8835 27.6525 24.8603 27.6994 24.7212C27.7579 24.5435 27.8126 24.4894 27.9669 24.4411C28.0372 24.4199 28.1173 24.4025 28.1466 24.4025C28.1759 24.4025 28.2736 24.3832 28.3634 24.3619C28.4904 24.3291 28.5626 24.3233 28.672 24.331C28.7599 24.3368 28.8361 24.333 28.8634 24.3214C28.9552 24.2789 28.9591 24.3272 28.8829 24.4952C28.8068 24.6633 28.799 24.6922 28.838 24.6922C28.879 24.6922 29.215 24.4662 29.2599 24.4102C29.2833 24.3812 29.3009 24.331 29.3009 24.2963C29.3009 24.2402 29.3126 24.2248 29.4103 24.1668C29.6134 24.0471 29.6876 24.0181 29.9747 23.9389C30.34 23.8404 30.3732 23.8211 30.3751 23.74C30.3751 23.7149 30.3165 23.6782 30.1564 23.6009C30.0333 23.5449 29.9103 23.4715 29.8771 23.4367C29.8458 23.4039 29.7579 23.3285 29.6818 23.2706C29.6076 23.2146 29.5021 23.118 29.4494 23.0581L29.3517 22.948L29.4142 22.8341C29.4728 22.7317 29.4787 22.7046 29.4845 22.5231C29.4884 22.3859 29.5079 22.2604 29.5451 22.1136L29.5997 21.903L29.5665 21.621C29.549 21.4665 29.5275 21.3255 29.5236 21.3062C29.5158 21.2791 29.5685 21.2173 29.7306 21.0647C29.9826 20.8291 29.9747 20.86 29.8497 20.5819C29.8048 20.4833 29.7697 20.3984 29.7697 20.3926C29.7697 20.3848 29.8244 20.3868 29.8927 20.3926L30.0158 20.4061L30.047 20.2226C30.1017 19.8961 30.2286 19.6991 30.4513 19.5948C30.5451 19.5523 30.5861 19.5446 30.7521 19.5446H30.9415V19.4867C30.9474 19.1428 30.9826 17.9646 30.9923 17.7791C31.006 17.5474 31.006 17.5396 30.9689 17.557C30.8908 17.5937 30.6427 17.5705 30.3732 17.501C30.006 17.4044 29.9415 17.3986 29.8009 17.4469C29.6544 17.4991 29.6329 17.4971 29.5177 17.4392C29.465 17.4141 29.381 17.3832 29.3302 17.3697L29.2365 17.3465L29.2482 17.2364C29.2599 17.1321 29.256 17.1205 29.2033 17.0606C29.1701 17.022 29.1271 16.9389 29.1056 16.8655C29.0763 16.7709 29.049 16.7245 29.006 16.6917C28.8439 16.5681 28.8537 16.5854 28.84 16.3846C28.8302 16.2532 28.8341 16.1953 28.8497 16.1856C28.8615 16.1779 28.9396 16.2126 29.0197 16.2629L29.1701 16.3556L29.213 16.3054C29.2365 16.2783 29.2755 16.2455 29.299 16.2339C29.379 16.1895 29.3361 16.0369 29.2111 15.921C29.1681 15.8823 29.0783 15.8128 29.0079 15.7645C28.7404 15.5791 28.713 15.5192 28.7287 15.1657C28.7384 14.9552 28.7365 14.9127 28.7072 14.8702C28.6603 14.8007 28.506 14.708 28.2658 14.6075C28.0294 14.509 27.9279 14.4259 27.59 14.0454C27.3048 13.7267 27.3205 13.7615 27.379 13.5664C27.4494 13.3365 27.4376 13.2168 27.3419 13.1299C27.2619 13.0565 27.1271 13.012 26.9162 12.9889C26.7599 12.9715 26.6056 12.9077 26.6056 12.8614C26.6056 12.8459 26.6134 12.8324 26.6212 12.8324C26.6564 12.8324 26.879 12.6141 26.879 12.5794C26.879 12.56 26.8556 12.5311 26.8263 12.5156C26.7619 12.4828 26.6642 12.3939 26.6642 12.3688C26.6642 12.3611 26.6857 12.3263 26.7111 12.2954C26.756 12.2433 26.84 12.0636 26.84 12.0192C26.84 11.9574 26.549 11.9168 26.3224 11.9458Z" fill="black"/>
<path d="M14.127 12.5235C13.998 12.5544 13.9102 12.6568 13.8789 12.8132L13.8652 12.877L13.9883 12.8654C14.2383 12.8383 14.3906 12.7244 14.375 12.5756C14.3691 12.5177 14.3652 12.5138 14.2812 12.51C14.2324 12.508 14.1641 12.5138 14.127 12.5235Z" fill="black"/>
<path d="M14.7071 12.7111C14.627 12.7208 14.4473 12.8618 14.1973 13.1129C14.1192 13.1921 14.045 13.2578 14.0352 13.2578C14.0235 13.2578 13.9942 13.2346 13.9669 13.2076C13.9044 13.138 13.8028 13.0975 13.7325 13.1129C13.7012 13.1206 13.6719 13.1322 13.6661 13.1419C13.6485 13.1709 13.795 13.4123 13.8633 13.4664C13.9005 13.4954 13.9298 13.5282 13.9298 13.5398C13.9298 13.5514 13.8536 13.5977 13.7598 13.6441C13.5118 13.7658 13.3633 13.9164 13.3633 14.0459C13.3633 14.0787 13.3829 14.0845 13.5352 14.0941C13.7325 14.1057 13.7735 14.1173 13.7735 14.1656C13.7735 14.1849 13.7071 14.3008 13.6251 14.4244C13.543 14.5481 13.4805 14.6543 13.4864 14.6601C13.4923 14.6659 13.5137 14.662 13.5333 14.6524C13.5528 14.6427 13.6153 14.6234 13.6719 14.6099C13.7618 14.5886 13.7813 14.5906 13.8067 14.6157C13.8321 14.6408 13.8321 14.6504 13.8048 14.7026C13.7872 14.7354 13.7383 14.7914 13.6954 14.8243C13.6524 14.859 13.6173 14.8977 13.6173 14.9112C13.6173 14.9247 13.6446 14.9576 13.6778 14.9846C13.7481 15.0445 13.8594 15.0503 14.0274 15.0058C14.1739 14.9672 14.2676 14.9691 14.3067 15.0116C14.3575 15.0657 14.3477 15.1314 14.2696 15.257L14.2012 15.3728L14.2403 15.4945C14.2637 15.5602 14.2813 15.6336 14.2813 15.6568C14.2813 15.7379 14.1993 15.8673 14.0899 15.9542C13.9649 16.0566 13.9649 16.0566 13.7169 15.9427C13.5176 15.8519 13.4903 15.8577 13.5098 15.9794C13.5372 16.1629 13.5352 16.1648 13.461 16.1744C13.4239 16.1802 13.3926 16.1938 13.3926 16.2073C13.3926 16.2208 13.4337 16.2575 13.4864 16.2884C13.588 16.3541 13.5977 16.385 13.5411 16.4758C13.4766 16.5801 13.3731 16.6419 13.1524 16.7056L12.9434 16.7674L12.8907 16.8717C12.8028 17.0437 12.793 17.0359 13.1426 17.0494C13.3184 17.0572 13.4532 17.0707 13.4571 17.0823C13.4825 17.1538 13.5352 17.1827 13.6622 17.1924C13.7423 17.2001 13.793 17.2117 13.793 17.2252C13.793 17.2523 13.6837 17.3585 13.6231 17.3894C13.5626 17.4203 13.5001 17.4164 13.3399 17.372C13.2618 17.3508 13.1915 17.3334 13.1837 17.3334C13.1563 17.3334 13.0294 17.457 12.9727 17.5362C12.9161 17.6173 12.9102 17.6193 12.5137 17.7506C12.293 17.824 12.1153 17.8916 12.1192 17.9032C12.1231 17.9129 12.1563 17.938 12.1934 17.9554C12.2891 18.0036 12.4923 17.9998 12.7383 17.9418C13.0001 17.88 13.0411 17.882 13.0997 17.9438L13.1465 17.994L13.2208 17.936C13.4005 17.797 13.5235 17.7757 13.6524 17.8607C13.7559 17.9264 13.793 17.9264 14.0352 17.853L14.2325 17.7931L14.2911 17.8665C14.3829 17.9843 14.4766 18.0674 14.5157 18.0674C14.5684 18.0674 14.6133 17.994 14.6133 17.9109C14.6133 17.8704 14.6231 17.8356 14.6368 17.8317C14.6505 17.8259 14.709 17.8337 14.7696 17.8491C15.0196 17.9071 15.3282 17.8626 15.5333 17.7409C15.7364 17.6193 15.7344 17.5768 15.5215 17.5072C15.3321 17.4454 15.3301 17.4338 15.5059 17.2967C15.588 17.2329 15.67 17.1789 15.6876 17.1789C15.7579 17.1789 15.9942 17.0417 16.086 16.949C16.1778 16.8563 16.1817 16.8505 16.1563 16.7945C16.1231 16.7153 16.0176 16.6245 15.9278 16.6013C15.8868 16.5897 15.7579 16.5801 15.6426 16.5801C15.4844 16.5801 15.4298 16.5743 15.4219 16.555C15.4161 16.5395 15.459 16.4159 15.5137 16.2788C15.6876 15.8538 15.67 15.6819 15.4317 15.4733L15.3165 15.3728L15.3282 15.2821L15.3399 15.1913L15.2344 15.2029C15.0665 15.2203 15.0587 15.1932 15.1583 14.9576C15.2032 14.8513 15.2442 14.7258 15.2501 14.6794C15.2618 14.6002 15.2579 14.5867 15.2032 14.5345C15.17 14.5017 15.1251 14.4747 15.1016 14.4747C15.0782 14.4747 15.0352 14.4573 15.004 14.436C14.9747 14.4148 14.9278 14.3897 14.8985 14.3781C14.7715 14.3317 14.8946 14.1366 15.2969 13.7445C15.6114 13.4374 15.6446 13.3853 15.5411 13.3389C15.4747 13.308 15.1993 13.3119 14.9551 13.3447C14.838 13.3602 14.752 13.3621 14.7403 13.3524C14.713 13.3254 14.9024 13.1477 15.1739 12.9449C15.3067 12.8464 15.4141 12.7556 15.4141 12.744C15.4141 12.7305 15.4005 12.715 15.3829 12.7092C15.3516 12.6976 14.8301 12.6996 14.7071 12.7111Z" fill="black"/>
<path d="M12.6309 14.5211C12.5098 14.5501 12.4531 14.5791 12.377 14.6506C12.3418 14.6834 12.291 14.7066 12.25 14.7104C12.1563 14.7182 12.1543 14.7819 12.2481 14.8128C12.3223 14.8379 12.3379 14.8592 12.3203 14.9268C12.3125 14.9577 12.2832 14.9828 12.2324 15.004C12.1563 15.033 12.1523 15.033 12.0332 14.9712C11.9238 14.9152 11.8945 14.9094 11.7422 14.9094C11.5898 14.9094 11.5645 14.9152 11.4902 14.9635C11.3887 15.0311 11.375 15.0639 11.4258 15.118C11.4473 15.1412 11.4766 15.1856 11.4883 15.2165C11.5176 15.2957 11.4727 15.3382 11.3281 15.3652C11.2656 15.3768 11.209 15.3961 11.2031 15.4058C11.1816 15.4386 11.2559 15.5217 11.3379 15.5565C11.3828 15.5758 11.4668 15.599 11.5234 15.6067C11.5801 15.6125 11.6309 15.6279 11.6367 15.6357C11.6504 15.6588 11.4922 15.7303 11.4238 15.7303C11.3887 15.7303 11.3516 15.711 11.3203 15.6781C11.2656 15.6202 11.25 15.6299 11.2168 15.7342C11.1875 15.8211 11.1582 15.8327 11.0566 15.7979C10.9531 15.7612 10.9121 15.7612 10.875 15.7998C10.8281 15.8443 10.8379 15.908 10.8984 15.9544L10.9512 15.9969L10.8965 16.0181C10.8652 16.0297 10.8262 16.0394 10.8066 16.0394C10.7891 16.0394 10.7559 16.0509 10.7363 16.0664C10.6973 16.0934 10.7051 16.1282 10.7695 16.2171C10.7891 16.2441 10.7813 16.2634 10.7207 16.3407C10.6816 16.3909 10.6484 16.4373 10.6484 16.445C10.6484 16.4682 10.6895 16.4933 10.8672 16.5686C11.0313 16.6401 11.0449 16.642 11.1797 16.6304C12.0527 16.5493 12.3789 16.472 12.6465 16.2847C12.8555 16.1379 12.9688 15.9312 12.9883 15.6569L13.002 15.4889L13.1797 15.3691L13.3574 15.2493L13.3535 15.0118C13.3516 14.836 13.3438 14.7549 13.3184 14.6988C13.2852 14.6216 13.2676 14.6177 13.1387 14.6506C13.1289 14.6525 13.0645 14.639 12.9961 14.6196C12.9004 14.5907 12.8711 14.5752 12.8633 14.5385C12.8496 14.4864 12.791 14.4825 12.6309 14.5211Z" fill="black"/>
<path d="M18.3105 23.8021C18.0312 24.0243 18.0195 24.0397 17.9726 24.229C17.9082 24.4956 17.9238 24.6501 18.0254 24.7563C18.0839 24.8162 18.207 24.8857 18.2539 24.8857C18.2695 24.8857 18.3222 24.8413 18.3711 24.7892C18.5683 24.5709 18.6738 24.0803 18.5879 23.7905C18.539 23.6263 18.5293 23.6283 18.3105 23.8021Z" fill="black"/>
<path d="M18.1619 25.1257C18.0994 25.1721 17.99 25.2416 17.9178 25.2783C17.6892 25.3981 17.6736 25.4309 17.6717 25.8327C17.6697 26.0838 17.6599 26.1727 17.6131 26.389C17.5428 26.7116 17.5525 26.7734 17.6697 26.7637C17.7713 26.756 17.8318 26.7212 17.9275 26.6169C18.0193 26.5165 18.0428 26.5107 18.117 26.5686C18.1463 26.5918 18.1736 26.6073 18.1756 26.6034C18.1931 26.5841 18.2654 26.4257 18.324 26.2808L18.3885 26.1205L18.3338 25.9872C18.2693 25.8288 18.2771 25.7728 18.3709 25.7129C18.4529 25.6589 18.4705 25.5758 18.4412 25.3711C18.4217 25.2281 18.3377 25.0408 18.2967 25.0408C18.2849 25.0408 18.2244 25.0794 18.1619 25.1257Z" fill="black"/>
<path d="M21.7131 27.3486C21.6388 27.3621 21.467 27.4066 21.3322 27.4452C21.0236 27.5341 20.8615 27.5341 20.6799 27.4471C20.5666 27.393 20.5627 27.3911 20.4748 27.422C20.426 27.4375 20.3146 27.4664 20.2287 27.4838C20.0978 27.5128 20.0607 27.5283 20.0021 27.5881C19.9123 27.677 19.883 27.8025 19.9396 27.8644C20.0744 28.015 20.3127 28.1367 20.9416 28.3762C21.2053 28.4767 21.4689 28.581 21.5295 28.61L21.6369 28.6621L21.6994 28.5887C21.7931 28.4767 21.8088 28.3936 21.7795 28.1483C21.7502 27.8856 21.7599 27.8025 21.8361 27.6461C21.9064 27.5051 21.9279 27.3332 21.8791 27.3274C21.8635 27.3254 21.7892 27.3351 21.7131 27.3486Z" fill="black"/>
</svg>
