<svg width="34" height="34" viewBox="0 0 34 34" fill="none" xmlns="http://www.w3.org/2000/svg">
<path d="M13.6187 5.02935C13.457 5.26099 13.5203 5.35651 13.7922 5.2992C14.0031 5.25383 14.0125 5.24905 14.0031 5.17741C13.9961 5.10577 13.9797 5.09621 13.8086 5.0389C13.6679 4.99353 13.6445 4.99114 13.6187 5.02935Z" fill="#1855A6"/>
<path d="M14.2681 5.31341C14.1978 5.36356 14.1134 5.40655 14.0806 5.40655C13.9564 5.40655 13.9142 5.43281 13.886 5.52834C13.872 5.58087 13.8462 5.63341 13.8274 5.64774C13.7876 5.68356 13.7876 5.82207 13.8298 5.85789C13.8509 5.87699 13.879 5.87699 13.9235 5.86028C13.9657 5.84356 14.0103 5.84595 14.0712 5.86744C14.1532 5.89371 14.1603 5.90326 14.172 6.00356C14.1837 6.10625 14.1907 6.11341 14.3126 6.17789C14.4345 6.24237 14.4556 6.24475 14.6993 6.23759L14.9571 6.23043L14.9642 6.30684C14.9735 6.3952 14.9384 6.40953 14.861 6.34983C14.8024 6.30446 14.7017 6.30446 14.6618 6.35222C14.6384 6.38326 14.5939 6.38804 14.4439 6.38087L14.254 6.37371L14.247 6.44058C14.2376 6.52416 14.2868 6.58386 14.4204 6.65072C14.554 6.7152 14.5774 6.76296 14.5564 6.92535C14.5353 7.09968 14.5798 7.17371 14.7064 7.17371C14.7931 7.17371 14.8985 7.10684 14.8985 7.05431C14.8985 7.02326 14.9946 6.9349 15.0298 6.9349C15.0462 6.9349 15.0743 6.96356 15.0907 6.99938C15.1142 7.05192 15.1423 7.06864 15.2173 7.08058C15.3462 7.09729 15.4142 7.14744 15.447 7.24535C15.4681 7.31222 15.4868 7.33132 15.5431 7.3361C15.5829 7.34087 15.7235 7.37908 15.8595 7.42446C15.9954 7.46983 16.204 7.52237 16.3235 7.54147C16.5392 7.57252 16.5439 7.57729 16.6564 7.68953C16.7196 7.75401 16.8087 7.83998 16.8556 7.88296C16.9165 7.93789 16.9376 7.9761 16.9376 8.03341C16.9376 8.07878 16.9821 8.19102 17.0454 8.31281C17.1485 8.50386 17.1556 8.53013 17.172 8.75699C17.1814 8.89072 17.179 9.04595 17.1649 9.10565C17.1462 9.19401 17.1485 9.2155 17.1837 9.24177C17.2142 9.26565 17.2423 9.26326 17.329 9.23461C17.6079 9.13669 17.8376 9.30625 17.8681 9.63102C17.8845 9.79819 17.9149 9.82684 18.0462 9.7958C18.1001 9.78386 18.222 9.77908 18.3157 9.78864C18.5759 9.81252 18.8009 9.80774 18.8501 9.77669C18.9368 9.72177 19.0282 9.55938 19.0142 9.49252C19.0048 9.45908 18.9954 9.4161 18.9931 9.39938C18.9907 9.38028 19.0282 9.35401 19.0798 9.3349C19.1806 9.29908 19.211 9.26565 19.211 9.18684C19.211 9.14864 19.2298 9.12953 19.2767 9.11759C19.3118 9.11043 19.3962 9.07699 19.4642 9.04356L19.586 8.98147L19.7337 9.02446C19.8134 9.04595 19.8978 9.07699 19.9235 9.08893C19.947 9.10087 20.029 9.12237 20.1087 9.13192C20.2868 9.15819 20.3243 9.1964 20.3243 9.34684C20.3243 9.48535 20.3782 9.55699 20.5024 9.58326C20.5751 9.59759 20.5821 9.60714 20.5868 9.69311C20.5892 9.74565 20.5915 9.80296 20.5915 9.81968C20.5939 9.8364 20.636 9.86505 20.6876 9.88655C20.7954 9.93192 20.8751 10.0203 20.8751 10.0991C20.8751 10.1803 20.922 10.2042 21.0743 10.1994C21.1798 10.1946 21.2431 10.2089 21.3228 10.2471C21.3813 10.2782 21.4728 10.3021 21.529 10.3021C21.6087 10.3021 21.6509 10.3212 21.754 10.4C21.911 10.5218 22.0399 10.548 22.1149 10.4716C22.1407 10.4454 22.1642 10.4071 22.1642 10.3904C22.1642 10.3403 22.0657 10.2591 21.9649 10.2256C21.8782 10.197 21.8712 10.1874 21.8642 10.0991C21.8548 9.93192 21.8384 9.8961 21.7821 9.8961C21.7142 9.8961 21.6743 9.86266 21.5946 9.73371C21.5337 9.63819 21.5243 9.63341 21.4306 9.63819L21.3321 9.64535L21.3204 9.53789C21.3017 9.39699 21.2501 9.29908 21.1399 9.20595C20.9712 9.06028 20.9548 9.04117 20.8939 8.91461C20.786 8.69252 20.786 8.64714 20.8962 8.53729C20.997 8.43699 21.0204 8.34386 20.9688 8.24595C20.9548 8.22207 20.8282 8.14087 20.6899 8.06923C20.4415 7.94267 20.4345 7.93789 20.3923 7.82565C20.3103 7.58923 20.2681 7.51043 20.1814 7.41252C20.0876 7.30744 19.9423 7.22386 19.8509 7.22147C19.8181 7.22147 19.7524 7.16655 19.6634 7.06147C19.5884 6.97311 19.4829 6.8561 19.429 6.80117L19.3306 6.70087L19.0657 6.70326L18.8009 6.70804L18.4962 6.55759C18.1446 6.38326 18.1634 6.3952 18.0532 6.30684C17.9853 6.24953 17.929 6.23281 17.7298 6.20416C17.4345 6.16117 17.4204 6.15878 17.2892 6.0752C17.2306 6.03938 17.1579 6.00117 17.1251 5.99162C17.0946 5.98207 17.0407 5.95102 17.0056 5.92714C16.8743 5.82684 16.6048 5.85311 16.5603 5.97252C16.5485 6.00356 16.5392 6.0561 16.5392 6.08953C16.5392 6.13729 16.5181 6.15878 16.4407 6.19461C16.3845 6.22087 16.3095 6.24237 16.2743 6.24237C16.2274 6.24237 16.1829 6.26864 16.1243 6.3355C16.0798 6.38804 16.0165 6.4358 15.9837 6.44535C15.9321 6.45729 15.9274 6.46923 15.9392 6.5361C15.9462 6.57908 15.9439 6.62446 15.9345 6.63878C15.9064 6.68416 15.8196 6.71998 15.7423 6.71998C15.5149 6.71998 15.3485 6.46684 15.2946 6.04177C15.2595 5.76953 15.1821 5.48058 15.1353 5.4567C15.1142 5.44475 15.0556 5.42565 15.0064 5.4161C14.9548 5.40655 14.8774 5.3755 14.8329 5.34446C14.786 5.31102 14.7157 5.28714 14.6665 5.28714C14.6196 5.28475 14.5564 5.27043 14.5235 5.25132C14.4392 5.20117 14.4087 5.20834 14.2681 5.31341Z" fill="#1855A6"/>
<path d="M15.7843 5.40874C15.7304 5.43978 15.7304 5.4756 15.7866 5.53769C15.8124 5.56396 15.8593 5.61411 15.8921 5.64993C15.9343 5.69769 15.9741 5.7168 16.0327 5.7168C16.1288 5.7168 16.1499 5.69292 16.1288 5.59739C16.1007 5.46844 15.8804 5.34904 15.7843 5.40874Z" fill="#1855A6"/>
<path d="M20.7649 5.94436C20.6454 5.9969 20.5985 6.14973 20.6782 6.22854C20.7321 6.28346 20.9079 6.2763 21.018 6.21421C21.1704 6.12824 21.1657 6.03749 21.0063 5.95869C20.8915 5.90137 20.8657 5.89899 20.7649 5.94436Z" fill="#1855A6"/>
<path d="M22.1214 6.29518C22.0394 6.37876 22.1238 6.48145 22.2714 6.48145C22.3605 6.48145 22.3746 6.47428 22.3886 6.42174C22.4097 6.33339 22.3441 6.26652 22.2339 6.26652C22.1871 6.26652 22.1378 6.27846 22.1214 6.29518Z" fill="#1855A6"/>
<path d="M22.5926 6.49529C22.5856 6.5144 22.5926 6.5741 22.6067 6.62664C22.6278 6.70067 22.6489 6.72216 22.7098 6.73888C22.759 6.75082 22.8059 6.79141 22.8457 6.85111C22.916 6.95619 22.991 6.9944 23.0567 6.95858C23.1153 6.92514 23.1176 6.78186 23.0613 6.73171C22.759 6.46902 22.6278 6.40216 22.5926 6.49529Z" fill="#1855A6"/>
<path d="M23.3735 7.07262C23.3266 7.16337 23.3008 7.3377 23.3219 7.41889C23.3289 7.45232 23.3571 7.48337 23.3852 7.49053C23.4555 7.50964 23.561 7.44994 23.5797 7.38068C23.5985 7.29949 23.5539 7.1562 23.4789 7.07023L23.4133 6.9962L23.3735 7.07262Z" fill="#1855A6"/>
<path d="M22.7852 7.20665C22.75 7.25919 22.75 7.27113 22.7828 7.338C22.8039 7.37621 22.8203 7.43113 22.8203 7.4574C22.8203 7.51949 22.7523 7.58636 22.7055 7.56725C22.6797 7.5577 22.6352 7.58874 22.5625 7.67471C22.4359 7.82039 22.3281 7.85143 22.2016 7.78218C22.1242 7.73919 22.1219 7.73919 22.0375 7.79412C21.9648 7.8371 21.9297 7.84427 21.8336 7.83233C21.7703 7.82516 21.6672 7.81083 21.6016 7.80367C21.4562 7.78457 21.4141 7.81561 21.4141 7.9374C21.4141 8.04486 21.4961 8.12845 21.6039 8.12845C21.6414 8.12845 21.7516 8.1571 21.85 8.19054C21.993 8.24068 22.0562 8.25263 22.1734 8.24307C22.3375 8.22874 22.5953 8.11889 22.7148 8.01143C22.7594 7.97322 22.8273 7.93501 22.8719 7.92546C22.9867 7.89919 23.0453 7.85143 23.1484 7.69382C23.2258 7.5768 23.2422 7.52904 23.2422 7.43591C23.2422 7.31173 23.2211 7.28068 23.1133 7.25442C23.0734 7.24486 23.0172 7.2186 22.9867 7.19233C22.9094 7.13262 22.8297 7.1374 22.7852 7.20665Z" fill="#1855A6"/>
<path d="M20.7903 7.7317C20.7833 7.75081 20.781 7.79141 20.7856 7.82245C20.7903 7.86782 20.8091 7.87976 20.8794 7.88454C20.9497 7.8917 20.9685 7.88215 20.9802 7.84156C21.0106 7.74126 20.8255 7.63618 20.7903 7.7317Z" fill="#1855A6"/>
<path d="M24.1539 7.81078C24.1516 7.82272 24.1539 7.85376 24.1562 7.88481C24.1586 7.91347 24.1328 7.97078 24.1 8.01138C24.0672 8.05197 24.0391 8.09496 24.0391 8.1069C24.0391 8.13555 24.1258 8.22391 24.1539 8.22391C24.1891 8.22391 24.25 8.38152 24.25 8.46988C24.25 8.58212 24.3156 8.62988 24.468 8.62988C24.5617 8.62988 24.5922 8.61794 24.6508 8.56063C24.7656 8.44361 24.7398 8.33138 24.5617 8.16182C24.5078 8.10929 24.4609 8.04242 24.4609 8.01615C24.4609 7.96123 24.4047 7.90391 24.3273 7.88003C24.3016 7.87048 24.2641 7.84899 24.25 7.82988C24.2195 7.79167 24.1586 7.78212 24.1539 7.81078Z" fill="#1855A6"/>
<path d="M21.0861 7.93774C21.0533 7.99983 21.0838 8.04281 21.147 8.02848C21.1775 8.02371 21.1916 7.99983 21.1916 7.96162C21.1916 7.8852 21.1213 7.87087 21.0861 7.93774Z" fill="#1855A6"/>
<path d="M24.9225 8.47993C24.885 8.51575 24.9085 8.6256 24.9647 8.67814C24.9999 8.71157 25.0233 8.76172 25.0233 8.80232C25.0233 8.83814 25.0444 8.89068 25.0678 8.91456C25.1171 8.96471 25.2952 9.00291 25.3842 8.97903C25.4546 8.96232 25.478 8.87635 25.4311 8.80232C25.3936 8.745 25.3842 8.74023 25.2764 8.71635C25.2389 8.70679 25.2085 8.68053 25.1967 8.64709C25.1616 8.53247 25.0936 8.46321 25.0139 8.46321C24.9717 8.46321 24.9296 8.47038 24.9225 8.47993Z" fill="#1855A6"/>
<path d="M16.7427 8.99315C16.5458 9.21047 16.5224 9.24868 16.5622 9.32271C16.595 9.38241 16.6231 9.38241 16.738 9.32032C16.7896 9.29166 16.8786 9.26062 16.9349 9.25345C17.0614 9.23674 17.1247 9.16032 17.1411 9.00748C17.1575 8.85703 17.1224 8.79733 17.0122 8.79733C16.9349 8.79733 16.9091 8.81644 16.7427 8.99315Z" fill="#1855A6"/>
<path d="M25.6469 8.88383C25.6258 8.90532 25.6094 8.96024 25.6094 9.01278C25.6094 9.08442 25.6234 9.11547 25.682 9.16562C25.7219 9.19905 25.7617 9.22771 25.7711 9.22771C25.7805 9.22771 25.8344 9.27069 25.893 9.32323C25.9492 9.37577 26.0359 9.43069 26.0828 9.44741C26.1602 9.47129 26.1789 9.4689 26.2188 9.43069C26.282 9.37338 26.2797 9.28502 26.2141 9.2492C26.1836 9.23487 26.1016 9.16562 26.0313 9.09636C25.9047 8.97218 25.7383 8.84562 25.7008 8.84562C25.6914 8.84562 25.6656 8.86233 25.6469 8.88383Z" fill="#1855A6"/>
<path d="M25.1923 9.208C25.1759 9.22472 25.1642 9.26293 25.1642 9.29397C25.1642 9.32502 25.1454 9.38233 25.1243 9.42293C25.0821 9.49218 25.0821 9.49457 25.1384 9.53994C25.204 9.59487 25.2227 9.59725 25.2626 9.54711C25.279 9.52561 25.3259 9.47546 25.3681 9.43487C25.4548 9.35128 25.4454 9.30352 25.3212 9.22711C25.2321 9.17218 25.2298 9.16979 25.1923 9.208Z" fill="#1855A6"/>
<path d="M22.2857 9.42266C22.2154 9.49431 22.274 9.63281 22.3748 9.63281C22.4357 9.63281 22.4451 9.62326 22.4451 9.56595C22.4451 9.49192 22.3865 9.39401 22.3419 9.39401C22.3279 9.39401 22.3021 9.40595 22.2857 9.42266Z" fill="#1855A6"/>
<path d="M26.5633 9.50646C26.5539 9.51362 26.5469 9.5781 26.5469 9.64496C26.5469 9.74526 26.5609 9.78825 26.6148 9.86706C26.6992 9.98407 26.7203 9.9984 26.7836 9.97929C26.8656 9.95303 26.875 9.87183 26.8141 9.75243C26.7836 9.69273 26.7578 9.62347 26.7578 9.5972C26.7578 9.56855 26.7461 9.53511 26.7297 9.5184C26.6992 9.48735 26.5891 9.48019 26.5633 9.50646Z" fill="#1855A6"/>
<path d="M23.0546 9.65722C22.9655 9.74796 23.0124 9.82677 23.1436 9.80767C23.2467 9.79095 23.2819 9.7217 23.2186 9.65722C23.16 9.59752 23.1131 9.59752 23.0546 9.65722Z" fill="#1855A6"/>
<path d="M26.0684 9.77401C26.059 9.78595 26.059 9.81222 26.066 9.82894C26.0731 9.84804 26.0684 9.89341 26.0543 9.92924C26.0215 10.02 26.059 10.0797 26.1785 10.137C26.3051 10.1943 26.3988 10.1943 26.4949 10.1346C26.5606 10.094 26.5723 10.0749 26.5652 10.008C26.5582 9.93401 26.5535 9.93162 26.4293 9.9173C26.2863 9.90058 26.2277 9.8767 26.1621 9.80267C26.1129 9.74774 26.0871 9.74058 26.0684 9.77401Z" fill="#1855A6"/>
<path d="M22.0632 9.83878C22.0351 9.86744 22.0445 10.0274 22.0749 10.0585C22.1101 10.0943 22.2437 10.0967 22.307 10.0633C22.396 10.0131 22.3374 9.89132 22.2109 9.86744C22.178 9.86028 22.1359 9.84834 22.1148 9.83878C22.096 9.82923 22.0726 9.83162 22.0632 9.83878Z" fill="#1855A6"/>
<path d="M22.3091 10.1629C22.2271 10.2465 22.3279 10.3516 22.4451 10.3014C22.5224 10.268 22.5506 10.2131 22.5131 10.1677C22.4802 10.1271 22.3466 10.1247 22.3091 10.1629Z" fill="#1855A6"/>
<path d="M26.8372 10.3635C26.8161 10.4495 26.8442 10.5904 26.8911 10.6381C26.952 10.6954 27.1958 10.662 27.2567 10.5856C27.3177 10.5068 27.2942 10.4805 27.1606 10.4733C27.0575 10.4662 27.027 10.4542 26.9591 10.3826C26.9169 10.3396 26.8747 10.3014 26.8677 10.3014C26.8583 10.3014 26.8442 10.3277 26.8372 10.3635Z" fill="#1855A6"/>
<path d="M22.7637 10.5312C22.7122 10.5814 22.7169 10.6196 22.7802 10.6793C22.8481 10.7438 22.9044 10.7461 22.9372 10.6864C22.97 10.6196 22.9677 10.5957 22.9137 10.5408C22.8575 10.4835 22.813 10.4811 22.7637 10.5312Z" fill="#1855A6"/>
<path d="M18.3718 10.5568C18.3179 10.607 18.2499 10.7789 18.2499 10.8696C18.2499 10.9055 18.2265 10.9771 18.2007 11.0296C18.1093 11.2016 18.0811 11.3138 18.0647 11.5837C18.0507 11.8225 18.0413 11.8583 17.9804 11.949C17.9194 12.0374 17.9171 12.0541 17.9405 12.1258C17.9804 12.2356 17.9757 12.269 17.9077 12.4052C17.8233 12.5795 17.7272 12.8899 17.6405 13.2864C17.5491 13.6995 17.5022 13.7831 17.289 13.912C17.01 14.0792 16.8085 14.0577 16.6444 13.8404C16.5858 13.7592 16.5038 13.6876 16.4218 13.6422C16.3515 13.604 16.2085 13.487 16.1054 13.3819C15.9671 13.2434 15.878 13.1741 15.7632 13.1216C15.585 13.0404 15.564 13.0165 15.5241 12.878C15.4983 12.7873 15.4843 12.7705 15.4022 12.7467C15.3132 12.7228 15.2265 12.6249 15.2265 12.5532C15.2265 12.5365 15.2944 12.4458 15.3788 12.3502C15.5335 12.1711 15.5522 12.1234 15.4983 12.0231C15.4186 11.8798 15.5475 11.7198 15.7374 11.727C15.8804 11.7317 15.9108 11.7055 15.8921 11.5884C15.8804 11.512 15.8874 11.4858 15.939 11.4237C15.9718 11.3807 15.9999 11.3377 15.9999 11.3234C15.9999 11.3114 15.9624 11.2613 15.9179 11.2159C15.8452 11.1419 15.8265 11.1347 15.7468 11.1467C15.571 11.1777 15.5663 11.1753 15.5593 11.1132C15.5475 11.0273 15.5218 11.0105 15.4397 11.0296C15.3952 11.0392 15.353 11.0726 15.3272 11.1156C15.3038 11.1538 15.2616 11.192 15.2335 11.1992C15.1749 11.2159 15.0061 11.1634 14.7811 11.0607C14.6968 11.0225 14.5796 10.9819 14.5186 10.9699C14.4507 10.9556 14.364 10.9126 14.2866 10.8529C14.0944 10.7049 13.8671 10.669 13.8319 10.7813C13.8061 10.8577 13.8413 10.915 13.9374 10.9556C13.9866 10.9747 14.0335 11.0034 14.0429 11.0177C14.0733 11.0655 14.003 11.1873 13.9163 11.235C13.8694 11.2613 13.8015 11.3019 13.7663 11.3234C13.7007 11.364 13.7007 11.364 13.6538 11.2971C13.5929 11.2159 13.5554 11.2159 13.4804 11.2995C13.4429 11.3425 13.3608 11.3878 13.2554 11.4237C13.0374 11.5001 12.9694 11.5813 12.9811 11.7604C12.9882 11.8917 12.9835 11.8989 12.8499 11.9395C12.8007 11.9562 12.7749 11.9849 12.7538 12.0446C12.7374 12.0971 12.6952 12.1496 12.6413 12.1855C12.5944 12.2165 12.5546 12.2595 12.5546 12.281C12.5546 12.3216 12.6296 12.484 12.6765 12.5508C12.721 12.6129 12.6741 12.6726 12.5663 12.6941C12.4936 12.7108 12.4608 12.7037 12.3765 12.6535C12.2569 12.5819 12.2382 12.5795 12.1632 12.6416C12.1304 12.6678 12.0905 12.6893 12.0741 12.6893C12.0483 12.6893 11.9921 12.5938 11.8726 12.3431C11.8468 12.2905 11.8186 12.2308 11.8069 12.2117C11.7976 12.1926 11.7179 12.1401 11.6311 12.0947C11.4413 11.9968 11.3851 12.0064 11.3054 12.1449C11.221 12.2929 11.1647 12.3359 11.0382 12.3478C10.8976 12.3646 10.8577 12.4004 10.7616 12.5962C10.6702 12.7801 10.6515 12.7968 10.5272 12.8159C10.3983 12.835 10.3116 12.9377 10.2929 13.0881C10.2858 13.1502 10.2694 13.2267 10.2577 13.2553C10.2272 13.3293 10.0866 13.3843 9.97411 13.3676C9.86396 13.3484 9.83583 13.3938 9.89443 13.4965C9.93193 13.561 9.93193 13.5705 9.89443 13.647C9.80536 13.8237 9.72568 13.8571 9.65536 13.7473C9.6249 13.6995 9.61552 13.6422 9.61786 13.5443C9.62255 13.4249 9.61786 13.4058 9.58271 13.4058C9.52411 13.4058 9.42568 13.5156 9.3788 13.6326C9.35771 13.6852 9.31552 13.7568 9.28271 13.7902C9.21474 13.8619 9.17958 13.9741 9.17958 14.1174C9.17958 14.2583 9.16083 14.2846 8.9499 14.4637C8.7999 14.5878 8.75068 14.6499 8.67568 14.7932C8.53974 15.0631 8.50458 15.1013 8.33818 15.1825C8.19287 15.2517 8.16708 15.2565 7.88818 15.2589C7.58818 15.2613 7.53896 15.2708 7.53896 15.3258C7.53896 15.3974 7.45927 15.4356 7.33271 15.4189C7.18505 15.4022 7.07958 15.4404 7.03271 15.5335C6.99052 15.6195 6.92021 15.6362 6.72802 15.6171C6.6038 15.6052 6.56162 15.6099 6.48662 15.6481C6.43505 15.6744 6.35302 15.7031 6.29912 15.7126C6.2288 15.7246 6.17255 15.758 6.0788 15.8511C6.00146 15.9276 5.87724 16.0135 5.75068 16.0756C5.57021 16.1664 5.53271 16.1974 5.44834 16.3216C5.3499 16.4649 5.30537 16.4911 5.27959 16.4267C5.26084 16.3717 5.1999 16.3837 5.16005 16.4481C5.12959 16.4935 5.1249 16.5389 5.13896 16.6487C5.15537 16.8111 5.12959 16.8899 4.96084 17.167C4.83662 17.3723 4.81787 17.4965 4.88584 17.6708C4.98896 17.9335 4.99599 18.318 4.8999 18.3992C4.84834 18.4422 4.8249 18.4064 4.80849 18.2583C4.78974 18.0816 4.7663 18.041 4.71005 18.0768C4.6749 18.1007 4.67021 18.1317 4.6749 18.287C4.68193 18.4398 4.67724 18.4684 4.64677 18.4684C4.62568 18.4684 4.59755 18.447 4.58115 18.4207C4.56474 18.3944 4.53193 18.3729 4.51084 18.3729C4.43818 18.3729 4.45459 18.5592 4.53662 18.6595C4.67021 18.8267 4.68662 18.8864 4.67255 19.1443L4.66084 19.3807L4.75224 19.5622C4.87646 19.8105 4.88584 19.8678 4.81084 19.9729C4.77802 20.0183 4.73349 20.0828 4.71005 20.1162C4.65146 20.1974 4.64209 20.4959 4.68896 20.8159C4.75224 21.2505 4.73115 21.4129 4.58115 21.6493C4.52959 21.7305 4.47099 21.8404 4.45224 21.8929C4.40771 22.0267 4.36552 22.0649 4.22021 22.1126C3.97177 22.1914 3.9249 22.3658 4.12646 22.4684C4.16162 22.4876 4.17568 22.5162 4.17568 22.5735C4.17802 22.6762 4.2249 22.7096 4.40537 22.7287C4.56005 22.7455 5.19287 22.6881 5.26084 22.6499C5.28427 22.638 5.32177 22.607 5.34521 22.5783C5.38974 22.5281 5.61005 22.4326 5.68271 22.4326C5.7038 22.4326 5.78115 22.3944 5.85146 22.349C5.9499 22.2846 6.0038 22.2655 6.08818 22.2655C6.14677 22.2655 6.24287 22.2487 6.29912 22.2273C6.3788 22.1986 6.45615 22.1938 6.63662 22.2034C6.76552 22.2105 7.02333 22.2201 7.21083 22.2225C7.60458 22.2296 7.54365 22.2559 7.8999 21.9264C8.08037 21.7568 8.12021 21.7305 8.22333 21.7138C8.30068 21.7019 8.3663 21.6708 8.42021 21.6231C8.46474 21.5825 8.52568 21.549 8.55615 21.549C8.58427 21.549 8.66161 21.5132 8.7249 21.4702C8.82568 21.4034 8.86083 21.3938 9.03193 21.3843C9.1913 21.3795 9.24755 21.3867 9.34833 21.4296C9.46786 21.4798 9.47724 21.4798 9.63661 21.444C9.73271 21.4225 9.92255 21.3437 10.0913 21.2553L10.3819 21.1073L10.7593 21.0929C10.9679 21.0858 11.1765 21.0643 11.2233 21.0476C11.2983 21.0213 11.3171 21.0213 11.371 21.0571C11.4038 21.081 11.453 21.1455 11.4765 21.2052C11.5022 21.2625 11.5257 21.3126 11.528 21.3126C11.5327 21.315 11.6944 21.327 11.8866 21.3437L12.2382 21.3699L12.2616 21.4464C12.2757 21.4893 12.3155 21.5538 12.3507 21.592C12.4233 21.6708 12.428 21.6852 12.3765 21.7425C12.3413 21.7807 12.3436 21.7974 12.3882 21.9311C12.4421 22.0887 12.4608 22.4541 12.428 22.6261C12.414 22.6929 12.4186 22.7216 12.4515 22.7526C12.489 22.7932 12.496 22.7908 12.585 22.6858C12.6343 22.6237 12.7163 22.5544 12.7655 22.5281C12.8429 22.4876 12.8569 22.4684 12.864 22.392C12.871 22.2917 12.8804 22.2846 13.2225 22.1389C13.3772 22.072 13.4171 22.0434 13.4499 21.9765C13.5061 21.8667 13.5671 21.8189 13.6819 21.7998C13.8061 21.7783 13.8366 21.8117 13.7616 21.8834C13.7218 21.9216 13.703 21.9646 13.703 22.0171C13.703 22.1174 13.6327 22.201 13.4804 22.2846C13.396 22.3299 13.3561 22.3705 13.3397 22.4231C13.328 22.4637 13.2905 22.5281 13.2577 22.5711C13.2249 22.6117 13.1804 22.6714 13.1593 22.7049C13.1311 22.7431 13.089 22.767 13.0444 22.7717C12.9624 22.7789 12.9132 22.8338 12.9366 22.8959C12.9483 22.9246 12.9811 22.9341 13.0702 22.9341C13.246 22.9341 13.3163 22.8887 13.389 22.7192C13.4311 22.6189 13.4874 22.552 13.5296 22.552C13.5483 22.552 13.5788 22.5807 13.6022 22.6141C13.6397 22.6762 13.6397 22.681 13.5647 22.829C13.5155 22.927 13.4593 22.9986 13.4077 23.032C13.3233 23.0846 13.3116 23.1443 13.389 23.1276C13.5296 23.0965 13.5483 23.1061 13.5788 23.2446C13.6163 23.4117 13.5905 23.5144 13.478 23.6458C13.4054 23.7341 13.396 23.758 13.4077 23.8296C13.4171 23.875 13.4593 23.9538 13.5038 24.0087C13.5483 24.0637 13.5905 24.1473 13.5999 24.195C13.6233 24.324 13.6468 24.3598 13.7569 24.4243C13.8905 24.5007 13.9725 24.5174 14.071 24.484C14.1577 24.4553 14.2093 24.4816 14.4085 24.6559C14.4624 24.7013 14.5304 24.7347 14.589 24.7419C14.6757 24.7538 14.6921 24.7467 14.7975 24.6487C14.9405 24.5126 15.0015 24.4792 15.0835 24.4983C15.1468 24.5126 15.1796 24.4911 15.3952 24.3168C15.4936 24.2356 15.5311 24.2834 15.5311 24.4864C15.5311 24.6273 15.5382 24.6535 15.5921 24.7108C15.6272 24.7443 15.6952 24.7849 15.7468 24.8016C15.8288 24.8255 15.8429 24.8231 15.9015 24.7753C16.0421 24.6607 16.1827 24.5771 16.2999 24.5437C16.41 24.5102 16.4311 24.4935 16.4733 24.4028C16.5038 24.3407 16.5483 24.2881 16.5835 24.2738C16.703 24.2261 16.9327 24.207 17.0944 24.2332C17.3241 24.2667 17.46 24.2643 17.5327 24.2237C17.5796 24.1998 17.6288 24.1234 17.7038 23.961C17.8608 23.6195 17.8608 23.6219 18.0038 23.5192C18.0905 23.4571 18.1585 23.3831 18.203 23.3019C18.2405 23.2326 18.3061 23.1562 18.3483 23.1299C18.4585 23.0583 18.578 22.927 18.9179 22.4923C19.3022 22.0028 19.314 21.9884 19.4686 21.8881C19.6632 21.7616 20.153 21.3222 20.2561 21.1837C20.3077 21.1168 20.446 20.9425 20.5679 20.7968C20.7741 20.5508 20.896 20.3431 20.9358 20.1735C20.9616 20.0565 21.0108 19.9801 21.128 19.8607C21.2288 19.758 21.2475 19.7198 21.2968 19.5431C21.3413 19.3711 21.346 19.3067 21.3343 19.1228C21.3202 18.9389 21.3249 18.8887 21.3647 18.7861C21.4444 18.5759 21.4632 18.4111 21.4397 18.0338C21.421 17.6923 21.4186 17.678 21.3413 17.5467C21.2968 17.4726 21.1843 17.3341 21.0905 17.2386C20.8983 17.0428 20.8983 17.0523 20.9475 16.7037C20.978 16.484 20.978 16.4792 20.9265 16.4386C20.8983 16.4147 20.8163 16.3861 20.746 16.3789C20.5421 16.3526 20.4905 16.2786 20.4507 15.9538C20.439 15.8511 20.4015 15.6959 20.371 15.6099C20.3382 15.524 20.3124 15.407 20.3124 15.3496C20.3124 15.2446 20.31 15.2422 20.1905 15.1873C20.0546 15.1276 20.0007 15.075 19.9632 14.9747C19.9374 14.9078 19.928 14.9007 19.8108 14.8744C19.7382 14.8577 19.539 14.6595 19.4757 14.5425C19.4311 14.4565 19.4475 14.1461 19.5038 14.0099C19.5507 13.8953 19.5483 13.8141 19.4921 13.6899C19.4522 13.5968 19.4452 13.5323 19.4452 13.0858V12.5867L19.3421 12.4887C19.2718 12.4219 19.2343 12.367 19.2296 12.3192C19.2202 12.2189 19.1475 12.2141 18.9788 12.3096C18.7866 12.4171 18.7538 12.4004 18.7725 12.1926C18.7796 12.1043 18.8007 11.9729 18.8194 11.9013C18.8452 11.8034 18.8475 11.7341 18.8311 11.6267C18.8194 11.5478 18.803 11.3926 18.7936 11.2804C18.7772 11.1156 18.7632 11.0607 18.7093 10.9819C18.6554 10.9007 18.646 10.872 18.66 10.7837C18.6788 10.6499 18.66 10.595 18.578 10.552C18.489 10.5043 18.4304 10.5067 18.3718 10.5568Z" fill="#1855A6"/>
<path d="M22.4008 10.725C22.2906 10.8157 22.4149 10.8897 22.5742 10.8277C22.6211 10.8109 22.6352 10.7895 22.6281 10.7489C22.6188 10.6772 22.4781 10.6629 22.4008 10.725Z" fill="#1855A6"/>
<path d="M13.1123 10.7719C13.0771 10.8173 13.1006 10.9081 13.1568 10.9319C13.1826 10.9463 13.2225 10.9916 13.2436 11.0346C13.2881 11.1278 13.3443 11.1349 13.4967 11.0681C13.6982 10.9797 13.8154 10.8221 13.7217 10.7624C13.6725 10.7313 13.1404 10.7385 13.1123 10.7719Z" fill="#1855A6"/>
<path d="M23.1297 10.8798C23.1133 10.8965 23.1016 10.9323 23.1016 10.9634C23.1016 10.9944 23.0875 11.0183 23.0734 11.0183C23.0313 11.0207 23.1672 11.1377 23.2094 11.1377C23.2281 11.1377 23.2867 11.0971 23.3406 11.0469C23.4601 10.9323 23.4531 10.875 23.3148 10.875C23.2633 10.875 23.2094 10.8702 23.1906 10.8631C23.1742 10.8559 23.1461 10.8631 23.1297 10.8798Z" fill="#1855A6"/>
<path d="M26.134 10.9728C26.127 10.9871 26.1317 11.0229 26.1481 11.0516C26.1692 11.0922 26.1903 11.1041 26.2348 11.0945C26.3051 11.0802 26.3286 11.0301 26.2887 10.9823C26.2536 10.9417 26.1575 10.9345 26.134 10.9728Z" fill="#1855A6"/>
<path d="M26.0711 11.4649C26.064 11.4745 26.0711 11.5222 26.0875 11.5676C26.1203 11.6703 26.1976 11.6918 26.2515 11.6106C26.3101 11.5246 26.3008 11.4745 26.2258 11.4769C26.1883 11.4792 26.1437 11.4721 26.1226 11.4625C26.0992 11.453 26.0781 11.453 26.0711 11.4649Z" fill="#1855A6"/>
<path d="M28.7431 12.7378C28.7056 12.7689 28.6751 12.8262 28.6611 12.8978C28.6329 13.0268 28.6564 13.108 28.7243 13.1318C28.7806 13.1486 28.8978 13.0912 28.947 13.0196C28.9915 12.9575 28.9962 12.7593 28.9564 12.7187C28.9142 12.6757 28.8111 12.6853 28.7431 12.7378Z" fill="#1855A6"/>
<path d="M28.8436 13.239C28.792 13.2915 28.7873 13.3083 28.8178 13.356C28.8295 13.3751 28.8553 13.3823 28.8857 13.3727C28.9514 13.3512 29.0592 13.2438 29.0428 13.2151C29.017 13.1745 28.8928 13.1889 28.8436 13.239Z" fill="#1855A6"/>
<path d="M29.0146 13.4617C28.9724 13.4903 28.9396 13.5309 28.9443 13.55C28.9584 13.6479 29.1482 13.5691 29.1482 13.4664C29.1482 13.3948 29.1154 13.3948 29.0146 13.4617Z" fill="#1855A6"/>
<path d="M33.6835 13.5141C33.5851 13.612 33.6155 13.8604 33.7257 13.8604C33.8194 13.8604 33.9999 13.6693 33.9999 13.569C33.9999 13.4472 33.7843 13.409 33.6835 13.5141Z" fill="#1855A6"/>
<path d="M33.3082 13.8859C33.2824 13.8979 33.1981 13.9599 33.1207 14.022C32.9988 14.1223 32.9801 14.151 32.9731 14.2298C32.9637 14.3325 33.0035 14.4471 33.0527 14.4662C33.1043 14.4853 33.3645 14.4232 33.4957 14.3588C33.5871 14.3134 33.6176 14.2847 33.634 14.225C33.6621 14.1176 33.5801 13.9504 33.4746 13.8979C33.3856 13.8549 33.3738 13.8549 33.3082 13.8859Z" fill="#1855A6"/>
<path d="M26.8326 14.2947C26.767 14.3616 26.8326 14.5049 26.9287 14.5049C26.9686 14.5049 27.0154 14.4356 27.0154 14.3759C27.0154 14.29 26.8912 14.235 26.8326 14.2947Z" fill="#1855A6"/>
<path d="M33.2336 14.6725C33.1656 14.7035 33.1328 14.7322 33.1328 14.7656C33.1328 14.8229 33.1773 14.8397 33.2851 14.8229C33.3766 14.8086 33.4515 14.7226 33.4281 14.6606C33.4117 14.6128 33.3555 14.6176 33.2336 14.6725Z" fill="#1855A6"/>
<path d="M26.7343 15.0989C26.6945 15.1754 26.7062 15.2279 26.7929 15.3736C26.8374 15.4476 26.8796 15.5503 26.889 15.5956C26.9007 15.6577 26.9382 15.7151 27.0226 15.7915C27.0859 15.8512 27.1679 15.9467 27.2054 16.0016C27.2429 16.0565 27.3109 16.121 27.353 16.1401C27.4116 16.1688 27.4468 16.2118 27.482 16.293C27.5077 16.3551 27.5429 16.4171 27.5593 16.4315C27.5945 16.4577 27.9062 16.4577 27.9484 16.4315C27.9976 16.398 27.9812 16.2476 27.9179 16.1616C27.8195 16.0279 27.721 15.973 27.5898 15.973H27.4726L27.4585 15.8058C27.4398 15.5622 27.3671 15.4595 27.2148 15.4595C27.0999 15.4595 26.9921 15.3401 26.9921 15.2159C26.9921 15.0798 26.7929 14.9891 26.7343 15.0989Z" fill="#1855A6"/>
<path d="M28.0398 16.5541C27.9742 16.6258 27.9906 16.6735 28.082 16.6926C28.1828 16.7117 28.2391 16.6711 28.2297 16.5852C28.225 16.535 28.2086 16.5207 28.15 16.5159C28.1031 16.5111 28.0656 16.5231 28.0398 16.5541Z" fill="#1855A6"/>
<path d="M27.9041 22.8512C27.8385 22.887 27.726 23.1163 27.7025 23.2524C27.6885 23.3455 27.7213 23.3813 27.8361 23.3933C27.9299 23.4028 27.9627 23.4697 27.883 23.496C27.7705 23.5318 27.7447 23.6488 27.7424 24.1431C27.7424 24.1694 27.665 24.284 27.5689 24.3987C27.4728 24.5133 27.3744 24.6351 27.3486 24.6733C27.2947 24.7473 27.2502 24.7736 27.051 24.8476C26.8939 24.9049 26.6877 25.0912 26.6877 25.1748C26.6877 25.2082 26.7299 25.2536 26.8236 25.3157C26.9057 25.3706 26.9596 25.4255 26.9642 25.4566C26.9807 25.576 26.7814 25.7861 26.5752 25.8721C26.4767 25.9103 26.4416 25.9939 26.4814 26.0822C26.5213 26.1658 26.5963 26.173 26.8189 26.1228C27.0228 26.0775 27.2314 25.9342 27.3603 25.7479C27.44 25.6357 27.4447 25.6333 27.5713 25.6333C27.7471 25.6333 27.7892 25.607 27.7892 25.49C27.7892 25.4088 27.8033 25.3873 27.9181 25.287C28.0096 25.2082 28.0541 25.1461 28.0752 25.0793C28.1174 24.9336 28.1666 24.9121 28.401 24.9384C28.64 24.967 28.7127 24.936 28.7877 24.776C28.8416 24.6613 28.8767 24.6303 28.9564 24.6303C28.9963 24.6303 29.0197 24.6064 29.0455 24.5396C29.0666 24.4918 29.1111 24.4201 29.1439 24.3843C29.1978 24.327 29.2072 24.296 29.2072 24.1694V24.0213L29.1252 24.0237C29.0783 24.0237 29.001 24.0524 28.9494 24.0882C28.783 24.2004 28.5463 24.2315 28.4689 24.1527C28.4103 24.093 28.4103 24.0452 28.4666 23.9879C28.5767 23.8757 28.6002 23.7037 28.5111 23.6416C28.4267 23.5796 28.3846 23.5963 28.2885 23.7204C28.2392 23.7873 28.1853 23.8446 28.1689 23.8518C28.0799 23.89 28.0681 23.7706 28.1525 23.6846C28.2416 23.5939 28.2603 23.5437 28.2556 23.3837C28.2533 23.3001 28.2603 23.1855 28.2697 23.1258L28.2861 23.0184L28.1642 22.9157C28.0306 22.8082 27.9978 22.7987 27.9041 22.8512Z" fill="#1855A6"/>
<path d="M12.6437 23.1476C12.5312 23.1643 12.4375 23.2264 12.4375 23.2861C12.4375 23.3076 12.4773 23.3171 12.5734 23.3195C12.6461 23.3219 12.7164 23.3219 12.7258 23.3195C12.7375 23.3171 12.8078 23.3099 12.8852 23.3004C13.0258 23.2861 13.0891 23.2407 13.0516 23.181C13.0305 23.1476 12.782 23.1261 12.6437 23.1476Z" fill="#1855A6"/>
<path d="M15.9767 25.2149C15.9135 25.32 15.9041 25.437 15.9556 25.4729C16.0142 25.5111 16.115 25.4705 16.1642 25.3869C16.2228 25.2914 16.2228 25.2221 16.1689 25.172C16.0986 25.1075 16.033 25.1218 15.9767 25.2149Z" fill="#1855A6"/>
<path d="M14.3828 25.2299C14.2516 25.3207 14.2445 25.3804 14.3617 25.3899C14.432 25.3971 14.4648 25.3828 14.5352 25.3159C14.6992 25.1631 14.5773 25.0962 14.3828 25.2299Z" fill="#1855A6"/>
<path d="M25.8059 25.6187C25.7098 25.6665 25.609 25.7501 25.5082 25.8599C25.4262 25.9507 25.295 26.0629 25.22 26.1083C24.934 26.2778 24.845 26.3447 24.8004 26.4283C24.7489 26.5286 24.7114 26.5477 24.5192 26.5859C24.395 26.6074 24.3668 26.6241 24.2871 26.7196C24.2379 26.7793 24.1817 26.8271 24.1629 26.8271C24.1418 26.8271 24.0715 26.8581 24.0059 26.8964C23.9403 26.9369 23.7809 26.9943 23.652 27.0301C23.4762 27.0755 23.3801 27.1161 23.2653 27.1949C23.0426 27.3477 22.991 27.3692 22.8035 27.3811C22.5832 27.3978 22.4379 27.479 22.3981 27.608C22.3629 27.7202 22.3184 27.7584 22.2199 27.7584C22.1731 27.7584 22.1145 27.7847 22.0582 27.8301C22.009 27.8707 21.941 27.9089 21.9082 27.9137C21.8754 27.9208 21.8051 27.9399 21.7535 27.9566C21.6692 27.9829 21.6574 27.9972 21.634 28.0928L21.6082 28.2002L21.4981 28.1931C21.3903 28.1835 21.3903 28.1859 21.3457 28.2886C21.3035 28.3841 21.3035 28.3937 21.341 28.4223C21.3668 28.4438 21.4137 28.4486 21.4864 28.439C21.5871 28.4247 21.5965 28.4295 21.6668 28.5083C21.7067 28.556 21.7559 28.6253 21.777 28.6635C21.7957 28.7017 21.8332 28.7423 21.859 28.7495C21.9574 28.7805 22.4192 28.5966 22.7074 28.4128C22.7567 28.3817 22.8551 28.3316 22.9254 28.3053C23.0215 28.2695 23.0778 28.2265 23.1434 28.1453C23.3004 27.9471 23.4387 27.8014 23.502 27.7704C23.5348 27.7513 23.6051 27.7011 23.6567 27.6558C23.7293 27.5961 23.7832 27.5698 23.8723 27.5602C24.0153 27.5435 24.1137 27.4934 24.1981 27.3955C24.259 27.3262 24.266 27.3238 24.4137 27.3381C24.4981 27.3453 24.6059 27.3405 24.6528 27.3286C24.7254 27.3071 24.7442 27.2856 24.7793 27.1949C24.8215 27.0826 24.9785 26.9226 25.0442 26.9226C25.145 26.9226 25.2575 26.8677 25.295 26.8056C25.3489 26.7125 25.4965 26.6193 25.6864 26.562C25.7989 26.5262 25.8575 26.4928 25.8903 26.445C25.916 26.4068 25.9723 26.3543 26.0145 26.328C26.059 26.3017 26.1059 26.2516 26.12 26.2181C26.1364 26.1823 26.1903 26.1393 26.2512 26.1131C26.3075 26.0868 26.3707 26.0414 26.3918 26.0128C26.4434 25.9364 26.4387 25.817 26.3825 25.7644C26.3332 25.719 26.2957 25.7214 26.12 25.7931C25.9817 25.8456 25.9512 25.8241 25.9887 25.6999C26.0145 25.614 26.0028 25.5352 25.9676 25.5399C25.9582 25.5423 25.8832 25.5758 25.8059 25.6187Z" fill="#1855A6"/>
<path d="M14.5401 25.6978C14.5213 25.7217 14.4557 25.8363 14.3971 25.951C14.2963 26.1444 14.2893 26.1707 14.3034 26.2805C14.3198 26.3975 14.3174 26.3999 14.2213 26.4907L14.1252 26.5814L14.1393 26.7342C14.1487 26.8178 14.1581 26.8918 14.1627 26.8966C14.1674 26.9014 14.1487 26.9468 14.1206 26.9969C14.0174 27.1832 14.1299 27.2118 14.4182 27.0686C14.6549 26.9515 14.9456 26.8298 15.0956 26.7892C15.2385 26.7486 15.2667 26.7247 15.2995 26.6101C15.3323 26.5002 15.3721 26.462 15.4917 26.4214C15.5877 26.3904 15.6206 26.3378 15.6721 26.1301C15.7096 25.982 15.7729 25.8841 15.8526 25.8435C15.8924 25.8244 15.9182 25.7933 15.9182 25.7647C15.9182 25.7002 15.7917 25.6883 15.6557 25.7408C15.5901 25.7671 15.5245 25.7766 15.4659 25.7647C15.3909 25.7527 15.3627 25.7623 15.262 25.8363C15.1143 25.9414 15.0299 25.9462 14.9807 25.8483C14.9432 25.7718 14.8659 25.7169 14.8284 25.7408C14.8167 25.748 14.7557 25.7336 14.6971 25.7074C14.5659 25.6477 14.5846 25.6477 14.5401 25.6978Z" fill="#1855A6"/>
<path d="M21.3134 28.709C21.29 28.7329 21.2736 28.7663 21.2736 28.783C21.2736 28.7997 21.2361 28.8284 21.1915 28.8475C21.0954 28.8881 21.0907 28.9048 21.1587 28.9669C21.2056 29.0099 21.2079 29.0099 21.2923 28.9574C21.3392 28.9287 21.4189 28.8881 21.4681 28.8666C21.522 28.8427 21.5548 28.8117 21.5548 28.7854C21.5548 28.6756 21.3884 28.6254 21.3134 28.709Z" fill="#1855A6"/>
</svg>
