<svg width="370" height="370" viewBox="0 0 370 370" fill="none" xmlns="http://www.w3.org/2000/svg">
<path d="M186.042 345.069C164.988 345.069 144.14 340.908 124.689 332.823C105.238 324.739 87.5641 312.889 72.6769 297.951C57.7896 283.013 45.9804 265.28 37.9233 245.762C29.8667 226.244 25.7197 205.326 25.7197 184.2C25.7197 163.075 29.8667 142.156 37.9233 122.639C45.9804 103.121 57.7896 85.3872 72.6769 70.4492C87.5641 55.5112 105.238 43.6617 124.689 35.5772C144.14 27.4931 164.988 23.332 186.042 23.332C207.096 23.332 227.943 27.4931 247.394 35.5777C266.846 43.6617 284.519 55.5112 299.406 70.4492C314.293 85.3872 326.104 103.121 334.161 122.639C342.217 142.156 346.365 163.075 346.365 184.2C346.365 205.326 342.217 226.244 334.161 245.762C326.104 265.28 314.293 283.013 299.406 297.951C284.519 312.889 266.846 324.739 247.394 332.823C227.943 340.908 207.096 345.069 186.042 345.069Z" stroke="#F9F9F9" stroke-width="10.6983" stroke-linecap="round"/>
<path d="M186.042 345.068C162.898 345.068 140.03 340.04 119.007 330.331C97.9844 320.621 79.3056 306.46 64.2548 288.82C49.204 271.179 38.1377 250.478 31.816 228.14C25.4949 205.801 24.0685 182.354 27.6347 159.409" stroke="#245B78" stroke-width="10.6983" stroke-linecap="round"/>
<path d="M185.753 363.743C162.35 363.743 139.177 359.117 117.555 350.131C95.934 341.145 76.2885 327.973 59.7402 311.369C43.1919 294.764 30.0651 275.051 21.1091 253.357C12.1536 231.661 7.54395 208.409 7.54395 184.926C7.54395 161.443 12.1536 138.191 21.1091 116.496C30.0651 94.8007 43.1919 75.0882 59.7402 58.4835C76.2885 41.8788 95.934 28.7073 117.555 19.7207C139.177 10.7347 162.35 6.10938 185.753 6.10938C209.156 6.10938 232.33 10.7347 253.951 19.7213C275.573 28.7073 295.218 41.8788 311.766 58.4835C328.314 75.0882 341.443 94.8007 350.398 116.496C359.354 138.191 363.964 161.443 363.964 184.926C363.964 208.409 359.354 231.661 350.398 253.357C341.443 275.051 328.314 294.764 311.766 311.369C295.218 327.973 275.573 341.145 253.951 350.131C232.33 359.118 209.156 363.743 185.753 363.743Z" stroke="#F9F9F9" stroke-width="11.8919" stroke-linecap="round"/>
<path d="M185.754 363.743C160.029 363.743 134.609 358.155 111.241 347.362C87.8723 336.569 67.1095 320.828 50.3795 301.219C33.6494 281.611 21.3484 258.6 14.3214 233.769C7.29501 208.938 5.70949 182.875 9.67352 157.37" stroke="#273F52" stroke-width="10.9066" stroke-linecap="round"/>
<path d="M186.044 327.676C167.266 327.676 148.673 323.965 131.324 316.755C113.976 309.544 98.213 298.976 84.9351 285.653C71.6576 272.33 61.1247 256.513 53.9391 239.105C46.753 221.698 43.0547 203.041 43.0547 184.199C43.0547 165.357 46.753 146.7 53.9391 129.293C61.1247 111.885 71.6576 96.0685 84.9351 82.7453C98.213 69.4221 113.976 58.8538 131.324 51.6432C148.673 44.433 167.266 40.7217 186.044 40.7217C204.822 40.7217 223.416 44.433 240.764 51.6432C258.113 58.8538 273.876 69.4221 287.155 82.7453C300.431 96.0685 310.966 111.885 318.15 129.293C325.334 146.7 329.033 165.357 329.033 184.199C329.033 203.041 325.334 221.698 318.15 239.105C310.966 256.513 300.431 272.33 287.155 285.653C273.875 298.976 258.113 309.544 240.764 316.755C223.416 323.965 204.822 327.676 186.044 327.676Z" stroke="#F9F9F9" stroke-width="10.6983" stroke-linecap="round"/>
<path d="M186.045 327.679C154.606 327.679 124.045 317.283 99.0877 298.099C74.1311 278.915 56.1708 252.013 47.9856 221.556C39.8009 191.099 41.8479 158.783 53.8097 129.611C65.7714 100.438 86.9813 76.0338 114.158 60.1748" stroke="#69818E" stroke-width="10.6983" stroke-linecap="round"/>
<path d="M186.042 310.286C169.541 310.286 153.201 307.025 137.955 300.689C122.71 294.352 108.857 285.065 97.1889 273.356C85.5202 261.649 76.2646 247.749 69.9495 232.451C63.6348 217.154 60.3848 200.758 60.3848 184.2C60.3848 167.642 63.6348 151.247 69.9495 135.949C76.2646 120.652 85.5202 106.752 97.1889 95.0438C108.857 83.3359 122.71 74.0483 137.955 67.7121C153.201 61.3754 169.541 58.1143 186.042 58.1143C202.544 58.1143 218.884 61.3754 234.13 67.7121C249.375 74.0483 263.227 83.3359 274.896 95.0438C286.564 106.752 295.823 120.652 302.134 135.949C308.451 151.247 311.701 167.642 311.701 184.2C311.701 200.758 308.451 217.154 302.134 232.451C295.818 247.749 286.564 261.649 274.896 273.356C263.227 285.065 249.375 294.352 234.129 300.689C218.884 307.025 202.544 310.286 186.042 310.286Z" stroke="#F9F9F9" stroke-width="10.6983" stroke-linecap="round"/>
<path d="M186.043 310.286C167.429 310.286 149.047 306.137 132.227 298.138C115.406 290.139 100.567 278.49 88.781 264.033C76.9952 249.576 68.5577 232.673 64.0782 214.545C59.5983 196.417 59.1885 177.516 62.8778 159.209C66.567 140.902 74.2637 123.647 85.4113 108.689C96.5589 93.7316 110.879 81.4459 127.337 72.72C143.795 63.9941 161.979 59.0461 180.575 58.2337C199.171 57.4208 217.715 60.764 234.867 68.0212" stroke="#BDC8C9" stroke-width="10.6983" stroke-linecap="round"/>
<path d="M186.044 292.895C171.818 292.895 157.732 290.083 144.589 284.62C131.447 279.158 119.505 271.152 109.446 261.059C99.3868 250.966 91.4075 238.983 85.9638 225.795C80.5202 212.608 77.7178 198.474 77.7178 184.199C77.7178 169.926 80.5202 155.791 85.9638 142.604C91.4075 129.416 99.3868 117.434 109.446 107.341C119.505 97.2478 131.447 89.2413 144.589 83.7785C157.732 78.3163 171.818 75.5049 186.044 75.5049C200.269 75.5049 214.355 78.3163 227.498 83.7785C240.641 89.2413 252.582 97.2478 262.641 107.341C272.701 117.434 280.68 129.416 286.122 142.604C291.566 155.792 294.368 169.926 294.368 184.2C294.368 198.474 291.566 212.608 286.122 225.795C280.679 238.983 272.701 250.966 262.641 261.059C252.582 271.152 240.641 279.158 227.498 284.62C214.355 290.083 200.269 292.895 186.044 292.895Z" stroke="#F9F9F9" stroke-width="10.6983" stroke-linecap="round"/>
<path d="M187.044 292.895C168.755 292.895 150.765 288.249 134.748 279.389C118.732 270.53 105.212 257.747 95.4482 242.23C85.684 226.713 79.9946 208.969 78.9087 190.651C77.8234 172.332 81.378 154.036 89.2407 137.468C97.1034 120.9 109.019 106.599 123.876 95.8981C138.734 85.1972 156.049 78.4449 174.208 76.2708C192.368 74.0962 210.781 76.5704 227.73 83.4629C244.679 90.3553 259.614 101.441 271.141 115.688" stroke="#E7C3B8" stroke-width="10.6983" stroke-linecap="round"/>
<path d="M186.041 275.504C174.091 275.504 162.259 273.142 151.219 268.554C140.179 263.965 130.148 257.24 121.698 248.761C113.249 240.283 106.546 230.218 101.973 219.14C97.4005 208.063 95.0469 196.19 95.0469 184.2C95.0469 172.21 97.4005 160.337 101.973 149.26C106.546 138.182 113.249 128.117 121.698 119.638C130.148 111.16 140.179 104.435 151.219 99.8465C162.259 95.2582 174.091 92.8965 186.041 92.8965C197.99 92.8965 209.823 95.2582 220.863 99.8465C231.902 104.435 241.933 111.16 250.383 119.638C258.832 128.117 265.535 138.182 270.108 149.26C274.681 160.337 277.034 172.21 277.034 184.2C277.034 196.19 274.681 208.063 270.108 219.14C265.535 230.218 258.832 240.283 250.383 248.761C241.933 257.24 231.902 263.965 220.863 268.554C209.823 273.142 197.99 275.504 186.041 275.504Z" stroke="#F9F9F9" stroke-width="10.6983" stroke-linecap="round"/>
<path d="M186.04 275.504C165.936 275.504 146.398 268.823 130.477 256.506C114.556 244.187 103.149 226.926 98.0374 207.416C92.9257 187.906 94.397 167.247 102.221 148.665C110.046 130.083 123.783 114.624 141.288 104.702C158.792 94.7813 179.079 90.9559 198.979 93.8243C218.878 96.6928 237.272 106.093 251.285 120.558C265.299 135.022 274.144 153.736 276.439 173.777C278.734 193.818 274.35 214.057 263.972 231.334" stroke="#C3AFB4" stroke-width="10.6983" stroke-linecap="round"/>
<path d="M156.82 139.891H161.117V140.677H159.413V146.219H161.117V147H156.82V146.219H158.485V140.677H156.82V139.891ZM163.637 141.717L163.7 142.498C163.892 142.225 164.128 142.011 164.408 141.858C164.688 141.702 165.001 141.622 165.346 141.619C165.622 141.619 165.873 141.658 166.098 141.736C166.326 141.814 166.519 141.937 166.679 142.103C166.838 142.269 166.96 142.48 167.045 142.737C167.133 142.991 167.177 143.294 167.177 143.646V147H166.273V143.665C166.273 143.431 166.247 143.232 166.195 143.069C166.143 142.907 166.065 142.775 165.961 142.674C165.86 142.573 165.735 142.5 165.585 142.454C165.438 142.409 165.269 142.386 165.077 142.386C164.774 142.386 164.507 142.462 164.276 142.615C164.049 142.765 163.866 142.964 163.729 143.211V147H162.826V141.717H163.637ZM170.902 145.701L170.985 146.028L171.073 145.701L172.553 141.717H173.476L171.322 147H170.634L168.461 141.717H169.389L170.902 145.701ZM177.172 147.098C176.801 147.098 176.459 147.034 176.146 146.907C175.837 146.78 175.572 146.603 175.351 146.375C175.129 146.147 174.957 145.877 174.833 145.564C174.709 145.252 174.647 144.912 174.647 144.544V144.339C174.647 143.912 174.716 143.532 174.853 143.196C174.989 142.858 175.17 142.573 175.395 142.342C175.622 142.107 175.88 141.928 176.166 141.805C176.456 141.681 176.752 141.619 177.055 141.619C177.436 141.619 177.768 141.686 178.051 141.819C178.337 141.95 178.575 142.132 178.764 142.366C178.952 142.597 179.092 142.871 179.184 143.187C179.278 143.502 179.325 143.844 179.325 144.212V144.617H175.551C175.561 144.858 175.606 145.084 175.688 145.296C175.772 145.507 175.886 145.693 176.029 145.853C176.176 146.009 176.35 146.132 176.552 146.224C176.754 146.315 176.977 146.36 177.221 146.36C177.543 146.36 177.829 146.295 178.08 146.165C178.331 146.035 178.539 145.862 178.705 145.647L179.257 146.077C179.169 146.211 179.058 146.339 178.925 146.463C178.795 146.583 178.643 146.691 178.471 146.785C178.298 146.88 178.103 146.954 177.885 147.01C177.667 147.068 177.429 147.098 177.172 147.098ZM177.055 142.361C176.872 142.361 176.7 142.396 176.537 142.464C176.374 142.529 176.228 142.627 176.098 142.757C175.967 142.884 175.857 143.042 175.766 143.23C175.678 143.416 175.616 143.631 175.58 143.875H178.422V143.807C178.412 143.631 178.378 143.457 178.319 143.284C178.264 143.112 178.181 142.957 178.07 142.82C177.96 142.684 177.82 142.573 177.65 142.488C177.484 142.404 177.286 142.361 177.055 142.361ZM184.354 145.599C184.354 145.491 184.333 145.395 184.291 145.311C184.249 145.223 184.177 145.143 184.076 145.071C183.975 145 183.842 144.935 183.676 144.876C183.51 144.814 183.303 144.759 183.056 144.71C182.753 144.648 182.476 144.573 182.226 144.485C181.978 144.397 181.765 144.293 181.586 144.173C181.41 144.049 181.273 143.906 181.176 143.743C181.078 143.577 181.029 143.385 181.029 143.167C181.029 142.952 181.08 142.752 181.181 142.566C181.282 142.378 181.423 142.213 181.605 142.073C181.788 141.933 182.004 141.823 182.255 141.741C182.509 141.66 182.787 141.619 183.09 141.619C183.415 141.619 183.708 141.661 183.969 141.746C184.229 141.831 184.451 141.948 184.633 142.098C184.815 142.247 184.955 142.423 185.053 142.625C185.154 142.824 185.204 143.038 185.204 143.27H184.301C184.301 143.156 184.271 143.045 184.213 142.938C184.154 142.827 184.073 142.729 183.969 142.645C183.865 142.56 183.738 142.492 183.588 142.439C183.441 142.387 183.275 142.361 183.09 142.361C182.898 142.361 182.729 142.382 182.582 142.425C182.439 142.467 182.318 142.524 182.221 142.596C182.126 142.667 182.055 142.75 182.006 142.845C181.957 142.939 181.933 143.037 181.933 143.138C181.933 143.242 181.952 143.335 181.991 143.416C182.03 143.497 182.097 143.571 182.191 143.636C182.289 143.701 182.418 143.759 182.577 143.812C182.74 143.864 182.945 143.914 183.192 143.963C183.518 144.031 183.809 144.111 184.066 144.202C184.324 144.29 184.54 144.397 184.716 144.524C184.892 144.648 185.025 144.793 185.116 144.959C185.211 145.125 185.258 145.317 185.258 145.535C185.258 145.77 185.204 145.983 185.097 146.175C184.993 146.367 184.846 146.531 184.657 146.668C184.468 146.805 184.242 146.91 183.979 146.985C183.715 147.06 183.427 147.098 183.114 147.098C182.756 147.098 182.437 147.05 182.157 146.956C181.877 146.858 181.64 146.731 181.444 146.575C181.252 146.416 181.104 146.232 181 146.023C180.899 145.815 180.849 145.599 180.849 145.374H181.752C181.765 145.56 181.814 145.716 181.898 145.843C181.986 145.97 182.094 146.072 182.221 146.15C182.351 146.229 182.494 146.284 182.65 146.316C182.807 146.349 182.961 146.365 183.114 146.365C183.495 146.365 183.796 146.295 184.018 146.155C184.239 146.015 184.351 145.83 184.354 145.599ZM188.988 140.438V141.717H191V142.415H188.988V145.286C188.988 145.491 189.014 145.66 189.066 145.794C189.118 145.927 189.19 146.035 189.281 146.116C189.372 146.194 189.477 146.25 189.594 146.282C189.714 146.315 189.841 146.331 189.975 146.331C190.072 146.331 190.173 146.326 190.277 146.316C190.382 146.303 190.482 146.289 190.58 146.272C190.681 146.256 190.774 146.24 190.858 146.224C190.946 146.204 191.018 146.188 191.073 146.175L191.2 146.814C191.125 146.86 191.034 146.901 190.927 146.937C190.819 146.969 190.702 146.997 190.575 147.02C190.448 147.046 190.313 147.065 190.17 147.078C190.03 147.091 189.89 147.098 189.75 147.098C189.516 147.098 189.296 147.065 189.091 147C188.889 146.932 188.713 146.826 188.563 146.683C188.414 146.536 188.295 146.349 188.207 146.121C188.122 145.89 188.08 145.612 188.08 145.286V142.415H186.693V141.717H188.08V140.438H188.988ZM193.271 141.717L193.295 142.215C193.402 142.029 193.542 141.884 193.715 141.78C193.891 141.676 194.102 141.622 194.35 141.619C194.835 141.619 195.159 141.808 195.321 142.186C195.425 142.016 195.562 141.881 195.731 141.78C195.904 141.676 196.112 141.622 196.356 141.619C196.744 141.619 197.042 141.738 197.25 141.976C197.458 142.213 197.562 142.573 197.562 143.055V147H196.703V143.045C196.703 142.602 196.5 142.382 196.093 142.386C195.985 142.386 195.893 142.4 195.814 142.43C195.736 142.459 195.671 142.5 195.619 142.552C195.567 142.601 195.526 142.659 195.497 142.728C195.468 142.793 195.448 142.861 195.438 142.933V147H194.579V143.04C194.579 142.828 194.532 142.666 194.438 142.552C194.343 142.438 194.193 142.382 193.988 142.386C193.799 142.386 193.653 142.423 193.549 142.498C193.445 142.573 193.368 142.672 193.319 142.796V147H192.46V141.717H193.271ZM201.195 147.098C200.824 147.098 200.482 147.034 200.17 146.907C199.861 146.78 199.595 146.603 199.374 146.375C199.153 146.147 198.98 145.877 198.856 145.564C198.733 145.252 198.671 144.912 198.671 144.544V144.339C198.671 143.912 198.739 143.532 198.876 143.196C199.013 142.858 199.193 142.573 199.418 142.342C199.646 142.107 199.903 141.928 200.189 141.805C200.479 141.681 200.775 141.619 201.078 141.619C201.459 141.619 201.791 141.686 202.074 141.819C202.361 141.95 202.598 142.132 202.787 142.366C202.976 142.597 203.116 142.871 203.207 143.187C203.301 143.502 203.349 143.844 203.349 144.212V144.617H199.574C199.584 144.858 199.63 145.084 199.711 145.296C199.796 145.507 199.91 145.693 200.053 145.853C200.199 146.009 200.373 146.132 200.575 146.224C200.777 146.315 201 146.36 201.244 146.36C201.566 146.36 201.853 146.295 202.104 146.165C202.354 146.035 202.562 145.862 202.729 145.647L203.28 146.077C203.192 146.211 203.082 146.339 202.948 146.463C202.818 146.583 202.667 146.691 202.494 146.785C202.322 146.88 202.126 146.954 201.908 147.01C201.69 147.068 201.452 147.098 201.195 147.098ZM201.078 142.361C200.896 142.361 200.723 142.396 200.561 142.464C200.398 142.529 200.251 142.627 200.121 142.757C199.991 142.884 199.88 143.042 199.789 143.23C199.701 143.416 199.639 143.631 199.604 143.875H202.445V143.807C202.436 143.631 202.401 143.457 202.343 143.284C202.287 143.112 202.204 142.957 202.094 142.82C201.983 142.684 201.843 142.573 201.674 142.488C201.508 142.404 201.309 142.361 201.078 142.361ZM205.678 141.717L205.741 142.498C205.933 142.225 206.169 142.011 206.449 141.858C206.729 141.702 207.042 141.622 207.387 141.619C207.663 141.619 207.914 141.658 208.139 141.736C208.367 141.814 208.56 141.937 208.72 142.103C208.879 142.269 209.001 142.48 209.086 142.737C209.174 142.991 209.218 143.294 209.218 143.646V147H208.314V143.665C208.314 143.431 208.288 143.232 208.236 143.069C208.184 142.907 208.106 142.775 208.002 142.674C207.901 142.573 207.776 142.5 207.626 142.454C207.479 142.409 207.31 142.386 207.118 142.386C206.815 142.386 206.549 142.462 206.317 142.615C206.09 142.765 205.907 142.964 205.771 143.211V147H204.867V141.717H205.678ZM213.012 140.438V141.717H215.023V142.415H213.012V145.286C213.012 145.491 213.038 145.66 213.09 145.794C213.142 145.927 213.214 146.035 213.305 146.116C213.396 146.194 213.5 146.25 213.617 146.282C213.738 146.315 213.865 146.331 213.998 146.331C214.096 146.331 214.197 146.326 214.301 146.316C214.405 146.303 214.506 146.289 214.604 146.272C214.704 146.256 214.797 146.24 214.882 146.224C214.97 146.204 215.041 146.188 215.097 146.175L215.224 146.814C215.149 146.86 215.058 146.901 214.95 146.937C214.843 146.969 214.726 146.997 214.599 147.02C214.472 147.046 214.337 147.065 214.193 147.078C214.053 147.091 213.913 147.098 213.773 147.098C213.539 147.098 213.319 147.065 213.114 147C212.912 146.932 212.737 146.826 212.587 146.683C212.437 146.536 212.318 146.349 212.23 146.121C212.146 145.89 212.104 145.612 212.104 145.286V142.415H210.717V141.717H212.104V140.438H213.012ZM175.346 157.599C175.346 157.491 175.325 157.395 175.282 157.311C175.24 157.223 175.168 157.143 175.067 157.071C174.966 157 174.833 156.935 174.667 156.876C174.501 156.814 174.294 156.759 174.047 156.71C173.744 156.648 173.467 156.573 173.217 156.485C172.969 156.397 172.756 156.293 172.577 156.173C172.401 156.049 172.265 155.906 172.167 155.743C172.069 155.577 172.021 155.385 172.021 155.167C172.021 154.952 172.071 154.752 172.172 154.566C172.273 154.378 172.414 154.213 172.597 154.073C172.779 153.933 172.995 153.823 173.246 153.741C173.5 153.66 173.778 153.619 174.081 153.619C174.407 153.619 174.7 153.661 174.96 153.746C175.22 153.831 175.442 153.948 175.624 154.098C175.806 154.247 175.946 154.423 176.044 154.625C176.145 154.824 176.195 155.038 176.195 155.27H175.292C175.292 155.156 175.263 155.045 175.204 154.938C175.146 154.827 175.064 154.729 174.96 154.645C174.856 154.56 174.729 154.492 174.579 154.439C174.433 154.387 174.267 154.361 174.081 154.361C173.889 154.361 173.72 154.382 173.573 154.425C173.43 154.467 173.31 154.524 173.212 154.596C173.118 154.667 173.046 154.75 172.997 154.845C172.948 154.939 172.924 155.037 172.924 155.138C172.924 155.242 172.943 155.335 172.982 155.416C173.021 155.497 173.088 155.571 173.183 155.636C173.28 155.701 173.409 155.759 173.568 155.812C173.731 155.864 173.936 155.914 174.184 155.963C174.509 156.031 174.8 156.111 175.058 156.202C175.315 156.29 175.531 156.397 175.707 156.524C175.883 156.648 176.016 156.793 176.107 156.959C176.202 157.125 176.249 157.317 176.249 157.535C176.249 157.77 176.195 157.983 176.088 158.175C175.984 158.367 175.837 158.531 175.648 158.668C175.46 158.805 175.233 158.91 174.97 158.985C174.706 159.06 174.418 159.098 174.105 159.098C173.747 159.098 173.428 159.05 173.148 158.956C172.868 158.858 172.631 158.731 172.436 158.575C172.243 158.416 172.095 158.232 171.991 158.023C171.89 157.815 171.84 157.599 171.84 157.374H172.743C172.756 157.56 172.805 157.716 172.89 157.843C172.978 157.97 173.085 158.072 173.212 158.15C173.342 158.229 173.485 158.284 173.642 158.316C173.798 158.349 173.952 158.365 174.105 158.365C174.486 158.365 174.787 158.295 175.009 158.155C175.23 158.015 175.342 157.83 175.346 157.599ZM180.092 158.365C180.255 158.365 180.412 158.339 180.565 158.287C180.722 158.235 180.86 158.163 180.98 158.072C181.101 157.978 181.197 157.869 181.269 157.745C181.343 157.618 181.382 157.481 181.386 157.335H182.24C182.237 157.569 182.175 157.794 182.055 158.009C181.938 158.22 181.78 158.408 181.581 158.57C181.382 158.73 181.155 158.858 180.897 158.956C180.64 159.05 180.372 159.098 180.092 159.098C179.691 159.098 179.341 159.026 179.042 158.883C178.743 158.74 178.492 158.548 178.29 158.307C178.091 158.062 177.942 157.783 177.841 157.467C177.74 157.148 177.689 156.812 177.689 156.461V156.256C177.689 155.908 177.74 155.574 177.841 155.255C177.942 154.936 178.091 154.656 178.29 154.415C178.492 154.171 178.743 153.977 179.042 153.834C179.341 153.691 179.691 153.619 180.092 153.619C180.404 153.619 180.691 153.67 180.951 153.771C181.215 153.868 181.441 154.003 181.63 154.176C181.822 154.345 181.972 154.547 182.079 154.781C182.187 155.016 182.24 155.266 182.24 155.533H181.386C181.382 155.374 181.347 155.224 181.278 155.084C181.213 154.941 181.124 154.815 181.01 154.708C180.896 154.601 180.759 154.516 180.6 154.454C180.443 154.392 180.274 154.361 180.092 154.361C179.812 154.361 179.576 154.418 179.384 154.532C179.195 154.643 179.042 154.789 178.925 154.972C178.808 155.151 178.723 155.353 178.671 155.577C178.622 155.802 178.598 156.028 178.598 156.256V156.461C178.598 156.692 178.622 156.922 178.671 157.149C178.723 157.374 178.806 157.577 178.92 157.76C179.037 157.939 179.19 158.085 179.379 158.199C179.571 158.31 179.809 158.365 180.092 158.365ZM183.593 156.31C183.593 155.929 183.648 155.576 183.759 155.25C183.869 154.921 184.027 154.636 184.232 154.396C184.441 154.155 184.693 153.966 184.989 153.829C185.285 153.689 185.619 153.619 185.99 153.619C186.365 153.619 186.7 153.689 186.996 153.829C187.296 153.966 187.548 154.155 187.753 154.396C187.961 154.636 188.121 154.921 188.231 155.25C188.342 155.576 188.397 155.929 188.397 156.31V156.417C188.397 156.798 188.342 157.151 188.231 157.477C188.121 157.802 187.961 158.085 187.753 158.326C187.548 158.567 187.297 158.756 187.001 158.893C186.705 159.029 186.371 159.098 186 159.098C185.626 159.098 185.289 159.029 184.989 158.893C184.693 158.756 184.441 158.567 184.232 158.326C184.027 158.085 183.869 157.802 183.759 157.477C183.648 157.151 183.593 156.798 183.593 156.417V156.31ZM184.496 156.417C184.496 156.677 184.527 156.926 184.589 157.164C184.651 157.398 184.743 157.605 184.867 157.784C184.994 157.963 185.152 158.105 185.341 158.209C185.53 158.313 185.749 158.365 186 158.365C186.247 158.365 186.464 158.313 186.649 158.209C186.838 158.105 186.994 157.963 187.118 157.784C187.245 157.605 187.34 157.398 187.401 157.164C187.463 156.926 187.494 156.677 187.494 156.417V156.31C187.494 156.052 187.462 155.807 187.396 155.572C187.335 155.335 187.24 155.126 187.113 154.947C186.99 154.768 186.833 154.627 186.645 154.522C186.459 154.415 186.241 154.361 185.99 154.361C185.74 154.361 185.521 154.415 185.336 154.522C185.15 154.627 184.994 154.768 184.867 154.947C184.743 155.126 184.651 155.335 184.589 155.572C184.527 155.807 184.496 156.052 184.496 156.31V156.417ZM193.314 153.619C193.399 153.619 193.487 153.622 193.578 153.629C193.669 153.632 193.756 153.64 193.837 153.653C193.922 153.663 193.998 153.676 194.066 153.692C194.138 153.709 194.197 153.727 194.242 153.746L194.12 154.63C193.944 154.591 193.777 154.563 193.617 154.547C193.461 154.527 193.297 154.518 193.124 154.518C192.701 154.518 192.357 154.614 192.094 154.806C191.833 154.998 191.641 155.266 191.518 155.611V159H190.609V153.717H191.469L191.513 154.557C191.728 154.267 191.985 154.039 192.284 153.873C192.587 153.704 192.93 153.619 193.314 153.619ZM198.192 159.098C197.821 159.098 197.479 159.034 197.167 158.907C196.858 158.78 196.592 158.603 196.371 158.375C196.15 158.147 195.977 157.877 195.854 157.564C195.73 157.252 195.668 156.912 195.668 156.544V156.339C195.668 155.912 195.736 155.532 195.873 155.196C196.01 154.858 196.19 154.573 196.415 154.342C196.643 154.107 196.9 153.928 197.187 153.805C197.476 153.681 197.772 153.619 198.075 153.619C198.456 153.619 198.788 153.686 199.071 153.819C199.358 153.95 199.595 154.132 199.784 154.366C199.973 154.597 200.113 154.871 200.204 155.187C200.299 155.502 200.346 155.844 200.346 156.212V156.617H196.571C196.581 156.858 196.627 157.084 196.708 157.296C196.793 157.507 196.907 157.693 197.05 157.853C197.196 158.009 197.37 158.132 197.572 158.224C197.774 158.315 197.997 158.36 198.241 158.36C198.563 158.36 198.85 158.295 199.101 158.165C199.351 158.035 199.56 157.862 199.726 157.647L200.277 158.077C200.189 158.211 200.079 158.339 199.945 158.463C199.815 158.583 199.664 158.691 199.491 158.785C199.319 158.88 199.123 158.954 198.905 159.01C198.687 159.068 198.45 159.098 198.192 159.098ZM198.075 154.361C197.893 154.361 197.72 154.396 197.558 154.464C197.395 154.529 197.248 154.627 197.118 154.757C196.988 154.884 196.877 155.042 196.786 155.23C196.698 155.416 196.636 155.631 196.601 155.875H199.442V155.807C199.433 155.631 199.398 155.457 199.34 155.284C199.285 155.112 199.201 154.957 199.091 154.82C198.98 154.684 198.84 154.573 198.671 154.488C198.505 154.404 198.306 154.361 198.075 154.361Z" fill="#0B132A"/>
<path d="M125.71 204C125.71 201.408 125.934 199.216 126.382 197.424C126.862 195.6 127.614 194.048 128.638 192.768C129.694 191.456 131.086 190.272 132.814 189.216C133.934 188.544 135.086 187.92 136.27 187.344C137.486 186.736 138.606 186.112 139.63 185.472C140.686 184.8 141.534 184.032 142.174 183.168C142.846 182.272 143.182 181.2 143.182 179.952C143.182 178.544 142.734 177.424 141.838 176.592C140.974 175.728 139.742 175.296 138.142 175.296C136.926 175.296 135.79 175.52 134.734 175.968C133.71 176.384 132.782 176.912 131.95 177.552C131.15 178.16 130.462 178.768 129.886 179.376L125.854 175.152C126.43 174.48 127.31 173.712 128.494 172.848C129.71 171.952 131.198 171.168 132.958 170.496C134.718 169.824 136.718 169.488 138.958 169.488C141.454 169.488 143.55 169.936 145.246 170.832C146.942 171.696 148.222 172.896 149.086 174.432C149.982 175.936 150.43 177.68 150.43 179.664C150.43 181.584 150.014 183.216 149.182 184.56C148.382 185.872 147.342 186.992 146.062 187.92C144.782 188.848 143.454 189.712 142.078 190.512C139.87 191.696 138.19 192.704 137.038 193.536C135.918 194.368 135.118 195.152 134.638 195.888C134.158 196.592 133.774 197.36 133.486 198.192H150.478V204H125.71ZM165.857 204.48C163.393 204.48 161.169 203.952 159.185 202.896C157.233 201.808 155.729 200.352 154.673 198.528L158.369 194.688C159.265 195.936 160.385 196.928 161.729 197.664C163.073 198.4 164.465 198.768 165.905 198.768C167.633 198.768 169.041 198.24 170.129 197.184C171.249 196.128 171.809 194.752 171.809 193.056C171.809 191.424 171.281 190.096 170.225 189.072C169.169 188.016 167.857 187.488 166.289 187.488C165.265 187.488 164.289 187.728 163.361 188.208C162.433 188.688 161.697 189.344 161.153 190.176H155.537L159.473 169.92H176.273V175.776H164.129L162.785 183.408C163.169 182.992 163.729 182.656 164.465 182.4C165.201 182.112 166.113 181.968 167.201 181.968C169.345 181.968 171.265 182.432 172.961 183.36C174.657 184.288 175.985 185.584 176.945 187.248C177.937 188.88 178.433 190.768 178.433 192.912C178.433 195.216 177.889 197.232 176.801 198.96C175.713 200.688 174.209 202.048 172.289 203.04C170.401 204 168.257 204.48 165.857 204.48ZM207.489 192.624C207.489 194.832 206.929 196.832 205.809 198.624C204.721 200.416 203.233 201.84 201.345 202.896C199.489 203.952 197.377 204.48 195.009 204.48C192.449 204.48 190.225 203.856 188.337 202.608C186.449 201.36 184.993 199.568 183.969 197.232C182.977 194.896 182.481 192.096 182.481 188.832C182.481 182.624 183.665 177.888 186.033 174.624C188.433 171.328 191.649 169.68 195.681 169.68C197.825 169.68 199.793 170.144 201.585 171.072C203.409 172 204.945 173.328 206.193 175.056L202.497 179.088C201.729 177.904 200.737 176.976 199.521 176.304C198.305 175.6 196.993 175.248 195.585 175.248C193.441 175.248 191.729 176.112 190.449 177.84C189.169 179.536 188.497 181.92 188.433 184.992C189.105 183.84 190.065 182.928 191.313 182.256C192.561 181.584 193.985 181.248 195.585 181.248C197.825 181.248 199.841 181.76 201.633 182.784C203.425 183.776 204.849 185.136 205.905 186.864C206.961 188.56 207.489 190.48 207.489 192.624ZM195.057 199.056C196.177 199.056 197.217 198.768 198.177 198.192C199.137 197.584 199.905 196.8 200.481 195.84C201.057 194.848 201.345 193.776 201.345 192.624C201.345 191.472 201.057 190.432 200.481 189.504C199.905 188.544 199.137 187.792 198.177 187.248C197.217 186.672 196.177 186.384 195.057 186.384C193.905 186.384 192.849 186.672 191.889 187.248C190.929 187.792 190.161 188.544 189.585 189.504C189.041 190.432 188.769 191.472 188.769 192.624C188.769 193.776 189.057 194.848 189.633 195.84C190.209 196.8 190.961 197.584 191.889 198.192C192.849 198.768 193.905 199.056 195.057 199.056ZM212.214 204V197.088H217.494V204H212.214ZM237.299 175.776H221.843V169.92H247.475L230.531 204H223.235L237.299 175.776Z" fill="#0B132A"/>
</svg>
