<svg width="462" height="462" viewBox="0 0 462 462" fill="none" xmlns="http://www.w3.org/2000/svg">
<g opacity="0.95">
<path fill-rule="evenodd" clip-rule="evenodd" d="M231.637 95.9635C231.697 95.9634 231.758 95.9633 231.819 95.9633C306.763 95.9633 367.517 156.619 367.517 231.441C367.517 267.217 353.627 299.754 330.938 323.97L398.978 387.722C461.64 321.143 478.67 223.784 442.316 139.963C405.962 56.1422 323.174 1.88184 231.637 1.88184V95.9635Z" fill="#7499CA"/>
<path d="M231.637 95.9635H231.137V96.4641L231.637 96.4635L231.637 95.9635ZM330.938 323.97L330.573 323.628L330.231 323.993L330.596 324.335L330.938 323.97ZM398.978 387.722L398.636 388.087L399 388.428L399.342 388.065L398.978 387.722ZM442.316 139.963L442.775 139.764L442.316 139.963ZM231.637 1.88184V1.38184H231.137V1.88184H231.637ZM231.637 96.4635C231.698 96.4634 231.758 96.4633 231.819 96.4633V95.4633C231.758 95.4633 231.697 95.4634 231.636 95.4635L231.637 96.4635ZM231.819 96.4633C306.487 96.4633 367.017 156.896 367.017 231.441H368.017C368.017 156.342 307.038 95.4633 231.819 95.4633V96.4633ZM367.017 231.441C367.017 267.085 353.179 299.501 330.573 323.628L331.302 324.312C354.075 300.007 368.017 267.349 368.017 231.441H367.017ZM330.596 324.335L398.636 388.087L399.32 387.357L331.279 323.605L330.596 324.335ZM399.342 388.065C462.141 321.341 479.208 223.769 442.775 139.764L441.857 140.162C478.131 223.8 461.139 320.946 398.614 387.379L399.342 388.065ZM442.775 139.764C406.341 55.76 323.373 1.38184 231.637 1.38184V2.38184C322.975 2.38184 405.583 56.5244 441.857 140.162L442.775 139.764ZM231.137 1.88184V95.9635H232.137V1.88184H231.137Z" fill="white"/>
<path fill-rule="evenodd" clip-rule="evenodd" d="M231.636 95.9635V1.88184C163.219 1.88184 98.3683 32.3304 54.7578 84.9287L127.41 144.898C152.266 115.043 189.725 96.0183 231.636 95.9635Z" fill="#D1DDED"/>
<path d="M231.636 95.9635L231.637 96.4635L232.136 96.4628V95.9635H231.636ZM231.636 1.88184H232.136V1.38184H231.636V1.88184ZM54.7578 84.9287L54.3729 84.6096L54.0531 84.9953L54.4395 85.3143L54.7578 84.9287ZM127.41 144.898L127.092 145.284L127.476 145.601L127.795 145.218L127.41 144.898ZM232.136 95.9635V1.88184H231.136V95.9635H232.136ZM231.636 1.38184C163.071 1.38184 98.0785 31.8965 54.3729 84.6096L55.1427 85.2479C98.6581 32.7643 163.368 2.38184 231.636 2.38184V1.38184ZM54.4395 85.3143L127.092 145.284L127.729 144.512L55.0761 84.5431L54.4395 85.3143ZM127.795 145.218C152.559 115.472 189.88 96.5181 231.637 96.4635L231.636 95.4635C189.57 95.5185 151.972 114.613 127.026 144.578L127.795 145.218Z" fill="white"/>
<path fill-rule="evenodd" clip-rule="evenodd" d="M231.637 95.9635L231.637 1.88184C219.59 1.88184 207.654 2.82587 195.925 4.66865L210.595 97.6108C217.452 96.5354 224.48 95.9728 231.637 95.9635Z" fill="#E8EEF6"/>
<path d="M231.637 95.9635L231.638 96.4635L232.137 96.4628V95.9635H231.637ZM231.637 1.88184L232.137 1.88184V1.38184H231.637V1.88184ZM195.925 4.66865L195.847 4.17471L195.353 4.25236L195.431 4.7466L195.925 4.66865ZM210.595 97.6108L210.101 97.6887L210.179 98.1821L210.672 98.1047L210.595 97.6108ZM232.137 95.9635L232.137 1.88184L231.137 1.88184L231.137 95.9635H232.137ZM231.637 1.38184C219.564 1.38184 207.602 2.32792 195.847 4.17471L196.002 5.16259C207.706 3.32383 219.617 2.38184 231.637 2.38184V1.38184ZM195.431 4.7466L210.101 97.6887L211.089 97.5328L196.419 4.59069L195.431 4.7466ZM210.672 98.1047C217.504 97.0334 224.506 96.4728 231.638 96.4635L231.637 95.4635C224.453 95.4728 217.4 96.0375 210.517 97.1168L210.672 98.1047Z" fill="white"/>
<path fill-rule="evenodd" clip-rule="evenodd" d="M126.454 146.06L54.6733 86.8105C-24.2241 181.968 -13.1441 322.438 79.7012 404.11C172.546 485.781 313.609 479.144 398.34 389.117L329.937 325.026C305.23 350.839 270.405 366.919 231.818 366.919C156.874 366.919 96.1201 306.263 96.1201 231.441C96.1201 199.076 107.488 169.362 126.454 146.06Z" fill="#A3BBDB"/>
</g>
<path d="M139.082 146.921L135.436 143.873L136.236 143.604L137.692 144.821L143.878 142.737L141.836 141.675L142.702 141.383L145.77 142.965L138.43 145.438L139.882 146.651L139.082 146.921ZM140.338 147.625L141.321 147.294C141.332 147.807 141.615 148.295 142.169 148.758C142.619 149.134 143.116 149.387 143.661 149.516C144.208 149.648 144.717 149.635 145.187 149.476C146.227 149.126 146.149 148.451 144.953 147.451L144.418 147.004L145.19 146.744L145.698 147.169C146.762 148.058 147.783 148.338 148.76 148.009C149.663 147.705 149.709 147.213 148.897 146.534C148.444 146.156 147.826 145.863 147.043 145.656L147.932 145.357C148.649 145.6 149.289 145.957 149.853 146.428C150.395 146.882 150.651 147.304 150.619 147.694C150.59 148.087 150.298 148.376 149.743 148.563C148.695 148.916 147.59 148.783 146.427 148.162L146.405 148.17C146.814 148.577 146.981 148.953 146.906 149.298C146.837 149.644 146.544 149.905 146.025 150.079C145.311 150.32 144.525 150.341 143.668 150.141C142.818 149.942 142.052 149.559 141.372 148.99C140.76 148.479 140.416 148.024 140.338 147.625Z" fill="white"/>
<path d="M185.487 179.763C185.484 180.026 185.461 180.292 185.419 180.559C185.377 180.826 185.312 181.083 185.224 181.33C185.139 181.577 185.028 181.81 184.892 182.028C184.758 182.243 184.597 182.43 184.408 182.59L185.634 183.61L185.014 184.201L183.607 183.01C183.406 183.068 183.188 183.098 182.953 183.098C182.65 183.098 182.379 183.052 182.138 182.961C181.897 182.867 181.682 182.74 181.493 182.58C181.308 182.421 181.146 182.233 181.01 182.019C180.873 181.8 180.761 181.568 180.673 181.32C180.585 181.073 180.52 180.817 180.478 180.554C180.435 180.287 180.412 180.023 180.409 179.763V179.138C180.412 178.877 180.435 178.614 180.478 178.347C180.52 178.08 180.585 177.823 180.673 177.575C180.761 177.328 180.871 177.097 181.005 176.882C181.138 176.664 181.298 176.475 181.483 176.315C181.672 176.153 181.887 176.026 182.128 175.935C182.372 175.84 182.646 175.793 182.948 175.793C183.251 175.793 183.523 175.84 183.764 175.935C184.008 176.026 184.223 176.151 184.408 176.311C184.597 176.47 184.758 176.659 184.892 176.877C185.028 177.092 185.139 177.323 185.224 177.57C185.312 177.818 185.377 178.076 185.419 178.347C185.461 178.614 185.484 178.877 185.487 179.138V179.763ZM184.589 179.128C184.586 178.949 184.574 178.763 184.555 178.571C184.538 178.376 184.506 178.186 184.457 178C184.411 177.811 184.348 177.632 184.267 177.463C184.188 177.294 184.089 177.146 183.969 177.019C183.848 176.888 183.703 176.786 183.534 176.711C183.368 176.636 183.173 176.599 182.948 176.599C182.727 176.599 182.533 176.638 182.367 176.716C182.201 176.791 182.058 176.893 181.938 177.023C181.817 177.15 181.716 177.299 181.635 177.468C181.557 177.637 181.493 177.816 181.444 178.005C181.396 178.19 181.36 178.381 181.337 178.576C181.317 178.768 181.308 178.952 181.308 179.128V179.763C181.308 179.938 181.317 180.124 181.337 180.319C181.36 180.511 181.396 180.702 181.444 180.891C181.493 181.079 181.557 181.258 181.635 181.428C181.716 181.597 181.817 181.747 181.938 181.877C182.058 182.007 182.201 182.111 182.367 182.189C182.536 182.264 182.732 182.302 182.953 182.302C183.178 182.302 183.373 182.264 183.539 182.189C183.708 182.111 183.853 182.009 183.974 181.882C184.094 181.752 184.193 181.602 184.271 181.433C184.35 181.263 184.411 181.084 184.457 180.896C184.506 180.707 184.538 180.516 184.555 180.324C184.574 180.129 184.586 179.942 184.589 179.763V179.128ZM190.233 182.272C190.058 182.533 189.838 182.736 189.574 182.883C189.311 183.026 189.006 183.098 188.661 183.098C188.384 183.098 188.134 183.055 187.909 182.971C187.685 182.883 187.493 182.748 187.333 182.565C187.174 182.383 187.05 182.152 186.962 181.872C186.877 181.589 186.835 181.25 186.835 180.856V177.717H187.738V180.866C187.738 181.153 187.761 181.39 187.807 181.579C187.852 181.768 187.921 181.919 188.012 182.033C188.103 182.144 188.214 182.222 188.344 182.268C188.477 182.313 188.63 182.336 188.803 182.336C189.171 182.336 189.467 182.261 189.691 182.111C189.919 181.962 190.089 181.76 190.199 181.506V177.717H191.107V183H190.287L190.233 182.272ZM196.283 183C196.247 182.932 196.218 182.847 196.195 182.746C196.176 182.642 196.161 182.535 196.151 182.424C196.06 182.515 195.958 182.601 195.844 182.683C195.733 182.764 195.609 182.836 195.473 182.897C195.339 182.959 195.196 183.008 195.043 183.044C194.89 183.08 194.727 183.098 194.555 183.098C194.275 183.098 194.021 183.057 193.793 182.976C193.568 182.894 193.376 182.785 193.217 182.648C193.061 182.508 192.938 182.344 192.851 182.155C192.766 181.963 192.724 181.757 192.724 181.535C192.724 181.245 192.781 180.992 192.895 180.773C193.012 180.555 193.176 180.375 193.388 180.231C193.599 180.085 193.853 179.976 194.149 179.904C194.449 179.833 194.783 179.797 195.15 179.797H196.137V179.382C196.137 179.222 196.107 179.079 196.049 178.952C195.99 178.825 195.907 178.718 195.8 178.63C195.692 178.539 195.561 178.469 195.404 178.42C195.251 178.371 195.079 178.347 194.887 178.347C194.708 178.347 194.547 178.369 194.403 178.415C194.263 178.461 194.145 178.521 194.047 178.596C193.949 178.671 193.873 178.76 193.817 178.864C193.765 178.965 193.739 179.071 193.739 179.182H192.831C192.834 178.99 192.883 178.801 192.978 178.615C193.075 178.43 193.214 178.264 193.393 178.117C193.575 177.967 193.795 177.847 194.052 177.756C194.312 177.665 194.607 177.619 194.936 177.619C195.235 177.619 195.513 177.657 195.771 177.731C196.028 177.803 196.249 177.914 196.435 178.063C196.623 178.21 196.771 178.394 196.879 178.615C196.986 178.837 197.04 179.095 197.04 179.392V181.848C197.04 182.023 197.056 182.211 197.089 182.409C197.121 182.604 197.167 182.775 197.226 182.922V183H196.283ZM194.687 182.312C194.862 182.312 195.027 182.289 195.18 182.243C195.333 182.198 195.471 182.137 195.595 182.062C195.722 181.988 195.831 181.903 195.922 181.809C196.013 181.711 196.085 181.61 196.137 181.506V180.437H195.297C194.77 180.437 194.359 180.515 194.066 180.671C193.773 180.827 193.627 181.073 193.627 181.408C193.627 181.538 193.648 181.659 193.69 181.77C193.736 181.88 193.803 181.976 193.891 182.058C193.979 182.136 194.089 182.198 194.223 182.243C194.356 182.289 194.511 182.312 194.687 182.312ZM198.959 175.5H201.659V182.219H203.383V183H198.959V182.219H200.756V176.286H198.959V175.5ZM204.965 177.717H207.665V182.219H209.389V183H204.965V182.219H206.762V178.503H204.965V177.717ZM206.645 176.33C206.645 176.18 206.688 176.055 206.776 175.954C206.868 175.85 207.004 175.798 207.187 175.798C207.366 175.798 207.501 175.85 207.592 175.954C207.683 176.055 207.729 176.18 207.729 176.33C207.729 176.477 207.683 176.599 207.592 176.696C207.501 176.794 207.366 176.843 207.187 176.843C207.004 176.843 206.868 176.794 206.776 176.696C206.688 176.599 206.645 176.477 206.645 176.33ZM212.968 176.438V177.717H214.979V178.415H212.968V181.286C212.968 181.491 212.994 181.66 213.046 181.794C213.098 181.927 213.17 182.035 213.261 182.116C213.352 182.194 213.456 182.25 213.573 182.282C213.694 182.315 213.821 182.331 213.954 182.331C214.052 182.331 214.153 182.326 214.257 182.316C214.361 182.303 214.462 182.289 214.56 182.272C214.66 182.256 214.753 182.24 214.838 182.224C214.926 182.204 214.997 182.188 215.053 182.175L215.18 182.814C215.105 182.86 215.014 182.901 214.906 182.937C214.799 182.969 214.682 182.997 214.555 183.02C214.428 183.046 214.293 183.065 214.149 183.078C214.009 183.091 213.869 183.098 213.729 183.098C213.495 183.098 213.275 183.065 213.07 183C212.868 182.932 212.693 182.826 212.543 182.683C212.393 182.536 212.274 182.349 212.187 182.121C212.102 181.89 212.06 181.612 212.06 181.286V178.415H210.673V177.717H212.06V176.438H212.968ZM218.778 181.125L219.013 181.765L220.624 177.717H221.635L218.954 183.815C218.892 183.952 218.812 184.097 218.715 184.25C218.62 184.403 218.505 184.545 218.368 184.675C218.231 184.805 218.072 184.914 217.89 185.002C217.707 185.09 217.497 185.134 217.26 185.134C217.217 185.134 217.17 185.131 217.118 185.124C217.066 185.121 217.014 185.114 216.962 185.104C216.91 185.098 216.861 185.09 216.815 185.08C216.77 185.07 216.732 185.062 216.703 185.056L216.85 184.318C216.872 184.318 216.903 184.32 216.942 184.323C216.981 184.326 217.022 184.33 217.064 184.333C217.107 184.336 217.147 184.338 217.187 184.338C217.226 184.341 217.257 184.343 217.279 184.343C217.403 184.343 217.515 184.309 217.616 184.24C217.72 184.172 217.812 184.09 217.89 183.996C217.971 183.902 218.039 183.804 218.095 183.703C218.153 183.602 218.199 183.519 218.231 183.454L218.593 182.751L216.317 177.717H217.328L218.778 181.125ZM228.593 180.31C228.593 179.929 228.648 179.576 228.759 179.25C228.869 178.921 229.027 178.636 229.232 178.396C229.441 178.155 229.693 177.966 229.989 177.829C230.285 177.689 230.619 177.619 230.99 177.619C231.365 177.619 231.7 177.689 231.996 177.829C232.296 177.966 232.548 178.155 232.753 178.396C232.961 178.636 233.121 178.921 233.231 179.25C233.342 179.576 233.397 179.929 233.397 180.31V180.417C233.397 180.798 233.342 181.151 233.231 181.477C233.121 181.802 232.961 182.085 232.753 182.326C232.548 182.567 232.297 182.756 232.001 182.893C231.705 183.029 231.371 183.098 231 183.098C230.626 183.098 230.289 183.029 229.989 182.893C229.693 182.756 229.441 182.567 229.232 182.326C229.027 182.085 228.869 181.802 228.759 181.477C228.648 181.151 228.593 180.798 228.593 180.417V180.31ZM229.496 180.417C229.496 180.677 229.527 180.926 229.589 181.164C229.651 181.398 229.743 181.605 229.867 181.784C229.994 181.963 230.152 182.105 230.341 182.209C230.53 182.313 230.749 182.365 231 182.365C231.247 182.365 231.464 182.313 231.649 182.209C231.838 182.105 231.994 181.963 232.118 181.784C232.245 181.605 232.34 181.398 232.401 181.164C232.463 180.926 232.494 180.677 232.494 180.417V180.31C232.494 180.052 232.462 179.807 232.396 179.572C232.335 179.335 232.24 179.126 232.113 178.947C231.99 178.768 231.833 178.627 231.645 178.522C231.459 178.415 231.241 178.361 230.99 178.361C230.74 178.361 230.521 178.415 230.336 178.522C230.15 178.627 229.994 178.768 229.867 178.947C229.743 179.126 229.651 179.335 229.589 179.572C229.527 179.807 229.496 180.052 229.496 180.31V180.417ZM236.2 183V178.415H234.745V177.717H236.2V177.346C236.2 177.007 236.249 176.711 236.347 176.457C236.448 176.2 236.588 175.985 236.767 175.812C236.949 175.64 237.167 175.51 237.421 175.422C237.675 175.334 237.958 175.29 238.271 175.29C238.485 175.29 238.694 175.308 238.896 175.344C239.101 175.38 239.311 175.425 239.525 175.48L239.418 176.228C239.285 176.182 239.128 176.143 238.949 176.11C238.773 176.075 238.585 176.057 238.383 176.057C237.96 176.06 237.641 176.167 237.426 176.379C237.214 176.59 237.108 176.913 237.108 177.346V177.717H239.145V178.415H237.108V183H236.2ZM247.885 182.233H251.361V183H246.981V175.891H247.885V182.233ZM253.012 177.717H255.712V182.219H257.436V183H253.012V182.219H254.809V178.503H253.012V177.717ZM254.691 176.33C254.691 176.18 254.735 176.055 254.823 175.954C254.914 175.85 255.051 175.798 255.233 175.798C255.412 175.798 255.548 175.85 255.639 175.954C255.73 176.055 255.775 176.18 255.775 176.33C255.775 176.477 255.73 176.599 255.639 176.696C255.548 176.794 255.412 176.843 255.233 176.843C255.051 176.843 254.914 176.794 254.823 176.696C254.735 176.599 254.691 176.477 254.691 176.33ZM260.946 181.701L261.029 182.028L261.117 181.701L262.597 177.717H263.52L261.366 183H260.678L258.505 177.717H259.433L260.946 181.701ZM265.023 177.717H267.724V182.219H269.447V183H265.023V182.219H266.82V178.503H265.023V177.717ZM266.703 176.33C266.703 176.18 266.747 176.055 266.835 175.954C266.926 175.85 267.063 175.798 267.245 175.798C267.424 175.798 267.559 175.85 267.65 175.954C267.742 176.055 267.787 176.18 267.787 176.33C267.787 176.477 267.742 176.599 267.65 176.696C267.559 176.794 267.424 176.843 267.245 176.843C267.063 176.843 266.926 176.794 266.835 176.696C266.747 176.599 266.703 176.477 266.703 176.33ZM271.698 177.717L271.762 178.498C271.954 178.225 272.19 178.011 272.47 177.858C272.75 177.702 273.062 177.622 273.407 177.619C273.684 177.619 273.935 177.658 274.159 177.736C274.387 177.814 274.581 177.937 274.74 178.103C274.9 178.269 275.022 178.48 275.106 178.737C275.194 178.991 275.238 179.294 275.238 179.646V183H274.335V179.665C274.335 179.431 274.309 179.232 274.257 179.069C274.205 178.907 274.127 178.775 274.022 178.674C273.922 178.573 273.796 178.5 273.646 178.454C273.5 178.409 273.331 178.386 273.139 178.386C272.836 178.386 272.569 178.462 272.338 178.615C272.11 178.765 271.928 178.964 271.791 179.211V183H270.888V177.717H271.698ZM276.728 180.314C276.728 179.921 276.775 179.559 276.869 179.23C276.967 178.898 277.107 178.614 277.289 178.376C277.471 178.138 277.693 177.953 277.953 177.819C278.214 177.686 278.508 177.619 278.837 177.619C279.162 177.619 279.447 177.678 279.691 177.795C279.939 177.909 280.149 178.075 280.321 178.293L280.365 177.717H281.186V182.888C281.186 183.236 281.13 183.545 281.02 183.815C280.912 184.086 280.759 184.315 280.561 184.504C280.365 184.693 280.131 184.836 279.857 184.934C279.584 185.031 279.281 185.08 278.949 185.08C278.812 185.08 278.656 185.064 278.48 185.031C278.305 185.002 278.126 184.951 277.943 184.88C277.764 184.812 277.59 184.719 277.421 184.602C277.255 184.484 277.112 184.34 276.991 184.167L277.46 183.625C277.571 183.758 277.685 183.871 277.802 183.962C277.919 184.056 278.038 184.131 278.158 184.187C278.279 184.242 278.399 184.281 278.52 184.304C278.64 184.33 278.76 184.343 278.881 184.343C279.096 184.343 279.289 184.312 279.462 184.25C279.634 184.188 279.781 184.097 279.901 183.977C280.025 183.859 280.119 183.713 280.185 183.537C280.25 183.361 280.282 183.16 280.282 182.932V182.478C280.106 182.679 279.898 182.834 279.657 182.941C279.42 183.046 279.143 183.098 278.827 183.098C278.505 183.098 278.214 183.029 277.953 182.893C277.693 182.756 277.471 182.567 277.289 182.326C277.11 182.085 276.972 181.802 276.874 181.477C276.776 181.148 276.728 180.795 276.728 180.417V180.314ZM277.631 180.417C277.631 180.674 277.657 180.918 277.709 181.149C277.764 181.381 277.849 181.584 277.963 181.76C278.08 181.936 278.228 182.076 278.407 182.18C278.586 182.281 278.801 182.331 279.052 182.331C279.208 182.331 279.348 182.313 279.472 182.277C279.599 182.238 279.711 182.185 279.809 182.116C279.91 182.048 279.999 181.966 280.077 181.872C280.155 181.778 280.224 181.674 280.282 181.56V179.138C280.224 179.027 280.155 178.926 280.077 178.835C279.999 178.744 279.91 178.666 279.809 178.601C279.708 178.532 279.595 178.48 279.472 178.444C279.348 178.405 279.211 178.386 279.062 178.386C278.808 178.386 278.59 178.438 278.407 178.542C278.228 178.646 278.08 178.788 277.963 178.967C277.849 179.143 277.764 179.348 277.709 179.582C277.657 179.813 277.631 180.057 277.631 180.314V180.417ZM220.556 193.203C220.556 192.985 220.505 192.801 220.404 192.651C220.307 192.502 220.18 192.376 220.023 192.275C219.867 192.171 219.695 192.085 219.506 192.017C219.32 191.948 219.141 191.886 218.969 191.831C218.718 191.75 218.463 191.652 218.202 191.538C217.945 191.424 217.709 191.284 217.494 191.118C217.283 190.952 217.108 190.757 216.972 190.532C216.838 190.304 216.771 190.037 216.771 189.731C216.771 189.425 216.838 189.152 216.972 188.911C217.108 188.67 217.286 188.467 217.504 188.301C217.722 188.135 217.969 188.009 218.246 187.925C218.523 187.837 218.801 187.793 219.081 187.793C219.39 187.793 219.688 187.845 219.975 187.949C220.261 188.05 220.515 188.193 220.736 188.379C220.958 188.564 221.135 188.789 221.269 189.053C221.402 189.316 221.472 189.611 221.479 189.937H220.551C220.525 189.731 220.474 189.546 220.399 189.38C220.325 189.211 220.225 189.066 220.102 188.945C219.978 188.825 219.83 188.732 219.657 188.667C219.488 188.599 219.296 188.564 219.081 188.564C218.909 188.564 218.739 188.589 218.573 188.638C218.41 188.687 218.264 188.76 218.134 188.857C218.007 188.955 217.904 189.076 217.826 189.219C217.751 189.362 217.714 189.528 217.714 189.717C217.717 189.922 217.769 190.096 217.87 190.239C217.971 190.379 218.098 190.498 218.251 190.596C218.407 190.693 218.575 190.775 218.754 190.84C218.936 190.905 219.107 190.962 219.267 191.011C219.442 191.066 219.62 191.13 219.799 191.201C219.978 191.27 220.15 191.349 220.316 191.44C220.482 191.532 220.637 191.634 220.78 191.748C220.924 191.862 221.049 191.992 221.156 192.139C221.264 192.282 221.347 192.441 221.405 192.617C221.467 192.79 221.498 192.982 221.498 193.193C221.498 193.512 221.426 193.791 221.283 194.028C221.143 194.266 220.961 194.465 220.736 194.624C220.512 194.78 220.258 194.899 219.975 194.98C219.691 195.059 219.408 195.098 219.125 195.098C218.809 195.098 218.5 195.049 218.197 194.951C217.895 194.854 217.623 194.714 217.382 194.531C217.144 194.346 216.951 194.121 216.801 193.857C216.651 193.59 216.571 193.288 216.562 192.949H217.484C217.514 193.171 217.574 193.368 217.665 193.54C217.756 193.709 217.873 193.854 218.017 193.975C218.16 194.092 218.324 194.181 218.51 194.243C218.699 194.302 218.904 194.331 219.125 194.331C219.301 194.331 219.473 194.31 219.643 194.268C219.815 194.222 219.968 194.154 220.102 194.062C220.235 193.968 220.344 193.851 220.429 193.711C220.513 193.568 220.556 193.398 220.556 193.203ZM225.092 194.365C225.255 194.365 225.412 194.339 225.565 194.287C225.722 194.235 225.86 194.163 225.98 194.072C226.101 193.978 226.197 193.869 226.269 193.745C226.343 193.618 226.382 193.481 226.386 193.335H227.24C227.237 193.569 227.175 193.794 227.055 194.009C226.938 194.22 226.78 194.408 226.581 194.57C226.382 194.73 226.155 194.858 225.897 194.956C225.64 195.05 225.372 195.098 225.092 195.098C224.691 195.098 224.341 195.026 224.042 194.883C223.743 194.74 223.492 194.548 223.29 194.307C223.091 194.062 222.942 193.783 222.841 193.467C222.74 193.148 222.689 192.812 222.689 192.461V192.256C222.689 191.908 222.74 191.574 222.841 191.255C222.942 190.936 223.091 190.656 223.29 190.415C223.492 190.171 223.743 189.977 224.042 189.834C224.341 189.691 224.691 189.619 225.092 189.619C225.404 189.619 225.691 189.67 225.951 189.771C226.215 189.868 226.441 190.003 226.63 190.176C226.822 190.345 226.972 190.547 227.079 190.781C227.187 191.016 227.24 191.266 227.24 191.533H226.386C226.382 191.374 226.347 191.224 226.278 191.084C226.213 190.941 226.124 190.815 226.01 190.708C225.896 190.601 225.759 190.516 225.6 190.454C225.443 190.392 225.274 190.361 225.092 190.361C224.812 190.361 224.576 190.418 224.384 190.532C224.195 190.643 224.042 190.789 223.925 190.972C223.808 191.151 223.723 191.353 223.671 191.577C223.622 191.802 223.598 192.028 223.598 192.256V192.461C223.598 192.692 223.622 192.922 223.671 193.149C223.723 193.374 223.806 193.577 223.92 193.76C224.037 193.939 224.19 194.085 224.379 194.199C224.571 194.31 224.809 194.365 225.092 194.365ZM228.593 192.31C228.593 191.929 228.648 191.576 228.759 191.25C228.869 190.921 229.027 190.636 229.232 190.396C229.441 190.155 229.693 189.966 229.989 189.829C230.285 189.689 230.619 189.619 230.99 189.619C231.365 189.619 231.7 189.689 231.996 189.829C232.296 189.966 232.548 190.155 232.753 190.396C232.961 190.636 233.121 190.921 233.231 191.25C233.342 191.576 233.397 191.929 233.397 192.31V192.417C233.397 192.798 233.342 193.151 233.231 193.477C233.121 193.802 232.961 194.085 232.753 194.326C232.548 194.567 232.297 194.756 232.001 194.893C231.705 195.029 231.371 195.098 231 195.098C230.626 195.098 230.289 195.029 229.989 194.893C229.693 194.756 229.441 194.567 229.232 194.326C229.027 194.085 228.869 193.802 228.759 193.477C228.648 193.151 228.593 192.798 228.593 192.417V192.31ZM229.496 192.417C229.496 192.677 229.527 192.926 229.589 193.164C229.651 193.398 229.743 193.605 229.867 193.784C229.994 193.963 230.152 194.105 230.341 194.209C230.53 194.313 230.749 194.365 231 194.365C231.247 194.365 231.464 194.313 231.649 194.209C231.838 194.105 231.994 193.963 232.118 193.784C232.245 193.605 232.34 193.398 232.401 193.164C232.463 192.926 232.494 192.677 232.494 192.417V192.31C232.494 192.052 232.462 191.807 232.396 191.572C232.335 191.335 232.24 191.126 232.113 190.947C231.99 190.768 231.833 190.627 231.645 190.522C231.459 190.415 231.241 190.361 230.99 190.361C230.74 190.361 230.521 190.415 230.336 190.522C230.15 190.627 229.994 190.768 229.867 190.947C229.743 191.126 229.651 191.335 229.589 191.572C229.527 191.807 229.496 192.052 229.496 192.31V192.417ZM238.314 189.619C238.399 189.619 238.487 189.622 238.578 189.629C238.669 189.632 238.756 189.64 238.837 189.653C238.922 189.663 238.998 189.676 239.066 189.692C239.138 189.709 239.197 189.727 239.242 189.746L239.12 190.63C238.944 190.591 238.777 190.563 238.617 190.547C238.461 190.527 238.297 190.518 238.124 190.518C237.701 190.518 237.357 190.614 237.094 190.806C236.833 190.998 236.641 191.266 236.518 191.611V195H235.609V189.717H236.469L236.513 190.557C236.728 190.267 236.985 190.039 237.284 189.873C237.587 189.704 237.93 189.619 238.314 189.619ZM243.192 195.098C242.821 195.098 242.479 195.034 242.167 194.907C241.858 194.78 241.592 194.603 241.371 194.375C241.15 194.147 240.977 193.877 240.854 193.564C240.73 193.252 240.668 192.912 240.668 192.544V192.339C240.668 191.912 240.736 191.532 240.873 191.196C241.01 190.858 241.19 190.573 241.415 190.342C241.643 190.107 241.9 189.928 242.187 189.805C242.476 189.681 242.772 189.619 243.075 189.619C243.456 189.619 243.788 189.686 244.071 189.819C244.358 189.95 244.595 190.132 244.784 190.366C244.973 190.597 245.113 190.871 245.204 191.187C245.299 191.502 245.346 191.844 245.346 192.212V192.617H241.571C241.581 192.858 241.627 193.084 241.708 193.296C241.793 193.507 241.907 193.693 242.05 193.853C242.196 194.009 242.37 194.132 242.572 194.224C242.774 194.315 242.997 194.36 243.241 194.36C243.563 194.36 243.85 194.295 244.101 194.165C244.351 194.035 244.56 193.862 244.726 193.647L245.277 194.077C245.189 194.211 245.079 194.339 244.945 194.463C244.815 194.583 244.664 194.691 244.491 194.785C244.319 194.88 244.123 194.954 243.905 195.01C243.687 195.068 243.45 195.098 243.192 195.098ZM243.075 190.361C242.893 190.361 242.72 190.396 242.558 190.464C242.395 190.529 242.248 190.627 242.118 190.757C241.988 190.884 241.877 191.042 241.786 191.23C241.698 191.416 241.636 191.631 241.601 191.875H244.442V191.807C244.433 191.631 244.398 191.457 244.34 191.284C244.285 191.112 244.201 190.957 244.091 190.82C243.98 190.684 243.84 190.573 243.671 190.488C243.505 190.404 243.306 190.361 243.075 190.361Z" fill="#0B132A"/>
<path d="M191.503 242.192V248H172.207V242.192H178.831V220.016C178.575 220.4 178.143 220.832 177.535 221.312C176.959 221.76 176.287 222.208 175.519 222.656C174.783 223.072 174.015 223.424 173.215 223.712C172.447 224 171.743 224.144 171.103 224.144V218.192C171.967 218.192 172.847 217.968 173.743 217.52C174.639 217.072 175.471 216.56 176.239 215.984C177.007 215.408 177.615 214.88 178.063 214.4C178.543 213.888 178.799 213.616 178.831 213.584H185.407V242.192H191.503ZM208.17 248V240.272H193.818V234.512L210.186 213.92H214.602V234.464H218.826V240.272H214.602V248H208.17ZM200.298 234.464H208.89V223.616L200.298 234.464ZM233.607 248.48C231.143 248.48 228.919 247.952 226.935 246.896C224.983 245.808 223.479 244.352 222.423 242.528L226.119 238.688C227.047 239.936 228.167 240.928 229.479 241.664C230.823 242.4 232.215 242.768 233.655 242.768C234.807 242.768 235.831 242.528 236.727 242.048C237.623 241.568 238.311 240.896 238.791 240.032C239.303 239.168 239.559 238.176 239.559 237.056C239.559 235.968 239.319 235.008 238.839 234.176C238.359 233.312 237.703 232.656 236.871 232.208C236.039 231.728 235.095 231.488 234.039 231.488C233.015 231.488 232.039 231.728 231.111 232.208C230.183 232.656 229.447 233.312 228.903 234.176H223.287L227.223 213.92H244.023V219.776H231.879L230.535 227.408C230.919 226.992 231.479 226.656 232.215 226.4C232.951 226.112 233.863 225.968 234.951 225.968C237.095 225.968 239.015 226.448 240.711 227.408C242.407 228.336 243.735 229.616 244.695 231.248C245.687 232.88 246.183 234.768 246.183 236.912C246.183 239.184 245.623 241.2 244.503 242.96C243.415 244.688 241.927 246.048 240.039 247.04C238.183 248 236.039 248.48 233.607 248.48ZM250.807 248V241.088H256.087V248H250.807ZM260.725 225.536C260.725 227.648 261.237 229.568 262.261 231.296C263.317 232.992 264.741 234.352 266.533 235.376C268.357 236.368 270.389 236.864 272.629 236.864C273.717 236.864 274.709 236.72 275.605 236.432C276.533 236.144 277.349 235.712 278.053 235.136C278.757 234.56 279.333 233.888 279.781 233.12C279.749 235.168 279.429 236.928 278.821 238.4C278.245 239.84 277.429 240.944 276.373 241.712C275.317 242.48 274.069 242.864 272.629 242.864C271.221 242.864 269.909 242.528 268.693 241.856C267.477 241.152 266.485 240.208 265.717 239.024L262.021 243.056C263.269 244.784 264.805 246.128 266.629 247.088C268.453 248.016 270.421 248.48 272.533 248.48C275.221 248.48 277.557 247.744 279.541 246.272C281.525 244.8 283.045 242.64 284.101 239.792C285.189 236.912 285.733 233.408 285.733 229.28C285.733 225.984 285.221 223.184 284.197 220.88C283.173 218.544 281.717 216.768 279.829 215.552C277.973 214.304 275.765 213.68 273.205 213.68C270.869 213.68 268.757 214.208 266.869 215.264C264.981 216.288 263.477 217.696 262.357 219.488C261.269 221.28 260.725 223.296 260.725 225.536ZM273.157 219.056C274.309 219.056 275.349 219.36 276.277 219.968C277.237 220.576 278.005 221.36 278.581 222.32C279.189 223.28 279.493 224.352 279.493 225.536C279.493 226.656 279.205 227.696 278.629 228.656C278.053 229.584 277.285 230.336 276.325 230.912C275.397 231.456 274.357 231.728 273.205 231.728C272.053 231.728 270.997 231.456 270.037 230.912C269.077 230.336 268.309 229.584 267.733 228.656C267.189 227.696 266.917 226.64 266.917 225.488C266.917 224.336 267.205 223.28 267.781 222.32C268.357 221.328 269.109 220.544 270.037 219.968C270.997 219.36 272.037 219.056 273.157 219.056Z" fill="#0B132A"/>
</svg>
