<svg width="43" height="43" viewBox="0 0 43 43" fill="none" xmlns="http://www.w3.org/2000/svg">
<circle cx="21.5" cy="21.5" r="21" fill="white" stroke="#0B132A"/>
<path d="M14.689 30.4847H28.311C28.4963 30.4853 28.6744 30.5569 28.8085 30.6847C28.9427 30.8126 29.0227 30.987 29.0322 31.1721C29.0417 31.3572 28.98 31.5389 28.8596 31.6798C28.7392 31.8207 28.5695 31.9102 28.3852 31.9298L28.311 31.9338H14.689C14.5037 31.9332 14.3256 31.8616 14.1915 31.7338C14.0573 31.6059 13.9773 31.4315 13.9678 31.2464C13.9582 31.0613 14.02 30.8796 14.1404 30.7387C14.2607 30.5978 14.4305 30.5083 14.6148 30.4887L14.689 30.4847H28.311H14.689ZM21.2809 11.0696L21.3551 11.0662C21.7301 11.0662 22.0391 11.3514 22.0762 11.7165L22.0797 11.7907V25.8706L25.353 22.5979C25.4198 22.5287 25.4998 22.4735 25.5882 22.4355C25.6766 22.3976 25.7717 22.3776 25.8679 22.3768C25.9641 22.376 26.0595 22.3944 26.1486 22.4308C26.2376 22.4673 26.3185 22.5211 26.3865 22.5892C26.4545 22.6572 26.5083 22.7381 26.5447 22.8272C26.5811 22.9162 26.5994 23.0117 26.5985 23.1079C26.5977 23.2041 26.5777 23.2992 26.5397 23.3875C26.5017 23.4759 26.4465 23.5559 26.3772 23.6227L21.8687 28.1313C21.7328 28.267 21.5486 28.3433 21.3565 28.3433C21.1645 28.3433 20.9803 28.267 20.8444 28.1313L16.3353 23.6227C16.1994 23.4868 16.123 23.3025 16.123 23.1103C16.123 22.9181 16.1994 22.7338 16.3353 22.5979C16.4712 22.462 16.6555 22.3856 16.8477 22.3856C17.0399 22.3856 17.2242 22.462 17.3601 22.5979L20.6305 25.8683V11.7907C20.6305 11.4157 20.9157 11.1067 21.2809 11.0696L21.3551 11.0662L21.2809 11.0696Z" fill="black"/>
</svg>
