<svg width="30" height="30" viewBox="0 0 30 30" fill="none" xmlns="http://www.w3.org/2000/svg">
<path fill-rule="evenodd" clip-rule="evenodd" d="M15.0898 2.93375e-08C11.1113 0.00024867 7.2959 1.58094 4.48285 4.39434C1.66981 7.20773 0.0895951 11.0234 0.0898438 15.0019C0.0900924 18.9804 1.67078 22.7958 4.48418 25.6089C7.29758 28.4219 11.1132 30.0021 15.0917 30.0019C19.0702 30.0016 22.8857 28.4209 25.6987 25.6075C28.5118 22.7941 30.092 18.9785 30.0917 15C30.0915 11.0215 28.5108 7.20606 25.6974 4.39301C22.884 1.57996 19.0683 -0.000248611 15.0898 2.93375e-08V2.93375e-08ZM14.9998 28.125C11.5189 28.125 8.18048 26.7422 5.71907 24.2808C3.25765 21.8194 1.87484 18.481 1.87484 15C1.87484 11.519 3.25765 8.18064 5.71907 5.71922C8.18048 3.25781 11.5189 1.875 14.9998 1.875C18.4808 1.875 21.8192 3.25781 24.2806 5.71922C26.742 8.18064 28.1248 11.519 28.1248 15C28.1248 18.481 26.742 21.8194 24.2806 24.2808C21.8192 26.7422 18.4808 28.125 14.9998 28.125Z" fill="#0B132A"/>
<path fill-rule="evenodd" clip-rule="evenodd" d="M5.54801 5.03249C5.04176 7.55249 6.92614 11.4056 10.933 12.3431C14.938 13.2806 13.2168 12.5006 12.5943 11.25C11.968 9.99937 12.5286 9.06187 13.498 8.75062C14.4693 8.43749 14.2236 9.29999 15.6636 7.49999C16.0274 3.74999 12.9036 7.44937 12.5924 5.88749C15.6861 2.29312 11.1561 0.937492 9.84176 1.40624C8.52739 1.87499 6.05426 2.51062 5.54801 5.03249Z" fill="#0B132A"/>
<path fill-rule="evenodd" clip-rule="evenodd" d="M12.8861 14.4263C12.6536 14.5294 11.5699 15.2063 11.1967 15.6751C10.8236 16.1438 10.6605 17.1338 11.1967 17.5501C11.733 17.9682 11.1667 19.9482 12.6124 20.3119C14.058 20.6757 15.5055 20.8876 15.5599 22.0313C15.6105 23.1751 15.4249 25.8319 14.7292 26.0944C15.6667 26.6138 17.9486 23.8538 18.7511 22.3951C19.5555 20.9382 19.8236 18.8532 19.7692 18.3319C19.7149 17.8126 20.0899 16.7194 20.2511 15.3132C20.4105 13.9069 19.1824 13.8132 19.023 13.1888C18.8599 12.5626 18.6424 11.8744 12.8861 14.4263Z" fill="#0B132A"/>
<path fill-rule="evenodd" clip-rule="evenodd" d="M24.6089 7.5C24.6089 7.5 20.8364 9.11437 23.4014 11.5125C25.9627 13.9069 27.2677 16.1812 27.142 16.7025C27.0258 17.22 24.5545 19.9012 25.9739 19.6912C27.4008 19.4831 28.4527 16.6706 28.6795 15.0019C28.9027 13.3331 26.947 10.0538 26.8664 9.795C26.7989 9.53062 25.5127 7.52812 24.6089 7.5Z" fill="#0B132A"/>
</svg>
