<svg  viewBox="0 0 60 60" fill="none" xmlns="http://www.w3.org/2000/svg">
<circle cx="30" cy="30" r="30" fill="#0B132A"/>
<path d="M41.3555 26.2473C40.3117 26.2386 39.2717 26.3742 38.265 26.6502C39.1129 25.2868 39.7195 23.7874 40.058 22.2179L43.898 23.185C44.008 23.2116 44.1233 23.207 44.2309 23.1717C44.3385 23.1364 44.4341 23.0718 44.5069 22.9851C44.5798 22.8985 44.627 22.7932 44.6433 22.6811C44.6596 22.5691 44.6443 22.4547 44.5991 22.3509L39.2643 10.2629C39.2262 10.1783 39.1693 10.1034 39.0978 10.0442C39.0264 9.98494 38.9424 9.94282 38.8521 9.92104C38.7619 9.89926 38.6679 9.89841 38.5773 9.91856C38.4867 9.9387 38.402 9.9793 38.3295 10.0373L28.3609 18.1886C28.2743 18.259 28.2089 18.3519 28.172 18.4572C28.135 18.5625 28.1278 18.6759 28.1514 18.7849C28.1742 18.8939 28.227 18.9943 28.3039 19.0747C28.3808 19.1552 28.4787 19.2125 28.5865 19.2403L32.1565 20.1912C29.0499 30.4297 14.5886 31.296 14.4274 31.3041C14.3417 31.3078 14.2578 31.3299 14.1814 31.3689C14.1049 31.4078 14.0377 31.4626 13.9842 31.5297C13.9307 31.5962 13.8922 31.6735 13.8713 31.7563C13.8505 31.839 13.8477 31.9253 13.8633 32.0092L14.3589 34.7854C14.3826 34.917 14.4492 35.037 14.5484 35.1267C14.6475 35.2164 14.7736 35.2707 14.9069 35.281C14.9915 35.281 15.7652 35.3455 16.9982 35.3455C18.8767 35.3448 20.7531 35.2197 22.615 34.9708C22.615 34.9708 22.615 34.9708 22.615 35.003V37.9606C21.4062 37.0217 19.452 36.4173 17.1754 36.4173C13.4483 36.4173 10.527 38.0291 10.527 40.0921V42.6386C10.527 44.6976 13.4483 46.3134 17.1754 46.3134C19.8952 46.3134 22.1799 45.4511 23.2194 44.1859C24.259 45.4511 26.5437 46.3134 29.2635 46.3134C31.9833 46.3134 34.2679 45.4511 35.3075 44.1859C36.347 45.4511 38.6317 46.3134 41.3515 46.3134C45.0786 46.3134 47.9999 44.7016 47.9999 42.6386V40.0921V35.1843C47.9999 35.1239 47.9999 35.0635 47.9999 35.003V29.9099C48.02 27.859 45.0987 26.2473 41.3555 26.2473ZM22.6191 42.6386C22.6191 43.8071 20.3868 45.1046 17.1795 45.1046C13.9721 45.1046 11.7399 43.8071 11.7399 42.6386V42.2357C12.9487 43.1947 14.9633 43.7588 17.1795 43.7588C19.3956 43.7588 21.3942 43.1947 22.6191 42.2357V42.6386ZM22.0147 41.176C21.0396 42.0302 19.1941 42.558 17.1795 42.558C15.1648 42.558 13.3194 42.0302 12.3443 41.176C12.1743 41.0466 12.033 40.8836 11.929 40.6971C11.825 40.5106 11.7606 40.3046 11.7399 40.0921C11.7399 38.9276 13.9721 37.6261 17.1795 37.6261C20.3868 37.6261 22.6191 38.9276 22.6191 40.0921C22.5984 40.3046 22.534 40.5106 22.43 40.6971C22.326 40.8836 22.1846 41.0466 22.0147 41.176ZM34.7071 42.6386C34.7071 43.8071 32.4748 45.1046 29.2675 45.1046C26.0601 45.1046 23.8279 43.8071 23.8279 42.6386V42.2357C23.9165 42.3042 24.0173 42.3686 24.114 42.4331C24.2469 42.5218 24.388 42.6104 24.537 42.691C25.0151 42.9556 25.5203 43.1677 26.044 43.3236H26.0722L26.4752 43.4284L26.7612 43.4969L27.0997 43.5613L27.5026 43.6258L27.8048 43.6701L28.2884 43.7144H28.5341C28.784 43.7144 29.0338 43.7386 29.2917 43.7386C29.5495 43.7386 29.7994 43.7386 30.0492 43.7144H30.299L30.7785 43.6701L31.0807 43.6258L31.4836 43.5613L31.8221 43.4969L32.1041 43.4284L32.5071 43.3236C33.3002 43.101 34.0458 42.735 34.7071 42.2437V42.6386ZM34.7071 40.0921C34.7071 41.2606 32.4748 42.558 29.2675 42.558C26.0601 42.558 23.8279 41.2606 23.8279 40.0921V39.6891C23.9165 39.7576 24.0173 39.8221 24.114 39.8866C24.2469 39.9752 24.388 40.0598 24.5169 40.1404C25.0018 40.4053 25.5138 40.6174 26.044 40.773H26.0924C26.2173 40.8093 26.3462 40.8375 26.4752 40.8697C26.6041 40.902 26.6686 40.9221 26.7693 40.9423L27.0997 41.0067L27.5026 41.0752L27.7968 41.1155C27.9579 41.1155 28.1191 41.1478 28.2843 41.1639H28.5301C28.7799 41.1639 29.0298 41.1881 29.2876 41.1881C29.5455 41.1881 29.7953 41.1881 30.0451 41.1639H30.2909C30.4561 41.1639 30.6173 41.1357 30.7745 41.1155L31.0767 41.0752L31.4796 41.0067L31.8181 40.9423L32.1041 40.8738C32.2371 40.8415 32.366 40.8093 32.5071 40.769H32.5312C33.0555 40.6199 33.561 40.4117 34.0382 40.1485C34.184 40.0706 34.3253 39.9845 34.4613 39.8906C34.5617 39.8304 34.6586 39.7645 34.7514 39.6932L34.7071 40.0921ZM34.7071 37.5496C34.7071 38.714 32.4748 40.0155 29.2675 40.0155C26.0601 40.0155 23.8279 38.714 23.8279 37.5496V37.1466C25.0367 38.1056 27.0513 38.6737 29.2675 38.6737C31.4836 38.6737 33.4822 38.1056 34.7071 37.1466V37.5496ZM34.1027 36.0869C33.1276 36.9371 31.2822 37.469 29.2675 37.469C27.2528 37.469 25.4074 36.9371 24.4323 36.0829C24.2619 35.9549 24.1202 35.7927 24.0161 35.6067C23.912 35.4208 23.8479 35.2152 23.8279 35.003C23.8279 34.9298 23.8361 34.8569 23.8521 34.7854C24.6982 34.6444 25.5686 34.4711 26.451 34.2536C28.0257 33.8768 29.5621 33.3547 31.0404 32.6942C33.2686 33.0609 34.7071 34.0843 34.7071 35.0191C34.6842 35.2289 34.6189 35.4317 34.5149 35.6153C34.411 35.7989 34.2707 35.9594 34.1027 36.0869ZM34.7232 32.4605V32.8836C34.1166 32.4254 33.4349 32.0764 32.7085 31.8521C33.4087 31.4552 34.0817 31.0124 34.7232 30.5264V32.4605ZM15.4751 34.1004L15.1648 32.4363C18.2472 32.11 30.8792 30.1598 33.4701 19.897C33.5083 19.7427 33.4846 19.5796 33.404 19.4425C33.3234 19.3054 33.1924 19.2054 33.0389 19.1637L30.025 18.3578L38.4866 11.4677L43.0116 21.7022L39.7478 20.8963C39.6673 20.8761 39.5834 20.8729 39.5016 20.8868C39.4198 20.9006 39.3417 20.9313 39.2723 20.9769C39.2024 21.0218 39.1426 21.0809 39.0968 21.1503C39.051 21.2196 39.0202 21.2978 39.0064 21.3798C36.7338 34.3825 18.626 34.2294 15.4751 34.1004ZM46.7951 42.6386C46.7951 43.8071 44.5628 45.1046 41.3555 45.1046C38.1481 45.1046 35.9159 43.8071 35.9159 42.6386V42.2357C36.0045 42.3042 36.1053 42.3686 36.202 42.4331C36.3349 42.5218 36.476 42.6104 36.6049 42.691C37.0893 42.957 37.6014 43.1691 38.132 43.3236H38.1602L38.5632 43.4284L38.8492 43.4969L39.1877 43.5613L39.5906 43.6258L39.8928 43.6701L40.3764 43.7144H40.6222C40.872 43.7144 41.1218 43.7386 41.3797 43.7386C41.6375 43.7386 41.8874 43.7386 42.1372 43.7144H42.387L42.8665 43.6701L43.1687 43.6258L43.5716 43.5613L43.9101 43.4969L44.1921 43.4284L44.5951 43.3236C45.3882 43.101 46.1339 42.735 46.7951 42.2437V42.6386ZM46.7951 40.0921C46.7951 41.2606 44.5628 42.558 41.3555 42.558C38.1481 42.558 35.9159 41.2606 35.9159 40.0921V39.6891C36.0045 39.7576 36.1053 39.8221 36.202 39.8866C36.3349 39.9752 36.476 40.0598 36.6049 40.1404C37.0898 40.4053 37.6018 40.6174 38.132 40.773H38.1804C38.3053 40.8093 38.4342 40.8375 38.5833 40.8697C38.7324 40.902 38.7767 40.9221 38.8775 40.9423L39.2079 41.0067L39.6108 41.0752L39.9049 41.1155C40.0661 41.1155 40.2273 41.1478 40.3925 41.1639H40.6383C40.8881 41.1639 41.1379 41.1881 41.3958 41.1881C41.6537 41.1881 41.9035 41.1881 42.1533 41.1639H42.3991C42.5643 41.1639 42.7255 41.1357 42.8826 41.1155L43.1848 41.0752L43.5877 41.0067L43.9262 40.9423L44.2123 40.8738C44.3453 40.8415 44.4742 40.8093 44.6152 40.769H44.6394C45.1636 40.6199 45.6692 40.4117 46.1464 40.1485C46.2853 40.0699 46.4198 39.9838 46.5493 39.8906C46.6497 39.8304 46.7466 39.7645 46.8394 39.6932L46.7951 40.0921ZM46.7951 37.5496C46.7951 38.714 44.5628 40.0155 41.3555 40.0155C38.1481 40.0155 35.9159 38.714 35.9159 37.5496V37.1466C36.7562 37.7569 37.7183 38.1788 38.7364 38.3836H38.7606L39.2683 38.4844L39.4819 38.5206L39.913 38.577C40.0258 38.577 40.1427 38.6012 40.2595 38.6133L40.6141 38.6415C40.8277 38.6415 41.0412 38.6415 41.2628 38.6415H41.3555C41.6174 38.6415 41.8713 38.6415 42.1251 38.6173H42.2581C42.4716 38.6173 42.661 38.5811 42.8826 38.5569L43.0478 38.5327C43.2412 38.5045 43.4507 38.4763 43.616 38.44L43.7771 38.4078C43.9665 38.3675 44.1519 38.3232 44.3332 38.2708L44.4621 38.2386C44.8762 38.1215 45.2804 37.972 45.6709 37.7913C45.7273 37.7671 45.7837 37.7349 45.8401 37.7067C45.9651 37.6463 46.0819 37.5818 46.1988 37.5133L46.3599 37.4166C46.4848 37.34 46.5977 37.2594 46.7065 37.1789C46.7306 37.1789 46.7588 37.1466 46.779 37.1265L46.7951 37.5496ZM46.7951 35.003C46.7951 36.1675 44.5628 37.469 41.3555 37.469C38.1481 37.469 35.9159 36.1675 35.9159 35.003V34.6001C36.0045 34.6686 36.1053 34.729 36.1979 34.7935C36.3269 34.8821 36.4679 34.9668 36.6009 35.0473C37.0871 35.3136 37.6004 35.5271 38.132 35.684H38.1763L38.5793 35.7847L38.8694 35.8532L39.2079 35.9217L39.6108 35.9862L39.909 36.0265C40.0701 36.0265 40.2313 36.0627 40.3965 36.0748H40.6423C40.8921 36.0748 41.1419 36.099 41.3998 36.099C41.6577 36.099 41.9115 36.099 42.1573 36.0748H42.4031C42.5683 36.0748 42.7295 36.0466 42.8907 36.0265L43.1888 35.9862L43.5918 35.9217L43.9302 35.8532L44.176 35.7968L44.579 35.6961H44.6031C45.2874 35.4998 45.9391 35.2038 46.5372 34.8177C46.6339 34.7532 46.7387 34.6887 46.8273 34.6202L46.7951 35.003ZM46.7951 32.4565C46.7951 33.625 44.5628 34.9224 41.3555 34.9224C38.1481 34.9224 35.9159 33.625 35.9159 32.4565V32.0535C37.1247 33.0125 39.1394 33.5766 41.3555 33.5766C43.5716 33.5766 45.5702 33.0125 46.7951 32.0535V32.4565ZM46.1907 30.9938C45.2156 31.848 43.3702 32.3759 41.3555 32.3759C39.3408 32.3759 37.4954 31.848 36.5203 30.9938C36.3504 30.8645 36.209 30.7015 36.105 30.515C36.001 30.3284 35.9366 30.1225 35.9159 29.9099C35.9241 29.6909 35.9939 29.4786 36.1174 29.2975C36.3269 29.096 36.5203 28.8945 36.7258 28.6729C37.6646 27.9799 39.3166 27.4561 41.3555 27.4561C44.579 27.4561 46.7951 28.7575 46.7951 29.922C46.7728 30.1325 46.7076 30.3361 46.6037 30.5204C46.4998 30.7047 46.3592 30.8658 46.1907 30.9938Z" fill="white"/>
<path d="M37.4836 20.578C37.4056 20.5634 37.3254 20.5643 37.2477 20.5807C37.1701 20.5972 37.0964 20.6287 37.0309 20.6736C36.9654 20.7185 36.9094 20.7759 36.8661 20.8424C36.8228 20.909 36.793 20.9834 36.7785 21.0615C36.7785 21.1018 35.9726 25.0908 31.5041 28.4634C31.4026 28.5395 31.3276 28.6456 31.2898 28.7667C31.252 28.8878 31.2532 29.0177 31.2933 29.138C31.3335 29.2584 31.4104 29.363 31.5133 29.4372C31.6162 29.5114 31.7399 29.5513 31.8667 29.5513C31.9995 29.5519 32.1286 29.5079 32.2334 29.4264C37.1049 25.7436 37.9349 21.4604 37.9671 21.2791C37.9817 21.2013 37.9807 21.1213 37.9642 21.0439C37.9478 20.9665 37.9162 20.8931 37.8712 20.8279C37.8263 20.7628 37.7689 20.7071 37.7024 20.6642C37.6359 20.6213 37.5615 20.592 37.4836 20.578Z" fill="white"/>
</svg>
