<svg width="435" height="435" viewBox="0 0 435 435" fill="none" xmlns="http://www.w3.org/2000/svg">
<path d="M217.5 1C260.32 1 302.178 13.6975 337.781 37.4868C373.384 61.2762 401.134 95.0888 417.52 134.649C433.906 174.209 438.194 217.74 429.84 259.737C421.486 301.734 400.867 340.311 370.589 370.589L217.5 217.5V1Z" fill="white" stroke="#0B132A" stroke-width="0.907757"/>
<path d="M49.3326 81.1476C68.6864 57.278 92.8998 37.802 120.363 24.0145C147.826 10.2269 177.91 2.44372 208.614 1.18244C239.318 -0.0788465 269.939 5.21065 298.44 16.6992C326.942 28.1878 352.671 45.6123 373.917 67.814L217.5 217.5L49.3326 81.1476Z" fill="white" stroke="#0B132A" stroke-width="0.907757"/>
<path d="M370.589 370.589C350.485 390.693 326.618 406.64 300.351 417.52C274.084 428.4 245.931 434 217.5 434C189.069 434 160.916 428.4 134.649 417.52C108.382 406.64 84.5153 390.693 64.4114 370.589C44.3075 350.485 28.3602 326.618 17.4801 300.351C6.59993 274.084 0.999996 245.931 1 217.5C1 189.069 6.59995 160.916 17.4801 134.649C28.3602 108.382 44.3075 84.5152 64.4114 64.4114L217.5 217.5L370.589 370.589Z" fill="white" stroke="#0B132A" stroke-width="0.907757"/>
<path d="M109.416 342.492C107.179 342.492 105.16 342.013 103.359 341.054C101.558 340.096 100.193 338.789 99.2636 337.133L102.619 333.647C103.432 334.78 104.449 335.68 105.669 336.349C106.889 337.017 108.152 337.351 109.46 337.351C110.505 337.351 111.42 337.133 112.205 336.697C113.018 336.261 113.657 335.651 114.122 334.867C114.587 334.083 114.819 333.182 114.819 332.166C114.819 331.149 114.601 330.263 114.165 329.508C113.73 328.752 113.134 328.172 112.379 327.765C111.624 327.329 110.767 327.111 109.808 327.111C108.85 327.111 107.949 327.329 107.107 327.765C106.293 328.172 105.64 328.767 105.146 329.551H100.048L103.621 311.12H118.871V316.436H107.847L106.584 323.364C106.961 323.015 107.484 322.725 108.152 322.493C108.82 322.231 109.648 322.1 110.636 322.1C112.582 322.1 114.325 322.522 115.865 323.364C117.404 324.206 118.61 325.383 119.481 326.893C120.353 328.375 120.788 330.089 120.788 332.035C120.788 334.097 120.295 335.913 119.307 337.481C118.319 339.079 116.968 340.314 115.255 341.185C113.541 342.057 111.595 342.492 109.416 342.492ZM146.745 323.233C146.745 325.79 146.251 328.07 145.263 330.074C144.305 332.049 142.969 333.604 141.255 334.736C139.57 335.869 137.653 336.436 135.503 336.436C133.354 336.436 131.422 335.869 129.708 334.736C128.023 333.604 126.687 332.049 125.699 330.074C124.741 328.07 124.262 325.79 124.262 323.233C124.262 320.677 124.741 318.411 125.699 316.436C126.687 314.432 128.023 312.863 129.708 311.73C131.422 310.568 133.354 309.987 135.503 309.987C137.653 309.987 139.57 310.568 141.255 311.73C142.969 312.863 144.305 314.432 145.263 316.436C146.251 318.411 146.745 320.677 146.745 323.233ZM140.863 323.233C140.863 321.665 140.63 320.299 140.165 319.138C139.73 317.947 139.105 317.017 138.292 316.349C137.478 315.681 136.549 315.347 135.503 315.347C134.428 315.347 133.484 315.681 132.671 316.349C131.858 317.017 131.219 317.947 130.754 319.138C130.318 320.299 130.1 321.665 130.1 323.233C130.1 324.802 130.318 326.167 130.754 327.329C131.219 328.491 131.858 329.406 132.671 330.074C133.484 330.742 134.428 331.076 135.503 331.076C136.549 331.076 137.464 330.742 138.248 330.074C139.062 329.406 139.701 328.491 140.165 327.329C140.63 326.138 140.863 324.773 140.863 323.233ZM157.606 317.83C156.269 317.83 155.064 317.54 153.989 316.959C152.914 316.349 152.043 315.55 151.375 314.562C150.736 313.546 150.416 312.427 150.416 311.207C150.416 309.987 150.736 308.883 151.375 307.896C152.043 306.879 152.914 306.08 153.989 305.499C155.064 304.918 156.269 304.628 157.606 304.628C158.942 304.628 160.147 304.918 161.222 305.499C162.326 306.08 163.197 306.879 163.836 307.896C164.475 308.883 164.795 309.987 164.795 311.207C164.795 312.427 164.475 313.546 163.836 314.562C163.197 315.55 162.326 316.349 161.222 316.959C160.147 317.54 158.942 317.83 157.606 317.83ZM157.606 314.911C158.187 314.911 158.709 314.737 159.174 314.388C159.639 314.04 160.002 313.589 160.263 313.037C160.554 312.485 160.699 311.89 160.699 311.251C160.699 310.554 160.554 309.929 160.263 309.377C159.973 308.825 159.595 308.39 159.131 308.07C158.666 307.722 158.157 307.547 157.606 307.547C157.025 307.547 156.502 307.722 156.037 308.07C155.572 308.39 155.195 308.825 154.904 309.377C154.643 309.929 154.512 310.539 154.512 311.207C154.512 311.875 154.657 312.5 154.948 313.081C155.238 313.633 155.616 314.083 156.081 314.432C156.545 314.751 157.054 314.911 157.606 314.911ZM174.425 336.436C173.088 336.436 171.883 336.145 170.808 335.564C169.733 334.983 168.862 334.199 168.194 333.211C167.555 332.195 167.235 331.076 167.235 329.856C167.235 328.607 167.555 327.489 168.194 326.501C168.862 325.514 169.733 324.729 170.808 324.148C171.883 323.538 173.088 323.233 174.425 323.233C175.761 323.233 176.966 323.538 178.041 324.148C179.145 324.729 180.016 325.514 180.655 326.501C181.294 327.489 181.614 328.593 181.614 329.813C181.614 331.033 181.294 332.151 180.655 333.168C180.016 334.155 179.145 334.954 178.041 335.564C176.966 336.145 175.761 336.436 174.425 336.436ZM174.425 333.516C175.005 333.516 175.528 333.342 175.993 332.994C176.458 332.645 176.821 332.195 177.082 331.643C177.373 331.091 177.518 330.495 177.518 329.856C177.518 329.159 177.373 328.535 177.082 327.983C176.821 327.431 176.443 326.995 175.95 326.676C175.485 326.327 174.976 326.153 174.425 326.153C173.873 326.153 173.35 326.327 172.856 326.676C172.391 326.995 172.014 327.445 171.723 328.026C171.462 328.578 171.331 329.174 171.331 329.813C171.331 330.51 171.476 331.134 171.767 331.686C172.057 332.238 172.435 332.689 172.899 333.037C173.364 333.357 173.873 333.516 174.425 333.516ZM152.9 333.952L165.144 319.617L176.472 304.715L179.13 307.068L167.191 321.185L155.514 336.305L152.9 333.952Z" fill="#0B132A"/>
<path d="M184.656 134C184.656 132.286 184.845 130.761 185.222 129.425C185.629 128.089 186.326 126.883 187.314 125.808C188.301 124.734 189.696 123.688 191.497 122.671C193.094 121.829 194.43 121.117 195.505 120.536C196.58 119.955 197.393 119.403 197.945 118.88C198.526 118.328 198.817 117.689 198.817 116.963C198.817 116.092 198.468 115.351 197.771 114.741C197.074 114.102 196.086 113.782 194.808 113.782C193.414 113.782 192.208 114.116 191.192 114.785C190.204 115.453 189.347 116.222 188.621 117.094L184.917 112.824C185.44 112.272 186.224 111.676 187.27 111.037C188.316 110.398 189.565 109.846 191.017 109.382C192.47 108.917 194.067 108.684 195.81 108.684C198.773 108.684 201.068 109.382 202.695 110.776C204.35 112.141 205.178 113.913 205.178 116.092C205.178 117.457 204.859 118.619 204.22 119.578C203.61 120.507 202.84 121.306 201.91 121.974C201.01 122.613 200.138 123.18 199.296 123.673C197.437 124.603 195.97 125.416 194.895 126.113C193.85 126.811 193.007 127.682 192.368 128.728H205.658V134H184.656ZM219.01 140.492C216.774 140.492 214.755 140.013 212.954 139.054C211.153 138.096 209.788 136.789 208.858 135.133L212.213 131.647C213.027 132.78 214.043 133.68 215.263 134.349C216.483 135.017 217.747 135.351 219.054 135.351C220.623 135.351 221.901 134.871 222.888 133.913C223.905 132.954 224.413 131.705 224.413 130.166C224.413 128.655 223.934 127.435 222.976 126.506C222.017 125.576 220.826 125.111 219.403 125.111C218.444 125.111 217.544 125.329 216.701 125.765C215.888 126.172 215.234 126.767 214.74 127.551H209.642L213.215 109.12H228.466V114.436H217.442L216.178 121.364C216.527 121.015 217.035 120.725 217.703 120.493C218.4 120.231 219.243 120.1 220.231 120.1C222.177 120.1 223.905 120.522 225.416 121.364C226.955 122.206 228.161 123.383 229.032 124.893C229.933 126.375 230.383 128.089 230.383 130.035C230.383 132.126 229.889 133.956 228.901 135.525C227.914 137.094 226.563 138.314 224.849 139.185C223.135 140.057 221.189 140.492 219.01 140.492ZM240.435 115.83C239.099 115.83 237.879 115.54 236.775 114.959C235.701 114.349 234.844 113.55 234.205 112.562C233.566 111.546 233.246 110.427 233.246 109.207C233.246 107.987 233.566 106.883 234.205 105.896C234.844 104.908 235.701 104.124 236.775 103.543C237.879 102.933 239.099 102.628 240.435 102.628C241.772 102.628 242.977 102.933 244.052 103.543C245.156 104.124 246.027 104.908 246.666 105.896C247.305 106.883 247.625 107.987 247.625 109.207C247.625 110.427 247.305 111.546 246.666 112.562C246.027 113.55 245.156 114.349 244.052 114.959C242.977 115.54 241.772 115.83 240.435 115.83ZM235.73 131.952L247.973 117.617L259.302 102.715L261.96 105.068L250.021 119.185L238.344 134.305L235.73 131.952ZM240.435 112.911C241.278 112.911 242.004 112.548 242.614 111.822C243.224 111.066 243.529 110.195 243.529 109.207C243.529 108.22 243.224 107.363 242.614 106.637C242.004 105.91 241.278 105.547 240.435 105.547C239.593 105.547 238.867 105.91 238.257 106.637C237.647 107.363 237.342 108.22 237.342 109.207C237.342 110.224 237.647 111.095 238.257 111.822C238.867 112.548 239.593 112.911 240.435 112.911ZM257.254 134.436C255.918 134.436 254.713 134.145 253.638 133.564C252.563 132.954 251.692 132.155 251.024 131.168C250.384 130.18 250.065 129.076 250.065 127.856C250.065 126.636 250.384 125.532 251.024 124.545C251.692 123.528 252.563 122.729 253.638 122.148C254.713 121.538 255.918 121.233 257.254 121.233C258.591 121.233 259.796 121.538 260.871 122.148C261.975 122.729 262.846 123.528 263.485 124.545C264.124 125.532 264.444 126.636 264.444 127.856C264.444 129.076 264.124 130.18 263.485 131.168C262.846 132.155 261.975 132.954 260.871 133.564C259.796 134.145 258.591 134.436 257.254 134.436ZM257.254 131.516C258.126 131.516 258.852 131.153 259.433 130.427C260.043 129.701 260.348 128.844 260.348 127.856C260.348 126.84 260.043 125.968 259.433 125.242C258.823 124.516 258.097 124.153 257.254 124.153C256.412 124.153 255.686 124.53 255.076 125.286C254.466 126.012 254.161 126.869 254.161 127.856C254.161 128.844 254.466 129.701 255.076 130.427C255.686 131.153 256.412 131.516 257.254 131.516Z" fill="#0B132A"/>
<path d="M180.908 90.0674C180.609 90.4189 180.265 90.6794 179.878 90.8486C179.491 91.0179 179.066 91.1009 178.604 91.0977C178.311 91.0944 178.04 91.0505 177.793 90.9658C177.549 90.8779 177.329 90.7591 177.134 90.6094C176.938 90.4564 176.768 90.2773 176.621 90.0723C176.475 89.8672 176.351 89.6458 176.25 89.4082C176.152 89.1673 176.077 88.9167 176.025 88.6562C175.977 88.3926 175.951 88.1273 175.947 87.8604V87.0352C175.951 86.7715 175.973 86.5094 176.016 86.249C176.061 85.9854 176.13 85.7331 176.221 85.4922C176.312 85.2513 176.426 85.0283 176.562 84.8232C176.699 84.6149 176.862 84.4359 177.051 84.2861C177.243 84.1331 177.459 84.0127 177.7 83.9248C177.941 83.8369 178.211 83.793 178.511 83.793C178.843 83.793 179.149 83.8451 179.429 83.9492C179.709 84.0501 179.953 84.1966 180.161 84.3887C180.369 84.5775 180.537 84.807 180.664 85.0771C180.791 85.3441 180.869 85.6436 180.898 85.9756H180.005C179.969 85.7705 179.914 85.5817 179.839 85.4092C179.764 85.2334 179.665 85.0837 179.541 84.96C179.421 84.8363 179.276 84.7402 179.106 84.6719C178.937 84.6003 178.74 84.5645 178.516 84.5645C178.301 84.5645 178.11 84.6019 177.944 84.6768C177.778 84.7484 177.633 84.846 177.51 84.9697C177.386 85.0934 177.284 85.2383 177.202 85.4043C177.121 85.5671 177.054 85.7396 177.002 85.9219C176.95 86.1042 176.912 86.2897 176.89 86.4785C176.867 86.6673 176.855 86.8496 176.855 87.0254V87.8604C176.859 88.0394 176.873 88.2249 176.899 88.417C176.929 88.6058 176.973 88.7913 177.031 88.9736C177.09 89.1559 177.165 89.3285 177.256 89.4912C177.347 89.654 177.456 89.7972 177.583 89.9209C177.713 90.0446 177.863 90.1439 178.032 90.2188C178.201 90.2904 178.394 90.3278 178.608 90.3311C178.732 90.3343 178.861 90.3294 178.994 90.3164C179.131 90.3034 179.263 90.2773 179.39 90.2383C179.517 90.1992 179.635 90.1471 179.746 90.082C179.857 90.0137 179.95 89.9258 180.024 89.8184L180.034 88.2217H178.589V87.46H180.894L180.908 90.0674ZM186.768 91H185.85L183.091 85.6875L183.076 91H182.163V83.8906H183.081L185.84 89.1934L185.854 83.8906H186.768V91ZM188.32 83.8906H192.617V84.6768H190.913V90.2188H192.617V91H188.32V90.2188H189.985V84.6768H188.32V83.8906ZM204.79 88.417C204.79 88.7946 204.744 89.1478 204.653 89.4766C204.562 89.8021 204.429 90.0853 204.253 90.3262C204.077 90.5671 203.859 90.7559 203.599 90.8926C203.341 91.0293 203.047 91.0977 202.715 91.0977C202.393 91.0977 202.108 91.0456 201.86 90.9414C201.616 90.8372 201.406 90.6875 201.23 90.4922V93.0312H200.327V85.7168H201.152L201.196 86.293C201.372 86.0749 201.584 85.9089 201.831 85.7949C202.082 85.6777 202.371 85.6191 202.7 85.6191C203.039 85.6191 203.338 85.6859 203.599 85.8193C203.859 85.9528 204.077 86.1383 204.253 86.376C204.429 86.6136 204.562 86.8984 204.653 87.2305C204.744 87.5592 204.79 87.9206 204.79 88.3145V88.417ZM203.887 88.3145C203.887 88.0573 203.857 87.8132 203.799 87.582C203.743 87.3477 203.656 87.1426 203.535 86.9668C203.418 86.7878 203.268 86.6462 203.086 86.542C202.904 86.4378 202.686 86.3857 202.432 86.3857C202.142 86.3857 201.898 86.4541 201.699 86.5908C201.504 86.7243 201.348 86.8968 201.23 87.1084V89.6523C201.348 89.8607 201.504 90.0316 201.699 90.165C201.895 90.2952 202.142 90.3604 202.441 90.3604C202.692 90.3604 202.909 90.3083 203.091 90.2041C203.273 90.0967 203.423 89.9535 203.54 89.7744C203.657 89.5954 203.743 89.3887 203.799 89.1543C203.857 88.9199 203.887 88.6742 203.887 88.417V88.3145ZM208.672 91.0977C208.301 91.0977 207.959 91.0342 207.646 90.9072C207.337 90.7803 207.072 90.6029 206.851 90.375C206.629 90.1471 206.457 89.877 206.333 89.5645C206.209 89.252 206.147 88.9118 206.147 88.5439V88.3389C206.147 87.9124 206.216 87.5316 206.353 87.1963C206.489 86.8577 206.67 86.5729 206.895 86.3418C207.122 86.1074 207.38 85.9284 207.666 85.8047C207.956 85.681 208.252 85.6191 208.555 85.6191C208.936 85.6191 209.268 85.6859 209.551 85.8193C209.837 85.9495 210.075 86.1318 210.264 86.3662C210.452 86.5973 210.592 86.8708 210.684 87.1865C210.778 87.5023 210.825 87.8441 210.825 88.2119V88.6172H207.051C207.061 88.8581 207.106 89.0843 207.188 89.2959C207.272 89.5075 207.386 89.693 207.529 89.8525C207.676 90.0088 207.85 90.1325 208.052 90.2236C208.254 90.3148 208.477 90.3604 208.721 90.3604C209.043 90.3604 209.329 90.2952 209.58 90.165C209.831 90.0348 210.039 89.8623 210.205 89.6475L210.757 90.0771C210.669 90.2106 210.558 90.3392 210.425 90.4629C210.295 90.5833 210.143 90.6908 209.971 90.7852C209.798 90.8796 209.603 90.9544 209.385 91.0098C209.167 91.0684 208.929 91.0977 208.672 91.0977ZM208.555 86.3613C208.372 86.3613 208.2 86.3955 208.037 86.4639C207.874 86.529 207.728 86.6266 207.598 86.7568C207.467 86.8838 207.357 87.0417 207.266 87.2305C207.178 87.416 207.116 87.6309 207.08 87.875H209.922V87.8066C209.912 87.6309 209.878 87.4567 209.819 87.2842C209.764 87.1117 209.681 86.957 209.57 86.8203C209.46 86.6836 209.32 86.5729 209.15 86.4883C208.984 86.4036 208.786 86.3613 208.555 86.3613ZM215.806 85.6191C215.89 85.6191 215.978 85.6224 216.069 85.6289C216.16 85.6322 216.247 85.6403 216.328 85.6533C216.413 85.6631 216.489 85.6761 216.558 85.6924C216.629 85.7087 216.688 85.7266 216.733 85.7461L216.611 86.6299C216.436 86.5908 216.268 86.5632 216.108 86.5469C215.952 86.5273 215.788 86.5176 215.615 86.5176C215.192 86.5176 214.849 86.6136 214.585 86.8057C214.325 86.9977 214.132 87.2663 214.009 87.6113V91H213.101V85.7168H213.96L214.004 86.5566C214.219 86.2669 214.476 86.0391 214.775 85.873C215.078 85.7038 215.422 85.6191 215.806 85.6191ZM226.606 90.3652C226.769 90.3652 226.927 90.3392 227.08 90.2871C227.236 90.235 227.375 90.1634 227.495 90.0723C227.616 89.9779 227.712 89.8688 227.783 89.7451C227.858 89.6182 227.897 89.4814 227.9 89.335H228.755C228.752 89.5693 228.69 89.7939 228.569 90.0088C228.452 90.2204 228.294 90.4076 228.096 90.5703C227.897 90.7298 227.669 90.8584 227.412 90.9561C227.155 91.0505 226.886 91.0977 226.606 91.0977C226.206 91.0977 225.856 91.026 225.557 90.8828C225.257 90.7396 225.007 90.5475 224.805 90.3066C224.606 90.0625 224.456 89.7826 224.355 89.4668C224.255 89.1478 224.204 88.8125 224.204 88.4609V88.2559C224.204 87.9076 224.255 87.5739 224.355 87.2549C224.456 86.9359 224.606 86.6559 224.805 86.415C225.007 86.1709 225.257 85.9772 225.557 85.834C225.856 85.6908 226.206 85.6191 226.606 85.6191C226.919 85.6191 227.205 85.6696 227.466 85.7705C227.729 85.8682 227.956 86.0033 228.145 86.1758C228.337 86.3451 228.486 86.5469 228.594 86.7812C228.701 87.0156 228.755 87.2663 228.755 87.5332H227.9C227.897 87.3737 227.861 87.224 227.793 87.084C227.728 86.9408 227.638 86.8154 227.524 86.708C227.41 86.6006 227.274 86.516 227.114 86.4541C226.958 86.3923 226.789 86.3613 226.606 86.3613C226.326 86.3613 226.09 86.4183 225.898 86.5322C225.71 86.6429 225.557 86.7894 225.439 86.9717C225.322 87.1507 225.238 87.3525 225.186 87.5771C225.137 87.8018 225.112 88.028 225.112 88.2559V88.4609C225.112 88.6921 225.137 88.9215 225.186 89.1494C225.238 89.374 225.321 89.5775 225.435 89.7598C225.552 89.9388 225.705 90.0853 225.894 90.1992C226.086 90.3099 226.323 90.3652 226.606 90.3652ZM233.833 91C233.797 90.9316 233.768 90.847 233.745 90.7461C233.726 90.6419 233.711 90.5345 233.701 90.4238C233.61 90.515 233.507 90.6012 233.394 90.6826C233.283 90.764 233.159 90.8356 233.022 90.8975C232.889 90.9593 232.746 91.0081 232.593 91.0439C232.44 91.0798 232.277 91.0977 232.104 91.0977C231.825 91.0977 231.571 91.057 231.343 90.9756C231.118 90.8942 230.926 90.7852 230.767 90.6484C230.61 90.5085 230.488 90.3441 230.4 90.1553C230.316 89.9632 230.273 89.7565 230.273 89.5352C230.273 89.2454 230.33 88.9915 230.444 88.7734C230.562 88.5553 230.726 88.3747 230.938 88.2314C231.149 88.085 231.403 87.9759 231.699 87.9043C231.999 87.8327 232.332 87.7969 232.7 87.7969H233.687V87.3818C233.687 87.2223 233.657 87.0791 233.599 86.9521C233.54 86.8252 233.457 86.7178 233.35 86.6299C233.242 86.5387 233.11 86.4688 232.954 86.4199C232.801 86.3711 232.629 86.3467 232.437 86.3467C232.257 86.3467 232.096 86.3695 231.953 86.415C231.813 86.4606 231.694 86.5208 231.597 86.5957C231.499 86.6706 231.423 86.7601 231.367 86.8643C231.315 86.9652 231.289 87.071 231.289 87.1816H230.381C230.384 86.9896 230.433 86.8008 230.527 86.6152C230.625 86.4297 230.763 86.2637 230.942 86.1172C231.125 85.9674 231.344 85.847 231.602 85.7559C231.862 85.6647 232.157 85.6191 232.485 85.6191C232.785 85.6191 233.063 85.6566 233.32 85.7314C233.577 85.8031 233.799 85.9137 233.984 86.0635C234.173 86.21 234.321 86.3939 234.429 86.6152C234.536 86.8366 234.59 87.0954 234.59 87.3916V89.8477C234.59 90.0234 234.606 90.2106 234.639 90.4092C234.671 90.6045 234.717 90.7754 234.775 90.9219V91H233.833ZM232.236 90.3115C232.412 90.3115 232.576 90.2887 232.729 90.2432C232.882 90.1976 233.021 90.1374 233.145 90.0625C233.271 89.9876 233.381 89.903 233.472 89.8086C233.563 89.7109 233.634 89.61 233.687 89.5059V88.4365H232.847C232.319 88.4365 231.909 88.5146 231.616 88.6709C231.323 88.8271 231.177 89.0729 231.177 89.4082C231.177 89.5384 231.198 89.6589 231.24 89.7695C231.286 89.8802 231.353 89.9762 231.44 90.0576C231.528 90.1357 231.639 90.1976 231.772 90.2432C231.906 90.2887 232.061 90.3115 232.236 90.3115ZM240.825 88.417C240.825 88.7946 240.78 89.1478 240.688 89.4766C240.597 89.8021 240.464 90.0853 240.288 90.3262C240.112 90.5671 239.894 90.7559 239.634 90.8926C239.377 91.0293 239.082 91.0977 238.75 91.0977C238.428 91.0977 238.143 91.0456 237.896 90.9414C237.651 90.8372 237.441 90.6875 237.266 90.4922V93.0312H236.362V85.7168H237.188L237.231 86.293C237.407 86.0749 237.619 85.9089 237.866 85.7949C238.117 85.6777 238.407 85.6191 238.735 85.6191C239.074 85.6191 239.373 85.6859 239.634 85.8193C239.894 85.9528 240.112 86.1383 240.288 86.376C240.464 86.6136 240.597 86.8984 240.688 87.2305C240.78 87.5592 240.825 87.9206 240.825 88.3145V88.417ZM239.922 88.3145C239.922 88.0573 239.893 87.8132 239.834 87.582C239.779 87.3477 239.691 87.1426 239.57 86.9668C239.453 86.7878 239.303 86.6462 239.121 86.542C238.939 86.4378 238.721 86.3857 238.467 86.3857C238.177 86.3857 237.933 86.4541 237.734 86.5908C237.539 86.7243 237.383 86.8968 237.266 87.1084V89.6523C237.383 89.8607 237.539 90.0316 237.734 90.165C237.93 90.2952 238.177 90.3604 238.477 90.3604C238.727 90.3604 238.944 90.3083 239.126 90.2041C239.308 90.0967 239.458 89.9535 239.575 89.7744C239.692 89.5954 239.779 89.3887 239.834 89.1543C239.893 88.9199 239.922 88.6742 239.922 88.417V88.3145ZM242.515 85.7168H245.215V90.2188H246.938V91H242.515V90.2188H244.312V86.5029H242.515V85.7168ZM244.194 84.3301C244.194 84.1803 244.238 84.055 244.326 83.9541C244.417 83.8499 244.554 83.7979 244.736 83.7979C244.915 83.7979 245.05 83.8499 245.142 83.9541C245.233 84.055 245.278 84.1803 245.278 84.3301C245.278 84.4766 245.233 84.5986 245.142 84.6963C245.05 84.7939 244.915 84.8428 244.736 84.8428C244.554 84.8428 244.417 84.7939 244.326 84.6963C244.238 84.5986 244.194 84.4766 244.194 84.3301ZM250.518 84.4375V85.7168H252.529V86.415H250.518V89.2861C250.518 89.4912 250.544 89.6605 250.596 89.7939C250.648 89.9274 250.719 90.0348 250.811 90.1162C250.902 90.1943 251.006 90.2497 251.123 90.2822C251.243 90.3148 251.37 90.3311 251.504 90.3311C251.602 90.3311 251.702 90.3262 251.807 90.3164C251.911 90.3034 252.012 90.2887 252.109 90.2725C252.21 90.2562 252.303 90.2399 252.388 90.2236C252.476 90.2041 252.547 90.1878 252.603 90.1748L252.729 90.8145C252.655 90.86 252.563 90.9007 252.456 90.9365C252.349 90.9691 252.231 90.9967 252.104 91.0195C251.978 91.0456 251.842 91.0651 251.699 91.0781C251.559 91.0911 251.419 91.0977 251.279 91.0977C251.045 91.0977 250.825 91.0651 250.62 91C250.418 90.9316 250.243 90.8258 250.093 90.6826C249.943 90.5361 249.824 90.349 249.736 90.1211C249.652 89.89 249.609 89.6117 249.609 89.2861V86.415H248.223V85.7168H249.609V84.4375H250.518ZM257.856 91C257.821 90.9316 257.791 90.847 257.769 90.7461C257.749 90.6419 257.734 90.5345 257.725 90.4238C257.633 90.515 257.531 90.6012 257.417 90.6826C257.306 90.764 257.183 90.8356 257.046 90.8975C256.912 90.9593 256.769 91.0081 256.616 91.0439C256.463 91.0798 256.3 91.0977 256.128 91.0977C255.848 91.0977 255.594 91.057 255.366 90.9756C255.142 90.8942 254.95 90.7852 254.79 90.6484C254.634 90.5085 254.512 90.3441 254.424 90.1553C254.339 89.9632 254.297 89.7565 254.297 89.5352C254.297 89.2454 254.354 88.9915 254.468 88.7734C254.585 88.5553 254.749 88.3747 254.961 88.2314C255.173 88.085 255.426 87.9759 255.723 87.9043C256.022 87.8327 256.356 87.7969 256.724 87.7969H257.71V87.3818C257.71 87.2223 257.681 87.0791 257.622 86.9521C257.563 86.8252 257.48 86.7178 257.373 86.6299C257.266 86.5387 257.134 86.4688 256.978 86.4199C256.825 86.3711 256.652 86.3467 256.46 86.3467C256.281 86.3467 256.12 86.3695 255.977 86.415C255.837 86.4606 255.718 86.5208 255.62 86.5957C255.522 86.6706 255.446 86.7601 255.391 86.8643C255.339 86.9652 255.312 87.071 255.312 87.1816H254.404C254.408 86.9896 254.456 86.8008 254.551 86.6152C254.648 86.4297 254.787 86.2637 254.966 86.1172C255.148 85.9674 255.368 85.847 255.625 85.7559C255.885 85.6647 256.18 85.6191 256.509 85.6191C256.808 85.6191 257.087 85.6566 257.344 85.7314C257.601 85.8031 257.822 85.9137 258.008 86.0635C258.197 86.21 258.345 86.3939 258.452 86.6152C258.56 86.8366 258.613 87.0954 258.613 87.3916V89.8477C258.613 90.0234 258.63 90.2106 258.662 90.4092C258.695 90.6045 258.74 90.7754 258.799 90.9219V91H257.856ZM256.26 90.3115C256.436 90.3115 256.6 90.2887 256.753 90.2432C256.906 90.1976 257.044 90.1374 257.168 90.0625C257.295 89.9876 257.404 89.903 257.495 89.8086C257.586 89.7109 257.658 89.61 257.71 89.5059V88.4365H256.87C256.343 88.4365 255.933 88.5146 255.64 88.6709C255.347 88.8271 255.2 89.0729 255.2 89.4082C255.2 89.5384 255.221 89.6589 255.264 89.7695C255.309 89.8802 255.376 89.9762 255.464 90.0576C255.552 90.1357 255.662 90.1976 255.796 90.2432C255.929 90.2887 256.084 90.3115 256.26 90.3115Z" fill="#0B132A"/>
<path d="M288.28 213.148V216H287.377V208.891H289.682C290.001 208.897 290.302 208.948 290.585 209.042C290.871 209.136 291.122 209.273 291.337 209.452C291.552 209.631 291.721 209.853 291.845 210.116C291.972 210.38 292.035 210.683 292.035 211.024C292.035 211.366 291.972 211.669 291.845 211.933C291.721 212.193 291.552 212.413 291.337 212.592C291.122 212.771 290.871 212.908 290.585 213.002C290.302 213.096 290.001 213.145 289.682 213.148H288.28ZM288.28 212.406H289.682C289.89 212.403 290.082 212.37 290.258 212.309C290.434 212.243 290.587 212.152 290.717 212.035C290.847 211.918 290.948 211.776 291.02 211.61C291.094 211.441 291.132 211.249 291.132 211.034C291.132 210.819 291.094 210.626 291.02 210.453C290.948 210.281 290.847 210.134 290.717 210.014C290.59 209.893 290.437 209.8 290.258 209.735C290.082 209.67 289.89 209.636 289.682 209.633H288.28V212.406ZM295.634 216.098C295.263 216.098 294.921 216.034 294.608 215.907C294.299 215.78 294.034 215.603 293.812 215.375C293.591 215.147 293.419 214.877 293.295 214.564C293.171 214.252 293.109 213.912 293.109 213.544V213.339C293.109 212.912 293.178 212.532 293.314 212.196C293.451 211.858 293.632 211.573 293.856 211.342C294.084 211.107 294.341 210.928 294.628 210.805C294.918 210.681 295.214 210.619 295.517 210.619C295.897 210.619 296.229 210.686 296.513 210.819C296.799 210.95 297.037 211.132 297.226 211.366C297.414 211.597 297.554 211.871 297.646 212.187C297.74 212.502 297.787 212.844 297.787 213.212V213.617H294.013C294.022 213.858 294.068 214.084 294.149 214.296C294.234 214.507 294.348 214.693 294.491 214.853C294.638 215.009 294.812 215.132 295.014 215.224C295.215 215.315 295.438 215.36 295.683 215.36C296.005 215.36 296.291 215.295 296.542 215.165C296.793 215.035 297.001 214.862 297.167 214.647L297.719 215.077C297.631 215.211 297.52 215.339 297.387 215.463C297.257 215.583 297.105 215.691 296.933 215.785C296.76 215.88 296.565 215.954 296.347 216.01C296.129 216.068 295.891 216.098 295.634 216.098ZM295.517 211.361C295.334 211.361 295.162 211.396 294.999 211.464C294.836 211.529 294.69 211.627 294.56 211.757C294.429 211.884 294.319 212.042 294.228 212.23C294.14 212.416 294.078 212.631 294.042 212.875H296.884V212.807C296.874 212.631 296.84 212.457 296.781 212.284C296.726 212.112 296.643 211.957 296.532 211.82C296.422 211.684 296.282 211.573 296.112 211.488C295.946 211.404 295.748 211.361 295.517 211.361ZM302.768 210.619C302.852 210.619 302.94 210.622 303.031 210.629C303.122 210.632 303.209 210.64 303.29 210.653C303.375 210.663 303.451 210.676 303.52 210.692C303.591 210.709 303.65 210.727 303.695 210.746L303.573 211.63C303.397 211.591 303.23 211.563 303.07 211.547C302.914 211.527 302.75 211.518 302.577 211.518C302.154 211.518 301.811 211.614 301.547 211.806C301.286 211.998 301.094 212.266 300.971 212.611V216H300.062V210.717H300.922L300.966 211.557C301.181 211.267 301.438 211.039 301.737 210.873C302.04 210.704 302.383 210.619 302.768 210.619ZM308.822 214.599C308.822 214.491 308.801 214.395 308.759 214.311C308.716 214.223 308.645 214.143 308.544 214.071C308.443 214 308.31 213.935 308.144 213.876C307.978 213.814 307.771 213.759 307.523 213.71C307.221 213.648 306.944 213.573 306.693 213.485C306.446 213.397 306.233 213.293 306.054 213.173C305.878 213.049 305.741 212.906 305.644 212.743C305.546 212.577 305.497 212.385 305.497 212.167C305.497 211.952 305.548 211.752 305.648 211.566C305.749 211.378 305.891 211.213 306.073 211.073C306.256 210.933 306.472 210.823 306.723 210.741C306.977 210.66 307.255 210.619 307.558 210.619C307.883 210.619 308.176 210.661 308.437 210.746C308.697 210.831 308.918 210.948 309.101 211.098C309.283 211.247 309.423 211.423 309.521 211.625C309.621 211.824 309.672 212.038 309.672 212.27H308.769C308.769 212.156 308.739 212.045 308.681 211.938C308.622 211.827 308.541 211.729 308.437 211.645C308.332 211.56 308.205 211.492 308.056 211.439C307.909 211.387 307.743 211.361 307.558 211.361C307.366 211.361 307.196 211.382 307.05 211.425C306.907 211.467 306.786 211.524 306.688 211.596C306.594 211.667 306.522 211.75 306.474 211.845C306.425 211.939 306.4 212.037 306.4 212.138C306.4 212.242 306.42 212.335 306.459 212.416C306.498 212.497 306.565 212.571 306.659 212.636C306.757 212.701 306.885 212.759 307.045 212.812C307.208 212.864 307.413 212.914 307.66 212.963C307.986 213.031 308.277 213.111 308.534 213.202C308.791 213.29 309.008 213.397 309.184 213.524C309.359 213.648 309.493 213.793 309.584 213.959C309.678 214.125 309.726 214.317 309.726 214.535C309.726 214.77 309.672 214.983 309.564 215.175C309.46 215.367 309.314 215.531 309.125 215.668C308.936 215.805 308.71 215.91 308.446 215.985C308.183 216.06 307.895 216.098 307.582 216.098C307.224 216.098 306.905 216.05 306.625 215.956C306.345 215.858 306.107 215.731 305.912 215.575C305.72 215.416 305.572 215.232 305.468 215.023C305.367 214.815 305.316 214.599 305.316 214.374H306.22C306.233 214.56 306.282 214.716 306.366 214.843C306.454 214.97 306.562 215.072 306.688 215.15C306.819 215.229 306.962 215.284 307.118 215.316C307.274 215.349 307.429 215.365 307.582 215.365C307.963 215.365 308.264 215.295 308.485 215.155C308.707 215.015 308.819 214.83 308.822 214.599ZM311.063 213.31C311.063 212.929 311.119 212.576 311.229 212.25C311.34 211.921 311.498 211.636 311.703 211.396C311.911 211.155 312.164 210.966 312.46 210.829C312.756 210.689 313.09 210.619 313.461 210.619C313.835 210.619 314.171 210.689 314.467 210.829C314.766 210.966 315.019 211.155 315.224 211.396C315.432 211.636 315.591 211.921 315.702 212.25C315.813 212.576 315.868 212.929 315.868 213.31V213.417C315.868 213.798 315.813 214.151 315.702 214.477C315.591 214.802 315.432 215.085 315.224 215.326C315.019 215.567 314.768 215.756 314.472 215.893C314.175 216.029 313.842 216.098 313.471 216.098C313.096 216.098 312.759 216.029 312.46 215.893C312.164 215.756 311.911 215.567 311.703 215.326C311.498 215.085 311.34 214.802 311.229 214.477C311.119 214.151 311.063 213.798 311.063 213.417V213.31ZM311.967 213.417C311.967 213.677 311.998 213.926 312.06 214.164C312.121 214.398 312.214 214.605 312.338 214.784C312.465 214.963 312.623 215.105 312.812 215.209C313 215.313 313.22 215.365 313.471 215.365C313.718 215.365 313.935 215.313 314.12 215.209C314.309 215.105 314.465 214.963 314.589 214.784C314.716 214.605 314.81 214.398 314.872 214.164C314.934 213.926 314.965 213.677 314.965 213.417V213.31C314.965 213.052 314.932 212.807 314.867 212.572C314.805 212.335 314.711 212.126 314.584 211.947C314.46 211.768 314.304 211.627 314.115 211.522C313.93 211.415 313.712 211.361 313.461 211.361C313.21 211.361 312.992 211.415 312.807 211.522C312.621 211.627 312.465 211.768 312.338 211.947C312.214 212.126 312.121 212.335 312.06 212.572C311.998 212.807 311.967 213.052 311.967 213.31V213.417ZM318.134 210.717L318.197 211.498C318.389 211.225 318.625 211.011 318.905 210.858C319.185 210.702 319.498 210.622 319.843 210.619C320.119 210.619 320.37 210.658 320.595 210.736C320.823 210.814 321.016 210.937 321.176 211.103C321.335 211.269 321.457 211.48 321.542 211.737C321.63 211.991 321.674 212.294 321.674 212.646V216H320.771V212.665C320.771 212.431 320.744 212.232 320.692 212.069C320.64 211.907 320.562 211.775 320.458 211.674C320.357 211.573 320.232 211.5 320.082 211.454C319.936 211.409 319.766 211.386 319.574 211.386C319.271 211.386 319.005 211.462 318.773 211.615C318.546 211.765 318.363 211.964 318.227 212.211V216H317.323V210.717H318.134ZM326.801 216C326.765 215.932 326.736 215.847 326.713 215.746C326.693 215.642 326.679 215.535 326.669 215.424C326.578 215.515 326.475 215.601 326.361 215.683C326.251 215.764 326.127 215.836 325.99 215.897C325.857 215.959 325.714 216.008 325.561 216.044C325.408 216.08 325.245 216.098 325.072 216.098C324.792 216.098 324.538 216.057 324.311 215.976C324.086 215.894 323.894 215.785 323.734 215.648C323.578 215.508 323.456 215.344 323.368 215.155C323.284 214.963 323.241 214.757 323.241 214.535C323.241 214.245 323.298 213.992 323.412 213.773C323.529 213.555 323.694 213.375 323.905 213.231C324.117 213.085 324.371 212.976 324.667 212.904C324.966 212.833 325.3 212.797 325.668 212.797H326.654V212.382C326.654 212.222 326.625 212.079 326.566 211.952C326.508 211.825 326.425 211.718 326.317 211.63C326.21 211.539 326.078 211.469 325.922 211.42C325.769 211.371 325.596 211.347 325.404 211.347C325.225 211.347 325.064 211.369 324.921 211.415C324.781 211.461 324.662 211.521 324.564 211.596C324.467 211.671 324.39 211.76 324.335 211.864C324.283 211.965 324.257 212.071 324.257 212.182H323.349C323.352 211.99 323.401 211.801 323.495 211.615C323.593 211.43 323.731 211.264 323.91 211.117C324.092 210.967 324.312 210.847 324.569 210.756C324.83 210.665 325.124 210.619 325.453 210.619C325.753 210.619 326.031 210.657 326.288 210.731C326.545 210.803 326.767 210.914 326.952 211.063C327.141 211.21 327.289 211.394 327.396 211.615C327.504 211.837 327.558 212.095 327.558 212.392V214.848C327.558 215.023 327.574 215.211 327.606 215.409C327.639 215.604 327.685 215.775 327.743 215.922V216H326.801ZM325.204 215.312C325.38 215.312 325.544 215.289 325.697 215.243C325.85 215.198 325.989 215.137 326.112 215.062C326.239 214.988 326.348 214.903 326.439 214.809C326.531 214.711 326.602 214.61 326.654 214.506V213.437H325.814C325.287 213.437 324.877 213.515 324.584 213.671C324.291 213.827 324.145 214.073 324.145 214.408C324.145 214.538 324.166 214.659 324.208 214.77C324.254 214.88 324.32 214.976 324.408 215.058C324.496 215.136 324.607 215.198 324.74 215.243C324.874 215.289 325.028 215.312 325.204 215.312ZM329.477 208.5H332.177V215.219H333.9V216H329.477V215.219H331.273V209.286H329.477V208.5ZM341.347 208.891H345.644V209.677H343.939V215.219H345.644V216H341.347V215.219H343.012V209.677H341.347V208.891ZM348.163 210.717L348.227 211.498C348.419 211.225 348.655 211.011 348.935 210.858C349.215 210.702 349.527 210.622 349.872 210.619C350.149 210.619 350.399 210.658 350.624 210.736C350.852 210.814 351.046 210.937 351.205 211.103C351.365 211.269 351.487 211.48 351.571 211.737C351.659 211.991 351.703 212.294 351.703 212.646V216H350.8V212.665C350.8 212.431 350.774 212.232 350.722 212.069C350.67 211.907 350.591 211.775 350.487 211.674C350.386 211.573 350.261 211.5 350.111 211.454C349.965 211.409 349.796 211.386 349.604 211.386C349.301 211.386 349.034 211.462 348.803 211.615C348.575 211.765 348.393 211.964 348.256 212.211V216H347.353V210.717H348.163ZM355.609 215.365C355.772 215.365 355.93 215.339 356.083 215.287C356.239 215.235 356.378 215.163 356.498 215.072C356.618 214.978 356.715 214.869 356.786 214.745C356.861 214.618 356.9 214.481 356.903 214.335H357.758C357.755 214.569 357.693 214.794 357.572 215.009C357.455 215.22 357.297 215.408 357.099 215.57C356.9 215.73 356.672 215.858 356.415 215.956C356.158 216.05 355.889 216.098 355.609 216.098C355.209 216.098 354.859 216.026 354.56 215.883C354.26 215.74 354.009 215.548 353.808 215.307C353.609 215.062 353.459 214.783 353.358 214.467C353.257 214.148 353.207 213.812 353.207 213.461V213.256C353.207 212.908 353.257 212.574 353.358 212.255C353.459 211.936 353.609 211.656 353.808 211.415C354.009 211.171 354.26 210.977 354.56 210.834C354.859 210.691 355.209 210.619 355.609 210.619C355.922 210.619 356.208 210.67 356.469 210.771C356.732 210.868 356.959 211.003 357.147 211.176C357.34 211.345 357.489 211.547 357.597 211.781C357.704 212.016 357.758 212.266 357.758 212.533H356.903C356.9 212.374 356.864 212.224 356.796 212.084C356.731 211.941 356.641 211.815 356.527 211.708C356.413 211.601 356.277 211.516 356.117 211.454C355.961 211.392 355.792 211.361 355.609 211.361C355.329 211.361 355.093 211.418 354.901 211.532C354.713 211.643 354.56 211.789 354.442 211.972C354.325 212.151 354.241 212.353 354.188 212.577C354.14 212.802 354.115 213.028 354.115 213.256V213.461C354.115 213.692 354.14 213.922 354.188 214.149C354.241 214.374 354.324 214.577 354.438 214.76C354.555 214.939 354.708 215.085 354.896 215.199C355.089 215.31 355.326 215.365 355.609 215.365ZM359.11 213.31C359.11 212.929 359.166 212.576 359.276 212.25C359.387 211.921 359.545 211.636 359.75 211.396C359.958 211.155 360.211 210.966 360.507 210.829C360.803 210.689 361.137 210.619 361.508 210.619C361.882 210.619 362.217 210.689 362.514 210.829C362.813 210.966 363.065 211.155 363.271 211.396C363.479 211.636 363.638 211.921 363.749 212.25C363.86 212.576 363.915 212.929 363.915 213.31V213.417C363.915 213.798 363.86 214.151 363.749 214.477C363.638 214.802 363.479 215.085 363.271 215.326C363.065 215.567 362.815 215.756 362.519 215.893C362.222 216.029 361.889 216.098 361.518 216.098C361.143 216.098 360.806 216.029 360.507 215.893C360.211 215.756 359.958 215.567 359.75 215.326C359.545 215.085 359.387 214.802 359.276 214.477C359.166 214.151 359.11 213.798 359.11 213.417V213.31ZM360.014 213.417C360.014 213.677 360.045 213.926 360.106 214.164C360.168 214.398 360.261 214.605 360.385 214.784C360.512 214.963 360.67 215.105 360.858 215.209C361.047 215.313 361.267 215.365 361.518 215.365C361.765 215.365 361.981 215.313 362.167 215.209C362.356 215.105 362.512 214.963 362.636 214.784C362.763 214.605 362.857 214.398 362.919 214.164C362.981 213.926 363.012 213.677 363.012 213.417V213.31C363.012 213.052 362.979 212.807 362.914 212.572C362.852 212.335 362.758 212.126 362.631 211.947C362.507 211.768 362.351 211.627 362.162 211.522C361.977 211.415 361.758 211.361 361.508 211.361C361.257 211.361 361.039 211.415 360.854 211.522C360.668 211.627 360.512 211.768 360.385 211.947C360.261 212.126 360.168 212.335 360.106 212.572C360.045 212.807 360.014 213.052 360.014 213.31V213.417ZM365.785 210.717L365.81 211.215C365.917 211.029 366.057 210.884 366.229 210.78C366.405 210.676 366.617 210.622 366.864 210.619C367.349 210.619 367.673 210.808 367.836 211.186C367.94 211.016 368.077 210.881 368.246 210.78C368.419 210.676 368.627 210.622 368.871 210.619C369.258 210.619 369.556 210.738 369.765 210.976C369.973 211.213 370.077 211.573 370.077 212.055V216H369.218V212.045C369.218 211.602 369.014 211.382 368.607 211.386C368.5 211.386 368.407 211.4 368.329 211.43C368.251 211.459 368.186 211.5 368.134 211.552C368.082 211.601 368.041 211.659 368.012 211.728C367.982 211.793 367.963 211.861 367.953 211.933V216H367.094V212.04C367.094 211.828 367.047 211.666 366.952 211.552C366.858 211.438 366.708 211.382 366.503 211.386C366.314 211.386 366.168 211.423 366.063 211.498C365.959 211.573 365.883 211.672 365.834 211.796V216H364.975V210.717H365.785ZM373.71 216.098C373.339 216.098 372.997 216.034 372.685 215.907C372.375 215.78 372.11 215.603 371.889 215.375C371.667 215.147 371.495 214.877 371.371 214.564C371.247 214.252 371.186 213.912 371.186 213.544V213.339C371.186 212.912 371.254 212.532 371.391 212.196C371.527 211.858 371.708 211.573 371.933 211.342C372.16 211.107 372.418 210.928 372.704 210.805C372.994 210.681 373.29 210.619 373.593 210.619C373.974 210.619 374.306 210.686 374.589 210.819C374.875 210.95 375.113 211.132 375.302 211.366C375.491 211.597 375.631 211.871 375.722 212.187C375.816 212.502 375.863 212.844 375.863 213.212V213.617H372.089C372.099 213.858 372.144 214.084 372.226 214.296C372.31 214.507 372.424 214.693 372.567 214.853C372.714 215.009 372.888 215.132 373.09 215.224C373.292 215.315 373.515 215.36 373.759 215.36C374.081 215.36 374.368 215.295 374.618 215.165C374.869 215.035 375.077 214.862 375.243 214.647L375.795 215.077C375.707 215.211 375.596 215.339 375.463 215.463C375.333 215.583 375.181 215.691 375.009 215.785C374.836 215.88 374.641 215.954 374.423 216.01C374.205 216.068 373.967 216.098 373.71 216.098ZM373.593 211.361C373.41 211.361 373.238 211.396 373.075 211.464C372.912 211.529 372.766 211.627 372.636 211.757C372.506 211.884 372.395 212.042 372.304 212.23C372.216 212.416 372.154 212.631 372.118 212.875H374.96V212.807C374.95 212.631 374.916 212.457 374.857 212.284C374.802 212.112 374.719 211.957 374.608 211.82C374.498 211.684 374.358 211.573 374.188 211.488C374.022 211.404 373.824 211.361 373.593 211.361ZM388.183 209.662H385.985V216H385.106V209.662H382.909V208.891H388.183V209.662ZM392.865 216C392.829 215.932 392.8 215.847 392.777 215.746C392.758 215.642 392.743 215.535 392.733 215.424C392.642 215.515 392.54 215.601 392.426 215.683C392.315 215.764 392.191 215.836 392.055 215.897C391.921 215.959 391.778 216.008 391.625 216.044C391.472 216.08 391.309 216.098 391.137 216.098C390.857 216.098 390.603 216.057 390.375 215.976C390.15 215.894 389.958 215.785 389.799 215.648C389.643 215.508 389.521 215.344 389.433 215.155C389.348 214.963 389.306 214.757 389.306 214.535C389.306 214.245 389.363 213.992 389.477 213.773C389.594 213.555 389.758 213.375 389.97 213.231C390.181 213.085 390.435 212.976 390.731 212.904C391.031 212.833 391.365 212.797 391.732 212.797H392.719V212.382C392.719 212.222 392.689 212.079 392.631 211.952C392.572 211.825 392.489 211.718 392.382 211.63C392.274 211.539 392.143 211.469 391.986 211.42C391.833 211.371 391.661 211.347 391.469 211.347C391.29 211.347 391.129 211.369 390.985 211.415C390.845 211.461 390.727 211.521 390.629 211.596C390.531 211.671 390.455 211.76 390.399 211.864C390.347 211.965 390.321 212.071 390.321 212.182H389.413C389.416 211.99 389.465 211.801 389.56 211.615C389.657 211.43 389.796 211.264 389.975 211.117C390.157 210.967 390.377 210.847 390.634 210.756C390.894 210.665 391.189 210.619 391.518 210.619C391.817 210.619 392.095 210.657 392.353 210.731C392.61 210.803 392.831 210.914 393.017 211.063C393.205 211.21 393.354 211.394 393.461 211.615C393.568 211.837 393.622 212.095 393.622 212.392V214.848C393.622 215.023 393.638 215.211 393.671 215.409C393.703 215.604 393.749 215.775 393.808 215.922V216H392.865ZM391.269 215.312C391.444 215.312 391.609 215.289 391.762 215.243C391.915 215.198 392.053 215.137 392.177 215.062C392.304 214.988 392.413 214.903 392.504 214.809C392.595 214.711 392.667 214.61 392.719 214.506V213.437H391.879C391.352 213.437 390.941 213.515 390.648 213.671C390.355 213.827 390.209 214.073 390.209 214.408C390.209 214.538 390.23 214.659 390.272 214.77C390.318 214.88 390.385 214.976 390.473 215.058C390.561 215.136 390.671 215.198 390.805 215.243C390.938 215.289 391.093 215.312 391.269 215.312ZM397.582 212.675L398.993 210.717H400.053L398.085 213.329L400.106 216H399.062L397.602 213.988L396.142 216H395.087L397.108 213.329L395.141 210.717H396.186L397.582 212.675ZM334.691 225.1H333.271V228H332.372V220.891H334.457C334.789 220.897 335.102 220.944 335.395 221.032C335.688 221.12 335.943 221.252 336.161 221.428C336.382 221.604 336.555 221.825 336.679 222.092C336.806 222.355 336.869 222.666 336.869 223.024C336.869 223.256 336.835 223.467 336.767 223.659C336.701 223.851 336.61 224.025 336.493 224.182C336.376 224.338 336.236 224.476 336.073 224.597C335.91 224.717 335.731 224.82 335.536 224.904L337.045 227.941L337.04 228H336.088L334.691 225.1ZM333.271 224.357H334.481C334.683 224.354 334.874 224.323 335.053 224.265C335.232 224.203 335.388 224.115 335.521 224.001C335.658 223.887 335.766 223.749 335.844 223.586C335.922 223.42 335.961 223.229 335.961 223.015C335.961 222.787 335.924 222.588 335.849 222.419C335.774 222.246 335.67 222.103 335.536 221.989C335.403 221.872 335.243 221.784 335.058 221.726C334.875 221.667 334.675 221.636 334.457 221.633H333.271V224.357ZM341.815 228C341.78 227.932 341.75 227.847 341.728 227.746C341.708 227.642 341.693 227.535 341.684 227.424C341.592 227.515 341.49 227.601 341.376 227.683C341.265 227.764 341.142 227.836 341.005 227.897C340.871 227.959 340.728 228.008 340.575 228.044C340.422 228.08 340.259 228.098 340.087 228.098C339.807 228.098 339.553 228.057 339.325 227.976C339.101 227.894 338.909 227.785 338.749 227.648C338.593 227.508 338.471 227.344 338.383 227.155C338.298 226.963 338.256 226.757 338.256 226.535C338.256 226.245 338.313 225.992 338.427 225.773C338.544 225.555 338.708 225.375 338.92 225.231C339.132 225.085 339.385 224.976 339.682 224.904C339.981 224.833 340.315 224.797 340.683 224.797H341.669V224.382C341.669 224.222 341.64 224.079 341.581 223.952C341.522 223.825 341.439 223.718 341.332 223.63C341.225 223.539 341.093 223.469 340.937 223.42C340.784 223.371 340.611 223.347 340.419 223.347C340.24 223.347 340.079 223.369 339.936 223.415C339.796 223.461 339.677 223.521 339.579 223.596C339.481 223.671 339.405 223.76 339.35 223.864C339.298 223.965 339.271 224.071 339.271 224.182H338.363C338.367 223.99 338.415 223.801 338.51 223.615C338.607 223.43 338.746 223.264 338.925 223.117C339.107 222.967 339.327 222.847 339.584 222.756C339.844 222.665 340.139 222.619 340.468 222.619C340.767 222.619 341.046 222.657 341.303 222.731C341.56 222.803 341.781 222.914 341.967 223.063C342.156 223.21 342.304 223.394 342.411 223.615C342.519 223.837 342.572 224.095 342.572 224.392V226.848C342.572 227.023 342.589 227.211 342.621 227.409C342.654 227.604 342.699 227.775 342.758 227.922V228H341.815ZM340.219 227.312C340.395 227.312 340.559 227.289 340.712 227.243C340.865 227.198 341.003 227.137 341.127 227.062C341.254 226.988 341.363 226.903 341.454 226.809C341.545 226.711 341.617 226.61 341.669 226.506V225.437H340.829C340.302 225.437 339.892 225.515 339.599 225.671C339.306 225.827 339.159 226.073 339.159 226.408C339.159 226.538 339.18 226.659 339.223 226.77C339.268 226.88 339.335 226.976 339.423 227.058C339.511 227.136 339.621 227.198 339.755 227.243C339.888 227.289 340.043 227.312 340.219 227.312ZM346.488 221.438V222.717H348.5V223.415H346.488V226.286C346.488 226.491 346.514 226.66 346.566 226.794C346.618 226.927 346.69 227.035 346.781 227.116C346.872 227.194 346.977 227.25 347.094 227.282C347.214 227.315 347.341 227.331 347.475 227.331C347.572 227.331 347.673 227.326 347.777 227.316C347.882 227.303 347.982 227.289 348.08 227.272C348.181 227.256 348.274 227.24 348.358 227.224C348.446 227.204 348.518 227.188 348.573 227.175L348.7 227.814C348.625 227.86 348.534 227.901 348.427 227.937C348.319 227.969 348.202 227.997 348.075 228.02C347.948 228.046 347.813 228.065 347.67 228.078C347.53 228.091 347.39 228.098 347.25 228.098C347.016 228.098 346.796 228.065 346.591 228C346.389 227.932 346.213 227.826 346.063 227.683C345.914 227.536 345.795 227.349 345.707 227.121C345.622 226.89 345.58 226.612 345.58 226.286V223.415H344.193V222.717H345.58V221.438H346.488ZM352.689 228.098C352.318 228.098 351.977 228.034 351.664 227.907C351.355 227.78 351.09 227.603 350.868 227.375C350.647 227.147 350.474 226.877 350.351 226.564C350.227 226.252 350.165 225.912 350.165 225.544V225.339C350.165 224.912 350.233 224.532 350.37 224.196C350.507 223.858 350.688 223.573 350.912 223.342C351.14 223.107 351.397 222.928 351.684 222.805C351.973 222.681 352.27 222.619 352.572 222.619C352.953 222.619 353.285 222.686 353.568 222.819C353.855 222.95 354.092 223.132 354.281 223.366C354.47 223.597 354.61 223.871 354.701 224.187C354.796 224.502 354.843 224.844 354.843 225.212V225.617H351.068C351.078 225.858 351.124 226.084 351.205 226.296C351.29 226.507 351.404 226.693 351.547 226.853C351.693 227.009 351.868 227.132 352.069 227.224C352.271 227.315 352.494 227.36 352.738 227.36C353.061 227.36 353.347 227.295 353.598 227.165C353.848 227.035 354.057 226.862 354.223 226.647L354.774 227.077C354.687 227.211 354.576 227.339 354.442 227.463C354.312 227.583 354.161 227.691 353.988 227.785C353.816 227.88 353.62 227.954 353.402 228.01C353.184 228.068 352.947 228.098 352.689 228.098ZM352.572 223.361C352.39 223.361 352.217 223.396 352.055 223.464C351.892 223.529 351.745 223.627 351.615 223.757C351.485 223.884 351.374 224.042 351.283 224.23C351.195 224.416 351.133 224.631 351.098 224.875H353.939V224.807C353.93 224.631 353.896 224.457 353.837 224.284C353.782 224.112 353.699 223.957 353.588 223.82C353.477 223.684 353.337 223.573 353.168 223.488C353.002 223.404 352.803 223.361 352.572 223.361Z" fill="#0B132A"/>
<path d="M307.662 271C307.662 269.693 307.763 268.516 307.967 267.471C308.17 266.425 308.519 265.452 309.012 264.551C309.535 263.651 310.232 262.808 311.104 262.024C312.004 261.211 313.137 260.426 314.502 259.671C315.693 259.032 316.739 258.48 317.64 258.015C318.54 257.522 319.295 257.071 319.905 256.665C320.544 256.258 321.024 255.851 321.343 255.445C321.663 255.009 321.823 254.515 321.823 253.963C321.823 253.382 321.663 252.859 321.343 252.395C321.024 251.901 320.574 251.509 319.993 251.218C319.412 250.928 318.685 250.782 317.814 250.782C317.117 250.782 316.463 250.87 315.853 251.044C315.272 251.218 314.72 251.465 314.197 251.785C313.704 252.104 313.239 252.467 312.803 252.874C312.367 253.252 311.975 253.658 311.627 254.094L307.923 249.824C308.33 249.417 308.867 248.981 309.535 248.517C310.232 248.023 311.046 247.573 311.975 247.166C312.934 246.73 313.98 246.382 315.112 246.12C316.274 245.83 317.509 245.684 318.816 245.684C320.791 245.684 322.476 246.004 323.871 246.643C325.265 247.253 326.325 248.11 327.051 249.214C327.807 250.318 328.184 251.61 328.184 253.092C328.184 254.108 327.995 255.009 327.618 255.793C327.24 256.578 326.761 257.275 326.18 257.885C325.599 258.466 324.96 258.989 324.263 259.453C323.595 259.918 322.941 260.325 322.302 260.673C321.401 261.138 320.588 261.574 319.862 261.981C319.136 262.358 318.497 262.75 317.945 263.157C317.393 263.535 316.899 263.927 316.463 264.333C316.057 264.74 315.693 265.205 315.374 265.728H328.663V271H307.662ZM342.016 277.492C339.78 277.492 337.761 277.013 335.96 276.054C334.159 275.096 332.794 273.789 331.864 272.133L335.219 268.647C336.032 269.78 337.049 270.68 338.269 271.349C339.489 272.017 340.753 272.351 342.06 272.351C343.106 272.351 344.021 272.133 344.805 271.697C345.618 271.261 346.257 270.651 346.722 269.867C347.187 269.083 347.419 268.182 347.419 267.166C347.419 266.149 347.201 265.263 346.766 264.508C346.33 263.752 345.735 263.172 344.979 262.765C344.224 262.329 343.367 262.111 342.408 262.111C341.45 262.111 340.549 262.329 339.707 262.765C338.894 263.172 338.24 263.767 337.746 264.551H332.648L336.221 246.12H351.472V251.436H340.448L339.184 258.364C339.562 258.015 340.085 257.725 340.753 257.493C341.421 257.231 342.249 257.1 343.236 257.1C345.183 257.1 346.925 257.522 348.465 258.364C350.005 259.206 351.21 260.383 352.082 261.893C352.953 263.375 353.389 265.089 353.389 267.035C353.389 269.097 352.895 270.913 351.907 272.481C350.92 274.079 349.569 275.314 347.855 276.185C346.141 277.057 344.195 277.492 342.016 277.492ZM363.441 252.83C362.105 252.83 360.9 252.54 359.825 251.959C358.75 251.349 357.879 250.55 357.21 249.562C356.571 248.546 356.252 247.427 356.252 246.207C356.252 244.987 356.571 243.883 357.21 242.896C357.879 241.879 358.75 241.08 359.825 240.499C360.9 239.918 362.105 239.628 363.441 239.628C364.778 239.628 365.983 239.918 367.058 240.499C368.162 241.08 369.033 241.879 369.672 242.896C370.311 243.883 370.631 244.987 370.631 246.207C370.631 247.427 370.311 248.546 369.672 249.562C369.033 250.55 368.162 251.349 367.058 251.959C365.983 252.54 364.778 252.83 363.441 252.83ZM363.441 249.911C364.022 249.911 364.545 249.737 365.01 249.388C365.475 249.04 365.838 248.589 366.099 248.037C366.39 247.485 366.535 246.89 366.535 246.251C366.535 245.554 366.39 244.929 366.099 244.377C365.809 243.825 365.431 243.39 364.966 243.07C364.502 242.722 363.993 242.547 363.441 242.547C362.86 242.547 362.338 242.722 361.873 243.07C361.408 243.39 361.03 243.825 360.74 244.377C360.478 244.929 360.348 245.539 360.348 246.207C360.348 246.875 360.493 247.5 360.783 248.081C361.074 248.633 361.452 249.083 361.916 249.432C362.381 249.751 362.889 249.911 363.441 249.911ZM380.26 271.436C378.924 271.436 377.719 271.145 376.644 270.564C375.569 269.983 374.698 269.199 374.029 268.211C373.39 267.195 373.071 266.076 373.071 264.856C373.071 263.607 373.39 262.489 374.029 261.501C374.698 260.514 375.569 259.729 376.644 259.148C377.719 258.538 378.924 258.233 380.26 258.233C381.596 258.233 382.802 258.538 383.877 259.148C384.981 259.729 385.852 260.514 386.491 261.501C387.13 262.489 387.45 263.593 387.45 264.813C387.45 266.033 387.13 267.151 386.491 268.168C385.852 269.155 384.981 269.954 383.877 270.564C382.802 271.145 381.596 271.436 380.26 271.436ZM380.26 268.516C380.841 268.516 381.364 268.342 381.829 267.994C382.294 267.645 382.657 267.195 382.918 266.643C383.209 266.091 383.354 265.495 383.354 264.856C383.354 264.159 383.209 263.535 382.918 262.983C382.657 262.431 382.279 261.995 381.785 261.676C381.321 261.327 380.812 261.153 380.26 261.153C379.708 261.153 379.185 261.327 378.692 261.676C378.227 261.995 377.849 262.445 377.559 263.026C377.297 263.578 377.167 264.174 377.167 264.813C377.167 265.51 377.312 266.134 377.602 266.686C377.893 267.238 378.27 267.689 378.735 268.037C379.2 268.357 379.708 268.516 380.26 268.516ZM358.736 268.952L370.979 254.617L382.308 239.715L384.966 242.068L373.027 256.185L361.35 271.305L358.736 268.952Z" fill="#0B132A"/>
<path d="M75.8848 270.067C75.5853 270.419 75.2419 270.679 74.8545 270.849C74.4671 271.018 74.0423 271.101 73.5801 271.098C73.2871 271.094 73.0169 271.05 72.7695 270.966C72.5254 270.878 72.3057 270.759 72.1104 270.609C71.915 270.456 71.7441 270.277 71.5977 270.072C71.4512 269.867 71.3275 269.646 71.2266 269.408C71.1289 269.167 71.054 268.917 71.002 268.656C70.9531 268.393 70.9271 268.127 70.9238 267.86V267.035C70.9271 266.771 70.9499 266.509 70.9922 266.249C71.0378 265.985 71.1061 265.733 71.1973 265.492C71.2884 265.251 71.4023 265.028 71.5391 264.823C71.6758 264.615 71.8385 264.436 72.0273 264.286C72.2194 264.133 72.4359 264.013 72.6768 263.925C72.9176 263.837 73.1878 263.793 73.4873 263.793C73.8193 263.793 74.1253 263.845 74.4053 263.949C74.6852 264.05 74.9294 264.197 75.1377 264.389C75.346 264.577 75.5137 264.807 75.6406 265.077C75.7676 265.344 75.8457 265.644 75.875 265.976H74.9814C74.9456 265.771 74.8903 265.582 74.8154 265.409C74.7406 265.233 74.6413 265.084 74.5176 264.96C74.3971 264.836 74.2523 264.74 74.083 264.672C73.9137 264.6 73.7168 264.564 73.4922 264.564C73.2773 264.564 73.0869 264.602 72.9209 264.677C72.7549 264.748 72.61 264.846 72.4863 264.97C72.3626 265.093 72.2601 265.238 72.1787 265.404C72.0973 265.567 72.0306 265.74 71.9785 265.922C71.9264 266.104 71.889 266.29 71.8662 266.479C71.8434 266.667 71.832 266.85 71.832 267.025V267.86C71.8353 268.039 71.8499 268.225 71.876 268.417C71.9053 268.606 71.9492 268.791 72.0078 268.974C72.0664 269.156 72.1413 269.328 72.2324 269.491C72.3236 269.654 72.4326 269.797 72.5596 269.921C72.6898 270.045 72.8395 270.144 73.0088 270.219C73.1781 270.29 73.3701 270.328 73.585 270.331C73.7087 270.334 73.8372 270.329 73.9707 270.316C74.1074 270.303 74.2393 270.277 74.3662 270.238C74.4932 270.199 74.612 270.147 74.7227 270.082C74.8333 270.014 74.9261 269.926 75.001 269.818L75.0107 268.222H73.5654V267.46H75.8701L75.8848 270.067ZM77.4326 263.5H80.1328V270.219H81.8564V271H77.4326V270.219H79.2295V264.286H77.4326V263.5ZM83.043 268.31C83.043 267.929 83.0983 267.576 83.209 267.25C83.3197 266.921 83.4775 266.636 83.6826 266.396C83.891 266.155 84.1432 265.966 84.4395 265.829C84.7357 265.689 85.0693 265.619 85.4404 265.619C85.8148 265.619 86.1501 265.689 86.4463 265.829C86.7458 265.966 86.998 266.155 87.2031 266.396C87.4115 266.636 87.571 266.921 87.6816 267.25C87.7923 267.576 87.8477 267.929 87.8477 268.31V268.417C87.8477 268.798 87.7923 269.151 87.6816 269.477C87.571 269.802 87.4115 270.085 87.2031 270.326C86.998 270.567 86.7474 270.756 86.4512 270.893C86.1549 271.029 85.8213 271.098 85.4502 271.098C85.0758 271.098 84.7389 271.029 84.4395 270.893C84.1432 270.756 83.891 270.567 83.6826 270.326C83.4775 270.085 83.3197 269.802 83.209 269.477C83.0983 269.151 83.043 268.798 83.043 268.417V268.31ZM83.9463 268.417C83.9463 268.677 83.9772 268.926 84.0391 269.164C84.1009 269.398 84.1937 269.605 84.3174 269.784C84.4443 269.963 84.6022 270.105 84.791 270.209C84.9798 270.313 85.1995 270.365 85.4502 270.365C85.6976 270.365 85.9141 270.313 86.0996 270.209C86.2884 270.105 86.4447 269.963 86.5684 269.784C86.6953 269.605 86.7897 269.398 86.8516 269.164C86.9134 268.926 86.9443 268.677 86.9443 268.417V268.31C86.9443 268.052 86.9118 267.807 86.8467 267.572C86.7848 267.335 86.6904 267.126 86.5635 266.947C86.4398 266.768 86.2835 266.627 86.0947 266.522C85.9092 266.415 85.6911 266.361 85.4404 266.361C85.1898 266.361 84.9717 266.415 84.7861 266.522C84.6006 266.627 84.4443 266.768 84.3174 266.947C84.1937 267.126 84.1009 267.335 84.0391 267.572C83.9772 267.807 83.9463 268.052 83.9463 268.31V268.417ZM93.7803 268.417C93.7803 268.795 93.7347 269.148 93.6436 269.477C93.5524 269.802 93.4189 270.085 93.2432 270.326C93.0674 270.567 92.8493 270.756 92.5889 270.893C92.3317 271.029 92.0355 271.098 91.7002 271.098C91.3617 271.098 91.0671 271.037 90.8164 270.917C90.569 270.797 90.3574 270.624 90.1816 270.399L90.1377 271H89.3076V263.5H90.2109V266.283C90.3835 266.068 90.5918 265.904 90.8359 265.79C91.0801 265.676 91.3649 265.619 91.6904 265.619C92.029 265.619 92.3285 265.686 92.5889 265.819C92.8493 265.953 93.0674 266.138 93.2432 266.376C93.4189 266.614 93.5524 266.898 93.6436 267.23C93.7347 267.559 93.7803 267.921 93.7803 268.314V268.417ZM92.877 268.314C92.877 268.057 92.8509 267.813 92.7988 267.582C92.75 267.348 92.6702 267.143 92.5596 266.967C92.4489 266.788 92.304 266.646 92.125 266.542C91.946 266.438 91.7262 266.386 91.4658 266.386C91.3096 266.386 91.1663 266.407 91.0361 266.449C90.9059 266.488 90.7887 266.545 90.6846 266.62C90.5837 266.692 90.4925 266.778 90.4111 266.879C90.333 266.977 90.2663 267.084 90.2109 267.201V269.511C90.2695 269.628 90.3379 269.737 90.416 269.838C90.4974 269.936 90.5902 270.022 90.6943 270.097C90.7985 270.172 90.9157 270.23 91.0459 270.272C91.1761 270.312 91.3193 270.331 91.4756 270.331C91.723 270.331 91.9346 270.281 92.1104 270.18C92.2894 270.076 92.4342 269.936 92.5449 269.76C92.6589 269.584 92.7419 269.381 92.7939 269.149C92.8493 268.918 92.877 268.674 92.877 268.417V268.314ZM98.7803 271C98.7445 270.932 98.7152 270.847 98.6924 270.746C98.6729 270.642 98.6582 270.535 98.6484 270.424C98.5573 270.515 98.4548 270.601 98.3408 270.683C98.2301 270.764 98.1064 270.836 97.9697 270.897C97.8363 270.959 97.693 271.008 97.54 271.044C97.387 271.08 97.2243 271.098 97.0518 271.098C96.7718 271.098 96.5179 271.057 96.29 270.976C96.0654 270.894 95.8734 270.785 95.7139 270.648C95.5576 270.508 95.4355 270.344 95.3477 270.155C95.263 269.963 95.2207 269.757 95.2207 269.535C95.2207 269.245 95.2777 268.992 95.3916 268.773C95.5088 268.555 95.6732 268.375 95.8848 268.231C96.0964 268.085 96.3503 267.976 96.6465 267.904C96.946 267.833 97.2796 267.797 97.6475 267.797H98.6338V267.382C98.6338 267.222 98.6045 267.079 98.5459 266.952C98.4873 266.825 98.4043 266.718 98.2969 266.63C98.1895 266.539 98.0576 266.469 97.9014 266.42C97.7484 266.371 97.5758 266.347 97.3838 266.347C97.2048 266.347 97.0436 266.369 96.9004 266.415C96.7604 266.461 96.6416 266.521 96.5439 266.596C96.4463 266.671 96.3698 266.76 96.3145 266.864C96.2624 266.965 96.2363 267.071 96.2363 267.182H95.3281C95.3314 266.99 95.3802 266.801 95.4746 266.615C95.5723 266.43 95.7106 266.264 95.8896 266.117C96.0719 265.967 96.2917 265.847 96.5488 265.756C96.8092 265.665 97.1038 265.619 97.4326 265.619C97.7321 265.619 98.0104 265.657 98.2676 265.731C98.5247 265.803 98.7461 265.914 98.9316 266.063C99.1204 266.21 99.2686 266.394 99.376 266.615C99.4834 266.837 99.5371 267.095 99.5371 267.392V269.848C99.5371 270.023 99.5534 270.211 99.5859 270.409C99.6185 270.604 99.6641 270.775 99.7227 270.922V271H98.7803ZM97.1836 270.312C97.3594 270.312 97.5238 270.289 97.6768 270.243C97.8298 270.198 97.9681 270.137 98.0918 270.062C98.2188 269.988 98.3278 269.903 98.4189 269.809C98.5101 269.711 98.5817 269.61 98.6338 269.506V268.437H97.7939C97.2666 268.437 96.8564 268.515 96.5635 268.671C96.2705 268.827 96.124 269.073 96.124 269.408C96.124 269.538 96.1452 269.659 96.1875 269.77C96.2331 269.88 96.2998 269.976 96.3877 270.058C96.4756 270.136 96.5863 270.198 96.7197 270.243C96.8532 270.289 97.0078 270.312 97.1836 270.312ZM101.456 263.5H104.156V270.219H105.88V271H101.456V270.219H103.253V264.286H101.456V263.5ZM117.931 268.861C117.888 269.19 117.804 269.493 117.677 269.77C117.55 270.043 117.384 270.279 117.179 270.478C116.977 270.673 116.736 270.826 116.456 270.937C116.179 271.044 115.87 271.098 115.528 271.098C115.235 271.098 114.968 271.057 114.728 270.976C114.49 270.891 114.277 270.775 114.088 270.629C113.902 270.482 113.741 270.31 113.604 270.111C113.471 269.913 113.359 269.696 113.268 269.462C113.18 269.228 113.113 268.982 113.067 268.725C113.025 268.467 113.002 268.207 112.999 267.943V266.952C113.002 266.688 113.025 266.428 113.067 266.171C113.113 265.914 113.18 265.668 113.268 265.434C113.359 265.199 113.471 264.983 113.604 264.784C113.741 264.582 113.902 264.408 114.088 264.262C114.277 264.115 114.49 264.001 114.728 263.92C114.965 263.835 115.232 263.793 115.528 263.793C115.883 263.793 116.201 263.848 116.48 263.959C116.76 264.066 117.001 264.221 117.203 264.423C117.405 264.621 117.566 264.861 117.687 265.141C117.81 265.421 117.892 265.73 117.931 266.068H117.027C116.998 265.854 116.948 265.653 116.876 265.468C116.804 265.282 116.708 265.119 116.588 264.979C116.467 264.84 116.319 264.73 116.144 264.652C115.971 264.571 115.766 264.53 115.528 264.53C115.313 264.53 115.123 264.566 114.957 264.638C114.794 264.706 114.653 264.8 114.532 264.921C114.415 265.041 114.316 265.181 114.234 265.341C114.156 265.5 114.093 265.67 114.044 265.849C113.995 266.028 113.959 266.212 113.937 266.4C113.917 266.586 113.907 266.767 113.907 266.942V267.943C113.907 268.119 113.917 268.301 113.937 268.49C113.959 268.676 113.995 268.86 114.044 269.042C114.093 269.221 114.156 269.39 114.234 269.55C114.312 269.709 114.412 269.851 114.532 269.975C114.653 270.095 114.794 270.191 114.957 270.263C115.12 270.331 115.31 270.365 115.528 270.365C115.766 270.365 115.971 270.328 116.144 270.253C116.319 270.178 116.467 270.074 116.588 269.94C116.708 269.804 116.804 269.644 116.876 269.462C116.948 269.276 116.998 269.076 117.027 268.861H117.931ZM119.078 268.31C119.078 267.929 119.133 267.576 119.244 267.25C119.355 266.921 119.513 266.636 119.718 266.396C119.926 266.155 120.178 265.966 120.475 265.829C120.771 265.689 121.104 265.619 121.476 265.619C121.85 265.619 122.185 265.689 122.481 265.829C122.781 265.966 123.033 266.155 123.238 266.396C123.447 266.636 123.606 266.921 123.717 267.25C123.827 267.576 123.883 267.929 123.883 268.31V268.417C123.883 268.798 123.827 269.151 123.717 269.477C123.606 269.802 123.447 270.085 123.238 270.326C123.033 270.567 122.783 270.756 122.486 270.893C122.19 271.029 121.856 271.098 121.485 271.098C121.111 271.098 120.774 271.029 120.475 270.893C120.178 270.756 119.926 270.567 119.718 270.326C119.513 270.085 119.355 269.802 119.244 269.477C119.133 269.151 119.078 268.798 119.078 268.417V268.31ZM119.981 268.417C119.981 268.677 120.012 268.926 120.074 269.164C120.136 269.398 120.229 269.605 120.353 269.784C120.479 269.963 120.637 270.105 120.826 270.209C121.015 270.313 121.235 270.365 121.485 270.365C121.733 270.365 121.949 270.313 122.135 270.209C122.324 270.105 122.48 269.963 122.604 269.784C122.73 269.605 122.825 269.398 122.887 269.164C122.949 268.926 122.979 268.677 122.979 268.417V268.31C122.979 268.052 122.947 267.807 122.882 267.572C122.82 267.335 122.726 267.126 122.599 266.947C122.475 266.768 122.319 266.627 122.13 266.522C121.944 266.415 121.726 266.361 121.476 266.361C121.225 266.361 121.007 266.415 120.821 266.522C120.636 266.627 120.479 266.768 120.353 266.947C120.229 267.126 120.136 267.335 120.074 267.572C120.012 267.807 119.981 268.052 119.981 268.31V268.417ZM125.753 265.717L125.777 266.215C125.885 266.029 126.025 265.884 126.197 265.78C126.373 265.676 126.585 265.622 126.832 265.619C127.317 265.619 127.641 265.808 127.804 266.186C127.908 266.016 128.045 265.881 128.214 265.78C128.386 265.676 128.595 265.622 128.839 265.619C129.226 265.619 129.524 265.738 129.732 265.976C129.941 266.213 130.045 266.573 130.045 267.055V271H129.186V267.045C129.186 266.602 128.982 266.382 128.575 266.386C128.468 266.386 128.375 266.4 128.297 266.43C128.219 266.459 128.154 266.5 128.102 266.552C128.049 266.601 128.009 266.659 127.979 266.728C127.95 266.793 127.931 266.861 127.921 266.933V271H127.062V267.04C127.062 266.828 127.014 266.666 126.92 266.552C126.826 266.438 126.676 266.382 126.471 266.386C126.282 266.386 126.135 266.423 126.031 266.498C125.927 266.573 125.851 266.672 125.802 266.796V271H124.942V265.717H125.753ZM135.802 268.417C135.802 268.795 135.756 269.148 135.665 269.477C135.574 269.802 135.44 270.085 135.265 270.326C135.089 270.567 134.871 270.756 134.61 270.893C134.353 271.029 134.059 271.098 133.727 271.098C133.404 271.098 133.119 271.046 132.872 270.941C132.628 270.837 132.418 270.688 132.242 270.492V273.031H131.339V265.717H132.164L132.208 266.293C132.384 266.075 132.595 265.909 132.843 265.795C133.093 265.678 133.383 265.619 133.712 265.619C134.05 265.619 134.35 265.686 134.61 265.819C134.871 265.953 135.089 266.138 135.265 266.376C135.44 266.614 135.574 266.898 135.665 267.23C135.756 267.559 135.802 267.921 135.802 268.314V268.417ZM134.898 268.314C134.898 268.057 134.869 267.813 134.811 267.582C134.755 267.348 134.667 267.143 134.547 266.967C134.43 266.788 134.28 266.646 134.098 266.542C133.915 266.438 133.697 266.386 133.443 266.386C133.154 266.386 132.91 266.454 132.711 266.591C132.516 266.724 132.359 266.897 132.242 267.108V269.652C132.359 269.861 132.516 270.032 132.711 270.165C132.906 270.295 133.154 270.36 133.453 270.36C133.704 270.36 133.92 270.308 134.103 270.204C134.285 270.097 134.435 269.953 134.552 269.774C134.669 269.595 134.755 269.389 134.811 269.154C134.869 268.92 134.898 268.674 134.898 268.417V268.314ZM139.684 271.098C139.312 271.098 138.971 271.034 138.658 270.907C138.349 270.78 138.084 270.603 137.862 270.375C137.641 270.147 137.468 269.877 137.345 269.564C137.221 269.252 137.159 268.912 137.159 268.544V268.339C137.159 267.912 137.228 267.532 137.364 267.196C137.501 266.858 137.682 266.573 137.906 266.342C138.134 266.107 138.391 265.928 138.678 265.805C138.967 265.681 139.264 265.619 139.566 265.619C139.947 265.619 140.279 265.686 140.562 265.819C140.849 265.95 141.087 266.132 141.275 266.366C141.464 266.597 141.604 266.871 141.695 267.187C141.79 267.502 141.837 267.844 141.837 268.212V268.617H138.062C138.072 268.858 138.118 269.084 138.199 269.296C138.284 269.507 138.398 269.693 138.541 269.853C138.688 270.009 138.862 270.132 139.063 270.224C139.265 270.315 139.488 270.36 139.732 270.36C140.055 270.36 140.341 270.295 140.592 270.165C140.842 270.035 141.051 269.862 141.217 269.647L141.769 270.077C141.681 270.211 141.57 270.339 141.437 270.463C141.306 270.583 141.155 270.691 140.982 270.785C140.81 270.88 140.615 270.954 140.396 271.01C140.178 271.068 139.941 271.098 139.684 271.098ZM139.566 266.361C139.384 266.361 139.212 266.396 139.049 266.464C138.886 266.529 138.74 266.627 138.609 266.757C138.479 266.884 138.368 267.042 138.277 267.23C138.189 267.416 138.128 267.631 138.092 267.875H140.934V267.807C140.924 267.631 140.89 267.457 140.831 267.284C140.776 267.112 140.693 266.957 140.582 266.82C140.471 266.684 140.331 266.573 140.162 266.488C139.996 266.404 139.798 266.361 139.566 266.361ZM145.494 264.438V265.717H147.506V266.415H145.494V269.286C145.494 269.491 145.52 269.66 145.572 269.794C145.624 269.927 145.696 270.035 145.787 270.116C145.878 270.194 145.982 270.25 146.1 270.282C146.22 270.315 146.347 270.331 146.48 270.331C146.578 270.331 146.679 270.326 146.783 270.316C146.887 270.303 146.988 270.289 147.086 270.272C147.187 270.256 147.28 270.24 147.364 270.224C147.452 270.204 147.524 270.188 147.579 270.175L147.706 270.814C147.631 270.86 147.54 270.901 147.433 270.937C147.325 270.969 147.208 270.997 147.081 271.02C146.954 271.046 146.819 271.065 146.676 271.078C146.536 271.091 146.396 271.098 146.256 271.098C146.021 271.098 145.802 271.065 145.597 271C145.395 270.932 145.219 270.826 145.069 270.683C144.92 270.536 144.801 270.349 144.713 270.121C144.628 269.89 144.586 269.612 144.586 269.286V266.415H143.199V265.717H144.586V264.438H145.494ZM149.503 265.717H152.203V270.219H153.927V271H149.503V270.219H151.3V266.503H149.503V265.717ZM151.183 264.33C151.183 264.18 151.227 264.055 151.314 263.954C151.406 263.85 151.542 263.798 151.725 263.798C151.904 263.798 152.039 263.85 152.13 263.954C152.221 264.055 152.267 264.18 152.267 264.33C152.267 264.477 152.221 264.599 152.13 264.696C152.039 264.794 151.904 264.843 151.725 264.843C151.542 264.843 151.406 264.794 151.314 264.696C151.227 264.599 151.183 264.477 151.183 264.33ZM157.506 264.438V265.717H159.518V266.415H157.506V269.286C157.506 269.491 157.532 269.66 157.584 269.794C157.636 269.927 157.708 270.035 157.799 270.116C157.89 270.194 157.994 270.25 158.111 270.282C158.232 270.315 158.359 270.331 158.492 270.331C158.59 270.331 158.691 270.326 158.795 270.316C158.899 270.303 159 270.289 159.098 270.272C159.199 270.256 159.291 270.24 159.376 270.224C159.464 270.204 159.535 270.188 159.591 270.175L159.718 270.814C159.643 270.86 159.552 270.901 159.444 270.937C159.337 270.969 159.22 270.997 159.093 271.02C158.966 271.046 158.831 271.065 158.688 271.078C158.548 271.091 158.408 271.098 158.268 271.098C158.033 271.098 157.813 271.065 157.608 271C157.407 270.932 157.231 270.826 157.081 270.683C156.931 270.536 156.812 270.349 156.725 270.121C156.64 269.89 156.598 269.612 156.598 269.286V266.415H155.211V265.717H156.598V264.438H157.506ZM161.515 265.717H164.215V270.219H165.938V271H161.515V270.219H163.312V266.503H161.515V265.717ZM163.194 264.33C163.194 264.18 163.238 264.055 163.326 263.954C163.417 263.85 163.554 263.798 163.736 263.798C163.915 263.798 164.05 263.85 164.142 263.954C164.233 264.055 164.278 264.18 164.278 264.33C164.278 264.477 164.233 264.599 164.142 264.696C164.05 264.794 163.915 264.843 163.736 264.843C163.554 264.843 163.417 264.794 163.326 264.696C163.238 264.599 163.194 264.477 163.194 264.33ZM169.449 269.701L169.532 270.028L169.62 269.701L171.1 265.717H172.022L169.869 271H169.181L167.008 265.717H167.936L169.449 269.701ZM175.719 271.098C175.348 271.098 175.006 271.034 174.693 270.907C174.384 270.78 174.119 270.603 173.897 270.375C173.676 270.147 173.504 269.877 173.38 269.564C173.256 269.252 173.194 268.912 173.194 268.544V268.339C173.194 267.912 173.263 267.532 173.399 267.196C173.536 266.858 173.717 266.573 173.941 266.342C174.169 266.107 174.426 265.928 174.713 265.805C175.003 265.681 175.299 265.619 175.602 265.619C175.982 265.619 176.314 265.686 176.598 265.819C176.884 265.95 177.122 266.132 177.311 266.366C177.499 266.597 177.639 266.871 177.73 267.187C177.825 267.502 177.872 267.844 177.872 268.212V268.617H174.098C174.107 268.858 174.153 269.084 174.234 269.296C174.319 269.507 174.433 269.693 174.576 269.853C174.723 270.009 174.897 270.132 175.099 270.224C175.3 270.315 175.523 270.36 175.768 270.36C176.09 270.36 176.376 270.295 176.627 270.165C176.878 270.035 177.086 269.862 177.252 269.647L177.804 270.077C177.716 270.211 177.605 270.339 177.472 270.463C177.341 270.583 177.19 270.691 177.018 270.785C176.845 270.88 176.65 270.954 176.432 271.01C176.214 271.068 175.976 271.098 175.719 271.098ZM175.602 266.361C175.419 266.361 175.247 266.396 175.084 266.464C174.921 266.529 174.775 266.627 174.645 266.757C174.514 266.884 174.404 267.042 174.312 267.23C174.225 267.416 174.163 267.631 174.127 267.875H176.969V267.807C176.959 267.631 176.925 267.457 176.866 267.284C176.811 267.112 176.728 266.957 176.617 266.82C176.507 266.684 176.367 266.573 176.197 266.488C176.031 266.404 175.833 266.361 175.602 266.361ZM180.201 265.717L180.265 266.498C180.457 266.225 180.693 266.011 180.973 265.858C181.253 265.702 181.565 265.622 181.91 265.619C182.187 265.619 182.438 265.658 182.662 265.736C182.89 265.814 183.084 265.937 183.243 266.103C183.403 266.269 183.525 266.48 183.609 266.737C183.697 266.991 183.741 267.294 183.741 267.646V271H182.838V267.665C182.838 267.431 182.812 267.232 182.76 267.069C182.708 266.907 182.63 266.775 182.525 266.674C182.424 266.573 182.299 266.5 182.149 266.454C182.003 266.409 181.834 266.386 181.642 266.386C181.339 266.386 181.072 266.462 180.841 266.615C180.613 266.765 180.431 266.964 180.294 267.211V271H179.391V265.717H180.201ZM187.73 271.098C187.359 271.098 187.018 271.034 186.705 270.907C186.396 270.78 186.131 270.603 185.909 270.375C185.688 270.147 185.515 269.877 185.392 269.564C185.268 269.252 185.206 268.912 185.206 268.544V268.339C185.206 267.912 185.274 267.532 185.411 267.196C185.548 266.858 185.729 266.573 185.953 266.342C186.181 266.107 186.438 265.928 186.725 265.805C187.014 265.681 187.311 265.619 187.613 265.619C187.994 265.619 188.326 265.686 188.609 265.819C188.896 265.95 189.133 266.132 189.322 266.366C189.511 266.597 189.651 266.871 189.742 267.187C189.837 267.502 189.884 267.844 189.884 268.212V268.617H186.109C186.119 268.858 186.165 269.084 186.246 269.296C186.331 269.507 186.445 269.693 186.588 269.853C186.734 270.009 186.909 270.132 187.11 270.224C187.312 270.315 187.535 270.36 187.779 270.36C188.102 270.36 188.388 270.295 188.639 270.165C188.889 270.035 189.098 269.862 189.264 269.647L189.815 270.077C189.728 270.211 189.617 270.339 189.483 270.463C189.353 270.583 189.202 270.691 189.029 270.785C188.857 270.88 188.661 270.954 188.443 271.01C188.225 271.068 187.988 271.098 187.73 271.098ZM187.613 266.361C187.431 266.361 187.258 266.396 187.096 266.464C186.933 266.529 186.786 266.627 186.656 266.757C186.526 266.884 186.415 267.042 186.324 267.23C186.236 267.416 186.174 267.631 186.139 267.875H188.98V267.807C188.971 267.631 188.937 267.457 188.878 267.284C188.823 267.112 188.74 266.957 188.629 266.82C188.518 266.684 188.378 266.573 188.209 266.488C188.043 266.404 187.844 266.361 187.613 266.361ZM194.913 269.599C194.913 269.491 194.892 269.395 194.85 269.311C194.807 269.223 194.736 269.143 194.635 269.071C194.534 269 194.4 268.935 194.234 268.876C194.068 268.814 193.862 268.759 193.614 268.71C193.312 268.648 193.035 268.573 192.784 268.485C192.537 268.397 192.324 268.293 192.145 268.173C191.969 268.049 191.832 267.906 191.734 267.743C191.637 267.577 191.588 267.385 191.588 267.167C191.588 266.952 191.638 266.752 191.739 266.566C191.84 266.378 191.982 266.213 192.164 266.073C192.346 265.933 192.563 265.823 192.813 265.741C193.067 265.66 193.346 265.619 193.648 265.619C193.974 265.619 194.267 265.661 194.527 265.746C194.788 265.831 195.009 265.948 195.191 266.098C195.374 266.247 195.514 266.423 195.611 266.625C195.712 266.824 195.763 267.038 195.763 267.27H194.859C194.859 267.156 194.83 267.045 194.771 266.938C194.713 266.827 194.632 266.729 194.527 266.645C194.423 266.56 194.296 266.492 194.146 266.439C194 266.387 193.834 266.361 193.648 266.361C193.456 266.361 193.287 266.382 193.141 266.425C192.997 266.467 192.877 266.524 192.779 266.596C192.685 266.667 192.613 266.75 192.564 266.845C192.516 266.939 192.491 267.037 192.491 267.138C192.491 267.242 192.511 267.335 192.55 267.416C192.589 267.497 192.656 267.571 192.75 267.636C192.848 267.701 192.976 267.759 193.136 267.812C193.299 267.864 193.504 267.914 193.751 267.963C194.076 268.031 194.368 268.111 194.625 268.202C194.882 268.29 195.099 268.397 195.274 268.524C195.45 268.648 195.584 268.793 195.675 268.959C195.769 269.125 195.816 269.317 195.816 269.535C195.816 269.77 195.763 269.983 195.655 270.175C195.551 270.367 195.405 270.531 195.216 270.668C195.027 270.805 194.801 270.91 194.537 270.985C194.273 271.06 193.985 271.098 193.673 271.098C193.315 271.098 192.996 271.05 192.716 270.956C192.436 270.858 192.198 270.731 192.003 270.575C191.811 270.416 191.663 270.232 191.559 270.023C191.458 269.815 191.407 269.599 191.407 269.374H192.311C192.324 269.56 192.372 269.716 192.457 269.843C192.545 269.97 192.652 270.072 192.779 270.15C192.91 270.229 193.053 270.284 193.209 270.316C193.365 270.349 193.52 270.365 193.673 270.365C194.054 270.365 194.355 270.295 194.576 270.155C194.798 270.015 194.91 269.83 194.913 269.599ZM200.919 269.599C200.919 269.491 200.898 269.395 200.855 269.311C200.813 269.223 200.742 269.143 200.641 269.071C200.54 269 200.406 268.935 200.24 268.876C200.074 268.814 199.868 268.759 199.62 268.71C199.317 268.648 199.041 268.573 198.79 268.485C198.543 268.397 198.329 268.293 198.15 268.173C197.975 268.049 197.838 267.906 197.74 267.743C197.643 267.577 197.594 267.385 197.594 267.167C197.594 266.952 197.644 266.752 197.745 266.566C197.846 266.378 197.988 266.213 198.17 266.073C198.352 265.933 198.569 265.823 198.819 265.741C199.073 265.66 199.352 265.619 199.654 265.619C199.98 265.619 200.273 265.661 200.533 265.746C200.794 265.831 201.015 265.948 201.197 266.098C201.38 266.247 201.52 266.423 201.617 266.625C201.718 266.824 201.769 267.038 201.769 267.27H200.865C200.865 267.156 200.836 267.045 200.777 266.938C200.719 266.827 200.637 266.729 200.533 266.645C200.429 266.56 200.302 266.492 200.152 266.439C200.006 266.387 199.84 266.361 199.654 266.361C199.462 266.361 199.293 266.382 199.146 266.425C199.003 266.467 198.883 266.524 198.785 266.596C198.691 266.667 198.619 266.75 198.57 266.845C198.521 266.939 198.497 267.037 198.497 267.138C198.497 267.242 198.517 267.335 198.556 267.416C198.595 267.497 198.661 267.571 198.756 267.636C198.854 267.701 198.982 267.759 199.142 267.812C199.304 267.864 199.509 267.914 199.757 267.963C200.082 268.031 200.374 268.111 200.631 268.202C200.888 268.29 201.104 268.397 201.28 268.524C201.456 268.648 201.59 268.793 201.681 268.959C201.775 269.125 201.822 269.317 201.822 269.535C201.822 269.77 201.769 269.983 201.661 270.175C201.557 270.367 201.41 270.531 201.222 270.668C201.033 270.805 200.807 270.91 200.543 270.985C200.279 271.06 199.991 271.098 199.679 271.098C199.321 271.098 199.002 271.05 198.722 270.956C198.442 270.858 198.204 270.731 198.009 270.575C197.817 270.416 197.669 270.232 197.564 270.023C197.464 269.815 197.413 269.599 197.413 269.374H198.316C198.329 269.56 198.378 269.716 198.463 269.843C198.551 269.97 198.658 270.072 198.785 270.15C198.915 270.229 199.059 270.284 199.215 270.316C199.371 270.349 199.526 270.365 199.679 270.365C200.06 270.365 200.361 270.295 200.582 270.155C200.803 270.015 200.916 269.83 200.919 269.599ZM68.2822 275.891H72.5791V276.677H70.875V282.219H72.5791V283H68.2822V282.219H69.9473V276.677H68.2822V275.891ZM75.0986 277.717L75.1621 278.498C75.3542 278.225 75.5902 278.011 75.8701 277.858C76.1501 277.702 76.4626 277.622 76.8076 277.619C77.0843 277.619 77.335 277.658 77.5596 277.736C77.7874 277.814 77.9811 277.937 78.1406 278.103C78.3001 278.269 78.4222 278.48 78.5068 278.737C78.5947 278.991 78.6387 279.294 78.6387 279.646V283H77.7354V279.665C77.7354 279.431 77.7093 279.232 77.6572 279.069C77.6051 278.907 77.527 278.775 77.4229 278.674C77.3219 278.573 77.1966 278.5 77.0469 278.454C76.9004 278.409 76.7311 278.386 76.5391 278.386C76.2363 278.386 75.9694 278.462 75.7383 278.615C75.5104 278.765 75.3281 278.964 75.1914 279.211V283H74.2881V277.717H75.0986ZM80.123 280.314C80.123 279.921 80.1719 279.559 80.2695 279.23C80.3704 278.898 80.512 278.614 80.6943 278.376C80.8799 278.138 81.1029 277.953 81.3633 277.819C81.6237 277.686 81.915 277.619 82.2373 277.619C82.5531 277.619 82.8281 277.673 83.0625 277.78C83.3001 277.884 83.5052 278.037 83.6777 278.239V275.5H84.5811V283H83.751L83.7119 282.443C83.5361 282.658 83.3262 282.821 83.082 282.932C82.8379 283.042 82.5531 283.098 82.2275 283.098C81.9085 283.098 81.6188 283.029 81.3584 282.893C81.1012 282.756 80.8815 282.567 80.6992 282.326C80.5169 282.085 80.3753 281.802 80.2744 281.477C80.1735 281.148 80.123 280.795 80.123 280.417V280.314ZM81.0264 280.417C81.0264 280.674 81.054 280.918 81.1094 281.149C81.1647 281.381 81.2493 281.584 81.3633 281.76C81.4805 281.936 81.6286 282.076 81.8076 282.18C81.9867 282.281 82.2015 282.331 82.4521 282.331C82.6051 282.331 82.7435 282.313 82.8672 282.277C82.9909 282.242 83.1032 282.191 83.2041 282.126C83.305 282.058 83.3945 281.978 83.4727 281.887C83.5508 281.792 83.6191 281.688 83.6777 281.574V279.123C83.5605 278.908 83.4027 278.732 83.2041 278.596C83.0055 278.456 82.7581 278.386 82.4619 278.386C82.208 278.386 81.9899 278.438 81.8076 278.542C81.6286 278.646 81.4805 278.788 81.3633 278.967C81.2493 279.143 81.1647 279.348 81.1094 279.582C81.054 279.813 81.0264 280.057 81.0264 280.314V280.417ZM88.6338 283.098C88.2627 283.098 87.9209 283.034 87.6084 282.907C87.2992 282.78 87.0339 282.603 86.8125 282.375C86.5911 282.147 86.4186 281.877 86.2949 281.564C86.1712 281.252 86.1094 280.912 86.1094 280.544V280.339C86.1094 279.912 86.1777 279.532 86.3145 279.196C86.4512 278.858 86.6318 278.573 86.8564 278.342C87.0843 278.107 87.3415 277.928 87.6279 277.805C87.9176 277.681 88.2139 277.619 88.5166 277.619C88.8975 277.619 89.2295 277.686 89.5127 277.819C89.7992 277.95 90.0368 278.132 90.2256 278.366C90.4144 278.597 90.5544 278.871 90.6455 279.187C90.7399 279.502 90.7871 279.844 90.7871 280.212V280.617H87.0127C87.0225 280.858 87.068 281.084 87.1494 281.296C87.234 281.507 87.348 281.693 87.4912 281.853C87.6377 282.009 87.8118 282.132 88.0137 282.224C88.2155 282.315 88.4385 282.36 88.6826 282.36C89.0049 282.36 89.2913 282.295 89.542 282.165C89.7926 282.035 90.001 281.862 90.167 281.647L90.7188 282.077C90.6309 282.211 90.5202 282.339 90.3867 282.463C90.2565 282.583 90.1051 282.691 89.9326 282.785C89.7601 282.88 89.5648 282.954 89.3467 283.01C89.1286 283.068 88.891 283.098 88.6338 283.098ZM88.5166 278.361C88.3343 278.361 88.1618 278.396 87.999 278.464C87.8363 278.529 87.6898 278.627 87.5596 278.757C87.4294 278.884 87.3187 279.042 87.2275 279.23C87.1396 279.416 87.0778 279.631 87.042 279.875H89.8838V279.807C89.874 279.631 89.8398 279.457 89.7812 279.284C89.7259 279.112 89.6429 278.957 89.5322 278.82C89.4215 278.684 89.2816 278.573 89.1123 278.488C88.9463 278.404 88.7477 278.361 88.5166 278.361ZM94.4883 279.675L95.8994 277.717H96.959L94.9912 280.329L97.0127 283H95.9678L94.5078 280.988L93.0479 283H91.9932L94.0146 280.329L92.0469 277.717H93.0918L94.4883 279.675ZM100.602 282.79C100.602 282.943 100.582 283.103 100.543 283.269C100.507 283.438 100.452 283.604 100.377 283.767C100.305 283.933 100.217 284.09 100.113 284.24C100.009 284.39 99.8887 284.523 99.752 284.641L99.1904 284.333C99.3467 284.105 99.4574 283.863 99.5225 283.605C99.5876 283.348 99.6201 283.081 99.6201 282.805V281.931H100.602V282.79ZM113.834 281.599C113.834 281.491 113.813 281.395 113.771 281.311C113.728 281.223 113.657 281.143 113.556 281.071C113.455 281 113.321 280.935 113.155 280.876C112.989 280.814 112.783 280.759 112.535 280.71C112.232 280.648 111.956 280.573 111.705 280.485C111.458 280.397 111.244 280.293 111.065 280.173C110.89 280.049 110.753 279.906 110.655 279.743C110.558 279.577 110.509 279.385 110.509 279.167C110.509 278.952 110.559 278.752 110.66 278.566C110.761 278.378 110.903 278.213 111.085 278.073C111.267 277.933 111.484 277.823 111.734 277.741C111.988 277.66 112.267 277.619 112.569 277.619C112.895 277.619 113.188 277.661 113.448 277.746C113.709 277.831 113.93 277.948 114.112 278.098C114.295 278.247 114.435 278.423 114.532 278.625C114.633 278.824 114.684 279.038 114.684 279.27H113.78C113.78 279.156 113.751 279.045 113.692 278.938C113.634 278.827 113.552 278.729 113.448 278.645C113.344 278.56 113.217 278.492 113.067 278.439C112.921 278.387 112.755 278.361 112.569 278.361C112.377 278.361 112.208 278.382 112.062 278.425C111.918 278.467 111.798 278.524 111.7 278.596C111.606 278.667 111.534 278.75 111.485 278.845C111.437 278.939 111.412 279.037 111.412 279.138C111.412 279.242 111.432 279.335 111.471 279.416C111.51 279.497 111.576 279.571 111.671 279.636C111.769 279.701 111.897 279.759 112.057 279.812C112.219 279.864 112.424 279.914 112.672 279.963C112.997 280.031 113.289 280.111 113.546 280.202C113.803 280.29 114.02 280.397 114.195 280.524C114.371 280.648 114.505 280.793 114.596 280.959C114.69 281.125 114.737 281.317 114.737 281.535C114.737 281.77 114.684 281.983 114.576 282.175C114.472 282.367 114.326 282.531 114.137 282.668C113.948 282.805 113.722 282.91 113.458 282.985C113.194 283.06 112.906 283.098 112.594 283.098C112.236 283.098 111.917 283.05 111.637 282.956C111.357 282.858 111.119 282.731 110.924 282.575C110.732 282.416 110.584 282.232 110.479 282.023C110.379 281.815 110.328 281.599 110.328 281.374H111.231C111.244 281.56 111.293 281.716 111.378 281.843C111.466 281.97 111.573 282.072 111.7 282.15C111.83 282.229 111.974 282.284 112.13 282.316C112.286 282.349 112.441 282.365 112.594 282.365C112.975 282.365 113.276 282.295 113.497 282.155C113.718 282.015 113.831 281.83 113.834 281.599ZM118.663 283.098C118.292 283.098 117.95 283.034 117.638 282.907C117.328 282.78 117.063 282.603 116.842 282.375C116.62 282.147 116.448 281.877 116.324 281.564C116.201 281.252 116.139 280.912 116.139 280.544V280.339C116.139 279.912 116.207 279.532 116.344 279.196C116.48 278.858 116.661 278.573 116.886 278.342C117.114 278.107 117.371 277.928 117.657 277.805C117.947 277.681 118.243 277.619 118.546 277.619C118.927 277.619 119.259 277.686 119.542 277.819C119.828 277.95 120.066 278.132 120.255 278.366C120.444 278.597 120.584 278.871 120.675 279.187C120.769 279.502 120.816 279.844 120.816 280.212V280.617H117.042C117.052 280.858 117.097 281.084 117.179 281.296C117.263 281.507 117.377 281.693 117.521 281.853C117.667 282.009 117.841 282.132 118.043 282.224C118.245 282.315 118.468 282.36 118.712 282.36C119.034 282.36 119.321 282.295 119.571 282.165C119.822 282.035 120.03 281.862 120.196 281.647L120.748 282.077C120.66 282.211 120.549 282.339 120.416 282.463C120.286 282.583 120.134 282.691 119.962 282.785C119.789 282.88 119.594 282.954 119.376 283.01C119.158 283.068 118.92 283.098 118.663 283.098ZM118.546 278.361C118.364 278.361 118.191 278.396 118.028 278.464C117.866 278.529 117.719 278.627 117.589 278.757C117.459 278.884 117.348 279.042 117.257 279.23C117.169 279.416 117.107 279.631 117.071 279.875H119.913V279.807C119.903 279.631 119.869 279.457 119.811 279.284C119.755 279.112 119.672 278.957 119.562 278.82C119.451 278.684 119.311 278.573 119.142 278.488C118.976 278.404 118.777 278.361 118.546 278.361ZM122.477 275.5H125.177V282.219H126.9V283H122.477V282.219H124.273V276.286H122.477V275.5ZM130.675 283.098C130.304 283.098 129.962 283.034 129.649 282.907C129.34 282.78 129.075 282.603 128.854 282.375C128.632 282.147 128.46 281.877 128.336 281.564C128.212 281.252 128.15 280.912 128.15 280.544V280.339C128.15 279.912 128.219 279.532 128.355 279.196C128.492 278.858 128.673 278.573 128.897 278.342C129.125 278.107 129.382 277.928 129.669 277.805C129.959 277.681 130.255 277.619 130.558 277.619C130.938 277.619 131.271 277.686 131.554 277.819C131.84 277.95 132.078 278.132 132.267 278.366C132.455 278.597 132.595 278.871 132.687 279.187C132.781 279.502 132.828 279.844 132.828 280.212V280.617H129.054C129.063 280.858 129.109 281.084 129.19 281.296C129.275 281.507 129.389 281.693 129.532 281.853C129.679 282.009 129.853 282.132 130.055 282.224C130.257 282.315 130.479 282.36 130.724 282.36C131.046 282.36 131.332 282.295 131.583 282.165C131.834 282.035 132.042 281.862 132.208 281.647L132.76 282.077C132.672 282.211 132.561 282.339 132.428 282.463C132.298 282.583 132.146 282.691 131.974 282.785C131.801 282.88 131.606 282.954 131.388 283.01C131.17 283.068 130.932 283.098 130.675 283.098ZM130.558 278.361C130.375 278.361 130.203 278.396 130.04 278.464C129.877 278.529 129.731 278.627 129.601 278.757C129.47 278.884 129.36 279.042 129.269 279.23C129.181 279.416 129.119 279.631 129.083 279.875H131.925V279.807C131.915 279.631 131.881 279.457 131.822 279.284C131.767 279.112 131.684 278.957 131.573 278.82C131.463 278.684 131.323 278.573 131.153 278.488C130.987 278.404 130.789 278.361 130.558 278.361ZM136.598 282.365C136.76 282.365 136.918 282.339 137.071 282.287C137.228 282.235 137.366 282.163 137.486 282.072C137.607 281.978 137.703 281.869 137.774 281.745C137.849 281.618 137.888 281.481 137.892 281.335H138.746C138.743 281.569 138.681 281.794 138.561 282.009C138.443 282.22 138.285 282.408 138.087 282.57C137.888 282.73 137.66 282.858 137.403 282.956C137.146 283.05 136.878 283.098 136.598 283.098C136.197 283.098 135.847 283.026 135.548 282.883C135.248 282.74 134.998 282.548 134.796 282.307C134.597 282.062 134.448 281.783 134.347 281.467C134.246 281.148 134.195 280.812 134.195 280.461V280.256C134.195 279.908 134.246 279.574 134.347 279.255C134.448 278.936 134.597 278.656 134.796 278.415C134.998 278.171 135.248 277.977 135.548 277.834C135.847 277.691 136.197 277.619 136.598 277.619C136.91 277.619 137.197 277.67 137.457 277.771C137.721 277.868 137.947 278.003 138.136 278.176C138.328 278.345 138.478 278.547 138.585 278.781C138.692 279.016 138.746 279.266 138.746 279.533H137.892C137.888 279.374 137.853 279.224 137.784 279.084C137.719 278.941 137.63 278.815 137.516 278.708C137.402 278.601 137.265 278.516 137.105 278.454C136.949 278.392 136.78 278.361 136.598 278.361C136.318 278.361 136.082 278.418 135.89 278.532C135.701 278.643 135.548 278.789 135.431 278.972C135.313 279.151 135.229 279.353 135.177 279.577C135.128 279.802 135.104 280.028 135.104 280.256V280.461C135.104 280.692 135.128 280.922 135.177 281.149C135.229 281.374 135.312 281.577 135.426 281.76C135.543 281.939 135.696 282.085 135.885 282.199C136.077 282.31 136.314 282.365 136.598 282.365ZM142.491 276.438V277.717H144.503V278.415H142.491V281.286C142.491 281.491 142.517 281.66 142.569 281.794C142.621 281.927 142.693 282.035 142.784 282.116C142.875 282.194 142.979 282.25 143.097 282.282C143.217 282.315 143.344 282.331 143.478 282.331C143.575 282.331 143.676 282.326 143.78 282.316C143.884 282.303 143.985 282.289 144.083 282.272C144.184 282.256 144.277 282.24 144.361 282.224C144.449 282.204 144.521 282.188 144.576 282.175L144.703 282.814C144.628 282.86 144.537 282.901 144.43 282.937C144.322 282.969 144.205 282.997 144.078 283.02C143.951 283.046 143.816 283.065 143.673 283.078C143.533 283.091 143.393 283.098 143.253 283.098C143.019 283.098 142.799 283.065 142.594 283C142.392 282.932 142.216 282.826 142.066 282.683C141.917 282.536 141.798 282.349 141.71 282.121C141.625 281.89 141.583 281.612 141.583 281.286V278.415H140.196V277.717H141.583V276.438H142.491ZM148.692 283.098C148.321 283.098 147.979 283.034 147.667 282.907C147.358 282.78 147.092 282.603 146.871 282.375C146.65 282.147 146.477 281.877 146.354 281.564C146.23 281.252 146.168 280.912 146.168 280.544V280.339C146.168 279.912 146.236 279.532 146.373 279.196C146.51 278.858 146.69 278.573 146.915 278.342C147.143 278.107 147.4 277.928 147.687 277.805C147.976 277.681 148.272 277.619 148.575 277.619C148.956 277.619 149.288 277.686 149.571 277.819C149.858 277.95 150.095 278.132 150.284 278.366C150.473 278.597 150.613 278.871 150.704 279.187C150.799 279.502 150.846 279.844 150.846 280.212V280.617H147.071C147.081 280.858 147.127 281.084 147.208 281.296C147.293 281.507 147.407 281.693 147.55 281.853C147.696 282.009 147.87 282.132 148.072 282.224C148.274 282.315 148.497 282.36 148.741 282.36C149.063 282.36 149.35 282.295 149.601 282.165C149.851 282.035 150.06 281.862 150.226 281.647L150.777 282.077C150.689 282.211 150.579 282.339 150.445 282.463C150.315 282.583 150.164 282.691 149.991 282.785C149.819 282.88 149.623 282.954 149.405 283.01C149.187 283.068 148.95 283.098 148.692 283.098ZM148.575 278.361C148.393 278.361 148.22 278.396 148.058 278.464C147.895 278.529 147.748 278.627 147.618 278.757C147.488 278.884 147.377 279.042 147.286 279.23C147.198 279.416 147.136 279.631 147.101 279.875H149.942V279.807C149.933 279.631 149.898 279.457 149.84 279.284C149.785 279.112 149.701 278.957 149.591 278.82C149.48 278.684 149.34 278.573 149.171 278.488C149.005 278.404 148.806 278.361 148.575 278.361ZM152.193 280.314C152.193 279.921 152.242 279.559 152.34 279.23C152.441 278.898 152.582 278.614 152.765 278.376C152.95 278.138 153.173 277.953 153.434 277.819C153.694 277.686 153.985 277.619 154.308 277.619C154.623 277.619 154.898 277.673 155.133 277.78C155.37 277.884 155.576 278.037 155.748 278.239V275.5H156.651V283H155.821L155.782 282.443C155.606 282.658 155.396 282.821 155.152 282.932C154.908 283.042 154.623 283.098 154.298 283.098C153.979 283.098 153.689 283.029 153.429 282.893C153.172 282.756 152.952 282.567 152.77 282.326C152.587 282.085 152.446 281.802 152.345 281.477C152.244 281.148 152.193 280.795 152.193 280.417V280.314ZM153.097 280.417C153.097 280.674 153.124 280.918 153.18 281.149C153.235 281.381 153.32 281.584 153.434 281.76C153.551 281.936 153.699 282.076 153.878 282.18C154.057 282.281 154.272 282.331 154.522 282.331C154.675 282.331 154.814 282.313 154.938 282.277C155.061 282.242 155.174 282.191 155.274 282.126C155.375 282.058 155.465 281.978 155.543 281.887C155.621 281.792 155.689 281.688 155.748 281.574V279.123C155.631 278.908 155.473 278.732 155.274 278.596C155.076 278.456 154.828 278.386 154.532 278.386C154.278 278.386 154.06 278.438 153.878 278.542C153.699 278.646 153.551 278.788 153.434 278.967C153.32 279.143 153.235 279.348 153.18 279.582C153.124 279.813 153.097 280.057 153.097 280.314V280.417ZM168.834 280.417C168.834 280.795 168.788 281.148 168.697 281.477C168.606 281.802 168.473 282.085 168.297 282.326C168.121 282.567 167.903 282.756 167.643 282.893C167.385 283.029 167.091 283.098 166.759 283.098C166.437 283.098 166.152 283.046 165.904 282.941C165.66 282.837 165.45 282.688 165.274 282.492V285.031H164.371V277.717H165.196L165.24 278.293C165.416 278.075 165.628 277.909 165.875 277.795C166.126 277.678 166.415 277.619 166.744 277.619C167.083 277.619 167.382 277.686 167.643 277.819C167.903 277.953 168.121 278.138 168.297 278.376C168.473 278.614 168.606 278.898 168.697 279.23C168.788 279.559 168.834 279.921 168.834 280.314V280.417ZM167.931 280.314C167.931 280.057 167.901 279.813 167.843 279.582C167.787 279.348 167.7 279.143 167.579 278.967C167.462 278.788 167.312 278.646 167.13 278.542C166.948 278.438 166.729 278.386 166.476 278.386C166.186 278.386 165.942 278.454 165.743 278.591C165.548 278.724 165.392 278.897 165.274 279.108V281.652C165.392 281.861 165.548 282.032 165.743 282.165C165.938 282.295 166.186 282.36 166.485 282.36C166.736 282.36 166.952 282.308 167.135 282.204C167.317 282.097 167.467 281.953 167.584 281.774C167.701 281.595 167.787 281.389 167.843 281.154C167.901 280.92 167.931 280.674 167.931 280.417V280.314ZM170.523 277.717H173.224V282.219H174.947V283H170.523V282.219H172.32V278.503H170.523V277.717ZM172.203 276.33C172.203 276.18 172.247 276.055 172.335 275.954C172.426 275.85 172.563 275.798 172.745 275.798C172.924 275.798 173.059 275.85 173.15 275.954C173.242 276.055 173.287 276.18 173.287 276.33C173.287 276.477 173.242 276.599 173.15 276.696C173.059 276.794 172.924 276.843 172.745 276.843C172.563 276.843 172.426 276.794 172.335 276.696C172.247 276.599 172.203 276.477 172.203 276.33ZM176.529 275.5H179.229V282.219H180.953V283H176.529V282.219H178.326V276.286H176.529V275.5ZM182.535 275.5H185.235V282.219H186.959V283H182.535V282.219H184.332V276.286H182.535V275.5ZM191.871 283C191.835 282.932 191.806 282.847 191.783 282.746C191.764 282.642 191.749 282.535 191.739 282.424C191.648 282.515 191.546 282.601 191.432 282.683C191.321 282.764 191.197 282.836 191.061 282.897C190.927 282.959 190.784 283.008 190.631 283.044C190.478 283.08 190.315 283.098 190.143 283.098C189.863 283.098 189.609 283.057 189.381 282.976C189.156 282.894 188.964 282.785 188.805 282.648C188.648 282.508 188.526 282.344 188.438 282.155C188.354 281.963 188.312 281.757 188.312 281.535C188.312 281.245 188.368 280.992 188.482 280.773C188.6 280.555 188.764 280.375 188.976 280.231C189.187 280.085 189.441 279.976 189.737 279.904C190.037 279.833 190.37 279.797 190.738 279.797H191.725V279.382C191.725 279.222 191.695 279.079 191.637 278.952C191.578 278.825 191.495 278.718 191.388 278.63C191.28 278.539 191.148 278.469 190.992 278.42C190.839 278.371 190.667 278.347 190.475 278.347C190.296 278.347 190.134 278.369 189.991 278.415C189.851 278.461 189.732 278.521 189.635 278.596C189.537 278.671 189.461 278.76 189.405 278.864C189.353 278.965 189.327 279.071 189.327 279.182H188.419C188.422 278.99 188.471 278.801 188.565 278.615C188.663 278.43 188.801 278.264 188.98 278.117C189.163 277.967 189.382 277.847 189.64 277.756C189.9 277.665 190.195 277.619 190.523 277.619C190.823 277.619 191.101 277.657 191.358 277.731C191.616 277.803 191.837 277.914 192.022 278.063C192.211 278.21 192.359 278.394 192.467 278.615C192.574 278.837 192.628 279.095 192.628 279.392V281.848C192.628 282.023 192.644 282.211 192.677 282.409C192.709 282.604 192.755 282.775 192.813 282.922V283H191.871ZM190.274 282.312C190.45 282.312 190.615 282.289 190.768 282.243C190.921 282.198 191.059 282.137 191.183 282.062C191.31 281.988 191.419 281.903 191.51 281.809C191.601 281.711 191.673 281.61 191.725 281.506V280.437H190.885C190.357 280.437 189.947 280.515 189.654 280.671C189.361 280.827 189.215 281.073 189.215 281.408C189.215 281.538 189.236 281.659 189.278 281.77C189.324 281.88 189.391 281.976 189.479 282.058C189.566 282.136 189.677 282.198 189.811 282.243C189.944 282.289 190.099 282.312 190.274 282.312ZM197.867 277.619C197.952 277.619 198.04 277.622 198.131 277.629C198.222 277.632 198.308 277.64 198.39 277.653C198.474 277.663 198.551 277.676 198.619 277.692C198.691 277.709 198.749 277.727 198.795 277.746L198.673 278.63C198.497 278.591 198.329 278.563 198.17 278.547C198.014 278.527 197.849 278.518 197.677 278.518C197.254 278.518 196.91 278.614 196.646 278.806C196.386 278.998 196.194 279.266 196.07 279.611V283H195.162V277.717H196.021L196.065 278.557C196.28 278.267 196.537 278.039 196.837 277.873C197.14 277.704 197.483 277.619 197.867 277.619ZM203.922 281.599C203.922 281.491 203.901 281.395 203.858 281.311C203.816 281.223 203.744 281.143 203.644 281.071C203.543 281 203.409 280.935 203.243 280.876C203.077 280.814 202.87 280.759 202.623 280.71C202.32 280.648 202.044 280.573 201.793 280.485C201.546 280.397 201.332 280.293 201.153 280.173C200.978 280.049 200.841 279.906 200.743 279.743C200.646 279.577 200.597 279.385 200.597 279.167C200.597 278.952 200.647 278.752 200.748 278.566C200.849 278.378 200.991 278.213 201.173 278.073C201.355 277.933 201.572 277.823 201.822 277.741C202.076 277.66 202.354 277.619 202.657 277.619C202.983 277.619 203.276 277.661 203.536 277.746C203.797 277.831 204.018 277.948 204.2 278.098C204.382 278.247 204.522 278.423 204.62 278.625C204.721 278.824 204.771 279.038 204.771 279.27H203.868C203.868 279.156 203.839 279.045 203.78 278.938C203.722 278.827 203.64 278.729 203.536 278.645C203.432 278.56 203.305 278.492 203.155 278.439C203.009 278.387 202.843 278.361 202.657 278.361C202.465 278.361 202.296 278.382 202.149 278.425C202.006 278.467 201.886 278.524 201.788 278.596C201.694 278.667 201.622 278.75 201.573 278.845C201.524 278.939 201.5 279.037 201.5 279.138C201.5 279.242 201.52 279.335 201.559 279.416C201.598 279.497 201.664 279.571 201.759 279.636C201.856 279.701 201.985 279.759 202.145 279.812C202.307 279.864 202.512 279.914 202.76 279.963C203.085 280.031 203.377 280.111 203.634 280.202C203.891 280.29 204.107 280.397 204.283 280.524C204.459 280.648 204.592 280.793 204.684 280.959C204.778 281.125 204.825 281.317 204.825 281.535C204.825 281.77 204.771 281.983 204.664 282.175C204.56 282.367 204.413 282.531 204.225 282.668C204.036 282.805 203.81 282.91 203.546 282.985C203.282 283.06 202.994 283.098 202.682 283.098C202.324 283.098 202.005 283.05 201.725 282.956C201.445 282.858 201.207 282.731 201.012 282.575C200.82 282.416 200.672 282.232 200.567 282.023C200.466 281.815 200.416 281.599 200.416 281.374H201.319C201.332 281.56 201.381 281.716 201.466 281.843C201.554 281.97 201.661 282.072 201.788 282.15C201.918 282.229 202.062 282.284 202.218 282.316C202.374 282.349 202.529 282.365 202.682 282.365C203.062 282.365 203.364 282.295 203.585 282.155C203.806 282.015 203.919 281.83 203.922 281.599Z" fill="#0B132A"/>
</svg>
