<svg width="26" height="26" viewBox="0 0 26 26" fill="none" xmlns="http://www.w3.org/2000/svg">
<path d="M21.3898 11.3395C20.6656 11.3335 19.944 11.4276 19.2455 11.6191C19.8339 10.6731 20.2547 9.63276 20.4896 8.54379L23.1539 9.21476C23.2303 9.23325 23.3103 9.23006 23.3849 9.20557C23.4595 9.18107 23.5259 9.13624 23.5764 9.0761C23.627 9.01597 23.6597 8.94292 23.671 8.86518C23.6823 8.78744 23.6717 8.70809 23.6404 8.63605L19.9389 0.248977C19.9125 0.190251 19.873 0.138347 19.8234 0.097235C19.7738 0.0561235 19.7155 0.0268947 19.6529 0.0117855C19.5903 -0.00332378 19.5251 -0.00391303 19.4623 0.0100628C19.3994 0.0240386 19.3406 0.052209 19.2903 0.0924184L12.3737 5.7481C12.3137 5.79693 12.2683 5.86144 12.2426 5.93446C12.217 6.00749 12.212 6.0862 12.2284 6.16186C12.2442 6.23745 12.2809 6.3071 12.3342 6.36293C12.3876 6.41876 12.4555 6.45855 12.5303 6.47778L15.0073 7.13756C12.8518 14.2414 2.81806 14.8425 2.70623 14.8481C2.64676 14.8507 2.58854 14.866 2.53549 14.893C2.48244 14.92 2.4358 14.9581 2.3987 15.0046C2.36158 15.0508 2.33487 15.1044 2.32039 15.1618C2.30591 15.2192 2.30402 15.2791 2.31483 15.3373L2.6587 17.2636C2.67512 17.3549 2.72135 17.4381 2.79015 17.5004C2.85894 17.5626 2.94643 17.6002 3.03892 17.6074C3.09763 17.6074 3.6344 17.6522 4.48988 17.6522C5.79326 17.6517 7.09518 17.5648 8.38708 17.3922C8.38708 17.3922 8.38708 17.3922 8.38708 17.4145V19.4666C7.54837 18.8152 6.19246 18.3958 4.61289 18.3958C2.02688 18.3958 0 19.5141 0 20.9455V22.7124C0 24.141 2.02688 25.262 4.61289 25.262C6.49998 25.262 8.08514 24.6638 8.80643 23.7859C9.52772 24.6638 11.1129 25.262 13 25.262C14.8871 25.262 16.4722 24.6638 17.1935 23.7859C17.9148 24.6638 19.4999 25.262 21.387 25.262C23.9731 25.262 25.9999 24.1438 25.9999 22.7124V20.9455V17.5403C25.9999 17.4984 25.9999 17.4565 25.9999 17.4145V13.8808C26.0139 12.4578 23.987 11.3395 21.3898 11.3395ZM8.38987 22.7124C8.38987 23.5231 6.84106 24.4233 4.61569 24.4233C2.39032 24.4233 0.841503 23.5231 0.841503 22.7124V22.4328C1.68021 23.0982 3.07806 23.4896 4.61569 23.4896C6.15332 23.4896 7.53998 23.0982 8.38987 22.4328V22.7124ZM7.97052 21.6975C7.29396 22.2902 6.01353 22.6564 4.61569 22.6564C3.21784 22.6564 1.93741 22.2902 1.26086 21.6975C1.14296 21.6078 1.04486 21.4947 0.972701 21.3653C0.900542 21.2359 0.855877 21.0929 0.841503 20.9455C0.841503 20.1375 2.39032 19.2345 4.61569 19.2345C6.84106 19.2345 8.38987 20.1375 8.38987 20.9455C8.3755 21.0929 8.33083 21.2359 8.25867 21.3653C8.18651 21.4947 8.08841 21.6078 7.97052 21.6975ZM16.7769 22.7124C16.7769 23.5231 15.2281 24.4233 13.0028 24.4233C10.7774 24.4233 9.22858 23.5231 9.22858 22.7124V22.4328C9.29008 22.4803 9.35997 22.525 9.42707 22.5698C9.51933 22.6313 9.61718 22.6928 9.72062 22.7487C10.0523 22.9323 10.4029 23.0795 10.7662 23.1876H10.7858L11.0653 23.2603L11.2638 23.3078L11.4987 23.3526L11.7782 23.3973L11.9879 23.4281L12.3234 23.4588H12.4939C12.6673 23.4588 12.8406 23.4756 13.0195 23.4756C13.1985 23.4756 13.3718 23.4756 13.5451 23.4588H13.7185L14.0511 23.4281L14.2608 23.3973L14.5404 23.3526L14.7752 23.3078L14.9709 23.2603L15.2505 23.1876C15.8008 23.0332 16.3181 22.7792 16.7769 22.4384V22.7124ZM16.7769 20.9455C16.7769 21.7562 15.2281 22.6564 13.0028 22.6564C10.7774 22.6564 9.22858 21.7562 9.22858 20.9455V20.6659C9.29008 20.7134 9.35997 20.7582 9.42707 20.8029C9.51933 20.8644 9.61718 20.9231 9.70664 20.979C10.0431 21.1628 10.3983 21.31 10.7662 21.418H10.7998C10.8864 21.4431 10.9759 21.4627 11.0653 21.4851C11.1548 21.5074 11.1995 21.5214 11.2694 21.5354L11.4987 21.5801L11.7782 21.6276L11.9823 21.6556C12.0942 21.6556 12.206 21.678 12.3206 21.6891H12.4911C12.6645 21.6891 12.8378 21.7059 13.0167 21.7059C13.1957 21.7059 13.369 21.7059 13.5423 21.6891H13.7129C13.8275 21.6891 13.9393 21.6696 14.0483 21.6556L14.258 21.6276L14.5376 21.5801L14.7724 21.5354L14.9709 21.4878C15.0632 21.4655 15.1526 21.4431 15.2505 21.4152H15.2673C15.631 21.3117 15.9818 21.1673 16.3129 20.9846C16.414 20.9306 16.512 20.8708 16.6064 20.8057C16.6761 20.7639 16.7433 20.7182 16.8077 20.6687L16.7769 20.9455ZM16.7769 19.1814C16.7769 19.9894 15.2281 20.8924 13.0028 20.8924C10.7774 20.8924 9.22858 19.9894 9.22858 19.1814V18.9018C10.0673 19.5672 11.4651 19.9614 13.0028 19.9614C14.5404 19.9614 15.9271 19.5672 16.7769 18.9018V19.1814ZM16.3576 18.1666C15.681 18.7565 14.4006 19.1255 13.0028 19.1255C11.6049 19.1255 10.3245 18.7565 9.64793 18.1638C9.52974 18.0749 9.4314 17.9624 9.35919 17.8334C9.28698 17.7044 9.24249 17.5617 9.22858 17.4145C9.22862 17.3637 9.23425 17.3131 9.24535 17.2636C9.83245 17.1657 10.4363 17.0455 11.0486 16.8945C12.1412 16.6331 13.2072 16.2709 14.2329 15.8126C15.7789 16.067 16.7769 16.7771 16.7769 17.4257C16.7611 17.5712 16.7157 17.712 16.6436 17.8394C16.5715 17.9667 16.4742 18.0781 16.3576 18.1666ZM16.7881 15.6504V15.944C16.3673 15.6261 15.8942 15.3839 15.3903 15.2283C15.8761 14.953 16.343 14.6457 16.7881 14.3085V15.6504ZM3.43311 16.7883L3.21784 15.6337C5.35654 15.4072 14.121 14.0541 15.9187 6.93348C15.9452 6.8264 15.9287 6.71319 15.8728 6.6181C15.8169 6.52301 15.726 6.45357 15.6195 6.42466L13.5284 5.86552L19.3993 1.08489L22.5389 8.18595L20.2744 7.62681C20.2185 7.61282 20.1603 7.61056 20.1035 7.62019C20.0468 7.62981 19.9926 7.6511 19.9445 7.68272C19.8959 7.71388 19.8544 7.75485 19.8226 7.803C19.7909 7.85114 19.7695 7.9054 19.7599 7.96229C18.1832 16.984 5.61934 16.8778 3.43311 16.7883ZM25.164 22.7124C25.164 23.5231 23.6152 24.4233 21.3898 24.4233C19.1645 24.4233 17.6157 23.5231 17.6157 22.7124V22.4328C17.6772 22.4803 17.747 22.525 17.8141 22.5698C17.9064 22.6313 18.0043 22.6928 18.0937 22.7487C18.4298 22.9332 18.7851 23.0804 19.1533 23.1876H19.1729L19.4524 23.2603L19.6509 23.3078L19.8858 23.3526L20.1653 23.3973L20.375 23.4281L20.7105 23.4588H20.881C21.0544 23.4588 21.2277 23.4756 21.4066 23.4756C21.5855 23.4756 21.7589 23.4756 21.9322 23.4588H22.1055L22.4382 23.4281L22.6479 23.3973L22.9275 23.3526L23.1623 23.3078L23.358 23.2603L23.6376 23.1876C24.1879 23.0332 24.7052 22.7792 25.164 22.4384V22.7124ZM25.164 20.9455C25.164 21.7562 23.6152 22.6564 21.3898 22.6564C19.1645 22.6564 17.6157 21.7562 17.6157 20.9455V20.6659C17.6772 20.7134 17.747 20.7582 17.8141 20.8029C17.9064 20.8644 18.0043 20.9231 18.0937 20.979C18.4302 21.1628 18.7854 21.31 19.1533 21.418H19.1868C19.2735 21.4431 19.363 21.4627 19.4664 21.4851C19.5698 21.5074 19.6006 21.5214 19.6705 21.5354L19.8997 21.5801L20.1793 21.6276L20.3834 21.6556C20.4952 21.6556 20.607 21.678 20.7217 21.6891H20.8922C21.0655 21.6891 21.2389 21.7059 21.4178 21.7059C21.5967 21.7059 21.7701 21.7059 21.9434 21.6891H22.1139C22.2285 21.6891 22.3404 21.6696 22.4494 21.6556L22.6591 21.6276L22.9387 21.5801L23.1735 21.5354L23.372 21.4878C23.4642 21.4655 23.5537 21.4431 23.6516 21.4152H23.6683C24.032 21.3117 24.3828 21.1673 24.7139 20.9846C24.8103 20.9301 24.9036 20.8704 24.9935 20.8057C25.0632 20.7639 25.1304 20.7182 25.1948 20.6687L25.164 20.9455ZM25.164 19.1814C25.164 19.9894 23.6152 20.8924 21.3898 20.8924C19.1645 20.8924 17.6157 19.9894 17.6157 19.1814V18.9018C18.1987 19.3253 18.8662 19.618 19.5726 19.7601H19.5894L19.9417 19.83L20.0898 19.8552L20.389 19.8943C20.4673 19.8943 20.5483 19.9111 20.6294 19.9195L20.8754 19.939C21.0236 19.939 21.1718 19.939 21.3255 19.939H21.3898C21.5716 19.939 21.7477 19.939 21.9238 19.9223H22.0161C22.1642 19.9223 22.2956 19.8971 22.4494 19.8803L22.564 19.8635C22.6982 19.844 22.8436 19.8244 22.9582 19.7992L23.07 19.7769C23.2014 19.7489 23.33 19.7182 23.4559 19.6818L23.5453 19.6595C23.8326 19.5782 24.113 19.4745 24.384 19.3491C24.4232 19.3324 24.4623 19.31 24.5014 19.2904C24.5881 19.2485 24.6692 19.2038 24.7503 19.1562L24.8621 19.0891C24.9488 19.036 25.027 18.9801 25.1025 18.9242C25.1193 18.9242 25.1389 18.9018 25.1528 18.8879L25.164 19.1814ZM25.164 17.4145C25.164 18.2225 23.6152 19.1255 21.3898 19.1255C19.1645 19.1255 17.6157 18.2225 17.6157 17.4145V17.135C17.6772 17.1825 17.747 17.2244 17.8113 17.2691C17.9008 17.3307 17.9987 17.3894 18.0909 17.4453C18.4282 17.63 18.7844 17.7781 19.1533 17.887H19.184L19.4636 17.9569L19.6649 18.0044L19.8997 18.0519L20.1793 18.0967L20.3862 18.1246C20.498 18.1246 20.6098 18.1498 20.7245 18.1582H20.895C21.0683 18.1582 21.2417 18.175 21.4206 18.175C21.5995 18.175 21.7756 18.175 21.9462 18.1582H22.1167C22.2313 18.1582 22.3432 18.1386 22.455 18.1246L22.6619 18.0967L22.9414 18.0519L23.1763 18.0044L23.3468 17.9653L23.6264 17.8954H23.6432C24.118 17.7592 24.5701 17.5538 24.9851 17.2859C25.0522 17.2412 25.1249 17.1965 25.1864 17.1489L25.164 17.4145ZM25.164 15.6476C25.164 16.4584 23.6152 17.3586 21.3898 17.3586C19.1645 17.3586 17.6157 16.4584 17.6157 15.6476V15.3681C18.4544 16.0335 19.8522 16.4248 21.3898 16.4248C22.9275 16.4248 24.3141 16.0335 25.164 15.3681V15.6476ZM24.7447 14.6328C24.0681 15.2255 22.7877 15.5917 21.3898 15.5917C19.992 15.5917 18.7116 15.2255 18.035 14.6328C17.9171 14.5431 17.819 14.43 17.7468 14.3006C17.6747 14.1711 17.63 14.0282 17.6157 13.8808C17.6213 13.7288 17.6698 13.5815 17.7554 13.4558C17.9008 13.316 18.035 13.1763 18.1776 13.0225C18.829 12.5416 19.9752 12.1782 21.3898 12.1782C23.6264 12.1782 25.164 13.0812 25.164 13.8892C25.1485 14.0352 25.1033 14.1765 25.0312 14.3043C24.9591 14.4322 24.8616 14.544 24.7447 14.6328Z" fill="#0B132A"/>
<path d="M18.7038 7.40642C18.6496 7.39631 18.594 7.39696 18.5401 7.40835C18.4862 7.41974 18.4351 7.44164 18.3896 7.47279C18.3442 7.50395 18.3053 7.54375 18.2753 7.58992C18.2452 7.6361 18.2246 7.68774 18.2145 7.7419C18.2145 7.76986 17.6554 10.5376 14.5549 12.8776C14.4845 12.9304 14.4325 13.004 14.4063 13.088C14.38 13.172 14.3809 13.2622 14.4087 13.3457C14.4366 13.4292 14.49 13.5018 14.5614 13.5533C14.6328 13.6047 14.7185 13.6324 14.8066 13.6324C14.8987 13.6329 14.9883 13.6023 15.061 13.5458C18.441 10.9905 19.0169 8.01867 19.0392 7.89287C19.0493 7.83888 19.0486 7.78344 19.0372 7.72972C19.0258 7.676 19.0039 7.62507 18.9727 7.57986C18.9415 7.53465 18.9017 7.49605 18.8555 7.46628C18.8094 7.43652 18.7578 7.41617 18.7038 7.40642Z" fill="#0B132A"/>
</svg>
