<svg width="25" height="25" viewBox="0 0 25 25" fill="none" xmlns="http://www.w3.org/2000/svg">
<path d="M19.5959 0H5.19588C2.30103 0 0 2.26277 0 5.20437V19.6861C0 22.6277 2.30103 24.8905 5.19588 24.8905H19.5959C22.4907 24.8905 24.7175 22.6277 24.7175 19.6861V5.20437C24.7175 2.26277 22.4907 0 19.5959 0ZM8.23918 19.6861H5.19588V8.29682H8.3134V19.6861H8.23918ZM6.68041 6.93916C5.64124 6.93916 4.82474 6.10948 4.82474 5.05352C4.82474 3.99756 5.71546 3.2433 6.68041 3.2433C7.71959 3.2433 8.46185 4.14841 8.46185 5.20437C8.46185 6.26033 7.71959 6.93916 6.68041 6.93916ZM20.635 19.6861H17.5175V13.8783C17.5175 10.3333 13.3608 10.635 13.3608 13.8783V19.6861H10.2433V8.29682H13.3608V10.1825C14.7711 7.46714 20.5608 7.24086 20.5608 12.7469V19.6861H20.635Z" fill="#0B132A"/>
</svg>
