<svg viewBox="0 0 60 60" fill="none" xmlns="http://www.w3.org/2000/svg">
<circle cx="30" cy="30" r="30" fill="#0B132A"/>
<path d="M25.2871 37.31L26.8583 38.8812C27.1136 39.1365 27.4167 39.3391 27.7503 39.4773C28.084 39.6155 28.4415 39.6866 28.8026 39.6866C29.1638 39.6866 29.5213 39.6155 29.8549 39.4773C30.1886 39.3391 30.4917 39.1365 30.747 38.8812C31.0024 38.6259 31.2049 38.3227 31.3431 37.9891C31.4813 37.6555 31.5525 37.2979 31.5525 36.9368C31.5525 36.5757 31.4813 36.2181 31.3431 35.8845C31.2049 35.5509 31.0024 35.2478 30.747 34.9924L24.2068 28.4522C23.672 27.6933 22.9654 27.0715 22.1446 26.6375C23.034 26.0026 23.6738 25.077 23.9535 24.0206C24.2332 22.9642 24.1353 21.8433 23.6766 20.8515H25.6799L23.8651 18.4318L24.9532 16.5031C25.0825 16.3199 25.1569 16.1036 25.1676 15.8795C25.1783 15.6555 25.1248 15.433 25.0134 15.2383C24.902 15.0436 24.7374 14.8847 24.5389 14.7804C24.3403 14.676 24.1161 14.6305 23.8926 14.6491L15.1527 16.0946C14.9644 16.1167 14.7842 16.1838 14.6274 16.2904C14.4707 16.3969 14.3419 16.5397 14.252 16.7066C14.1622 16.8736 14.114 17.0597 14.1115 17.2493C14.1089 17.4388 14.1521 17.6262 14.2375 17.7955C14.4957 18.3053 14.56 18.8916 14.4182 19.4452C14.3768 19.6121 14.3741 19.7863 14.4102 19.9544C14.4463 20.1225 14.5202 20.2802 14.6263 20.4155C14.7594 20.5857 14.9398 20.7128 15.1449 20.7808C14.6624 21.7855 14.5516 22.9286 14.832 24.0073C15.1125 25.086 15.7661 26.0304 16.6768 26.6728C15.7196 27.1985 14.9205 27.9708 14.3624 28.9094C13.8043 29.8481 13.5076 30.919 13.5029 32.011V45.2053H25.2871V37.31ZM16.0404 19.2803C16.1048 18.7056 16.0431 18.1239 15.8598 17.5755L23.2484 16.346L22.0071 18.5575L22.5374 19.2803H16.0404ZM16.2526 22.8155C16.2506 22.1008 16.4947 21.4073 16.9439 20.8515H21.8461C22.2953 21.4073 22.5394 22.1008 22.5374 22.8155C22.5374 23.6489 22.2063 24.4482 21.617 25.0375C21.0277 25.6269 20.2284 25.9579 19.395 25.9579C18.5616 25.9579 17.7623 25.6269 17.173 25.0375C16.5836 24.4482 16.2526 23.6489 16.2526 22.8155ZM15.0741 32.011C15.0624 30.8769 15.4846 29.7811 16.2542 28.9479C17.0238 28.1148 18.0828 27.6072 19.2143 27.5291C19.7814 27.5053 20.3476 27.594 20.8802 27.7902C21.4129 27.9864 21.9013 28.2862 22.3175 28.6722L15.0741 37.1803V32.011ZM23.7158 40.4917H22.1446V42.0629H23.7158V43.6341H15.0741V42.0629H20.1806V40.4917H15.0741V39.6039L23.3898 29.8388L29.6432 36.1237C29.8646 36.3451 29.989 36.6453 29.989 36.9584C29.989 37.2715 29.8646 37.5717 29.6432 37.7931C29.4219 38.0145 29.1216 38.1389 28.8085 38.1389C28.4955 38.1389 28.1952 38.0145 27.9738 37.7931L23.7158 33.5155V40.4917Z" fill="white"/>
<path d="M37.8568 28.9626C37.4885 28.5944 36.989 28.3876 36.4682 28.3876C35.9474 28.3876 35.448 28.5944 35.0797 28.9626L32.8682 31.1859L41.7848 40.0986H29.2151V43.241C29.2151 43.7619 29.422 44.2615 29.7903 44.6298C30.1587 44.9981 30.6582 45.2051 31.1791 45.2051H42.5704C43.0913 45.2051 43.5909 44.9981 43.9592 44.6298C44.3275 44.2615 44.5344 43.7619 44.5344 43.241V41.1827L45.925 39.7962C46.2932 39.4278 46.5 38.9284 46.5 38.4076C46.5 37.8868 46.2932 37.3873 45.925 37.019L37.8568 28.9626ZM42.9632 43.241C42.9632 43.3452 42.9218 43.4451 42.8482 43.5188C42.7745 43.5925 42.6746 43.6338 42.5704 43.6338H31.1791C31.0749 43.6338 30.975 43.5925 30.9014 43.5188C30.8277 43.4451 30.7863 43.3452 30.7863 43.241V41.6698H42.9632V43.241ZM44.8133 38.6845L43.7017 39.7962L35.1071 31.1859L36.2188 30.0742C36.2924 30.0011 36.3919 29.96 36.4957 29.96C36.5995 29.96 36.699 30.0011 36.7726 30.0742L44.8133 38.1346C44.8859 38.2078 44.9268 38.3065 44.9273 38.4095C44.9268 38.5126 44.8859 38.6114 44.8133 38.6845Z" fill="white"/>
</svg>
