<svg width="27" height="25" viewBox="0 0 27 25" fill="none" xmlns="http://www.w3.org/2000/svg">
<path d="M9.34289 17.9696L10.5886 19.2153C10.791 19.4178 11.0314 19.5784 11.2959 19.688C11.5604 19.7975 11.8439 19.8539 12.1302 19.8539C12.4165 19.8539 12.7 19.7975 12.9645 19.688C13.229 19.5784 13.4693 19.4178 13.6718 19.2153C13.8742 19.0129 14.0348 18.7726 14.1444 18.5081C14.254 18.2436 14.3104 17.9601 14.3104 17.6738C14.3104 17.3875 14.254 17.104 14.1444 16.8395C14.0348 16.5749 13.8742 16.3346 13.6718 16.1322L8.48646 10.9469C8.06243 10.3452 7.50221 9.85215 6.85145 9.50807C7.55662 9.00469 8.06388 8.27087 8.28564 7.43332C8.50739 6.59578 8.42972 5.70709 8.06603 4.92071H9.65432L8.21552 3.0023L9.07818 1.47318C9.18075 1.32791 9.23974 1.15638 9.2482 0.978743C9.25666 0.801108 9.21425 0.624748 9.12594 0.470382C9.03764 0.316017 8.90712 0.19006 8.74971 0.10731C8.5923 0.0245593 8.41454 -0.0115472 8.23732 0.00323272L1.308 1.14929C1.15873 1.16677 1.01587 1.22001 0.891558 1.30448C0.767246 1.38895 0.665147 1.50217 0.593928 1.63452C0.522708 1.76688 0.48447 1.91446 0.482459 2.06474C0.480447 2.21502 0.514722 2.36357 0.582374 2.49779C0.787138 2.902 0.838049 3.36684 0.725631 3.80579C0.692876 3.93812 0.690717 4.07618 0.719318 4.20947C0.747919 4.34276 0.806527 4.46778 0.890689 4.57502C0.996175 4.70997 1.13919 4.81074 1.30178 4.86465C0.919273 5.66122 0.831399 6.56755 1.05375 7.42276C1.27611 8.27796 1.7943 9.02672 2.51635 9.5361C1.75745 9.95288 1.1239 10.5651 0.681426 11.3094C0.238951 12.0536 0.00367218 12.9026 0 13.7684V24.2294H9.34289V17.9696ZM2.01184 3.67499C2.06286 3.2194 2.01397 2.75816 1.86858 2.32338L7.72657 1.34861L6.74245 3.10196L7.16288 3.67499H2.01184ZM2.18001 6.47786C2.17844 5.91126 2.37199 5.3614 2.72812 4.92071H6.61477C6.9709 5.3614 7.16445 5.91126 7.16288 6.47786C7.16288 7.13863 6.90039 7.77234 6.43316 8.23957C5.96592 8.70681 5.33222 8.9693 4.67145 8.9693C4.01068 8.9693 3.37697 8.70681 2.90973 8.23957C2.4425 7.77234 2.18001 7.13863 2.18001 6.47786ZM1.24572 13.7684C1.23644 12.8692 1.57113 12.0005 2.18132 11.3399C2.79151 10.6793 3.63106 10.2769 4.52819 10.215C4.97781 10.1961 5.42672 10.2665 5.849 10.422C6.27128 10.5776 6.65857 10.8152 6.98848 11.1213L1.24572 17.8668V13.7684ZM8.09717 20.4922H6.85145V21.7379H8.09717V22.9836H1.24572V21.7379H5.29431V20.4922H1.24572V19.7884L7.83869 12.0462L12.7966 17.0291C12.9722 17.2046 13.0708 17.4427 13.0708 17.6909C13.0708 17.9391 12.9722 18.1772 12.7966 18.3527C12.6211 18.5282 12.3831 18.6268 12.1349 18.6268C11.8866 18.6268 11.6486 18.5282 11.4731 18.3527L8.09717 14.9612V20.4922Z" fill="#0B132A"/>
<path d="M19.309 11.3515C19.017 11.0596 18.621 10.8956 18.2081 10.8956C17.7952 10.8956 17.3992 11.0596 17.1072 11.3515L15.3538 13.1142L22.4233 20.1806H12.4575V22.672C12.4575 23.085 12.6216 23.4811 12.9136 23.7731C13.2056 24.0651 13.6017 24.2292 14.0147 24.2292H23.0461C23.4591 24.2292 23.8552 24.0651 24.1472 23.7731C24.4392 23.4811 24.6033 23.085 24.6033 22.672V21.0401L25.7057 19.9408C25.9977 19.6488 26.1617 19.2528 26.1617 18.8399C26.1617 18.427 25.9977 18.031 25.7057 17.739L19.309 11.3515ZM23.3576 22.672C23.3576 22.7546 23.3247 22.8338 23.2663 22.8922C23.2079 22.9506 23.1287 22.9834 23.0461 22.9834H14.0147C13.9321 22.9834 13.8529 22.9506 13.7945 22.8922C13.736 22.8338 13.7032 22.7546 13.7032 22.672V21.4263H23.3576V22.672ZM24.8244 19.0594L23.943 19.9408L17.129 13.1142L18.0103 12.2329C18.0687 12.1749 18.1476 12.1423 18.2299 12.1423C18.3121 12.1423 18.3911 12.1749 18.4494 12.2329L24.8244 18.6234C24.8819 18.6814 24.9144 18.7597 24.9147 18.8414C24.9144 18.9231 24.8819 19.0014 24.8244 19.0594Z" fill="#0B132A"/>
</svg>
