<svg width="435" height="435" viewBox="0 0 435 435" fill="none" xmlns="http://www.w3.org/2000/svg">
<path d="M217.5 1C260.32 1 302.178 13.6975 337.781 37.4868C373.384 61.2762 401.134 95.0888 417.52 134.649C433.906 174.209 438.194 217.74 429.84 259.737C421.486 301.734 400.867 340.311 370.589 370.589L217.5 217.5V1Z" fill="white" stroke="#0B132A" stroke-width="0.907757"/>
<path d="M49.3326 81.1476C68.6864 57.278 92.8998 37.802 120.363 24.0145C147.826 10.2269 177.91 2.44372 208.614 1.18244C239.318 -0.0788465 269.939 5.21065 298.44 16.6992C326.942 28.1878 352.671 45.6123 373.917 67.814L217.5 217.5L49.3326 81.1476Z" fill="white" stroke="#0B132A" stroke-width="0.907757"/>
<path d="M370.589 370.589C350.485 390.693 326.618 406.64 300.351 417.52C274.084 428.4 245.931 434 217.5 434C189.069 434 160.916 428.4 134.649 417.52C108.382 406.64 84.5153 390.693 64.4114 370.589C44.3075 350.485 28.3602 326.618 17.4801 300.351C6.59993 274.084 0.999996 245.931 1 217.5C1 189.069 6.59995 160.916 17.4801 134.649C28.3602 108.382 44.3075 84.5152 64.4114 64.4114L217.5 217.5L370.589 370.589Z" fill="white" stroke="#0B132A" stroke-width="0.907757"/>
<path d="M109.416 342.492C107.179 342.492 105.16 342.013 103.359 341.054C101.558 340.096 100.193 338.789 99.2636 337.133L102.619 333.647C103.432 334.78 104.449 335.68 105.669 336.349C106.889 337.017 108.152 337.351 109.46 337.351C110.505 337.351 111.42 337.133 112.205 336.697C113.018 336.261 113.657 335.651 114.122 334.867C114.587 334.083 114.819 333.182 114.819 332.166C114.819 331.149 114.601 330.263 114.165 329.508C113.73 328.752 113.134 328.172 112.379 327.765C111.624 327.329 110.767 327.111 109.808 327.111C108.85 327.111 107.949 327.329 107.107 327.765C106.293 328.172 105.64 328.767 105.146 329.551H100.048L103.621 311.12H118.871V316.436H107.847L106.584 323.364C106.961 323.015 107.484 322.725 108.152 322.493C108.82 322.231 109.648 322.1 110.636 322.1C112.582 322.1 114.325 322.522 115.865 323.364C117.404 324.206 118.61 325.383 119.481 326.893C120.353 328.375 120.788 330.089 120.788 332.035C120.788 334.097 120.295 335.913 119.307 337.481C118.319 339.079 116.968 340.314 115.255 341.185C113.541 342.057 111.595 342.492 109.416 342.492ZM146.745 323.233C146.745 325.79 146.251 328.07 145.263 330.074C144.305 332.049 142.969 333.604 141.255 334.736C139.57 335.869 137.653 336.436 135.503 336.436C133.354 336.436 131.422 335.869 129.708 334.736C128.023 333.604 126.687 332.049 125.699 330.074C124.741 328.07 124.262 325.79 124.262 323.233C124.262 320.677 124.741 318.411 125.699 316.436C126.687 314.432 128.023 312.863 129.708 311.73C131.422 310.568 133.354 309.987 135.503 309.987C137.653 309.987 139.57 310.568 141.255 311.73C142.969 312.863 144.305 314.432 145.263 316.436C146.251 318.411 146.745 320.677 146.745 323.233ZM140.863 323.233C140.863 321.665 140.63 320.299 140.165 319.138C139.73 317.947 139.105 317.017 138.292 316.349C137.478 315.681 136.549 315.347 135.503 315.347C134.428 315.347 133.484 315.681 132.671 316.349C131.858 317.017 131.219 317.947 130.754 319.138C130.318 320.299 130.1 321.665 130.1 323.233C130.1 324.802 130.318 326.167 130.754 327.329C131.219 328.491 131.858 329.406 132.671 330.074C133.484 330.742 134.428 331.076 135.503 331.076C136.549 331.076 137.464 330.742 138.248 330.074C139.062 329.406 139.701 328.491 140.165 327.329C140.63 326.138 140.863 324.773 140.863 323.233ZM157.606 317.83C156.269 317.83 155.064 317.54 153.989 316.959C152.914 316.349 152.043 315.55 151.375 314.562C150.736 313.546 150.416 312.427 150.416 311.207C150.416 309.987 150.736 308.883 151.375 307.896C152.043 306.879 152.914 306.08 153.989 305.499C155.064 304.918 156.269 304.628 157.606 304.628C158.942 304.628 160.147 304.918 161.222 305.499C162.326 306.08 163.197 306.879 163.836 307.896C164.475 308.883 164.795 309.987 164.795 311.207C164.795 312.427 164.475 313.546 163.836 314.562C163.197 315.55 162.326 316.349 161.222 316.959C160.147 317.54 158.942 317.83 157.606 317.83ZM157.606 314.911C158.187 314.911 158.709 314.737 159.174 314.388C159.639 314.04 160.002 313.589 160.263 313.037C160.554 312.485 160.699 311.89 160.699 311.251C160.699 310.554 160.554 309.929 160.263 309.377C159.973 308.825 159.595 308.39 159.131 308.07C158.666 307.722 158.157 307.547 157.606 307.547C157.025 307.547 156.502 307.722 156.037 308.07C155.572 308.39 155.195 308.825 154.904 309.377C154.643 309.929 154.512 310.539 154.512 311.207C154.512 311.875 154.657 312.5 154.948 313.081C155.238 313.633 155.616 314.083 156.081 314.432C156.545 314.751 157.054 314.911 157.606 314.911ZM174.425 336.436C173.088 336.436 171.883 336.145 170.808 335.564C169.733 334.983 168.862 334.199 168.194 333.211C167.555 332.195 167.235 331.076 167.235 329.856C167.235 328.607 167.555 327.489 168.194 326.501C168.862 325.514 169.733 324.729 170.808 324.148C171.883 323.538 173.088 323.233 174.425 323.233C175.761 323.233 176.966 323.538 178.041 324.148C179.145 324.729 180.016 325.514 180.655 326.501C181.294 327.489 181.614 328.593 181.614 329.813C181.614 331.033 181.294 332.151 180.655 333.168C180.016 334.155 179.145 334.954 178.041 335.564C176.966 336.145 175.761 336.436 174.425 336.436ZM174.425 333.516C175.005 333.516 175.528 333.342 175.993 332.994C176.458 332.645 176.821 332.195 177.082 331.643C177.373 331.091 177.518 330.495 177.518 329.856C177.518 329.159 177.373 328.535 177.082 327.983C176.821 327.431 176.443 326.995 175.95 326.676C175.485 326.327 174.976 326.153 174.425 326.153C173.873 326.153 173.35 326.327 172.856 326.676C172.391 326.995 172.014 327.445 171.723 328.026C171.462 328.578 171.331 329.174 171.331 329.813C171.331 330.51 171.476 331.134 171.767 331.686C172.057 332.238 172.435 332.689 172.899 333.037C173.364 333.357 173.873 333.516 174.425 333.516ZM152.9 333.952L165.144 319.617L176.472 304.715L179.13 307.068L167.191 321.185L155.514 336.305L152.9 333.952Z" fill="#0B132A"/>
<path d="M184.656 134C184.656 132.693 184.757 131.516 184.961 130.471C185.164 129.425 185.513 128.452 186.006 127.551C186.529 126.651 187.227 125.808 188.098 125.024C188.998 124.211 190.131 123.426 191.497 122.671C192.688 122.032 193.733 121.48 194.634 121.015C195.534 120.522 196.29 120.071 196.9 119.665C197.539 119.258 198.018 118.851 198.337 118.445C198.657 118.009 198.817 117.515 198.817 116.963C198.817 116.382 198.657 115.859 198.337 115.395C198.018 114.901 197.568 114.509 196.987 114.218C196.406 113.928 195.68 113.782 194.808 113.782C194.111 113.782 193.457 113.87 192.847 114.044C192.266 114.218 191.714 114.465 191.192 114.785C190.698 115.104 190.233 115.467 189.797 115.874C189.362 116.252 188.969 116.658 188.621 117.094L184.917 112.824C185.324 112.417 185.861 111.981 186.529 111.517C187.227 111.023 188.04 110.573 188.969 110.166C189.928 109.73 190.974 109.382 192.107 109.12C193.269 108.83 194.503 108.684 195.81 108.684C197.786 108.684 199.47 109.004 200.865 109.643C202.259 110.253 203.319 111.11 204.045 112.214C204.801 113.318 205.178 114.61 205.178 116.092C205.178 117.108 204.99 118.009 204.612 118.793C204.234 119.578 203.755 120.275 203.174 120.885C202.593 121.466 201.954 121.989 201.257 122.453C200.589 122.918 199.935 123.325 199.296 123.673C198.396 124.138 197.582 124.574 196.856 124.981C196.13 125.358 195.491 125.75 194.939 126.157C194.387 126.535 193.893 126.927 193.457 127.333C193.051 127.74 192.688 128.205 192.368 128.728H205.658V134H184.656ZM219.01 140.492C216.774 140.492 214.755 140.013 212.954 139.054C211.153 138.096 209.788 136.789 208.858 135.133L212.213 131.647C213.027 132.78 214.043 133.68 215.263 134.349C216.483 135.017 217.747 135.351 219.054 135.351C220.1 135.351 221.015 135.133 221.799 134.697C222.612 134.261 223.252 133.651 223.716 132.867C224.181 132.083 224.413 131.182 224.413 130.166C224.413 129.149 224.196 128.263 223.76 127.508C223.324 126.752 222.729 126.172 221.973 125.765C221.218 125.329 220.361 125.111 219.403 125.111C218.444 125.111 217.544 125.329 216.701 125.765C215.888 126.172 215.234 126.767 214.74 127.551H209.642L213.215 109.12H228.466V114.436H217.442L216.178 121.364C216.556 121.015 217.079 120.725 217.747 120.493C218.415 120.231 219.243 120.1 220.231 120.1C222.177 120.1 223.92 120.522 225.459 121.364C226.999 122.206 228.204 123.383 229.076 124.893C229.947 126.375 230.383 128.089 230.383 130.035C230.383 132.097 229.889 133.913 228.901 135.481C227.914 137.079 226.563 138.314 224.849 139.185C223.135 140.057 221.189 140.492 219.01 140.492ZM240.435 115.83C239.099 115.83 237.894 115.54 236.819 114.959C235.744 114.349 234.873 113.55 234.205 112.562C233.566 111.546 233.246 110.427 233.246 109.207C233.246 107.987 233.566 106.883 234.205 105.896C234.873 104.879 235.744 104.08 236.819 103.499C237.894 102.918 239.099 102.628 240.435 102.628C241.772 102.628 242.977 102.918 244.052 103.499C245.156 104.08 246.027 104.879 246.666 105.896C247.305 106.883 247.625 107.987 247.625 109.207C247.625 110.427 247.305 111.546 246.666 112.562C246.027 113.55 245.156 114.349 244.052 114.959C242.977 115.54 241.772 115.83 240.435 115.83ZM240.435 112.911C241.016 112.911 241.539 112.737 242.004 112.388C242.469 112.04 242.832 111.589 243.093 111.037C243.384 110.485 243.529 109.89 243.529 109.251C243.529 108.554 243.384 107.929 243.093 107.377C242.803 106.825 242.425 106.39 241.961 106.07C241.496 105.722 240.987 105.547 240.435 105.547C239.855 105.547 239.332 105.722 238.867 106.07C238.402 106.39 238.024 106.825 237.734 107.377C237.473 107.929 237.342 108.539 237.342 109.207C237.342 109.875 237.487 110.5 237.778 111.081C238.068 111.633 238.446 112.083 238.91 112.432C239.375 112.751 239.884 112.911 240.435 112.911ZM257.254 134.436C255.918 134.436 254.713 134.145 253.638 133.564C252.563 132.983 251.692 132.199 251.024 131.211C250.384 130.195 250.065 129.076 250.065 127.856C250.065 126.607 250.384 125.489 251.024 124.501C251.692 123.514 252.563 122.729 253.638 122.148C254.713 121.538 255.918 121.233 257.254 121.233C258.591 121.233 259.796 121.538 260.871 122.148C261.975 122.729 262.846 123.514 263.485 124.501C264.124 125.489 264.444 126.593 264.444 127.813C264.444 129.033 264.124 130.151 263.485 131.168C262.846 132.155 261.975 132.954 260.871 133.564C259.796 134.145 258.591 134.436 257.254 134.436ZM257.254 131.516C257.835 131.516 258.358 131.342 258.823 130.994C259.288 130.645 259.651 130.195 259.912 129.643C260.203 129.091 260.348 128.495 260.348 127.856C260.348 127.159 260.203 126.535 259.912 125.983C259.651 125.431 259.273 124.995 258.779 124.676C258.315 124.327 257.806 124.153 257.254 124.153C256.702 124.153 256.18 124.327 255.686 124.676C255.221 124.995 254.843 125.445 254.553 126.026C254.291 126.578 254.161 127.174 254.161 127.813C254.161 128.51 254.306 129.134 254.596 129.686C254.887 130.238 255.265 130.689 255.729 131.037C256.194 131.357 256.702 131.516 257.254 131.516ZM235.73 131.952L247.973 117.617L259.302 102.715L261.96 105.068L250.021 119.185L238.344 134.305L235.73 131.952Z" fill="#0B132A"/>
<path d="M170.303 83.8906V84.6768H171.968V90.2188H170.303V91H174.6V90.2188H172.896V84.6768H174.6V83.8906H170.303ZM176.309 91H177.212V87.2109C177.274 87.097 177.345 86.9928 177.427 86.8984C177.511 86.804 177.603 86.721 177.7 86.6494C177.821 86.568 177.952 86.5046 178.096 86.459C178.239 86.4102 178.394 86.3857 178.56 86.3857C178.752 86.3857 178.921 86.4085 179.067 86.4541C179.217 86.4997 179.344 86.5729 179.448 86.6738C179.549 86.7747 179.626 86.9066 179.678 87.0693C179.73 87.2321 179.756 87.4307 179.756 87.665V91H180.659V87.6455C180.659 87.2939 180.615 86.9912 180.527 86.7373C180.443 86.4801 180.321 86.2686 180.161 86.1025C180.002 85.9365 179.808 85.8145 179.58 85.7363C179.355 85.6582 179.105 85.6191 178.828 85.6191C178.623 85.6224 178.428 85.6533 178.242 85.7119C178.06 85.7673 177.891 85.847 177.734 85.9512C177.63 86.0195 177.531 86.1009 177.437 86.1953C177.345 86.2865 177.261 86.3874 177.183 86.498L177.119 85.7168H176.309V91ZM184.116 91H184.805L186.958 85.7168H186.035L184.556 89.7012L184.468 90.0283L184.385 89.7012L182.871 85.7168H181.943L184.116 91ZM190.654 91.0977C191.169 91.0977 191.6 90.9951 191.948 90.79C192.3 90.5817 192.563 90.3441 192.739 90.0771L192.188 89.6475C192.021 89.8623 191.813 90.0348 191.562 90.165C191.312 90.2952 191.025 90.3604 190.703 90.3604C190.459 90.3604 190.236 90.3148 190.034 90.2236C189.832 90.1325 189.66 90.0072 189.517 89.8477C189.377 89.6979 189.266 89.5254 189.185 89.3301C189.106 89.1348 189.056 88.9085 189.033 88.6514V88.6172H192.808V88.2119C192.808 87.8441 192.76 87.5023 192.666 87.1865C192.575 86.8708 192.435 86.5957 192.246 86.3613C192.057 86.1302 191.82 85.9495 191.533 85.8193C191.25 85.6859 190.918 85.6191 190.537 85.6191C190.234 85.6191 189.938 85.681 189.648 85.8047C189.362 85.9284 189.106 86.1058 188.882 86.3369C188.654 86.5713 188.472 86.8577 188.335 87.1963C188.198 87.5316 188.13 87.9124 188.13 88.3389V88.5439C188.13 88.9118 188.192 89.252 188.315 89.5645C188.439 89.877 188.612 90.1471 188.833 90.375C189.054 90.6029 189.32 90.7803 189.629 90.9072C189.941 91.0342 190.283 91.0977 190.654 91.0977ZM190.537 86.3613C190.768 86.3613 190.967 86.4036 191.133 86.4883C191.302 86.5729 191.442 86.6836 191.553 86.8203C191.663 86.957 191.75 87.1198 191.812 87.3086C191.873 87.4941 191.904 87.6683 191.904 87.8311V87.875H189.062C189.098 87.6309 189.16 87.416 189.248 87.2305C189.339 87.0417 189.45 86.8822 189.58 86.752C189.71 86.625 189.857 86.529 190.02 86.4639C190.182 86.3955 190.355 86.3613 190.537 86.3613ZM197.837 89.5986C197.837 89.6833 197.821 89.763 197.788 89.8379C197.756 89.9128 197.708 89.9811 197.646 90.043C197.546 90.1439 197.406 90.2236 197.227 90.2822C197.048 90.3376 196.838 90.3652 196.597 90.3652C196.444 90.3652 196.289 90.349 196.133 90.3164C195.977 90.2839 195.835 90.2285 195.708 90.1504C195.578 90.0723 195.469 89.9697 195.381 89.8428C195.296 89.7158 195.247 89.5596 195.234 89.374H194.331C194.331 89.5986 194.382 89.8151 194.482 90.0234C194.587 90.2318 194.736 90.4141 194.932 90.5703C195.124 90.7298 195.36 90.8584 195.64 90.9561C195.92 91.0505 196.239 91.0977 196.597 91.0977C196.909 91.0977 197.197 91.0602 197.461 90.9854C197.725 90.9105 197.951 90.8047 198.14 90.668C198.328 90.5312 198.475 90.3669 198.579 90.1748C198.687 89.9827 198.74 89.7695 198.74 89.5352C198.74 89.3171 198.693 89.125 198.599 88.959C198.507 88.793 198.374 88.6465 198.198 88.5195C198.022 88.3958 197.806 88.29 197.549 88.2021C197.292 88.111 197 88.0312 196.675 87.9629C196.427 87.9141 196.222 87.8636 196.06 87.8115C195.9 87.7594 195.773 87.7008 195.679 87.6357C195.581 87.5706 195.513 87.4974 195.474 87.416C195.435 87.3346 195.415 87.2419 195.415 87.1377C195.415 87.0368 195.439 86.9391 195.488 86.8447C195.537 86.7503 195.61 86.6673 195.708 86.5957C195.802 86.5241 195.921 86.4671 196.064 86.4248C196.211 86.3825 196.38 86.3613 196.572 86.3613C196.758 86.3613 196.924 86.3874 197.07 86.4395C197.22 86.4915 197.347 86.5599 197.451 86.6445C197.555 86.7292 197.637 86.8268 197.695 86.9375C197.754 87.0449 197.783 87.1556 197.783 87.2695H198.687C198.687 87.0384 198.636 86.8236 198.535 86.625C198.438 86.4232 198.298 86.2474 198.115 86.0977C197.933 85.9479 197.712 85.8307 197.451 85.7461C197.191 85.6615 196.898 85.6191 196.572 85.6191C196.27 85.6191 195.991 85.6598 195.737 85.7412C195.487 85.8226 195.27 85.9333 195.088 86.0732C194.906 86.2132 194.764 86.3776 194.663 86.5664C194.562 86.752 194.512 86.9521 194.512 87.167C194.512 87.3851 194.561 87.5771 194.658 87.7432C194.756 87.9059 194.894 88.0475 195.073 88.168C195.249 88.2917 195.461 88.3975 195.708 88.4854C195.959 88.5732 196.235 88.6481 196.538 88.71C196.785 88.7588 196.992 88.8141 197.158 88.876C197.324 88.9346 197.458 88.9997 197.559 89.0713C197.66 89.1429 197.731 89.2227 197.773 89.3105C197.816 89.3952 197.837 89.4912 197.837 89.5986ZM202.471 84.4375H201.562V85.7168H200.176V86.415H201.562V89.2861C201.562 89.6117 201.605 89.89 201.689 90.1211C201.777 90.349 201.896 90.5345 202.046 90.6777C202.196 90.8242 202.371 90.9316 202.573 91C202.778 91.0651 202.998 91.0977 203.232 91.0977C203.372 91.0977 203.512 91.0911 203.652 91.0781C203.796 91.0651 203.931 91.0456 204.058 91.0195C204.185 90.9967 204.302 90.9691 204.409 90.9365C204.517 90.9007 204.608 90.86 204.683 90.8145L204.556 90.1748C204.5 90.1878 204.429 90.2041 204.341 90.2236C204.256 90.2399 204.165 90.2562 204.067 90.2725C203.966 90.2887 203.864 90.3034 203.76 90.3164C203.656 90.3262 203.555 90.3311 203.457 90.3311C203.324 90.3311 203.197 90.3148 203.076 90.2822C202.959 90.2497 202.855 90.1927 202.764 90.1113C202.673 90.0332 202.601 89.9274 202.549 89.7939C202.497 89.6605 202.471 89.4912 202.471 89.2861V86.415H204.482V85.7168H202.471V84.4375ZM206.753 85.7168H205.942V91H206.802V86.7959C206.821 86.7438 206.846 86.695 206.875 86.6494C206.908 86.6038 206.945 86.5632 206.987 86.5273C207.043 86.4818 207.109 86.4476 207.188 86.4248C207.269 86.3988 207.363 86.3857 207.471 86.3857C207.568 86.3857 207.653 86.3988 207.725 86.4248C207.799 86.4476 207.861 86.485 207.91 86.5371C207.962 86.5924 208 86.6624 208.022 86.7471C208.049 86.8317 208.062 86.9294 208.062 87.04V91H208.921V87.0449C208.921 87.0254 208.921 87.0091 208.921 86.9961C208.921 86.9798 208.921 86.9635 208.921 86.9473C208.931 86.8659 208.95 86.7926 208.979 86.7275C209.009 86.6592 209.049 86.599 209.102 86.5469C209.154 86.498 209.219 86.459 209.297 86.4297C209.375 86.4004 209.468 86.3857 209.575 86.3857C209.676 86.3857 209.764 86.3988 209.839 86.4248C209.917 86.4508 209.982 86.4899 210.034 86.542C210.083 86.5973 210.12 86.6673 210.146 86.752C210.173 86.8366 210.186 86.9342 210.186 87.0449V91H211.045V87.0547C211.045 86.8008 211.016 86.5811 210.957 86.3955C210.898 86.2067 210.814 86.0537 210.703 85.9365C210.602 85.8324 210.479 85.7542 210.332 85.7021C210.186 85.6468 210.021 85.6191 209.839 85.6191C209.705 85.6224 209.582 85.6403 209.468 85.6729C209.357 85.7054 209.256 85.7493 209.165 85.8047C209.093 85.8535 209.027 85.9105 208.965 85.9756C208.903 86.0407 208.849 86.1107 208.804 86.1855C208.768 86.1042 208.724 86.0309 208.672 85.9658C208.623 85.9007 208.568 85.8454 208.506 85.7998C208.421 85.7412 208.322 85.6973 208.208 85.668C208.097 85.6354 207.972 85.6191 207.832 85.6191C207.585 85.6224 207.373 85.6761 207.197 85.7803C207.025 85.8844 206.885 86.0293 206.777 86.2148L206.753 85.7168ZM214.678 91.0977C215.192 91.0977 215.623 90.9951 215.972 90.79C216.323 90.5817 216.587 90.3441 216.763 90.0771L216.211 89.6475C216.045 89.8623 215.837 90.0348 215.586 90.165C215.335 90.2952 215.049 90.3604 214.727 90.3604C214.482 90.3604 214.259 90.3148 214.058 90.2236C213.856 90.1325 213.683 90.0072 213.54 89.8477C213.4 89.6979 213.289 89.5254 213.208 89.3301C213.13 89.1348 213.079 88.9085 213.057 88.6514V88.6172H216.831V88.2119C216.831 87.8441 216.784 87.5023 216.689 87.1865C216.598 86.8708 216.458 86.5957 216.27 86.3613C216.081 86.1302 215.843 85.9495 215.557 85.8193C215.273 85.6859 214.941 85.6191 214.561 85.6191C214.258 85.6191 213.962 85.681 213.672 85.8047C213.385 85.9284 213.13 86.1058 212.905 86.3369C212.677 86.5713 212.495 86.8577 212.358 87.1963C212.222 87.5316 212.153 87.9124 212.153 88.3389V88.5439C212.153 88.9118 212.215 89.252 212.339 89.5645C212.463 89.877 212.635 90.1471 212.856 90.375C213.078 90.6029 213.343 90.7803 213.652 90.9072C213.965 91.0342 214.307 91.0977 214.678 91.0977ZM214.561 86.3613C214.792 86.3613 214.99 86.4036 215.156 86.4883C215.326 86.5729 215.465 86.6836 215.576 86.8203C215.687 86.957 215.773 87.1198 215.835 87.3086C215.897 87.4941 215.928 87.6683 215.928 87.8311V87.875H213.086C213.122 87.6309 213.184 87.416 213.271 87.2305C213.363 87.0417 213.473 86.8822 213.604 86.752C213.734 86.625 213.88 86.529 214.043 86.4639C214.206 86.3955 214.378 86.3613 214.561 86.3613ZM218.35 91H219.253V87.2109C219.315 87.097 219.386 86.9928 219.468 86.8984C219.552 86.804 219.644 86.721 219.741 86.6494C219.862 86.568 219.993 86.5046 220.137 86.459C220.28 86.4102 220.435 86.3857 220.601 86.3857C220.793 86.3857 220.962 86.4085 221.108 86.4541C221.258 86.4997 221.385 86.5729 221.489 86.6738C221.59 86.7747 221.667 86.9066 221.719 87.0693C221.771 87.2321 221.797 87.4307 221.797 87.665V91H222.7V87.6455C222.7 87.2939 222.656 86.9912 222.568 86.7373C222.484 86.4801 222.362 86.2686 222.202 86.1025C222.043 85.9365 221.849 85.8145 221.621 85.7363C221.396 85.6582 221.146 85.6191 220.869 85.6191C220.664 85.6224 220.469 85.6533 220.283 85.7119C220.101 85.7673 219.932 85.847 219.775 85.9512C219.671 86.0195 219.572 86.1009 219.478 86.1953C219.386 86.2865 219.302 86.3874 219.224 86.498L219.16 85.7168H218.35V91ZM226.494 84.4375H225.586V85.7168H224.199V86.415H225.586V89.2861C225.586 89.6117 225.628 89.89 225.713 90.1211C225.801 90.349 225.92 90.5345 226.069 90.6777C226.219 90.8242 226.395 90.9316 226.597 91C226.802 91.0651 227.021 91.0977 227.256 91.0977C227.396 91.0977 227.536 91.0911 227.676 91.0781C227.819 91.0651 227.954 91.0456 228.081 91.0195C228.208 90.9967 228.325 90.9691 228.433 90.9365C228.54 90.9007 228.631 90.86 228.706 90.8145L228.579 90.1748C228.524 90.1878 228.452 90.2041 228.364 90.2236C228.28 90.2399 228.188 90.2562 228.091 90.2725C227.99 90.2887 227.887 90.3034 227.783 90.3164C227.679 90.3262 227.578 90.3311 227.48 90.3311C227.347 90.3311 227.22 90.3148 227.1 90.2822C226.982 90.2497 226.878 90.1927 226.787 90.1113C226.696 90.0332 226.624 89.9274 226.572 89.7939C226.52 89.6605 226.494 89.4912 226.494 89.2861V86.415H228.506V85.7168H226.494V84.4375ZM236.509 85.7168V86.5029H238.306V90.2188H236.509V91H240.933V90.2188H239.209V85.7168H236.509ZM238.188 84.3301C238.188 84.4766 238.232 84.5986 238.32 84.6963C238.411 84.7939 238.548 84.8428 238.73 84.8428C238.91 84.8428 239.045 84.7939 239.136 84.6963C239.227 84.5986 239.272 84.4766 239.272 84.3301C239.272 84.2487 239.259 84.1738 239.233 84.1055C239.207 84.0371 239.168 83.9801 239.116 83.9346C239.074 83.8923 239.02 83.8597 238.955 83.8369C238.89 83.8109 238.815 83.7979 238.73 83.7979C238.646 83.7979 238.569 83.8109 238.501 83.8369C238.436 83.8597 238.382 83.8923 238.34 83.9346C238.288 83.9834 238.249 84.042 238.223 84.1104C238.2 84.1787 238.188 84.252 238.188 84.3301ZM242.373 91H243.276V87.2109C243.338 87.097 243.41 86.9928 243.491 86.8984C243.576 86.804 243.667 86.721 243.765 86.6494C243.885 86.568 244.017 86.5046 244.16 86.459C244.303 86.4102 244.458 86.3857 244.624 86.3857C244.816 86.3857 244.985 86.4085 245.132 86.4541C245.282 86.4997 245.409 86.5729 245.513 86.6738C245.614 86.7747 245.69 86.9066 245.742 87.0693C245.794 87.2321 245.82 87.4307 245.82 87.665V91H246.724V87.6455C246.724 87.2939 246.68 86.9912 246.592 86.7373C246.507 86.4801 246.385 86.2686 246.226 86.1025C246.066 85.9365 245.872 85.8145 245.645 85.7363C245.42 85.6582 245.169 85.6191 244.893 85.6191C244.688 85.6224 244.492 85.6533 244.307 85.7119C244.124 85.7673 243.955 85.847 243.799 85.9512C243.695 86.0195 243.595 86.1009 243.501 86.1953C243.41 86.2865 243.325 86.3874 243.247 86.498L243.184 85.7168H242.373V91ZM248.208 88.3145V88.417C248.208 88.7946 248.258 89.1478 248.359 89.4766C248.46 89.8021 248.602 90.0853 248.784 90.3262C248.966 90.5671 249.186 90.7559 249.443 90.8926C249.704 91.0293 249.993 91.0977 250.312 91.0977C250.638 91.0977 250.923 91.0423 251.167 90.9316C251.411 90.821 251.621 90.6582 251.797 90.4434L251.836 91H252.666V83.5H251.763V86.2393C251.59 86.0374 251.385 85.8844 251.147 85.7803C250.913 85.6729 250.638 85.6191 250.322 85.6191C250 85.6191 249.709 85.6859 249.448 85.8193C249.188 85.9528 248.966 86.1383 248.784 86.376C248.599 86.6136 248.455 86.8984 248.354 87.2305C248.257 87.5592 248.208 87.9206 248.208 88.3145ZM249.111 88.417V88.3145C249.111 88.0573 249.139 87.8132 249.194 87.582C249.25 87.3477 249.336 87.141 249.453 86.9619C249.567 86.7861 249.714 86.6462 249.893 86.542C250.075 86.4378 250.293 86.3857 250.547 86.3857C250.843 86.3857 251.09 86.4557 251.289 86.5957C251.488 86.7324 251.646 86.9082 251.763 87.123V89.5742C251.646 89.8053 251.488 89.9893 251.289 90.126C251.09 90.2627 250.84 90.3311 250.537 90.3311C250.286 90.3311 250.072 90.2806 249.893 90.1797C249.714 90.0755 249.567 89.9355 249.453 89.7598C249.336 89.584 249.25 89.3805 249.194 89.1494C249.139 88.9183 249.111 88.6742 249.111 88.417ZM256.719 91.0977C257.233 91.0977 257.664 90.9951 258.013 90.79C258.364 90.5817 258.628 90.3441 258.804 90.0771L258.252 89.6475C258.086 89.8623 257.878 90.0348 257.627 90.165C257.376 90.2952 257.09 90.3604 256.768 90.3604C256.523 90.3604 256.3 90.3148 256.099 90.2236C255.897 90.1325 255.724 90.0072 255.581 89.8477C255.441 89.6979 255.33 89.5254 255.249 89.3301C255.171 89.1348 255.12 88.9085 255.098 88.6514V88.6172H258.872V88.2119C258.872 87.8441 258.825 87.5023 258.73 87.1865C258.639 86.8708 258.499 86.5957 258.311 86.3613C258.122 86.1302 257.884 85.9495 257.598 85.8193C257.314 85.6859 256.982 85.6191 256.602 85.6191C256.299 85.6191 256.003 85.681 255.713 85.8047C255.426 85.9284 255.171 86.1058 254.946 86.3369C254.718 86.5713 254.536 86.8577 254.399 87.1963C254.263 87.5316 254.194 87.9124 254.194 88.3389V88.5439C254.194 88.9118 254.256 89.252 254.38 89.5645C254.504 89.877 254.676 90.1471 254.897 90.375C255.119 90.6029 255.384 90.7803 255.693 90.9072C256.006 91.0342 256.348 91.0977 256.719 91.0977ZM256.602 86.3613C256.833 86.3613 257.031 86.4036 257.197 86.4883C257.367 86.5729 257.507 86.6836 257.617 86.8203C257.728 86.957 257.814 87.1198 257.876 87.3086C257.938 87.4941 257.969 87.6683 257.969 87.8311V87.875H255.127C255.163 87.6309 255.225 87.416 255.312 87.2305C255.404 87.0417 255.514 86.8822 255.645 86.752C255.775 86.625 255.921 86.529 256.084 86.4639C256.247 86.3955 256.419 86.3613 256.602 86.3613ZM262.573 87.6748L261.177 85.7168H260.132L262.1 88.3291L260.078 91H261.133L262.593 88.9883L264.053 91H265.098L263.076 88.3291L265.044 85.7168H263.984L262.573 87.6748Z" fill="#0B132A"/>
<path d="M279.97 224.763V224.138C279.966 223.877 279.944 223.614 279.901 223.347C279.859 223.076 279.796 222.818 279.711 222.57C279.623 222.323 279.511 222.092 279.374 221.877C279.241 221.659 279.081 221.47 278.896 221.311C278.707 221.151 278.49 221.026 278.246 220.935C278.005 220.84 277.733 220.793 277.431 220.793C277.128 220.793 276.854 220.84 276.61 220.935C276.369 221.026 276.156 221.151 275.971 221.311C275.782 221.473 275.621 221.664 275.487 221.882C275.354 222.097 275.243 222.328 275.155 222.575C275.067 222.823 275.002 223.08 274.96 223.347C274.918 223.614 274.895 223.877 274.892 224.138V224.763C274.895 225.023 274.918 225.287 274.96 225.554C275.002 225.817 275.067 226.073 275.155 226.32C275.243 226.568 275.355 226.8 275.492 227.019C275.629 227.233 275.792 227.421 275.98 227.58C276.166 227.74 276.379 227.867 276.62 227.961C276.861 228.052 277.133 228.098 277.436 228.098C277.553 228.098 277.665 228.09 277.772 228.073C277.883 228.06 277.989 228.039 278.09 228.01L279.496 229.201L280.116 228.61L278.891 227.59C279.079 227.43 279.241 227.243 279.374 227.028C279.511 226.81 279.623 226.577 279.711 226.33C279.796 226.083 279.859 225.826 279.901 225.559C279.944 225.292 279.966 225.026 279.97 224.763ZM279.071 224.128V224.763C279.068 224.942 279.057 225.129 279.037 225.324C279.021 225.516 278.99 225.707 278.944 225.896C278.896 226.084 278.832 226.263 278.754 226.433C278.676 226.602 278.576 226.75 278.456 226.877C278.336 227.007 278.191 227.111 278.021 227.189C277.855 227.264 277.66 227.302 277.436 227.302C277.214 227.302 277.019 227.264 276.85 227.189C276.684 227.111 276.54 227.007 276.42 226.877C276.299 226.747 276.199 226.597 276.117 226.428C276.039 226.258 275.976 226.079 275.927 225.891C275.878 225.702 275.842 225.511 275.819 225.319C275.8 225.124 275.79 224.938 275.79 224.763V224.128C275.79 223.952 275.8 223.768 275.819 223.576C275.842 223.381 275.878 223.189 275.927 223C275.976 222.814 276.039 222.637 276.117 222.468C276.199 222.299 276.299 222.149 276.42 222.019C276.54 221.892 276.684 221.791 276.85 221.716C277.016 221.638 277.209 221.599 277.431 221.599C277.655 221.599 277.851 221.636 278.017 221.711C278.186 221.786 278.331 221.887 278.451 222.014C278.572 222.144 278.671 222.294 278.749 222.463C278.83 222.632 278.896 222.81 278.944 222.995C278.99 223.184 279.021 223.376 279.037 223.571C279.057 223.763 279.068 223.949 279.071 224.128ZM284.77 228H285.59V222.717H284.682V226.506C284.633 226.62 284.571 226.726 284.496 226.823C284.424 226.918 284.34 226.999 284.242 227.067C284.125 227.152 283.987 227.219 283.827 227.268C283.668 227.313 283.487 227.336 283.285 227.336C283.113 227.336 282.96 227.313 282.826 227.268C282.696 227.222 282.585 227.142 282.494 227.028C282.403 226.918 282.335 226.768 282.289 226.579C282.243 226.39 282.221 226.153 282.221 225.866V222.717H281.317V225.856C281.317 226.25 281.36 226.589 281.444 226.872C281.532 227.152 281.656 227.383 281.815 227.565C281.975 227.748 282.167 227.883 282.392 227.971C282.616 228.055 282.867 228.098 283.144 228.098C283.489 228.098 283.793 228.026 284.057 227.883C284.32 227.736 284.54 227.533 284.716 227.272L284.77 228ZM290.766 228H291.708V227.922C291.649 227.775 291.604 227.604 291.571 227.409C291.539 227.211 291.522 227.023 291.522 226.848V224.392C291.522 224.095 291.469 223.837 291.361 223.615C291.254 223.394 291.107 223.208 290.922 223.059C290.733 222.912 290.51 222.803 290.253 222.731C289.996 222.657 289.717 222.619 289.418 222.619C289.089 222.619 288.795 222.665 288.534 222.756C288.277 222.847 288.059 222.966 287.88 223.112C287.698 223.262 287.558 223.43 287.46 223.615C287.366 223.801 287.317 223.99 287.313 224.182H288.222C288.222 224.071 288.248 223.965 288.3 223.864C288.355 223.76 288.432 223.671 288.529 223.596C288.627 223.521 288.746 223.461 288.886 223.415C289.029 223.369 289.19 223.347 289.369 223.347C289.561 223.347 289.734 223.371 289.887 223.42C290.043 223.469 290.175 223.537 290.282 223.625C290.39 223.716 290.473 223.825 290.531 223.952C290.59 224.079 290.619 224.222 290.619 224.382V224.797H289.633C289.265 224.797 288.931 224.833 288.632 224.904C288.336 224.976 288.082 225.083 287.87 225.227C287.659 225.373 287.494 225.555 287.377 225.773C287.263 225.992 287.206 226.245 287.206 226.535C287.206 226.757 287.248 226.963 287.333 227.155C287.421 227.344 287.545 227.507 287.704 227.644C287.86 227.784 288.051 227.894 288.275 227.976C288.503 228.057 288.757 228.098 289.037 228.098C289.21 228.098 289.372 228.08 289.525 228.044C289.678 228.008 289.823 227.959 289.96 227.897C290.093 227.836 290.215 227.764 290.326 227.683C290.44 227.601 290.543 227.515 290.634 227.424C290.644 227.535 290.658 227.642 290.678 227.746C290.701 227.847 290.73 227.932 290.766 228ZM289.169 227.312C288.993 227.312 288.839 227.289 288.705 227.243C288.572 227.198 288.461 227.134 288.373 227.053C288.285 226.975 288.218 226.88 288.173 226.77C288.131 226.659 288.109 226.538 288.109 226.408C288.109 226.271 288.134 226.149 288.183 226.042C288.235 225.935 288.31 225.842 288.407 225.764C288.544 225.653 288.728 225.572 288.959 225.52C289.193 225.464 289.467 225.437 289.779 225.437H290.619V226.506C290.567 226.61 290.495 226.711 290.404 226.809C290.313 226.903 290.206 226.988 290.082 227.062C289.955 227.137 289.815 227.198 289.662 227.243C289.509 227.289 289.345 227.312 289.169 227.312ZM293.441 220.5V221.286H295.238V227.219H293.441V228H297.865V227.219H296.142V220.5H293.441ZM299.447 222.717V223.503H301.244V227.219H299.447V228H303.871V227.219H302.147V222.717H299.447ZM301.127 221.33C301.127 221.477 301.171 221.599 301.259 221.696C301.35 221.794 301.487 221.843 301.669 221.843C301.848 221.843 301.983 221.794 302.074 221.696C302.165 221.599 302.211 221.477 302.211 221.33C302.211 221.249 302.198 221.174 302.172 221.105C302.146 221.037 302.107 220.98 302.055 220.935C302.012 220.892 301.959 220.86 301.894 220.837C301.828 220.811 301.754 220.798 301.669 220.798C301.584 220.798 301.508 220.811 301.439 220.837C301.374 220.86 301.321 220.892 301.278 220.935C301.226 220.983 301.187 221.042 301.161 221.11C301.138 221.179 301.127 221.252 301.127 221.33ZM307.45 221.438H306.542V222.717H305.155V223.415H306.542V226.286C306.542 226.612 306.584 226.89 306.669 227.121C306.757 227.349 306.876 227.535 307.025 227.678C307.175 227.824 307.351 227.932 307.553 228C307.758 228.065 307.978 228.098 308.212 228.098C308.352 228.098 308.492 228.091 308.632 228.078C308.775 228.065 308.91 228.046 309.037 228.02C309.164 227.997 309.281 227.969 309.389 227.937C309.496 227.901 309.587 227.86 309.662 227.814L309.535 227.175C309.48 227.188 309.408 227.204 309.32 227.224C309.236 227.24 309.145 227.256 309.047 227.272C308.946 227.289 308.843 227.303 308.739 227.316C308.635 227.326 308.534 227.331 308.437 227.331C308.303 227.331 308.176 227.315 308.056 227.282C307.938 227.25 307.834 227.193 307.743 227.111C307.652 227.033 307.58 226.927 307.528 226.794C307.476 226.66 307.45 226.491 307.45 226.286V223.415H309.462V222.717H307.45V221.438ZM311.742 230.134C311.98 230.134 312.19 230.09 312.372 230.002C312.554 229.914 312.714 229.805 312.851 229.675C312.987 229.545 313.103 229.403 313.197 229.25C313.295 229.097 313.375 228.952 313.437 228.815L316.117 222.717H315.106L313.744 226.145L313.495 226.765L313.261 226.125L311.811 222.717H310.8L313.075 227.751L312.714 228.454C312.681 228.519 312.636 228.602 312.577 228.703C312.522 228.804 312.455 228.902 312.377 228.996C312.296 229.09 312.203 229.172 312.099 229.24C311.998 229.309 311.885 229.343 311.762 229.343C311.716 229.343 311.653 229.34 311.571 229.333C311.493 229.33 311.413 229.325 311.332 229.318L311.186 230.056C311.244 230.069 311.33 230.085 311.444 230.104C311.558 230.124 311.658 230.134 311.742 230.134ZM323.075 225.31V225.417C323.075 225.798 323.131 226.151 323.241 226.477C323.352 226.802 323.511 227.085 323.72 227.326C323.925 227.567 324.175 227.756 324.472 227.893C324.771 228.029 325.108 228.098 325.482 228.098C325.854 228.098 326.187 228.029 326.483 227.893C326.78 227.756 327.032 227.567 327.24 227.326C327.445 227.085 327.603 226.802 327.714 226.477C327.825 226.151 327.88 225.798 327.88 225.417V225.31C327.88 224.929 327.825 224.576 327.714 224.25C327.603 223.921 327.445 223.636 327.24 223.396C327.032 223.155 326.778 222.966 326.479 222.829C326.182 222.689 325.847 222.619 325.473 222.619C325.102 222.619 324.768 222.689 324.472 222.829C324.175 222.966 323.925 223.155 323.72 223.396C323.511 223.636 323.352 223.921 323.241 224.25C323.131 224.576 323.075 224.929 323.075 225.31ZM323.979 225.417V225.31C323.979 225.052 324.009 224.807 324.071 224.572C324.133 224.335 324.228 224.126 324.354 223.947C324.478 223.768 324.633 223.627 324.818 223.522C325.004 223.415 325.222 223.361 325.473 223.361C325.723 223.361 325.941 223.415 326.127 223.522C326.316 223.627 326.474 223.768 326.601 223.947C326.724 224.126 326.817 224.335 326.879 224.572C326.944 224.807 326.977 225.052 326.977 225.31V225.417C326.977 225.677 326.946 225.926 326.884 226.164C326.822 226.398 326.729 226.605 326.605 226.784C326.479 226.963 326.321 227.105 326.132 227.209C325.946 227.313 325.73 227.365 325.482 227.365C325.232 227.365 325.012 227.313 324.823 227.209C324.634 227.105 324.478 226.963 324.354 226.784C324.228 226.605 324.133 226.398 324.071 226.164C324.009 225.926 323.979 225.677 323.979 225.417ZM330.683 228H331.591V223.415H333.627V222.717H331.591V222.346C331.591 222.124 331.618 221.931 331.674 221.765C331.732 221.599 331.817 221.464 331.928 221.359C332.032 221.258 332.162 221.184 332.318 221.135C332.478 221.083 332.66 221.057 332.865 221.057C333.067 221.057 333.256 221.075 333.432 221.11C333.611 221.143 333.767 221.182 333.9 221.228L334.008 220.48C333.923 220.458 333.84 220.438 333.759 220.422C333.677 220.402 333.596 220.384 333.515 220.368C333.391 220.345 333.266 220.327 333.139 220.314C333.012 220.298 332.883 220.29 332.753 220.29C332.44 220.29 332.157 220.334 331.903 220.422C331.649 220.51 331.433 220.64 331.254 220.812C331.072 220.985 330.93 221.2 330.829 221.457C330.731 221.711 330.683 222.007 330.683 222.346V222.717H329.228V223.415H330.683V228ZM341.488 220.5V221.286H343.285V227.219H341.488V228H345.912V227.219H344.188V220.5H341.488ZM347.494 222.717V223.503H349.291V227.219H347.494V228H351.918V227.219H350.194V222.717H347.494ZM349.174 221.33C349.174 221.477 349.218 221.599 349.306 221.696C349.397 221.794 349.534 221.843 349.716 221.843C349.895 221.843 350.03 221.794 350.121 221.696C350.212 221.599 350.258 221.477 350.258 221.33C350.258 221.249 350.245 221.174 350.219 221.105C350.193 221.037 350.154 220.98 350.102 220.935C350.059 220.892 350.006 220.86 349.94 220.837C349.875 220.811 349.8 220.798 349.716 220.798C349.631 220.798 349.555 220.811 349.486 220.837C349.421 220.86 349.368 220.892 349.325 220.935C349.273 220.983 349.234 221.042 349.208 221.11C349.185 221.179 349.174 221.252 349.174 221.33ZM355.16 228H355.849L358.002 222.717H357.079L355.6 226.701L355.512 227.028L355.429 226.701L353.915 222.717H352.987L355.16 228ZM359.506 222.717V223.503H361.303V227.219H359.506V228H363.93V227.219H362.206V222.717H359.506ZM361.186 221.33C361.186 221.477 361.229 221.599 361.317 221.696C361.409 221.794 361.545 221.843 361.728 221.843C361.907 221.843 362.042 221.794 362.133 221.696C362.224 221.599 362.27 221.477 362.27 221.33C362.27 221.249 362.257 221.174 362.23 221.105C362.204 221.037 362.165 220.98 362.113 220.935C362.071 220.892 362.017 220.86 361.952 220.837C361.887 220.811 361.812 220.798 361.728 220.798C361.643 220.798 361.566 220.811 361.498 220.837C361.433 220.86 361.379 220.892 361.337 220.935C361.285 220.983 361.246 221.042 361.22 221.11C361.197 221.179 361.186 221.252 361.186 221.33ZM365.37 228H366.273V224.211C366.335 224.097 366.407 223.993 366.488 223.898C366.573 223.804 366.664 223.721 366.762 223.649C366.882 223.568 367.014 223.505 367.157 223.459C367.3 223.41 367.455 223.386 367.621 223.386C367.813 223.386 367.982 223.409 368.129 223.454C368.279 223.5 368.406 223.573 368.51 223.674C368.611 223.775 368.687 223.907 368.739 224.069C368.791 224.232 368.817 224.431 368.817 224.665V228H369.721V224.646C369.721 224.294 369.677 223.991 369.589 223.737C369.504 223.48 369.382 223.269 369.223 223.103C369.063 222.937 368.869 222.814 368.642 222.736C368.417 222.658 368.166 222.619 367.89 222.619C367.685 222.622 367.489 222.653 367.304 222.712C367.121 222.767 366.952 222.847 366.796 222.951C366.692 223.02 366.592 223.101 366.498 223.195C366.407 223.286 366.322 223.387 366.244 223.498L366.181 222.717H365.37V228ZM371.21 225.314V225.417C371.21 225.795 371.259 226.148 371.356 226.477C371.454 226.802 371.594 227.085 371.776 227.326C371.955 227.567 372.175 227.756 372.436 227.893C372.696 228.029 372.987 228.098 373.31 228.098C373.502 228.098 373.681 228.076 373.847 228.034C374.013 227.995 374.164 227.938 374.301 227.863C374.389 227.814 374.47 227.757 374.545 227.692C374.623 227.627 374.696 227.556 374.765 227.478V227.932C374.765 228.16 374.732 228.361 374.667 228.537C374.602 228.713 374.509 228.859 374.389 228.977C374.265 229.097 374.117 229.188 373.944 229.25C373.772 229.312 373.578 229.343 373.363 229.343C373.243 229.343 373.122 229.33 373.002 229.304C372.882 229.281 372.761 229.242 372.641 229.187C372.52 229.131 372.401 229.056 372.284 228.962C372.167 228.871 372.053 228.758 371.942 228.625L371.474 229.167C371.594 229.34 371.737 229.484 371.903 229.602C372.073 229.719 372.248 229.812 372.431 229.88C372.61 229.951 372.787 230.002 372.963 230.031C373.139 230.064 373.295 230.08 373.432 230.08C373.764 230.08 374.066 230.031 374.34 229.934C374.613 229.836 374.849 229.693 375.048 229.504C375.243 229.315 375.395 229.086 375.502 228.815C375.613 228.545 375.668 228.236 375.668 227.888V222.717H374.848L374.804 223.293C374.742 223.215 374.675 223.143 374.604 223.078C374.535 223.013 374.462 222.956 374.384 222.907C374.241 222.813 374.079 222.741 373.9 222.692C373.725 222.644 373.531 222.619 373.319 222.619C372.991 222.619 372.696 222.686 372.436 222.819C372.175 222.953 371.954 223.138 371.771 223.376C371.589 223.614 371.449 223.898 371.352 224.23C371.257 224.559 371.21 224.921 371.21 225.314ZM372.113 225.417V225.314C372.113 225.057 372.139 224.813 372.191 224.582C372.247 224.348 372.333 224.141 372.45 223.962C372.564 223.786 372.711 223.646 372.89 223.542C373.072 223.438 373.29 223.386 373.544 223.386C373.694 223.386 373.83 223.405 373.954 223.444C374.078 223.48 374.19 223.531 374.291 223.596C374.392 223.664 374.481 223.744 374.56 223.835C374.638 223.926 374.706 224.027 374.765 224.138V226.56C374.706 226.674 374.638 226.778 374.56 226.872C374.481 226.966 374.394 227.048 374.296 227.116C374.195 227.185 374.081 227.238 373.954 227.277C373.83 227.313 373.69 227.331 373.534 227.331C373.284 227.331 373.069 227.281 372.89 227.18C372.711 227.076 372.564 226.936 372.45 226.76C372.333 226.584 372.247 226.381 372.191 226.149C372.139 225.918 372.113 225.674 372.113 225.417ZM383.529 222.717V223.503H385.326V227.219H383.529V228H387.953V227.219H386.229V222.717H383.529ZM385.209 221.33C385.209 221.477 385.253 221.599 385.341 221.696C385.432 221.794 385.569 221.843 385.751 221.843C385.93 221.843 386.065 221.794 386.156 221.696C386.247 221.599 386.293 221.477 386.293 221.33C386.293 221.249 386.28 221.174 386.254 221.105C386.228 221.037 386.189 220.98 386.137 220.935C386.094 220.892 386.041 220.86 385.976 220.837C385.91 220.811 385.836 220.798 385.751 220.798C385.666 220.798 385.59 220.811 385.521 220.837C385.456 220.86 385.403 220.892 385.36 220.935C385.308 220.983 385.269 221.042 385.243 221.11C385.22 221.179 385.209 221.252 385.209 221.33ZM389.394 228H390.297V224.211C390.359 224.097 390.43 223.993 390.512 223.898C390.596 223.804 390.688 223.721 390.785 223.649C390.906 223.568 391.037 223.505 391.181 223.459C391.324 223.41 391.479 223.386 391.645 223.386C391.837 223.386 392.006 223.409 392.152 223.454C392.302 223.5 392.429 223.573 392.533 223.674C392.634 223.775 392.711 223.907 392.763 224.069C392.815 224.232 392.841 224.431 392.841 224.665V228H393.744V224.646C393.744 224.294 393.7 223.991 393.612 223.737C393.528 223.48 393.406 223.269 393.246 223.103C393.087 222.937 392.893 222.814 392.665 222.736C392.44 222.658 392.19 222.619 391.913 222.619C391.708 222.622 391.513 222.653 391.327 222.712C391.145 222.767 390.976 222.847 390.819 222.951C390.715 223.02 390.616 223.101 390.521 223.195C390.43 223.286 390.346 223.387 390.268 223.498L390.204 222.717H389.394V228ZM395.229 225.314V225.417C395.229 225.795 395.279 226.148 395.38 226.477C395.481 226.802 395.622 227.085 395.805 227.326C395.987 227.567 396.207 227.756 396.464 227.893C396.724 228.029 397.014 228.098 397.333 228.098C397.659 228.098 397.943 228.042 398.188 227.932C398.432 227.821 398.642 227.658 398.817 227.443L398.856 228H399.687V220.5H398.783V223.239C398.611 223.037 398.406 222.884 398.168 222.78C397.934 222.673 397.659 222.619 397.343 222.619C397.021 222.619 396.729 222.686 396.469 222.819C396.208 222.953 395.987 223.138 395.805 223.376C395.619 223.614 395.476 223.898 395.375 224.23C395.277 224.559 395.229 224.921 395.229 225.314ZM396.132 225.417V225.314C396.132 225.057 396.16 224.813 396.215 224.582C396.27 224.348 396.356 224.141 396.474 223.962C396.588 223.786 396.734 223.646 396.913 223.542C397.095 223.438 397.313 223.386 397.567 223.386C397.864 223.386 398.111 223.456 398.31 223.596C398.508 223.732 398.666 223.908 398.783 224.123V226.574C398.666 226.805 398.508 226.989 398.31 227.126C398.111 227.263 397.86 227.331 397.558 227.331C397.307 227.331 397.092 227.281 396.913 227.18C396.734 227.076 396.588 226.936 396.474 226.76C396.356 226.584 396.27 226.381 396.215 226.149C396.16 225.918 396.132 225.674 396.132 225.417ZM403.739 228.098C404.254 228.098 404.685 227.995 405.033 227.79C405.385 227.582 405.648 227.344 405.824 227.077L405.272 226.647C405.106 226.862 404.898 227.035 404.647 227.165C404.397 227.295 404.11 227.36 403.788 227.36C403.544 227.36 403.321 227.315 403.119 227.224C402.917 227.132 402.745 227.007 402.602 226.848C402.462 226.698 402.351 226.525 402.27 226.33C402.191 226.135 402.141 225.909 402.118 225.651V225.617H405.893V225.212C405.893 224.844 405.845 224.502 405.751 224.187C405.66 223.871 405.52 223.596 405.331 223.361C405.142 223.13 404.905 222.95 404.618 222.819C404.335 222.686 404.003 222.619 403.622 222.619C403.319 222.619 403.023 222.681 402.733 222.805C402.447 222.928 402.191 223.106 401.967 223.337C401.739 223.571 401.557 223.858 401.42 224.196C401.283 224.532 401.215 224.912 401.215 225.339V225.544C401.215 225.912 401.277 226.252 401.4 226.564C401.524 226.877 401.697 227.147 401.918 227.375C402.139 227.603 402.405 227.78 402.714 227.907C403.026 228.034 403.368 228.098 403.739 228.098ZM403.622 223.361C403.853 223.361 404.052 223.404 404.218 223.488C404.387 223.573 404.527 223.684 404.638 223.82C404.748 223.957 404.835 224.12 404.896 224.309C404.958 224.494 404.989 224.668 404.989 224.831V224.875H402.147C402.183 224.631 402.245 224.416 402.333 224.23C402.424 224.042 402.535 223.882 402.665 223.752C402.795 223.625 402.942 223.529 403.104 223.464C403.267 223.396 403.44 223.361 403.622 223.361ZM409.594 224.675L408.197 222.717H407.152L409.12 225.329L407.099 228H408.153L409.613 225.988L411.073 228H412.118L410.097 225.329L412.064 222.717H411.005L409.594 224.675Z" fill="#0B132A"/>
<path d="M307.662 271C307.662 269.693 307.763 268.516 307.967 267.471C308.17 266.425 308.519 265.452 309.012 264.551C309.535 263.651 310.232 262.808 311.104 262.024C312.004 261.211 313.137 260.426 314.502 259.671C315.693 259.032 316.739 258.48 317.64 258.015C318.54 257.522 319.295 257.071 319.905 256.665C320.544 256.258 321.024 255.851 321.343 255.445C321.663 255.009 321.823 254.515 321.823 253.963C321.823 253.382 321.663 252.859 321.343 252.395C321.024 251.901 320.574 251.509 319.993 251.218C319.412 250.928 318.685 250.782 317.814 250.782C317.117 250.782 316.463 250.87 315.853 251.044C315.272 251.218 314.72 251.465 314.197 251.785C313.704 252.104 313.239 252.467 312.803 252.874C312.367 253.252 311.975 253.658 311.627 254.094L307.923 249.824C308.33 249.417 308.867 248.981 309.535 248.517C310.232 248.023 311.046 247.573 311.975 247.166C312.934 246.73 313.98 246.382 315.112 246.12C316.274 245.83 317.509 245.684 318.816 245.684C320.791 245.684 322.476 246.004 323.871 246.643C325.265 247.253 326.325 248.11 327.051 249.214C327.807 250.318 328.184 251.61 328.184 253.092C328.184 254.108 327.995 255.009 327.618 255.793C327.24 256.578 326.761 257.275 326.18 257.885C325.599 258.466 324.96 258.989 324.263 259.453C323.595 259.918 322.941 260.325 322.302 260.673C321.401 261.138 320.588 261.574 319.862 261.981C319.136 262.358 318.497 262.75 317.945 263.157C317.393 263.535 316.899 263.927 316.463 264.333C316.057 264.74 315.693 265.205 315.374 265.728H328.663V271H307.662ZM342.016 277.492C339.78 277.492 337.761 277.013 335.96 276.054C334.159 275.096 332.794 273.789 331.864 272.133L335.219 268.647C336.032 269.78 337.049 270.68 338.269 271.349C339.489 272.017 340.753 272.351 342.06 272.351C343.106 272.351 344.021 272.133 344.805 271.697C345.618 271.261 346.257 270.651 346.722 269.867C347.187 269.083 347.419 268.182 347.419 267.166C347.419 266.149 347.201 265.263 346.766 264.508C346.33 263.752 345.735 263.172 344.979 262.765C344.224 262.329 343.367 262.111 342.408 262.111C341.45 262.111 340.549 262.329 339.707 262.765C338.894 263.172 338.24 263.767 337.746 264.551H332.648L336.221 246.12H351.472V251.436H340.448L339.184 258.364C339.562 258.015 340.085 257.725 340.753 257.493C341.421 257.231 342.249 257.1 343.236 257.1C345.183 257.1 346.925 257.522 348.465 258.364C350.005 259.206 351.21 260.383 352.082 261.893C352.953 263.375 353.389 265.089 353.389 267.035C353.389 269.097 352.895 270.913 351.907 272.481C350.92 274.079 349.569 275.314 347.855 276.185C346.141 277.057 344.195 277.492 342.016 277.492ZM363.441 252.83C362.105 252.83 360.9 252.54 359.825 251.959C358.75 251.349 357.879 250.55 357.21 249.562C356.571 248.546 356.252 247.427 356.252 246.207C356.252 244.987 356.571 243.883 357.21 242.896C357.879 241.879 358.75 241.08 359.825 240.499C360.9 239.918 362.105 239.628 363.441 239.628C364.778 239.628 365.983 239.918 367.058 240.499C368.162 241.08 369.033 241.879 369.672 242.896C370.311 243.883 370.631 244.987 370.631 246.207C370.631 247.427 370.311 248.546 369.672 249.562C369.033 250.55 368.162 251.349 367.058 251.959C365.983 252.54 364.778 252.83 363.441 252.83ZM363.441 249.911C364.022 249.911 364.545 249.737 365.01 249.388C365.475 249.04 365.838 248.589 366.099 248.037C366.39 247.485 366.535 246.89 366.535 246.251C366.535 245.554 366.39 244.929 366.099 244.377C365.809 243.825 365.431 243.39 364.966 243.07C364.502 242.722 363.993 242.547 363.441 242.547C362.86 242.547 362.338 242.722 361.873 243.07C361.408 243.39 361.03 243.825 360.74 244.377C360.478 244.929 360.348 245.539 360.348 246.207C360.348 246.875 360.493 247.5 360.783 248.081C361.074 248.633 361.452 249.083 361.916 249.432C362.381 249.751 362.889 249.911 363.441 249.911ZM380.26 271.436C378.924 271.436 377.719 271.145 376.644 270.564C375.569 269.983 374.698 269.199 374.029 268.211C373.39 267.195 373.071 266.076 373.071 264.856C373.071 263.607 373.39 262.489 374.029 261.501C374.698 260.514 375.569 259.729 376.644 259.148C377.719 258.538 378.924 258.233 380.26 258.233C381.596 258.233 382.802 258.538 383.877 259.148C384.981 259.729 385.852 260.514 386.491 261.501C387.13 262.489 387.45 263.593 387.45 264.813C387.45 266.033 387.13 267.151 386.491 268.168C385.852 269.155 384.981 269.954 383.877 270.564C382.802 271.145 381.596 271.436 380.26 271.436ZM380.26 268.516C380.841 268.516 381.364 268.342 381.829 267.994C382.294 267.645 382.657 267.195 382.918 266.643C383.209 266.091 383.354 265.495 383.354 264.856C383.354 264.159 383.209 263.535 382.918 262.983C382.657 262.431 382.279 261.995 381.785 261.676C381.321 261.327 380.812 261.153 380.26 261.153C379.708 261.153 379.185 261.327 378.692 261.676C378.227 261.995 377.849 262.445 377.559 263.026C377.297 263.578 377.167 264.174 377.167 264.813C377.167 265.51 377.312 266.134 377.602 266.686C377.893 267.238 378.27 267.689 378.735 268.037C379.2 268.357 379.708 268.516 380.26 268.516ZM358.736 268.952L370.979 254.617L382.308 239.715L384.966 242.068L373.027 256.185L361.35 271.305L358.736 268.952Z" fill="#0B132A"/>
<path d="M131.291 249.563L133.063 251.336C133.351 251.624 133.693 251.852 134.069 252.008C134.446 252.164 134.849 252.244 135.256 252.244C135.664 252.244 136.067 252.164 136.443 252.008C136.819 251.852 137.161 251.624 137.449 251.336C137.737 251.048 137.966 250.706 138.122 250.329C138.278 249.953 138.358 249.55 138.358 249.143C138.358 248.735 138.278 248.332 138.122 247.956C137.966 247.579 137.737 247.237 137.449 246.949L130.073 239.573C129.47 238.717 128.673 238.016 127.747 237.526C128.75 236.81 129.472 235.766 129.787 234.575C130.103 233.383 129.992 232.119 129.475 231H131.734L129.687 228.271L130.915 226.096C131.06 225.889 131.144 225.645 131.156 225.392C131.168 225.14 131.108 224.889 130.982 224.669C130.857 224.45 130.671 224.27 130.447 224.153C130.223 224.035 129.97 223.984 129.718 224.005L119.861 225.635C119.648 225.66 119.445 225.736 119.268 225.856C119.091 225.976 118.946 226.137 118.845 226.325C118.744 226.514 118.689 226.723 118.686 226.937C118.683 227.151 118.732 227.362 118.828 227.553C119.12 228.128 119.192 228.79 119.032 229.414C118.986 229.602 118.983 229.799 119.023 229.988C119.064 230.178 119.147 230.356 119.267 230.508C119.417 230.7 119.621 230.844 119.852 230.92C119.308 232.054 119.183 233.343 119.499 234.56C119.815 235.776 120.553 236.841 121.58 237.566C120.5 238.159 119.599 239.03 118.969 240.089C118.34 241.147 118.005 242.355 118 243.587V258.468H131.291V249.563ZM120.862 229.228C120.935 228.58 120.865 227.924 120.658 227.305L128.992 225.919L127.592 228.413L128.19 229.228H120.862ZM121.101 233.215C121.099 232.409 121.374 231.627 121.881 231H127.41C127.917 231.627 128.192 232.409 128.19 233.215C128.19 234.155 127.816 235.057 127.152 235.722C126.487 236.386 125.586 236.76 124.646 236.76C123.706 236.76 122.804 236.386 122.139 235.722C121.475 235.057 121.101 234.155 121.101 233.215ZM119.772 243.587C119.759 242.308 120.235 241.072 121.103 240.132C121.971 239.192 123.166 238.62 124.442 238.532C125.081 238.505 125.72 238.605 126.321 238.826C126.921 239.048 127.472 239.386 127.942 239.821L119.772 249.417V243.587ZM129.519 253.152H127.747V254.924H129.519V256.696H119.772V254.924H125.532V253.152H119.772V252.151L129.151 241.137L136.204 248.225C136.454 248.475 136.594 248.814 136.594 249.167C136.594 249.52 136.454 249.859 136.204 250.108C135.955 250.358 135.616 250.498 135.263 250.498C134.91 250.498 134.571 250.358 134.321 250.108L129.519 245.284V253.152Z" fill="#0B132A"/>
<path d="M145.468 240.149C145.052 239.733 144.489 239.5 143.901 239.5C143.314 239.5 142.751 239.733 142.335 240.149L139.841 242.656L149.898 252.709H135.721V256.253C135.721 256.84 135.954 257.404 136.37 257.819C136.785 258.235 137.348 258.468 137.936 258.468H150.784C151.371 258.468 151.935 258.235 152.35 257.819C152.766 257.404 152.999 256.84 152.999 256.253V253.931L154.567 252.368C154.983 251.952 155.216 251.389 155.216 250.801C155.216 250.214 154.983 249.651 154.567 249.235L145.468 240.149ZM151.227 256.253C151.227 256.37 151.18 256.483 151.097 256.566C151.014 256.649 150.901 256.696 150.784 256.696H137.936C137.818 256.696 137.706 256.649 137.623 256.566C137.54 256.483 137.493 256.37 137.493 256.253V254.481H151.227V256.253ZM153.314 251.114L152.06 252.368L142.366 242.656L143.62 241.402C143.703 241.32 143.815 241.274 143.932 241.274C144.049 241.274 144.162 241.32 144.245 241.402L153.314 250.493C153.396 250.576 153.442 250.687 153.442 250.804C153.442 250.92 153.396 251.031 153.314 251.114Z" fill="#0B132A"/>
<path d="M72.1934 285.714V284.947H69.2246V282.662H72.6426V281.891H68.3213V289H72.6865V288.233H69.2246V285.714H72.1934ZM74.2881 289H75.1914V285.211C75.2533 285.097 75.3249 284.993 75.4062 284.898C75.4909 284.804 75.582 284.721 75.6797 284.649C75.8001 284.568 75.932 284.505 76.0752 284.459C76.2184 284.41 76.373 284.386 76.5391 284.386C76.7311 284.386 76.9004 284.409 77.0469 284.454C77.1966 284.5 77.3236 284.573 77.4277 284.674C77.5286 284.775 77.6051 284.907 77.6572 285.069C77.7093 285.232 77.7354 285.431 77.7354 285.665V289H78.6387V285.646C78.6387 285.294 78.5947 284.991 78.5068 284.737C78.4222 284.48 78.3001 284.269 78.1406 284.103C77.9811 283.937 77.7874 283.814 77.5596 283.736C77.335 283.658 77.0843 283.619 76.8076 283.619C76.6025 283.622 76.4072 283.653 76.2217 283.712C76.0394 283.767 75.8701 283.847 75.7139 283.951C75.6097 284.02 75.5104 284.101 75.416 284.195C75.3249 284.286 75.2402 284.387 75.1621 284.498L75.0986 283.717H74.2881V289ZM81.1973 284.503V281.5H80.2939V289H81.1973V285.162C81.2624 285.058 81.3356 284.964 81.417 284.879C81.5016 284.791 81.5928 284.715 81.6904 284.649C81.8141 284.565 81.9492 284.5 82.0957 284.454C82.2422 284.409 82.3968 284.386 82.5596 284.386C82.7581 284.382 82.9339 284.41 83.0869 284.469C83.2399 284.524 83.3669 284.609 83.4678 284.723C83.5622 284.827 83.6338 284.959 83.6826 285.118C83.7314 285.274 83.7559 285.457 83.7559 285.665V289H84.6592V285.675C84.6592 285.32 84.6152 285.014 84.5273 284.757C84.4427 284.496 84.3206 284.282 84.1611 284.112C84.0016 283.943 83.8079 283.819 83.5801 283.741C83.3555 283.66 83.1048 283.619 82.8281 283.619C82.6165 283.622 82.4163 283.653 82.2275 283.712C82.042 283.771 81.8711 283.857 81.7148 283.971C81.6172 284.039 81.5244 284.119 81.4365 284.21C81.3486 284.298 81.2689 284.396 81.1973 284.503ZM89.7715 289H90.7139V288.922C90.6553 288.775 90.6097 288.604 90.5771 288.409C90.5446 288.211 90.5283 288.023 90.5283 287.848V285.392C90.5283 285.095 90.4746 284.837 90.3672 284.615C90.2598 284.394 90.1133 284.208 89.9277 284.059C89.7389 283.912 89.516 283.803 89.2588 283.731C89.0016 283.657 88.7233 283.619 88.4238 283.619C88.0951 283.619 87.8005 283.665 87.54 283.756C87.2829 283.847 87.0648 283.966 86.8857 284.112C86.7035 284.262 86.5635 284.43 86.4658 284.615C86.3714 284.801 86.3226 284.99 86.3193 285.182H87.2275C87.2275 285.071 87.2536 284.965 87.3057 284.864C87.361 284.76 87.4375 284.671 87.5352 284.596C87.6328 284.521 87.7516 284.461 87.8916 284.415C88.0348 284.369 88.196 284.347 88.375 284.347C88.5671 284.347 88.7396 284.371 88.8926 284.42C89.0488 284.469 89.1807 284.537 89.2881 284.625C89.3955 284.716 89.4785 284.825 89.5371 284.952C89.5957 285.079 89.625 285.222 89.625 285.382V285.797H88.6387C88.2708 285.797 87.9372 285.833 87.6377 285.904C87.3415 285.976 87.0876 286.083 86.876 286.227C86.6644 286.373 86.5 286.555 86.3828 286.773C86.2689 286.992 86.2119 287.245 86.2119 287.535C86.2119 287.757 86.2542 287.963 86.3389 288.155C86.4268 288.344 86.5505 288.507 86.71 288.644C86.8662 288.784 87.0566 288.894 87.2812 288.976C87.5091 289.057 87.763 289.098 88.043 289.098C88.2155 289.098 88.3783 289.08 88.5312 289.044C88.6842 289.008 88.8291 288.959 88.9658 288.897C89.0993 288.836 89.2214 288.764 89.332 288.683C89.446 288.601 89.5485 288.515 89.6396 288.424C89.6494 288.535 89.6641 288.642 89.6836 288.746C89.7064 288.847 89.7357 288.932 89.7715 289ZM88.1748 288.312C87.999 288.312 87.8444 288.289 87.7109 288.243C87.5775 288.198 87.4668 288.134 87.3789 288.053C87.291 287.975 87.2243 287.88 87.1787 287.77C87.1364 287.659 87.1152 287.538 87.1152 287.408C87.1152 287.271 87.1396 287.149 87.1885 287.042C87.2406 286.935 87.3154 286.842 87.4131 286.764C87.5498 286.653 87.7337 286.572 87.9648 286.52C88.1992 286.464 88.4727 286.437 88.7852 286.437H89.625V287.506C89.5729 287.61 89.5013 287.711 89.4102 287.809C89.319 287.903 89.2116 287.988 89.0879 288.062C88.9609 288.137 88.821 288.198 88.668 288.243C88.515 288.289 88.3506 288.312 88.1748 288.312ZM92.3057 289H93.209V285.211C93.2708 285.097 93.3424 284.993 93.4238 284.898C93.5085 284.804 93.5996 284.721 93.6973 284.649C93.8177 284.568 93.9495 284.505 94.0928 284.459C94.236 284.41 94.3906 284.386 94.5566 284.386C94.7487 284.386 94.918 284.409 95.0645 284.454C95.2142 284.5 95.3411 284.573 95.4453 284.674C95.5462 284.775 95.6227 284.907 95.6748 285.069C95.7269 285.232 95.7529 285.431 95.7529 285.665V289H96.6562V285.646C96.6562 285.294 96.6123 284.991 96.5244 284.737C96.4398 284.48 96.3177 284.269 96.1582 284.103C95.9987 283.937 95.805 283.814 95.5771 283.736C95.3525 283.658 95.1019 283.619 94.8252 283.619C94.6201 283.622 94.4248 283.653 94.2393 283.712C94.057 283.767 93.8877 283.847 93.7314 283.951C93.6273 284.02 93.528 284.101 93.4336 284.195C93.3424 284.286 93.2578 284.387 93.1797 284.498L93.1162 283.717H92.3057V289ZM100.562 288.365C100.279 288.365 100.042 288.31 99.8496 288.199C99.6608 288.085 99.5094 287.937 99.3955 287.755C99.2783 287.576 99.1937 287.374 99.1416 287.149C99.0928 286.922 99.0684 286.692 99.0684 286.461V286.256C99.0684 286.028 99.0928 285.802 99.1416 285.577C99.1937 285.353 99.2783 285.149 99.3955 284.967C99.5127 284.788 99.6657 284.643 99.8545 284.532C100.047 284.418 100.283 284.361 100.562 284.361C100.745 284.361 100.914 284.392 101.07 284.454C101.23 284.516 101.367 284.601 101.48 284.708C101.594 284.815 101.684 284.941 101.749 285.084C101.817 285.224 101.853 285.374 101.856 285.533H102.711C102.711 285.266 102.657 285.016 102.55 284.781C102.442 284.547 102.294 284.343 102.105 284.171C101.913 284.002 101.686 283.868 101.422 283.771C101.161 283.67 100.875 283.619 100.562 283.619C100.162 283.619 99.8122 283.691 99.5127 283.834C99.2132 283.977 98.9642 284.169 98.7656 284.41C98.5638 284.654 98.4124 284.936 98.3115 285.255C98.2106 285.574 98.1602 285.908 98.1602 286.256V286.461C98.1602 286.812 98.2106 287.148 98.3115 287.467C98.4124 287.783 98.5638 288.061 98.7656 288.302C98.9642 288.546 99.2132 288.74 99.5127 288.883C99.8122 289.026 100.162 289.098 100.562 289.098C100.842 289.098 101.111 289.05 101.368 288.956C101.625 288.858 101.853 288.728 102.052 288.565C102.25 288.406 102.408 288.22 102.525 288.009C102.646 287.794 102.708 287.569 102.711 287.335H101.856C101.853 287.481 101.814 287.618 101.739 287.745C101.668 287.869 101.572 287.976 101.451 288.067C101.331 288.162 101.192 288.235 101.036 288.287C100.883 288.339 100.725 288.365 100.562 288.365ZM106.651 289.098C107.166 289.098 107.597 288.995 107.945 288.79C108.297 288.582 108.561 288.344 108.736 288.077L108.185 287.647C108.019 287.862 107.81 288.035 107.56 288.165C107.309 288.295 107.022 288.36 106.7 288.36C106.456 288.36 106.233 288.315 106.031 288.224C105.829 288.132 105.657 288.007 105.514 287.848C105.374 287.698 105.263 287.525 105.182 287.33C105.104 287.135 105.053 286.909 105.03 286.651V286.617H108.805V286.212C108.805 285.844 108.757 285.502 108.663 285.187C108.572 284.871 108.432 284.596 108.243 284.361C108.054 284.13 107.817 283.95 107.53 283.819C107.247 283.686 106.915 283.619 106.534 283.619C106.231 283.619 105.935 283.681 105.646 283.805C105.359 283.928 105.104 284.106 104.879 284.337C104.651 284.571 104.469 284.858 104.332 285.196C104.195 285.532 104.127 285.912 104.127 286.339V286.544C104.127 286.912 104.189 287.252 104.312 287.564C104.436 287.877 104.609 288.147 104.83 288.375C105.051 288.603 105.317 288.78 105.626 288.907C105.938 289.034 106.28 289.098 106.651 289.098ZM106.534 284.361C106.765 284.361 106.964 284.404 107.13 284.488C107.299 284.573 107.439 284.684 107.55 284.82C107.66 284.957 107.747 285.12 107.809 285.309C107.87 285.494 107.901 285.668 107.901 285.831V285.875H105.06C105.095 285.631 105.157 285.416 105.245 285.23C105.336 285.042 105.447 284.882 105.577 284.752C105.707 284.625 105.854 284.529 106.017 284.464C106.179 284.396 106.352 284.361 106.534 284.361ZM110.152 286.314V286.417C110.152 286.795 110.203 287.148 110.304 287.477C110.405 287.802 110.546 288.085 110.729 288.326C110.911 288.567 111.131 288.756 111.388 288.893C111.648 289.029 111.938 289.098 112.257 289.098C112.582 289.098 112.867 289.042 113.111 288.932C113.355 288.821 113.565 288.658 113.741 288.443L113.78 289H114.61V281.5H113.707V284.239C113.535 284.037 113.329 283.884 113.092 283.78C112.857 283.673 112.582 283.619 112.267 283.619C111.944 283.619 111.653 283.686 111.393 283.819C111.132 283.953 110.911 284.138 110.729 284.376C110.543 284.614 110.4 284.898 110.299 285.23C110.201 285.559 110.152 285.921 110.152 286.314ZM111.056 286.417V286.314C111.056 286.057 111.083 285.813 111.139 285.582C111.194 285.348 111.28 285.141 111.397 284.962C111.511 284.786 111.658 284.646 111.837 284.542C112.019 284.438 112.237 284.386 112.491 284.386C112.787 284.386 113.035 284.456 113.233 284.596C113.432 284.732 113.59 284.908 113.707 285.123V287.574C113.59 287.805 113.432 287.989 113.233 288.126C113.035 288.263 112.784 288.331 112.481 288.331C112.231 288.331 112.016 288.281 111.837 288.18C111.658 288.076 111.511 287.936 111.397 287.76C111.28 287.584 111.194 287.381 111.139 287.149C111.083 286.918 111.056 286.674 111.056 286.417ZM122.75 283.717H121.939V289H122.799V284.796C122.818 284.744 122.843 284.695 122.872 284.649C122.905 284.604 122.942 284.563 122.984 284.527C123.04 284.482 123.106 284.448 123.185 284.425C123.266 284.399 123.36 284.386 123.468 284.386C123.565 284.386 123.65 284.399 123.722 284.425C123.797 284.448 123.858 284.485 123.907 284.537C123.959 284.592 123.997 284.662 124.02 284.747C124.046 284.832 124.059 284.929 124.059 285.04V289H124.918V285.045C124.918 285.025 124.918 285.009 124.918 284.996C124.918 284.98 124.918 284.964 124.918 284.947C124.928 284.866 124.947 284.793 124.977 284.728C125.006 284.659 125.047 284.599 125.099 284.547C125.151 284.498 125.216 284.459 125.294 284.43C125.372 284.4 125.465 284.386 125.572 284.386C125.673 284.386 125.761 284.399 125.836 284.425C125.914 284.451 125.979 284.49 126.031 284.542C126.08 284.597 126.118 284.667 126.144 284.752C126.17 284.837 126.183 284.934 126.183 285.045V289H127.042V285.055C127.042 284.801 127.013 284.581 126.954 284.396C126.896 284.207 126.811 284.054 126.7 283.937C126.599 283.832 126.476 283.754 126.329 283.702C126.183 283.647 126.018 283.619 125.836 283.619C125.702 283.622 125.579 283.64 125.465 283.673C125.354 283.705 125.253 283.749 125.162 283.805C125.09 283.854 125.024 283.91 124.962 283.976C124.9 284.041 124.846 284.111 124.801 284.186C124.765 284.104 124.721 284.031 124.669 283.966C124.62 283.901 124.565 283.845 124.503 283.8C124.418 283.741 124.319 283.697 124.205 283.668C124.094 283.635 123.969 283.619 123.829 283.619C123.582 283.622 123.37 283.676 123.194 283.78C123.022 283.884 122.882 284.029 122.774 284.215L122.75 283.717ZM128.087 286.31V286.417C128.087 286.798 128.142 287.151 128.253 287.477C128.364 287.802 128.523 288.085 128.731 288.326C128.937 288.567 129.187 288.756 129.483 288.893C129.783 289.029 130.12 289.098 130.494 289.098C130.865 289.098 131.199 289.029 131.495 288.893C131.791 288.756 132.044 288.567 132.252 288.326C132.457 288.085 132.615 287.802 132.726 287.477C132.836 287.151 132.892 286.798 132.892 286.417V286.31C132.892 285.929 132.836 285.576 132.726 285.25C132.615 284.921 132.457 284.636 132.252 284.396C132.044 284.155 131.79 283.966 131.49 283.829C131.194 283.689 130.859 283.619 130.484 283.619C130.113 283.619 129.78 283.689 129.483 283.829C129.187 283.966 128.937 284.155 128.731 284.396C128.523 284.636 128.364 284.921 128.253 285.25C128.142 285.576 128.087 285.929 128.087 286.31ZM128.99 286.417V286.31C128.99 286.052 129.021 285.807 129.083 285.572C129.145 285.335 129.239 285.126 129.366 284.947C129.49 284.768 129.645 284.627 129.83 284.522C130.016 284.415 130.234 284.361 130.484 284.361C130.735 284.361 130.953 284.415 131.139 284.522C131.327 284.627 131.485 284.768 131.612 284.947C131.736 285.126 131.829 285.335 131.891 285.572C131.956 285.807 131.988 286.052 131.988 286.31V286.417C131.988 286.677 131.957 286.926 131.896 287.164C131.834 287.398 131.741 287.605 131.617 287.784C131.49 287.963 131.332 288.105 131.144 288.209C130.958 288.313 130.742 288.365 130.494 288.365C130.243 288.365 130.024 288.313 129.835 288.209C129.646 288.105 129.49 287.963 129.366 287.784C129.239 287.605 129.145 287.398 129.083 287.164C129.021 286.926 128.99 286.677 128.99 286.417ZM138.824 286.417V286.314C138.824 286.038 138.801 285.776 138.756 285.528C138.71 285.278 138.644 285.05 138.556 284.845C138.471 284.662 138.373 284.498 138.263 284.352C138.152 284.202 138.027 284.075 137.887 283.971C137.73 283.86 137.556 283.774 137.364 283.712C137.172 283.65 136.962 283.619 136.734 283.619C136.552 283.619 136.383 283.637 136.227 283.673C136.07 283.709 135.927 283.761 135.797 283.829C135.693 283.884 135.595 283.951 135.504 284.029C135.413 284.104 135.33 284.189 135.255 284.283V281.5H134.352V289H135.182L135.226 288.399C135.284 288.474 135.346 288.543 135.411 288.604C135.476 288.666 135.545 288.723 135.616 288.775C135.766 288.88 135.934 288.959 136.119 289.015C136.308 289.07 136.516 289.098 136.744 289.098C136.943 289.098 137.127 289.073 137.296 289.024C137.468 288.976 137.626 288.907 137.77 288.819C137.968 288.692 138.137 288.533 138.277 288.341C138.421 288.146 138.536 287.926 138.624 287.682C138.689 287.496 138.738 287.298 138.771 287.086C138.806 286.871 138.824 286.648 138.824 286.417ZM137.921 286.314V286.417C137.921 286.573 137.911 286.726 137.892 286.876C137.872 287.026 137.841 287.166 137.799 287.296C137.747 287.468 137.677 287.625 137.589 287.765C137.501 287.905 137.392 288.02 137.262 288.111C137.164 288.183 137.053 288.238 136.93 288.277C136.806 288.313 136.669 288.331 136.52 288.331C136.363 288.331 136.22 288.312 136.09 288.272C135.96 288.23 135.842 288.172 135.738 288.097C135.634 288.022 135.541 287.936 135.46 287.838C135.382 287.737 135.313 287.628 135.255 287.511V285.201C135.31 285.084 135.377 284.977 135.455 284.879C135.536 284.778 135.629 284.69 135.733 284.615C135.834 284.544 135.95 284.488 136.08 284.449C136.21 284.407 136.354 284.386 136.51 284.386C136.653 284.386 136.783 284.402 136.9 284.435C137.018 284.467 137.123 284.513 137.218 284.571C137.354 284.653 137.47 284.765 137.564 284.908C137.659 285.051 137.735 285.209 137.794 285.382C137.836 285.522 137.867 285.672 137.887 285.831C137.91 285.987 137.921 286.148 137.921 286.314ZM140.494 283.717V284.503H142.291V288.219H140.494V289H144.918V288.219H143.194V283.717H140.494ZM142.174 282.33C142.174 282.477 142.218 282.599 142.306 282.696C142.397 282.794 142.534 282.843 142.716 282.843C142.895 282.843 143.03 282.794 143.121 282.696C143.212 282.599 143.258 282.477 143.258 282.33C143.258 282.249 143.245 282.174 143.219 282.105C143.193 282.037 143.154 281.98 143.102 281.935C143.059 281.892 143.006 281.86 142.94 281.837C142.875 281.811 142.8 281.798 142.716 281.798C142.631 281.798 142.555 281.811 142.486 281.837C142.421 281.86 142.368 281.892 142.325 281.935C142.273 281.983 142.234 282.042 142.208 282.11C142.185 282.179 142.174 282.252 142.174 282.33ZM146.5 281.5V282.286H148.297V288.219H146.5V289H150.924V288.219H149.2V281.5H146.5ZM152.506 283.717V284.503H154.303V288.219H152.506V289H156.93V288.219H155.206V283.717H152.506ZM154.186 282.33C154.186 282.477 154.229 282.599 154.317 282.696C154.409 282.794 154.545 282.843 154.728 282.843C154.907 282.843 155.042 282.794 155.133 282.696C155.224 282.599 155.27 282.477 155.27 282.33C155.27 282.249 155.257 282.174 155.23 282.105C155.204 282.037 155.165 281.98 155.113 281.935C155.071 281.892 155.017 281.86 154.952 281.837C154.887 281.811 154.812 281.798 154.728 281.798C154.643 281.798 154.566 281.811 154.498 281.837C154.433 281.86 154.379 281.892 154.337 281.935C154.285 281.983 154.246 282.042 154.22 282.11C154.197 282.179 154.186 282.252 154.186 282.33ZM160.509 282.438H159.601V283.717H158.214V284.415H159.601V287.286C159.601 287.612 159.643 287.89 159.728 288.121C159.815 288.349 159.934 288.535 160.084 288.678C160.234 288.824 160.41 288.932 160.611 289C160.816 289.065 161.036 289.098 161.271 289.098C161.41 289.098 161.55 289.091 161.69 289.078C161.834 289.065 161.969 289.046 162.096 289.02C162.223 288.997 162.34 288.969 162.447 288.937C162.555 288.901 162.646 288.86 162.721 288.814L162.594 288.175C162.538 288.188 162.467 288.204 162.379 288.224C162.294 288.24 162.203 288.256 162.105 288.272C162.005 288.289 161.902 288.303 161.798 288.316C161.694 288.326 161.593 288.331 161.495 288.331C161.362 288.331 161.235 288.315 161.114 288.282C160.997 288.25 160.893 288.193 160.802 288.111C160.711 288.033 160.639 287.927 160.587 287.794C160.535 287.66 160.509 287.491 160.509 287.286V284.415H162.521V283.717H160.509V282.438ZM164.801 291.134C165.038 291.134 165.248 291.09 165.431 291.002C165.613 290.914 165.772 290.805 165.909 290.675C166.046 290.545 166.161 290.403 166.256 290.25C166.354 290.097 166.433 289.952 166.495 289.815L169.176 283.717H168.165L166.803 287.145L166.554 287.765L166.319 287.125L164.869 283.717H163.858L166.134 288.751L165.772 289.454C165.74 289.519 165.694 289.602 165.636 289.703C165.58 289.804 165.514 289.902 165.436 289.996C165.354 290.09 165.261 290.172 165.157 290.24C165.056 290.309 164.944 290.343 164.82 290.343C164.775 290.343 164.711 290.34 164.63 290.333C164.552 290.33 164.472 290.325 164.391 290.318L164.244 291.056C164.303 291.069 164.389 291.085 164.503 291.104C164.617 291.124 164.716 291.134 164.801 291.134ZM176.529 283.717V284.503H178.326V288.219H176.529V289H180.953V288.219H179.229V283.717H176.529ZM178.209 282.33C178.209 282.477 178.253 282.599 178.341 282.696C178.432 282.794 178.569 282.843 178.751 282.843C178.93 282.843 179.065 282.794 179.156 282.696C179.247 282.599 179.293 282.477 179.293 282.33C179.293 282.249 179.28 282.174 179.254 282.105C179.228 282.037 179.189 281.98 179.137 281.935C179.094 281.892 179.041 281.86 178.976 281.837C178.91 281.811 178.836 281.798 178.751 281.798C178.666 281.798 178.59 281.811 178.521 281.837C178.456 281.86 178.403 281.892 178.36 281.935C178.308 281.983 178.269 282.042 178.243 282.11C178.22 282.179 178.209 282.252 178.209 282.33ZM182.394 289H183.297V285.211C183.359 285.097 183.43 284.993 183.512 284.898C183.596 284.804 183.688 284.721 183.785 284.649C183.906 284.568 184.037 284.505 184.181 284.459C184.324 284.41 184.479 284.386 184.645 284.386C184.837 284.386 185.006 284.409 185.152 284.454C185.302 284.5 185.429 284.573 185.533 284.674C185.634 284.775 185.711 284.907 185.763 285.069C185.815 285.232 185.841 285.431 185.841 285.665V289H186.744V285.646C186.744 285.294 186.7 284.991 186.612 284.737C186.528 284.48 186.406 284.269 186.246 284.103C186.087 283.937 185.893 283.814 185.665 283.736C185.44 283.658 185.19 283.619 184.913 283.619C184.708 283.622 184.513 283.653 184.327 283.712C184.145 283.767 183.976 283.847 183.819 283.951C183.715 284.02 183.616 284.101 183.521 284.195C183.43 284.286 183.346 284.387 183.268 284.498L183.204 283.717H182.394V289ZM188.229 286.314V286.417C188.229 286.795 188.279 287.148 188.38 287.477C188.481 287.802 188.622 288.085 188.805 288.326C188.987 288.567 189.207 288.756 189.464 288.893C189.724 289.029 190.014 289.098 190.333 289.098C190.659 289.098 190.943 289.042 191.188 288.932C191.432 288.821 191.642 288.658 191.817 288.443L191.856 289H192.687V281.5H191.783V284.239C191.611 284.037 191.406 283.884 191.168 283.78C190.934 283.673 190.659 283.619 190.343 283.619C190.021 283.619 189.729 283.686 189.469 283.819C189.208 283.953 188.987 284.138 188.805 284.376C188.619 284.614 188.476 284.898 188.375 285.23C188.277 285.559 188.229 285.921 188.229 286.314ZM189.132 286.417V286.314C189.132 286.057 189.16 285.813 189.215 285.582C189.27 285.348 189.356 285.141 189.474 284.962C189.588 284.786 189.734 284.646 189.913 284.542C190.095 284.438 190.313 284.386 190.567 284.386C190.864 284.386 191.111 284.456 191.31 284.596C191.508 284.732 191.666 284.908 191.783 285.123V287.574C191.666 287.805 191.508 287.989 191.31 288.126C191.111 288.263 190.86 288.331 190.558 288.331C190.307 288.331 190.092 288.281 189.913 288.18C189.734 288.076 189.588 287.936 189.474 287.76C189.356 287.584 189.27 287.381 189.215 287.149C189.16 286.918 189.132 286.674 189.132 286.417ZM196.739 289.098C197.254 289.098 197.685 288.995 198.033 288.79C198.385 288.582 198.648 288.344 198.824 288.077L198.272 287.647C198.106 287.862 197.898 288.035 197.647 288.165C197.397 288.295 197.11 288.36 196.788 288.36C196.544 288.36 196.321 288.315 196.119 288.224C195.917 288.132 195.745 288.007 195.602 287.848C195.462 287.698 195.351 287.525 195.27 287.33C195.191 287.135 195.141 286.909 195.118 286.651V286.617H198.893V286.212C198.893 285.844 198.845 285.502 198.751 285.187C198.66 284.871 198.52 284.596 198.331 284.361C198.142 284.13 197.905 283.95 197.618 283.819C197.335 283.686 197.003 283.619 196.622 283.619C196.319 283.619 196.023 283.681 195.733 283.805C195.447 283.928 195.191 284.106 194.967 284.337C194.739 284.571 194.557 284.858 194.42 285.196C194.283 285.532 194.215 285.912 194.215 286.339V286.544C194.215 286.912 194.277 287.252 194.4 287.564C194.524 287.877 194.697 288.147 194.918 288.375C195.139 288.603 195.405 288.78 195.714 288.907C196.026 289.034 196.368 289.098 196.739 289.098ZM196.622 284.361C196.853 284.361 197.052 284.404 197.218 284.488C197.387 284.573 197.527 284.684 197.638 284.82C197.748 284.957 197.835 285.12 197.896 285.309C197.958 285.494 197.989 285.668 197.989 285.831V285.875H195.147C195.183 285.631 195.245 285.416 195.333 285.23C195.424 285.042 195.535 284.882 195.665 284.752C195.795 284.625 195.942 284.529 196.104 284.464C196.267 284.396 196.44 284.361 196.622 284.361ZM202.594 285.675L201.197 283.717H200.152L202.12 286.329L200.099 289H201.153L202.613 286.988L204.073 289H205.118L203.097 286.329L205.064 283.717H204.005L202.594 285.675Z" fill="#0B132A"/>
<path d="M230.637 44.6511C229.701 44.6434 228.769 44.7649 227.866 45.0123C228.626 43.7901 229.17 42.4459 229.473 41.039L232.916 41.9059C233.015 41.9298 233.118 41.9256 233.214 41.894C233.311 41.8623 233.396 41.8044 233.462 41.7267C233.527 41.649 233.569 41.5546 233.584 41.4542C233.599 41.3538 233.585 41.2512 233.544 41.1582L228.762 30.3217C228.728 30.2458 228.677 30.1787 228.613 30.1256C228.549 30.0725 228.473 30.0347 228.392 30.0152C228.312 29.9957 228.227 29.9949 228.146 30.013C228.065 30.0311 227.989 30.0675 227.924 30.1194L218.987 37.4268C218.91 37.4899 218.851 37.5732 218.818 37.6676C218.785 37.7619 218.778 37.8636 218.8 37.9614C218.82 38.0591 218.867 38.1491 218.936 38.2212C219.005 38.2933 219.093 38.3447 219.19 38.3696L222.39 39.222C219.605 48.4005 206.641 49.1771 206.497 49.1844C206.42 49.1877 206.345 49.2075 206.276 49.2424C206.207 49.2773 206.147 49.3265 206.099 49.3867C206.051 49.4463 206.017 49.5155 205.998 49.5897C205.979 49.6639 205.977 49.7413 205.991 49.8165L206.435 52.3053C206.456 52.4232 206.516 52.5308 206.605 52.6112C206.694 52.6916 206.807 52.7403 206.926 52.7496C207.002 52.7496 207.696 52.8074 208.801 52.8074C210.485 52.8068 212.167 52.6945 213.836 52.4714C213.836 52.4714 213.836 52.4714 213.836 52.5003V55.1517C212.753 54.31 211.001 53.7682 208.96 53.7682C205.619 53.7682 203 55.2131 203 57.0625V59.3454C203 61.1912 205.619 62.6397 208.96 62.6397C211.398 62.6397 213.446 61.8666 214.378 60.7324C215.31 61.8666 217.358 62.6397 219.797 62.6397C222.235 62.6397 224.283 61.8666 225.215 60.7324C226.147 61.8666 228.195 62.6397 230.633 62.6397C233.974 62.6397 236.593 61.1948 236.593 59.3454V57.0625V52.6629C236.593 52.6087 236.593 52.5545 236.593 52.5003V47.9346C236.611 46.096 233.992 44.6511 230.637 44.6511ZM213.84 59.3454C213.84 60.3929 211.839 61.556 208.964 61.556C206.088 61.556 204.087 60.3929 204.087 59.3454V58.9841C205.171 59.8438 206.977 60.3495 208.964 60.3495C210.95 60.3495 212.742 59.8438 213.84 58.9841V59.3454ZM213.298 58.0342C212.424 58.7999 210.77 59.2731 208.964 59.2731C207.158 59.2731 205.503 58.7999 204.629 58.0342C204.477 57.9182 204.35 57.7721 204.257 57.6049C204.164 57.4377 204.106 57.253 204.087 57.0625C204.087 56.0186 206.088 54.8518 208.964 54.8518C211.839 54.8518 213.84 56.0186 213.84 57.0625C213.822 57.253 213.764 57.4377 213.671 57.6049C213.577 57.7721 213.451 57.9182 213.298 58.0342ZM224.677 59.3454C224.677 60.3929 222.675 61.556 219.8 61.556C216.925 61.556 214.924 60.3929 214.924 59.3454V58.9841C215.003 59.0456 215.093 59.1033 215.18 59.1611C215.299 59.2406 215.426 59.3201 215.559 59.3923C215.988 59.6296 216.441 59.8197 216.91 59.9594H216.936L217.297 60.0533L217.553 60.1148L217.857 60.1726L218.218 60.2303L218.489 60.2701L218.922 60.3098H219.143C219.367 60.3098 219.591 60.3315 219.822 60.3315C220.053 60.3315 220.277 60.3315 220.501 60.3098H220.725L221.155 60.2701L221.426 60.2303L221.787 60.1726L222.09 60.1148L222.343 60.0533L222.704 59.9594C223.415 59.7599 224.084 59.4318 224.677 58.9914V59.3454ZM224.677 57.0625C224.677 58.11 222.675 59.2731 219.8 59.2731C216.925 59.2731 214.924 58.11 214.924 57.0625V56.7013C215.003 56.7627 215.093 56.8205 215.18 56.8783C215.299 56.9577 215.426 57.0336 215.541 57.1058C215.976 57.3433 216.435 57.5334 216.91 57.6729H216.954C217.066 57.7054 217.181 57.7307 217.297 57.7596C217.413 57.7885 217.47 57.8066 217.561 57.8246L217.857 57.8824L218.218 57.9438L218.482 57.98C218.626 57.98 218.771 58.0089 218.919 58.0233H219.139C219.363 58.0233 219.587 58.045 219.818 58.045C220.049 58.045 220.273 58.045 220.497 58.0233H220.718C220.866 58.0233 221.01 57.998 221.151 57.98L221.422 57.9438L221.783 57.8824L222.087 57.8246L222.343 57.7632C222.462 57.7343 222.578 57.7054 222.704 57.6693H222.726C223.196 57.5357 223.649 57.3491 224.077 57.1131C224.208 57.0432 224.334 56.966 224.456 56.8819C224.546 56.8279 224.633 56.7688 224.716 56.7049L224.677 57.0625ZM224.677 54.7832C224.677 55.8271 222.675 56.9939 219.8 56.9939C216.925 56.9939 214.924 55.8271 214.924 54.7832V54.422C216.007 55.2817 217.813 55.791 219.8 55.791C221.787 55.791 223.578 55.2817 224.677 54.422V54.7832ZM224.135 53.472C223.261 54.2342 221.606 54.711 219.8 54.711C217.994 54.711 216.34 54.2342 215.466 53.4684C215.313 53.3536 215.186 53.2082 215.092 53.0415C214.999 52.8748 214.942 52.6905 214.924 52.5003C214.924 52.4347 214.931 52.3693 214.945 52.3053C215.704 52.1788 216.484 52.0235 217.275 51.8285C218.687 51.4907 220.064 51.0227 221.389 50.4306C223.387 50.7593 224.677 51.6768 224.677 52.5148C224.656 52.7028 224.597 52.8846 224.504 53.0492C224.411 53.2138 224.285 53.3577 224.135 53.472ZM224.691 50.2211V50.6003C224.147 50.1896 223.536 49.8767 222.885 49.6756C223.513 49.3199 224.116 48.9229 224.691 48.4872V50.2211ZM207.436 51.6912L207.158 50.1994C209.921 49.9068 221.245 48.1585 223.568 38.9584C223.602 38.82 223.581 38.6737 223.508 38.5509C223.436 38.428 223.319 38.3383 223.181 38.3009L220.479 37.5785L228.065 31.4017L232.121 40.5766L229.195 39.8542C229.123 39.8361 229.048 39.8332 228.975 39.8456C228.901 39.858 228.831 39.8856 228.769 39.9264C228.706 39.9667 228.653 40.0196 228.612 40.0818C228.571 40.144 228.543 40.2141 228.531 40.2876C226.493 51.9441 210.26 51.8068 207.436 51.6912ZM235.513 59.3454C235.513 60.3929 233.512 61.556 230.637 61.556C227.761 61.556 225.76 60.3929 225.76 59.3454V58.9841C225.84 59.0456 225.93 59.1033 226.017 59.1611C226.136 59.2406 226.262 59.3201 226.378 59.3923C226.812 59.6308 227.271 59.8209 227.747 59.9594H227.772L228.133 60.0533L228.39 60.1148L228.693 60.1726L229.054 60.2303L229.325 60.2701L229.759 60.3098H229.979C230.203 60.3098 230.427 60.3315 230.658 60.3315C230.889 60.3315 231.113 60.3315 231.337 60.3098H231.561L231.991 60.2701L232.262 60.2303L232.623 60.1726L232.927 60.1148L233.18 60.0533L233.541 59.9594C234.252 59.7599 234.92 59.4318 235.513 58.9914V59.3454ZM235.513 57.0625C235.513 58.11 233.512 59.2731 230.637 59.2731C227.761 59.2731 225.76 58.11 225.76 57.0625V56.7013C225.84 56.7627 225.93 56.8205 226.017 56.8783C226.136 56.9577 226.262 57.0336 226.378 57.1058C226.813 57.3433 227.272 57.5334 227.747 57.6729H227.79C227.902 57.7054 228.018 57.7307 228.151 57.7596C228.285 57.7885 228.325 57.8066 228.415 57.8246L228.711 57.8824L229.073 57.9438L229.336 57.98C229.481 57.98 229.625 58.0089 229.773 58.0233H229.994C230.218 58.0233 230.442 58.045 230.673 58.045C230.904 58.045 231.128 58.045 231.352 58.0233H231.572C231.72 58.0233 231.865 57.998 232.006 57.98L232.277 57.9438L232.638 57.8824L232.941 57.8246L233.198 57.7632C233.317 57.7343 233.432 57.7054 233.559 57.6693H233.581C234.05 57.5357 234.504 57.3491 234.931 57.1131C235.056 57.0426 235.177 56.9655 235.293 56.8819C235.383 56.8279 235.47 56.7688 235.553 56.7049L235.513 57.0625ZM235.513 54.7832C235.513 55.8271 233.512 56.9939 230.637 56.9939C227.761 56.9939 225.76 55.8271 225.76 54.7832V54.422C226.514 54.9691 227.376 55.3473 228.289 55.5309H228.31L228.766 55.6212L228.957 55.6537L229.343 55.7043C229.445 55.7043 229.549 55.726 229.654 55.7368L229.972 55.7621C230.163 55.7621 230.355 55.7621 230.554 55.7621H230.637C230.871 55.7621 231.099 55.7621 231.327 55.7404H231.446C231.637 55.7404 231.807 55.7079 232.006 55.6863L232.154 55.6646C232.327 55.6393 232.515 55.614 232.663 55.5815L232.808 55.5526C232.977 55.5165 233.143 55.4767 233.306 55.4298L233.422 55.4009C233.793 55.2959 234.155 55.1619 234.505 54.9999C234.556 54.9783 234.606 54.9494 234.657 54.9241C234.769 54.8699 234.874 54.8121 234.978 54.7507L235.123 54.664C235.235 54.5954 235.336 54.5231 235.434 54.4509C235.455 54.4509 235.481 54.422 235.499 54.4039L235.513 54.7832ZM235.513 52.5003C235.513 53.5442 233.512 54.711 230.637 54.711C227.761 54.711 225.76 53.5442 225.76 52.5003V52.1391C225.84 52.2005 225.93 52.2547 226.013 52.3125C226.129 52.392 226.255 52.4678 226.374 52.5401C226.81 52.7788 227.27 52.9701 227.747 53.1108H227.787L228.148 53.2011L228.408 53.2625L228.711 53.3239L229.073 53.3817L229.34 53.4178C229.484 53.4178 229.629 53.4503 229.777 53.4612H229.997C230.221 53.4612 230.445 53.4828 230.676 53.4828C230.908 53.4828 231.135 53.4828 231.355 53.4612H231.576C231.724 53.4612 231.868 53.4359 232.013 53.4178L232.28 53.3817L232.641 53.3239L232.945 53.2625L233.165 53.2119L233.526 53.1216H233.548C234.161 52.9457 234.746 52.6803 235.282 52.3342C235.369 52.2764 235.462 52.2186 235.542 52.1572L235.513 52.5003ZM235.513 50.2174C235.513 51.265 233.512 52.4281 230.637 52.4281C227.761 52.4281 225.76 51.265 225.76 50.2174V49.8562C226.844 50.7159 228.65 51.2216 230.637 51.2216C232.623 51.2216 234.415 50.7159 235.513 49.8562V50.2174ZM234.971 48.9062C234.097 49.672 232.443 50.1452 230.637 50.1452C228.831 50.1452 227.176 49.672 226.302 48.9062C226.15 48.7903 226.023 48.6441 225.93 48.4769C225.836 48.3097 225.779 48.1251 225.76 47.9346C225.768 47.7382 225.83 47.5479 225.941 47.3855C226.129 47.2049 226.302 47.0243 226.486 46.8256C227.328 46.2043 228.809 45.7348 230.637 45.7348C233.526 45.7348 235.513 46.9015 235.513 47.9454C235.493 48.134 235.435 48.3166 235.341 48.4818C235.248 48.6471 235.122 48.7915 234.971 48.9062Z" fill="#0B132A"/>
<path d="M227.165 39.5698C227.095 39.5567 227.023 39.5575 226.954 39.5723C226.884 39.587 226.818 39.6153 226.759 39.6555C226.7 39.6958 226.65 39.7472 226.611 39.8069C226.573 39.8665 226.546 39.9332 226.533 40.0032C226.533 40.0393 225.811 43.6154 221.805 46.6387C221.714 46.707 221.646 46.8021 221.613 46.9106C221.579 47.0192 221.58 47.1357 221.616 47.2435C221.652 47.3514 221.721 47.4453 221.813 47.5118C221.905 47.5782 222.016 47.614 222.13 47.614C222.249 47.6146 222.364 47.5752 222.458 47.502C226.826 44.2005 227.57 40.3608 227.599 40.1983C227.612 40.1285 227.611 40.0569 227.596 39.9875C227.581 39.9181 227.553 39.8523 227.513 39.7938C227.472 39.7354 227.421 39.6856 227.361 39.6471C227.302 39.6086 227.235 39.5824 227.165 39.5698Z" fill="#0B132A"/>
<path d="M333.501 193.094V198.462H330.593C330.285 198.462 329.989 198.581 329.771 198.791C329.552 199.001 329.43 199.287 329.43 199.584C329.43 199.882 329.552 200.167 329.771 200.378C329.989 200.588 330.285 200.706 330.593 200.706H356.762C357.071 200.706 357.367 200.588 357.585 200.378C357.803 200.167 357.925 199.882 357.925 199.584C357.925 199.287 357.803 199.001 357.585 198.791C357.367 198.581 357.071 198.462 356.762 198.462H352.011V191.523H361.124C361.35 191.523 361.571 191.459 361.76 191.339C361.949 191.22 362.098 191.05 362.188 190.85C362.28 190.649 362.308 190.427 362.27 190.21C362.232 189.994 362.128 189.793 361.973 189.633L357.181 184.696H359.734C359.948 184.696 360.158 184.639 360.341 184.531C360.523 184.423 360.671 184.269 360.769 184.085C360.866 183.901 360.909 183.695 360.893 183.489C360.876 183.283 360.801 183.085 360.676 182.918L355.547 176.024H356.838C357.05 176.024 357.257 175.968 357.439 175.862C357.62 175.757 357.768 175.606 357.867 175.425C357.966 175.244 358.011 175.041 357.999 174.837C357.987 174.633 357.917 174.436 357.798 174.268L351.819 165.792C351.712 165.641 351.569 165.518 351.402 165.433C351.235 165.348 351.049 165.304 350.86 165.304C350.671 165.304 350.485 165.348 350.317 165.433C350.15 165.518 350.007 165.641 349.9 165.792L343.905 174.273C343.787 174.44 343.719 174.635 343.707 174.836C343.694 175.037 343.739 175.237 343.834 175.417C343.93 175.596 344.074 175.746 344.251 175.853C344.428 175.96 344.632 176.019 344.841 176.024H346.126L342.718 180.601C342.584 180.455 342.445 180.321 342.299 180.186C342.426 179.669 342.498 179.141 342.515 178.61C342.5 177.544 342.252 176.493 341.786 175.527C341.32 174.56 340.647 173.699 339.812 173.002C338.977 172.304 337.998 171.785 336.939 171.478C335.881 171.171 334.767 171.084 333.672 171.223C332.576 171.361 331.523 171.722 330.582 172.281C329.642 172.84 328.834 173.585 328.213 174.466C327.592 175.348 327.172 176.346 326.98 177.396C326.787 178.446 326.828 179.523 327.098 180.556C325.816 181.84 325.09 183.548 325.068 185.33C325.068 189.307 328.697 192.555 333.501 193.094ZM349.685 198.462H335.827V193.139C337.635 193.014 339.383 192.459 340.915 191.523H349.685V198.462ZM349.359 175.564C349.486 175.396 349.562 175.198 349.58 174.991C349.597 174.785 349.554 174.577 349.457 174.392C349.359 174.208 349.21 174.053 349.027 173.944C348.843 173.836 348.632 173.779 348.417 173.78H347.062L350.848 168.411L354.64 173.78H353.279C353.065 173.78 352.855 173.837 352.673 173.945C352.49 174.053 352.342 174.207 352.244 174.391C352.147 174.575 352.104 174.781 352.12 174.987C352.137 175.193 352.212 175.391 352.337 175.558L357.466 182.447H354.5C354.274 182.447 354.053 182.511 353.864 182.63C353.675 182.75 353.526 182.92 353.436 183.12C353.344 183.321 353.316 183.543 353.354 183.76C353.393 183.976 353.496 184.177 353.651 184.337L358.443 189.274H343.259L348.051 184.337C348.206 184.177 348.309 183.976 348.348 183.76C348.386 183.543 348.358 183.321 348.266 183.12C348.176 182.92 348.027 182.75 347.838 182.63C347.649 182.511 347.428 182.447 347.202 182.447H344.259L349.359 175.564ZM329.203 181.701C329.375 181.55 329.497 181.353 329.552 181.135C329.607 180.917 329.593 180.688 329.511 180.478C329.204 179.685 329.098 178.833 329.201 177.993C329.305 177.152 329.615 176.348 330.106 175.647C330.598 174.946 331.256 174.368 332.025 173.962C332.795 173.556 333.655 173.334 334.532 173.313C335.409 173.293 336.278 173.475 337.067 173.845C337.857 174.215 338.543 174.761 339.068 175.439C339.594 176.116 339.944 176.905 340.089 177.74C340.235 178.574 340.171 179.431 339.903 180.237C339.832 180.453 339.831 180.685 339.899 180.903C339.968 181.12 340.103 181.312 340.287 181.454C340.685 181.754 341.042 182.101 341.352 182.486L341.032 182.918C340.906 183.085 340.832 183.283 340.815 183.489C340.799 183.695 340.842 183.901 340.939 184.085C341.037 184.269 341.185 184.423 341.367 184.531C341.55 184.639 341.76 184.696 341.974 184.696H344.533L339.816 189.543C338.357 190.469 336.643 190.954 334.896 190.934H334.687C330.674 190.844 327.395 188.365 327.395 185.33C327.415 184.636 327.586 183.955 327.898 183.329C328.209 182.704 328.654 182.149 329.203 181.701Z" fill="#0B132A"/>
</svg>
