<svg width="181" height="181" viewBox="0 0 181 181" fill="none" xmlns="http://www.w3.org/2000/svg">
<g filter="url(#filter0_d)">
<path d="M90.5 1C107.41 1 123.941 6.01449 138.001 15.4093C152.062 24.8042 163.02 38.1575 169.492 53.7806C175.963 69.4036 177.656 86.5948 174.357 103.18C171.058 119.766 162.915 135 150.958 146.958L90.5 86.5V1Z" fill="white" stroke="#0B132A" stroke-width="0.358491"/>
<path d="M24.0875 32.6518C38.3689 15.0381 59.0624 3.81912 81.6157 1.46284C104.169 -0.893434 126.734 5.80604 144.348 20.0875L90.5 86.5L24.0875 32.6518Z" fill="white" stroke="#0B132A" stroke-width="0.358491"/>
<path d="M150.958 146.958C135.403 162.513 114.451 171.474 92.4587 171.978C70.4665 172.482 49.1263 164.49 32.8752 149.664C16.6241 134.837 6.7127 114.318 5.20189 92.3721C3.69107 70.4261 10.6971 48.7421 24.7632 31.829L90.5 86.5L150.958 146.958Z" fill="white" stroke="#0B132A" stroke-width="0.358491"/>
<path d="M50.0177 137.149C49.1343 137.149 48.3371 136.96 47.6258 136.581C46.9146 136.202 46.3754 135.686 46.0083 135.032L47.3333 133.656C47.6545 134.103 48.056 134.459 48.5378 134.723C49.0196 134.986 49.5186 135.118 50.0349 135.118C50.6543 135.118 51.1591 134.929 51.5491 134.551C51.9506 134.172 52.1514 133.679 52.1514 133.071C52.1514 132.474 51.9621 131.992 51.5835 131.625C51.205 131.258 50.7346 131.075 50.1725 131.075C49.794 131.075 49.4383 131.161 49.1057 131.333C48.7844 131.493 48.5263 131.729 48.3313 132.038H46.318L47.7291 124.759H53.7517V126.859H49.3982L48.8992 129.595C49.0368 129.457 49.2376 129.342 49.5014 129.251C49.7767 129.147 50.1094 129.096 50.4995 129.096C51.2681 129.096 51.9506 129.262 52.5472 129.595C53.1552 129.927 53.6312 130.392 53.9754 130.989C54.331 131.574 54.5088 132.25 54.5088 133.019C54.5088 133.845 54.3138 134.568 53.9238 135.187C53.5337 135.807 53.0003 136.289 52.3235 136.633C51.6466 136.977 50.878 137.149 50.0177 137.149ZM64.7595 129.543C64.7595 130.553 64.5645 131.453 64.1745 132.245C63.7959 133.025 63.2682 133.639 62.5914 134.086C61.926 134.533 61.1689 134.757 60.32 134.757C59.4711 134.757 58.7082 134.533 58.0314 134.086C57.366 133.639 56.8383 133.025 56.4483 132.245C56.0697 131.453 55.8805 130.553 55.8805 129.543C55.8805 128.534 56.0697 127.639 56.4483 126.859C56.8383 126.067 57.366 125.448 58.0314 125C58.7082 124.541 59.4711 124.312 60.32 124.312C61.1689 124.312 61.926 124.541 62.5914 125C63.2682 125.448 63.7959 126.067 64.1745 126.859C64.5645 127.639 64.7595 128.534 64.7595 129.543ZM62.4365 129.543C62.4365 128.625 62.2358 127.88 61.8343 127.306C61.4442 126.721 60.9395 126.429 60.32 126.429C59.6776 126.429 59.1614 126.721 58.7713 127.306C58.3813 127.88 58.1863 128.625 58.1863 129.543C58.1863 130.461 58.3813 131.207 58.7713 131.78C59.1614 132.354 59.6776 132.641 60.32 132.641C60.9395 132.641 61.4442 132.354 61.8343 131.78C62.2358 131.207 62.4365 130.461 62.4365 129.543ZM69.0487 127.409C68.521 127.409 68.0392 127.295 67.6032 127.065C67.1788 126.824 66.8404 126.509 66.588 126.119C66.3356 125.717 66.2094 125.276 66.2094 124.794C66.2094 124.312 66.3356 123.876 66.588 123.486C66.8404 123.096 67.1788 122.786 67.6032 122.557C68.0392 122.316 68.521 122.196 69.0487 122.196C69.5764 122.196 70.0524 122.316 70.4769 122.557C70.9128 122.786 71.257 123.096 71.5093 123.486C71.7617 123.876 71.8879 124.312 71.8879 124.794C71.8879 125.276 71.7617 125.717 71.5093 126.119C71.257 126.509 70.9128 126.824 70.4769 127.065C70.0524 127.295 69.5764 127.409 69.0487 127.409ZM67.1902 133.776L72.0256 128.115L76.4995 122.23L77.5492 123.159L72.8343 128.734L68.2227 134.705L67.1902 133.776ZM69.0487 126.257C69.3813 126.257 69.6681 126.113 69.909 125.826C70.1499 125.528 70.2704 125.184 70.2704 124.794C70.2704 124.404 70.1499 124.065 69.909 123.779C69.6681 123.492 69.3813 123.348 69.0487 123.348C68.716 123.348 68.4292 123.492 68.1883 123.779C67.9474 124.065 67.8269 124.404 67.8269 124.794C67.8269 125.195 67.9474 125.54 68.1883 125.826C68.4292 126.113 68.716 126.257 69.0487 126.257ZM75.6908 134.757C75.1631 134.757 74.687 134.642 74.2626 134.413C73.8381 134.172 73.4939 133.857 73.2301 133.466C72.9777 133.076 72.8515 132.641 72.8515 132.159C72.8515 131.677 72.9777 131.241 73.2301 130.851C73.4939 130.449 73.8381 130.134 74.2626 129.905C74.687 129.664 75.1631 129.543 75.6908 129.543C76.2185 129.543 76.6946 129.664 77.119 129.905C77.5549 130.134 77.8991 130.449 78.1515 130.851C78.4038 131.241 78.53 131.677 78.53 132.159C78.53 132.641 78.4038 133.076 78.1515 133.466C77.8991 133.857 77.5549 134.172 77.119 134.413C76.6946 134.642 76.2185 134.757 75.6908 134.757ZM75.6908 133.604C76.0349 133.604 76.3217 133.461 76.5512 133.174C76.7921 132.887 76.9125 132.549 76.9125 132.159C76.9125 131.757 76.7921 131.413 76.5512 131.126C76.3103 130.839 76.0235 130.696 75.6908 130.696C75.3581 130.696 75.0713 130.845 74.8304 131.143C74.5895 131.43 74.469 131.769 74.469 132.159C74.469 132.549 74.5895 132.887 74.8304 133.174C75.0713 133.461 75.3581 133.604 75.6908 133.604Z" fill="#0B132A"/>
<path d="M73.4088 52.4906C73.4088 51.8138 73.4833 51.2115 73.6325 50.6838C73.7931 50.1561 74.0684 49.68 74.4584 49.2556C74.8485 48.8311 75.3991 48.4181 76.1104 48.0166C76.7413 47.684 77.269 47.4029 77.6934 47.1735C78.1179 46.944 78.4391 46.7261 78.6571 46.5196C78.8865 46.3016 79.0012 46.0492 79.0012 45.7624C79.0012 45.4183 78.8636 45.1258 78.5882 44.8849C78.3129 44.6325 77.9229 44.5063 77.4181 44.5063C76.8675 44.5063 76.3914 44.6382 75.9899 44.9021C75.5999 45.1659 75.2614 45.4699 74.9747 45.8141L73.512 44.1277C73.7185 43.9098 74.0282 43.6746 74.4412 43.4222C74.8542 43.1698 75.3475 42.9519 75.9211 42.7683C76.4947 42.5848 77.1256 42.493 77.8139 42.493C78.984 42.493 79.8903 42.7683 80.5327 43.319C81.1866 43.8581 81.5135 44.5579 81.5135 45.4183C81.5135 45.9575 81.3873 46.4163 81.135 46.7949C80.8941 47.162 80.5901 47.4775 80.223 47.7413C79.8673 47.9937 79.5232 48.2174 79.1905 48.4124C78.4563 48.7795 77.877 49.1007 77.4525 49.376C77.0396 49.6514 76.7069 49.9955 76.4545 50.4085H81.7028V52.4906H73.4088ZM86.9761 55.0545C86.0928 55.0545 85.2955 54.8652 84.5843 54.4867C83.873 54.1081 83.3339 53.5919 82.9668 52.938L84.2917 51.5614C84.6129 52.0088 85.0145 52.3644 85.4963 52.6283C85.9781 52.8921 86.4771 53.024 86.9933 53.024C87.6128 53.024 88.1175 52.8348 88.5076 52.4562C88.9091 52.0776 89.1099 51.5843 89.1099 50.9763C89.1099 50.3798 88.9206 49.898 88.542 49.5309C88.1634 49.1638 87.6931 48.9803 87.131 48.9803C86.7524 48.9803 86.3968 49.0663 86.0641 49.2384C85.7429 49.399 85.4848 49.6341 85.2898 49.9439H83.2765L84.6875 42.6651H90.7102V44.7644H86.3566L85.8576 47.5004C85.9953 47.3628 86.196 47.248 86.4599 47.1563C86.7352 47.053 87.0679 47.0014 87.4579 47.0014C88.2265 47.0014 88.9091 47.1677 89.5056 47.5004C90.1136 47.8331 90.5897 48.2977 90.9339 48.8942C91.2895 49.4793 91.4673 50.1561 91.4673 50.9247C91.4673 51.7507 91.2723 52.4734 90.8822 53.0929C90.4922 53.7123 89.9588 54.1941 89.2819 54.5383C88.6051 54.8824 87.8365 55.0545 86.9761 55.0545ZM95.4373 45.3151C94.9096 45.3151 94.4277 45.2003 93.9918 44.9709C93.5674 44.73 93.229 44.4145 92.9766 44.0245C92.7242 43.623 92.598 43.1813 92.598 42.6995C92.598 42.2177 92.7242 41.7818 92.9766 41.3917C93.229 41.0017 93.5674 40.692 93.9918 40.4625C94.4277 40.2216 94.9096 40.1012 95.4373 40.1012C95.965 40.1012 96.441 40.2216 96.8655 40.4625C97.3014 40.692 97.6456 41.0017 97.8979 41.3917C98.1503 41.7818 98.2765 42.2177 98.2765 42.6995C98.2765 43.1813 98.1503 43.623 97.8979 44.0245C97.6456 44.4145 97.3014 44.73 96.8655 44.9709C96.441 45.2003 95.965 45.3151 95.4373 45.3151ZM93.5788 51.6818L98.4142 46.0206L102.888 40.1356L103.938 41.0648L99.2229 46.64L94.6113 52.6111L93.5788 51.6818ZM95.4373 44.1621C95.7699 44.1621 96.0567 44.0188 96.2976 43.732C96.5385 43.4337 96.659 43.0895 96.659 42.6995C96.659 42.3095 96.5385 41.9711 96.2976 41.6843C96.0567 41.3975 95.7699 41.2541 95.4373 41.2541C95.1046 41.2541 94.8178 41.3975 94.5769 41.6843C94.336 41.9711 94.2155 42.3095 94.2155 42.6995C94.2155 43.101 94.336 43.4452 94.5769 43.732C94.8178 44.0188 95.1046 44.1621 95.4373 44.1621ZM102.079 52.6627C101.552 52.6627 101.076 52.548 100.651 52.3185C100.227 52.0776 99.8825 51.7621 99.6187 51.3721C99.3663 50.9821 99.2401 50.5461 99.2401 50.0643C99.2401 49.5825 99.3663 49.1466 99.6187 48.7566C99.8825 48.3551 100.227 48.0396 100.651 47.8101C101.076 47.5692 101.552 47.4488 102.079 47.4488C102.607 47.4488 103.083 47.5692 103.508 47.8101C103.944 48.0396 104.288 48.3551 104.54 48.7566C104.792 49.1466 104.919 49.5825 104.919 50.0643C104.919 50.5461 104.792 50.9821 104.54 51.3721C104.288 51.7621 103.944 52.0776 103.508 52.3185C103.083 52.548 102.607 52.6627 102.079 52.6627ZM102.079 51.5098C102.424 51.5098 102.71 51.3664 102.94 51.0796C103.181 50.7928 103.301 50.4544 103.301 50.0643C103.301 49.6628 103.181 49.3187 102.94 49.0319C102.699 48.7451 102.412 48.6017 102.079 48.6017C101.747 48.6017 101.46 48.7508 101.219 49.0491C100.978 49.3359 100.858 49.6743 100.858 50.0643C100.858 50.4544 100.978 50.7928 101.219 51.0796C101.46 51.3664 101.747 51.5098 102.079 51.5098Z" fill="#0B132A"/>
<path d="M126.107 98.3773C126.107 97.7005 126.182 97.0982 126.331 96.5705C126.491 96.0428 126.767 95.5668 127.157 95.1423C127.547 94.7178 128.097 94.3049 128.809 93.9034C129.44 93.5707 129.967 93.2896 130.392 93.0602C130.816 92.8308 131.137 92.6128 131.355 92.4063C131.585 92.1883 131.699 91.936 131.699 91.6492C131.699 91.305 131.562 91.0125 131.286 90.7716C131.011 90.5192 130.621 90.393 130.116 90.393C129.566 90.393 129.09 90.5249 128.688 90.7888C128.298 91.0526 127.96 91.3566 127.673 91.7008L126.21 90.0145C126.417 89.7965 126.726 89.5613 127.139 89.3089C127.552 89.0566 128.046 88.8386 128.619 88.6551C129.193 88.4715 129.824 88.3797 130.512 88.3797C131.682 88.3797 132.589 88.6551 133.231 89.2057C133.885 89.7449 134.212 90.4446 134.212 91.305C134.212 91.8442 134.086 92.3031 133.833 92.6816C133.592 93.0487 133.288 93.3642 132.921 93.628C132.566 93.8804 132.221 94.1041 131.889 94.2991C131.155 94.6662 130.575 94.9874 130.151 95.2628C129.738 95.5381 129.405 95.8822 129.153 96.2952H134.401V98.3773H126.107ZM139.674 100.941C138.791 100.941 137.994 100.752 137.283 100.373C136.571 99.9948 136.032 99.4786 135.665 98.8247L136.99 97.4481C137.311 97.8955 137.713 98.2511 138.195 98.515C138.676 98.7788 139.175 98.9108 139.692 98.9108C140.311 98.9108 140.816 98.7215 141.206 98.3429C141.607 97.9643 141.808 97.4711 141.808 96.8631C141.808 96.2665 141.619 95.7847 141.24 95.4176C140.862 95.0505 140.391 94.867 139.829 94.867C139.451 94.867 139.095 94.953 138.762 95.1251C138.441 95.2857 138.183 95.5209 137.988 95.8306H135.975L137.386 88.5518H143.408V90.6511H139.055L138.556 93.3871C138.694 93.2495 138.894 93.1348 139.158 93.043C139.433 92.9397 139.766 92.8881 140.156 92.8881C140.925 92.8881 141.607 93.0545 142.204 93.3871C142.812 93.7198 143.288 94.1844 143.632 94.7809C143.988 95.366 144.166 96.0428 144.166 96.8114C144.166 97.6374 143.971 98.3601 143.58 98.9796C143.19 99.5991 142.657 100.081 141.98 100.425C141.303 100.769 140.535 100.941 139.674 100.941ZM148.135 91.2018C147.608 91.2018 147.126 91.0871 146.69 90.8576C146.266 90.6167 145.927 90.3012 145.675 89.9112C145.422 89.5097 145.296 89.068 145.296 88.5862C145.296 88.1044 145.422 87.6685 145.675 87.2785C145.927 86.8884 146.266 86.5787 146.69 86.3492C147.126 86.1083 147.608 85.9879 148.135 85.9879C148.663 85.9879 149.139 86.1083 149.564 86.3492C150 86.5787 150.344 86.8884 150.596 87.2785C150.849 87.6685 150.975 88.1044 150.975 88.5862C150.975 89.068 150.849 89.5097 150.596 89.9112C150.344 90.3012 150 90.6167 149.564 90.8576C149.139 91.0871 148.663 91.2018 148.135 91.2018ZM146.277 97.5686L151.112 91.9073L155.586 86.0223L156.636 86.9515L151.921 92.5268L147.31 98.4978L146.277 97.5686ZM148.135 90.0489C148.468 90.0489 148.755 89.9055 148.996 89.6187C149.237 89.3204 149.357 88.9763 149.357 88.5862C149.357 88.1962 149.237 87.8578 148.996 87.571C148.755 87.2842 148.468 87.1408 148.135 87.1408C147.803 87.1408 147.516 87.2842 147.275 87.571C147.034 87.8578 146.914 88.1962 146.914 88.5862C146.914 88.9877 147.034 89.3319 147.275 89.6187C147.516 89.9055 147.803 90.0489 148.135 90.0489ZM154.778 98.5494C154.25 98.5494 153.774 98.4347 153.349 98.2052C152.925 97.9643 152.581 97.6489 152.317 97.2588C152.065 96.8688 151.938 96.4329 151.938 95.9511C151.938 95.4692 152.065 95.0333 152.317 94.6433C152.581 94.2418 152.925 93.9263 153.349 93.6969C153.774 93.456 154.25 93.3355 154.778 93.3355C155.305 93.3355 155.781 93.456 156.206 93.6969C156.642 93.9263 156.986 94.2418 157.238 94.6433C157.491 95.0333 157.617 95.4692 157.617 95.9511C157.617 96.4329 157.491 96.8688 157.238 97.2588C156.986 97.6489 156.642 97.9643 156.206 98.2052C155.781 98.4347 155.305 98.5494 154.778 98.5494ZM154.778 97.3965C155.122 97.3965 155.409 97.2531 155.638 96.9663C155.879 96.6795 155.999 96.3411 155.999 95.9511C155.999 95.5495 155.879 95.2054 155.638 94.9186C155.397 94.6318 155.11 94.4884 154.778 94.4884C154.445 94.4884 154.158 94.6375 153.917 94.9358C153.676 95.2226 153.556 95.561 153.556 95.9511C153.556 96.3411 153.676 96.6795 153.917 96.9663C154.158 97.2531 154.445 97.3965 154.778 97.3965Z" fill="#0B132A"/>
<path d="M55.6234 106.132L56.9719 107.481C57.1911 107.7 57.4512 107.874 57.7376 107.992C58.0239 108.111 58.3308 108.172 58.6407 108.172C58.9507 108.172 59.2576 108.111 59.5439 107.992C59.8303 107.874 60.0904 107.7 60.3096 107.481C60.5287 107.262 60.7026 107.001 60.8212 106.715C60.9398 106.429 61.0009 106.122 61.0009 105.812C61.0009 105.502 60.9398 105.195 60.8212 104.909C60.7026 104.622 60.5287 104.362 60.3096 104.143L54.6962 98.5297C54.2372 97.8783 53.6308 97.3446 52.9263 96.9721C53.6897 96.4272 54.2388 95.6328 54.4788 94.7261C54.7189 93.8194 54.6348 92.8574 54.2411 92.0061H55.9605L54.4029 89.9293L55.3368 88.274C55.4479 88.1167 55.5117 87.931 55.5209 87.7387C55.53 87.5464 55.4841 87.3555 55.3885 87.1884C55.2929 87.0213 55.1516 86.8849 54.9812 86.7954C54.8108 86.7058 54.6184 86.6667 54.4265 86.6827L46.9253 87.9234C46.7637 87.9423 46.609 87.9999 46.4744 88.0914C46.3399 88.1828 46.2293 88.3054 46.1522 88.4486C46.0751 88.5919 46.0337 88.7517 46.0316 88.9144C46.0294 89.0771 46.0665 89.2379 46.1397 89.3832C46.3614 89.8207 46.4165 90.324 46.2948 90.7991C46.2593 90.9424 46.257 91.0918 46.288 91.2361C46.3189 91.3804 46.3824 91.5158 46.4735 91.6319C46.5877 91.778 46.7425 91.887 46.9185 91.9454C46.5044 92.8077 46.4093 93.7889 46.65 94.7147C46.8907 95.6405 47.4517 96.451 48.2333 97.0024C47.4118 97.4536 46.726 98.1164 46.247 98.9221C45.768 99.7277 45.5133 100.647 45.5093 101.584V112.909H55.6234V106.132ZM47.6872 90.6575C47.7424 90.1643 47.6895 89.665 47.5321 89.1944L53.8736 88.1391L52.8083 90.0372L53.2634 90.6575H47.6872ZM47.8692 93.6918C47.8675 93.0784 48.0771 92.4831 48.4626 92.0061H52.6701C53.0556 92.4831 53.2651 93.0784 53.2634 93.6918C53.2634 94.4071 52.9793 95.0931 52.4735 95.5989C51.9677 96.1047 51.2816 96.3889 50.5663 96.3889C49.851 96.3889 49.165 96.1047 48.6592 95.5989C48.1534 95.0931 47.8692 94.4071 47.8692 93.6918ZM46.8578 101.584C46.8478 100.611 47.2101 99.6702 47.8707 98.9551C48.5312 98.2401 49.4401 97.8044 50.4112 97.7374C50.898 97.7169 51.3839 97.7931 51.8411 97.9615C52.2982 98.1299 52.7175 98.3872 53.0746 98.7185L46.8578 106.021V101.584ZM54.2748 108.863H52.9263V110.211H54.2748V111.56H46.8578V110.211H51.2406V108.863H46.8578V108.101L53.995 99.7198L59.3622 105.114C59.5522 105.304 59.659 105.562 59.659 105.83C59.659 106.099 59.5522 106.357 59.3622 106.547C59.1722 106.737 58.9145 106.844 58.6458 106.844C58.3771 106.844 58.1194 106.737 57.9294 106.547L54.2748 102.875V108.863Z" fill="#0B132A"/>
<path d="M66.4121 98.9678C66.096 98.6518 65.6673 98.4742 65.2203 98.4742C64.7734 98.4742 64.3447 98.6518 64.0286 98.9678L62.1305 100.876L69.7835 108.526H58.9951V111.223C58.9951 111.67 59.1727 112.099 59.4888 112.415C59.805 112.731 60.2337 112.908 60.6808 112.908H70.4578C70.9048 112.908 71.3336 112.731 71.6497 112.415C71.9658 112.099 72.1434 111.67 72.1434 111.223V109.456L73.3369 108.266C73.6529 107.95 73.8304 107.521 73.8304 107.074C73.8304 106.627 73.6529 106.199 73.3369 105.882L66.4121 98.9678ZM70.7949 111.223C70.7949 111.312 70.7594 111.398 70.6962 111.461C70.6329 111.524 70.5472 111.56 70.4578 111.56H60.6808C60.5914 111.56 60.5056 111.524 60.4424 111.461C60.3792 111.398 60.3437 111.312 60.3437 111.223V109.874H70.7949V111.223ZM72.3828 107.312L71.4287 108.266L64.0522 100.876L65.0063 99.9219C65.0694 99.8591 65.1549 99.8238 65.2439 99.8238C65.333 99.8238 65.4185 99.8591 65.4816 99.9219L72.3828 106.84C72.4451 106.903 72.4802 106.987 72.4806 107.076C72.4802 107.164 72.4451 107.249 72.3828 107.312Z" fill="#0B132A"/>
<path d="M93.9895 22.6534C93.2705 22.6475 92.5542 22.7409 91.8608 22.931C92.4448 21.9919 92.8626 20.9591 93.0958 19.878L95.7408 20.5441C95.8166 20.5625 95.896 20.5593 95.9701 20.535C96.0442 20.5107 96.11 20.4662 96.1602 20.4065C96.2104 20.3468 96.2429 20.2743 96.2541 20.1971C96.2653 20.1199 96.2548 20.0411 96.2237 19.9696L92.5491 11.6434C92.5228 11.5851 92.4836 11.5336 92.4344 11.4928C92.3852 11.452 92.3273 11.4229 92.2652 11.4079C92.2031 11.3929 92.1383 11.3924 92.0759 11.4062C92.0135 11.4201 91.9551 11.4481 91.9052 11.488L85.0388 17.1026C84.9792 17.1511 84.9342 17.2151 84.9087 17.2876C84.8832 17.3601 84.8783 17.4383 84.8945 17.5134C84.9102 17.5884 84.9466 17.6576 84.9996 17.713C85.0526 17.7684 85.12 17.8079 85.1942 17.827L87.6532 18.482C85.5134 25.5343 75.5525 26.131 75.4415 26.1366C75.3824 26.1392 75.3246 26.1544 75.272 26.1812C75.2193 26.208 75.173 26.2458 75.1362 26.292C75.0993 26.3378 75.0728 26.391 75.0584 26.448C75.0441 26.505 75.0422 26.5645 75.0529 26.6223L75.3943 28.5345C75.4106 28.6252 75.4565 28.7078 75.5248 28.7696C75.5931 28.8314 75.6799 28.8687 75.7717 28.8759C75.83 28.8759 76.3629 28.9203 77.2122 28.9203C78.5061 28.9198 79.7986 28.8336 81.0811 28.6622C81.0811 28.6622 81.0811 28.6622 81.0811 28.6844V30.7215C80.2485 30.0749 78.9024 29.6586 77.3343 29.6586C74.7671 29.6586 72.7549 30.7687 72.7549 32.1897V33.9438C72.7549 35.362 74.7671 36.4749 77.3343 36.4749C79.2077 36.4749 80.7813 35.881 81.4974 35.0095C82.2135 35.881 83.7871 36.4749 85.6605 36.4749C87.5339 36.4749 89.1076 35.881 89.8236 35.0095C90.5397 35.881 92.1133 36.4749 93.9867 36.4749C96.554 36.4749 98.5661 35.3648 98.5661 33.9438V32.1897V28.8093C98.5661 28.7676 98.5661 28.726 98.5661 28.6844V25.1763C98.58 23.7636 96.5678 22.6534 93.9895 22.6534ZM81.0839 33.9438C81.0839 34.7486 79.5463 35.6423 77.3371 35.6423C75.1279 35.6423 73.5903 34.7486 73.5903 33.9438V33.6662C74.4229 34.3268 75.8106 34.7153 77.3371 34.7153C78.8635 34.7153 80.2401 34.3268 81.0839 33.6662V33.9438ZM80.6676 32.9363C79.9959 33.5247 78.7248 33.8883 77.3371 33.8883C75.9494 33.8883 74.6782 33.5247 74.0066 32.9363C73.8895 32.8472 73.7922 32.7349 73.7205 32.6065C73.6489 32.478 73.6045 32.3361 73.5903 32.1897C73.5903 31.3876 75.1279 30.4912 77.3371 30.4912C79.5463 30.4912 81.0839 31.3876 81.0839 32.1897C81.0696 32.3361 81.0253 32.478 80.9536 32.6065C80.882 32.7349 80.7846 32.8472 80.6676 32.9363ZM89.4101 33.9438C89.4101 34.7486 87.8725 35.6423 85.6633 35.6423C83.4541 35.6423 81.9165 34.7486 81.9165 33.9438V33.6662C81.9775 33.7134 82.0469 33.7578 82.1135 33.8022C82.2051 33.8633 82.3023 33.9243 82.405 33.9799C82.7342 34.1621 83.0823 34.3082 83.443 34.4156H83.4624L83.7399 34.4878L83.937 34.5349L84.1701 34.5793L84.4477 34.6237L84.6558 34.6543L84.9889 34.6848H85.1582C85.3302 34.6848 85.5023 34.7015 85.6799 34.7015C85.8576 34.7015 86.0296 34.7015 86.2017 34.6848H86.3738L86.7041 34.6543L86.9122 34.6237L87.1898 34.5793L87.4229 34.5349L87.6172 34.4878L87.8947 34.4156C88.441 34.2623 88.9546 34.0102 89.4101 33.6718V33.9438ZM89.4101 32.1897C89.4101 32.9946 87.8725 33.8883 85.6633 33.8883C83.4541 33.8883 81.9165 32.9946 81.9165 32.1897V31.9122C81.9775 31.9594 82.0469 32.0038 82.1135 32.0482C82.2051 32.1092 82.3023 32.1675 82.3911 32.223C82.7251 32.4055 83.0778 32.5516 83.443 32.6588H83.4763C83.5623 32.6837 83.6511 32.7032 83.7399 32.7254C83.8287 32.7476 83.8731 32.7615 83.9425 32.7753L84.1701 32.8197L84.4477 32.8669L84.6503 32.8947C84.7613 32.8947 84.8723 32.9169 84.9861 32.928H85.1554C85.3275 32.928 85.4995 32.9446 85.6772 32.9446C85.8548 32.9446 86.0269 32.9446 86.1989 32.928H86.3682C86.482 32.928 86.593 32.9086 86.7013 32.8947L86.9094 32.8669L87.187 32.8197L87.4201 32.7753L87.6172 32.7282C87.7088 32.7059 87.7976 32.6837 87.8947 32.656H87.9114C88.2724 32.5533 88.6207 32.4099 88.9494 32.2286C89.0498 32.1749 89.1471 32.1156 89.2408 32.051C89.3099 32.0095 89.3767 31.9641 89.4406 31.915L89.4101 32.1897ZM89.4101 30.4384C89.4101 31.2405 87.8725 32.137 85.6633 32.137C83.4541 32.137 81.9165 31.2405 81.9165 30.4384V30.1609C82.7491 30.8214 84.1368 31.2128 85.6633 31.2128C87.1898 31.2128 88.5664 30.8214 89.4101 30.1609V30.4384ZM88.9938 29.431C88.3221 30.0166 87.051 30.3829 85.6633 30.3829C84.2756 30.3829 83.0044 30.0166 82.3328 29.4282C82.2155 29.34 82.1178 29.2283 82.0462 29.1002C81.9745 28.9721 81.9303 28.8305 81.9165 28.6844C81.9165 28.634 81.9221 28.5837 81.9331 28.5345C82.516 28.4374 83.1155 28.318 83.7233 28.1682C84.8079 27.9086 85.8662 27.5491 86.8845 27.0941C88.4193 27.3466 89.4101 28.0516 89.4101 28.6955C89.3943 28.8399 89.3493 28.9797 89.2777 29.1061C89.2061 29.2326 89.1095 29.3431 88.9938 29.431ZM89.4212 26.9331V27.2245C89.0034 26.9089 88.5338 26.6685 88.0335 26.514C88.5157 26.2407 88.9793 25.9356 89.4212 25.6009V26.9331ZM76.1631 28.0627L75.9494 26.9165C78.0726 26.6916 86.7734 25.3484 88.558 18.2794C88.5843 18.1731 88.568 18.0607 88.5125 17.9663C88.457 17.8719 88.3667 17.803 88.2611 17.7743L86.1851 17.2192L92.0134 12.4733L95.1302 19.5228L92.8821 18.9677C92.8266 18.9538 92.7689 18.9516 92.7125 18.9611C92.6562 18.9707 92.6024 18.9918 92.5546 19.0232C92.5064 19.0541 92.4652 19.0948 92.4337 19.1426C92.4021 19.1904 92.3809 19.2443 92.3714 19.3007C90.8061 28.257 78.3334 28.1515 76.1631 28.0627ZM97.7363 33.9438C97.7363 34.7486 96.1987 35.6423 93.9895 35.6423C91.7803 35.6423 90.2427 34.7486 90.2427 33.9438V33.6662C90.3038 33.7134 90.3731 33.7578 90.4398 33.8022C90.5313 33.8633 90.6285 33.9243 90.7173 33.9799C91.051 34.1631 91.4037 34.3092 91.7692 34.4156H91.7886L92.0661 34.4878L92.2632 34.5349L92.4963 34.5793L92.7739 34.6237L92.982 34.6543L93.3151 34.6848H93.4844C93.6564 34.6848 93.8285 34.7015 94.0061 34.7015C94.1838 34.7015 94.3558 34.7015 94.5279 34.6848H94.7L95.0303 34.6543L95.2384 34.6237L95.516 34.5793L95.7491 34.5349L95.9434 34.4878L96.2209 34.4156C96.7672 34.2623 97.2808 34.0102 97.7363 33.6718V33.9438ZM97.7363 32.1897C97.7363 32.9946 96.1987 33.8883 93.9895 33.8883C91.7803 33.8883 90.2427 32.9946 90.2427 32.1897V31.9122C90.3038 31.9594 90.3731 32.0038 90.4398 32.0482C90.5313 32.1092 90.6285 32.1675 90.7173 32.223C91.0513 32.4055 91.404 32.5516 91.7692 32.6588H91.8025C91.8885 32.6837 91.9773 32.7032 92.08 32.7254C92.1827 32.7476 92.2132 32.7615 92.2826 32.7753L92.5102 32.8197L92.7877 32.8669L92.9903 32.8947C93.1014 32.8947 93.2124 32.9169 93.3262 32.928H93.4955C93.6675 32.928 93.8396 32.9446 94.0172 32.9446C94.1949 32.9446 94.3669 32.9446 94.539 32.928H94.7083C94.8221 32.928 94.9331 32.9086 95.0414 32.8947L95.2495 32.8669L95.5271 32.8197L95.7602 32.7753L95.9573 32.7282C96.0488 32.7059 96.1377 32.6837 96.2348 32.656H96.2514C96.6125 32.5533 96.9608 32.4099 97.2894 32.2286C97.3851 32.1745 97.4778 32.1152 97.567 32.051C97.6362 32.0095 97.7029 31.9641 97.7668 31.915L97.7363 32.1897ZM97.7363 30.4384C97.7363 31.2405 96.1987 32.137 93.9895 32.137C91.7803 32.137 90.2427 31.2405 90.2427 30.4384V30.1609C90.8215 30.5813 91.4842 30.8719 92.1855 31.013H92.2021L92.5518 31.0823L92.6989 31.1073L92.9959 31.1462C93.0736 31.1462 93.1541 31.1628 93.2346 31.1712L93.4788 31.1906C93.6259 31.1906 93.773 31.1906 93.9257 31.1906H93.9895C94.1699 31.1906 94.3447 31.1906 94.5196 31.1739H94.6112C94.7583 31.1739 94.8887 31.1489 95.0414 31.1323L95.1552 31.1156C95.2884 31.0962 95.4327 31.0768 95.5465 31.0518L95.6575 31.0296C95.788 31.0019 95.9156 30.9713 96.0405 30.9352L96.1293 30.913C96.4145 30.8324 96.6929 30.7294 96.962 30.605C97.0008 30.5883 97.0397 30.5661 97.0785 30.5467C97.1646 30.5051 97.245 30.4606 97.3255 30.4135L97.4365 30.3469C97.5226 30.2941 97.6003 30.2386 97.6752 30.1831C97.6919 30.1831 97.7113 30.1609 97.7252 30.147L97.7363 30.4384ZM97.7363 28.6844C97.7363 29.4865 96.1987 30.3829 93.9895 30.3829C91.7803 30.3829 90.2427 29.4865 90.2427 28.6844V28.4068C90.3038 28.454 90.3731 28.4957 90.437 28.5401C90.5258 28.6011 90.6229 28.6594 90.7145 28.7149C91.0494 28.8983 91.403 29.0453 91.7692 29.1534H91.7997L92.0772 29.2228L92.2771 29.27L92.5102 29.3172L92.7877 29.3616L92.9931 29.3893C93.1041 29.3893 93.2152 29.4143 93.3289 29.4226H93.4982C93.6703 29.4226 93.8424 29.4393 94.02 29.4393C94.1976 29.4393 94.3725 29.4393 94.5418 29.4226H94.7111C94.8249 29.4226 94.9359 29.4032 95.0469 29.3893L95.2523 29.3616L95.5298 29.3172L95.763 29.27L95.9323 29.2311L96.2098 29.1618H96.2265C96.6978 29.0266 97.1467 28.8227 97.5587 28.5567C97.6253 28.5123 97.6974 28.4679 97.7585 28.4207L97.7363 28.6844ZM97.7363 26.9303C97.7363 27.7352 96.1987 28.6289 93.9895 28.6289C91.7803 28.6289 90.2427 27.7352 90.2427 26.9303V26.6528C91.0753 27.3133 92.463 27.7019 93.9895 27.7019C95.516 27.7019 96.8926 27.3133 97.7363 26.6528V26.9303ZM97.32 25.9229C96.6483 26.5112 95.3772 26.8748 93.9895 26.8748C92.6018 26.8748 91.3307 26.5112 90.659 25.9229C90.542 25.8338 90.4446 25.7215 90.3729 25.593C90.3013 25.4645 90.257 25.3227 90.2427 25.1763C90.2483 25.0254 90.2964 24.8792 90.3815 24.7544C90.5258 24.6156 90.659 24.4769 90.8006 24.3242C91.4472 23.8469 92.5851 23.4861 93.9895 23.4861C96.2098 23.4861 97.7363 24.3825 97.7363 25.1846C97.7209 25.3295 97.6761 25.4698 97.6045 25.5968C97.5329 25.7237 97.4361 25.8347 97.32 25.9229Z" fill="#0B132A"/>
<path d="M91.3223 18.7488C91.2686 18.7387 91.2134 18.7394 91.1599 18.7507C91.1063 18.762 91.0556 18.7837 91.0105 18.8147C90.9654 18.8456 90.9268 18.8851 90.897 18.9309C90.8671 18.9768 90.8466 19.0281 90.8366 19.0818C90.8366 19.1096 90.2816 21.8572 87.2036 24.1802C87.1337 24.2327 87.0821 24.3058 87.056 24.3892C87.03 24.4726 87.0308 24.562 87.0585 24.6449C87.0861 24.7278 87.1391 24.7999 87.21 24.851C87.2809 24.9021 87.366 24.9296 87.4534 24.9296C87.5449 24.93 87.6338 24.8997 87.706 24.8436C91.0614 22.3068 91.6332 19.3566 91.6554 19.2317C91.6654 19.1781 91.6647 19.1231 91.6534 19.0697C91.642 19.0164 91.6203 18.9658 91.5893 18.921C91.5584 18.8761 91.5188 18.8378 91.473 18.8082C91.4272 18.7787 91.376 18.7585 91.3223 18.7488Z" fill="#0B132A"/>
<path d="M131.741 77.263V81.1227H129.696C129.479 81.1227 129.271 81.2077 129.118 81.3589C128.965 81.5102 128.878 81.7154 128.878 81.9293C128.878 82.1432 128.965 82.3484 129.118 82.4997C129.271 82.6509 129.479 82.7359 129.696 82.7359H148.097C148.314 82.7359 148.522 82.6509 148.675 82.4997C148.829 82.3484 148.915 82.1432 148.915 81.9293C148.915 81.7154 148.829 81.5102 148.675 81.3589C148.522 81.2077 148.314 81.1227 148.097 81.1227H144.756V76.1337H151.164C151.323 76.1335 151.478 76.0876 151.611 76.0016C151.744 75.9157 151.849 75.7934 151.912 75.6497C151.977 75.5053 151.997 75.3453 151.97 75.1898C151.943 75.0342 151.87 74.8898 151.761 74.7746L148.392 71.2254H150.187C150.337 71.2253 150.485 71.1842 150.613 71.1066C150.741 71.029 150.846 70.9181 150.914 70.7859C150.983 70.6537 151.013 70.5054 151.001 70.3574C150.99 70.2094 150.937 70.0673 150.849 69.9469L147.243 64.9902H148.15C148.299 64.9902 148.445 64.9501 148.573 64.8743C148.7 64.7984 148.804 64.6897 148.874 64.5598C148.943 64.4299 148.975 64.2837 148.967 64.1371C148.958 63.9905 148.909 63.849 148.825 63.7279L144.621 57.6339C144.546 57.5257 144.446 57.4373 144.328 57.3761C144.21 57.315 144.08 57.2831 143.947 57.2831C143.814 57.2831 143.683 57.315 143.565 57.3761C143.448 57.4373 143.347 57.5257 143.272 57.6339L139.056 63.7319C138.974 63.8519 138.926 63.9915 138.917 64.1361C138.908 64.2808 138.939 64.425 139.007 64.5537C139.074 64.6825 139.175 64.7909 139.3 64.8677C139.424 64.9445 139.568 64.9869 139.714 64.9902H140.618L138.222 68.2813C138.128 68.1764 138.03 68.0796 137.928 67.9828C138.017 67.6111 138.067 67.2313 138.079 66.8495C138.069 66.0832 137.894 65.3278 137.566 64.6328C137.239 63.9379 136.766 63.3193 136.179 62.8176C135.591 62.3159 134.903 61.9426 134.159 61.7221C133.414 61.5017 132.631 61.4391 131.861 61.5386C131.091 61.638 130.35 61.8973 129.689 62.2992C129.027 62.7011 128.459 63.2366 128.023 63.8705C127.586 64.5044 127.291 65.2223 127.155 65.9769C127.02 66.7316 127.049 67.5059 127.239 68.249C126.337 69.1721 125.827 70.3996 125.812 71.6812C125.812 74.5406 128.363 76.8758 131.741 77.263ZM143.121 81.1227H133.376V77.2952C134.648 77.2052 135.877 76.8062 136.954 76.1337H143.121V81.1227ZM142.892 64.6595C142.981 64.5391 143.035 64.3967 143.047 64.248C143.059 64.0994 143.029 63.9503 142.96 63.8175C142.891 63.6846 142.787 63.5731 142.658 63.4953C142.529 63.4176 142.38 63.3766 142.229 63.377H141.277L143.939 59.5173L146.605 63.377H145.648C145.497 63.3772 145.35 63.4183 145.221 63.4958C145.093 63.5734 144.989 63.6844 144.92 63.8166C144.852 63.9487 144.822 64.097 144.833 64.245C144.845 64.3931 144.897 64.5351 144.985 64.6555L148.592 69.6081H146.506C146.348 69.6084 146.192 69.6543 146.059 69.7402C145.926 69.8262 145.822 69.9485 145.758 70.0921C145.694 70.2366 145.674 70.3965 145.701 70.5521C145.728 70.7077 145.8 70.852 145.909 70.9673L149.279 74.5164H138.602L141.972 70.9673C142.081 70.852 142.153 70.7077 142.18 70.5521C142.207 70.3965 142.187 70.2366 142.123 70.0921C142.059 69.9485 141.955 69.8262 141.822 69.7402C141.689 69.6543 141.534 69.6084 141.375 69.6081H139.306L142.892 64.6595ZM128.719 69.0717C128.84 68.9634 128.925 68.8217 128.964 68.6649C129.003 68.5082 128.993 68.3437 128.936 68.1925C128.719 67.6226 128.645 67.01 128.717 66.4058C128.79 65.8016 129.008 65.2233 129.354 64.7192C129.699 64.2151 130.162 63.7998 130.703 63.508C131.245 63.2162 131.849 63.0563 132.466 63.0416C133.082 63.027 133.694 63.158 134.249 63.4239C134.804 63.6897 135.286 64.0825 135.656 64.5697C136.025 65.0568 136.271 65.624 136.374 66.2241C136.476 66.8242 136.431 67.4396 136.243 68.0191C136.193 68.1748 136.192 68.3418 136.24 68.4981C136.288 68.6544 136.383 68.7925 136.513 68.8943C136.792 69.1101 137.044 69.3594 137.261 69.6364L137.036 69.9469C136.948 70.0673 136.895 70.2094 136.884 70.3574C136.872 70.5054 136.903 70.6537 136.971 70.7859C137.04 70.9181 137.144 71.029 137.272 71.1066C137.4 71.1842 137.548 71.2253 137.699 71.2254H139.498L136.181 74.71C135.155 75.3759 133.951 75.7242 132.722 75.7102H132.575C129.753 75.6457 127.447 73.8631 127.447 71.6812C127.461 71.1825 127.582 70.6924 127.801 70.2427C128.02 69.7931 128.333 69.3941 128.719 69.0717Z" fill="#0B132A"/>
</g>
<defs>
<filter id="filter0_d" x="0.820801" y="0.820435" width="179.359" height="179.359" filterUnits="userSpaceOnUse" color-interpolation-filters="sRGB">
<feFlood flood-opacity="0" result="BackgroundImageFix"/>
<feColorMatrix in="SourceAlpha" type="matrix" values="0 0 0 0 0 0 0 0 0 0 0 0 0 0 0 0 0 0 127 0"/>
<feOffset dy="4"/>
<feGaussianBlur stdDeviation="2"/>
<feColorMatrix type="matrix" values="0 0 0 0 0 0 0 0 0 0 0 0 0 0 0 0 0 0 0.25 0"/>
<feBlend mode="normal" in2="BackgroundImageFix" result="effect1_dropShadow"/>
<feBlend mode="normal" in="SourceGraphic" in2="effect1_dropShadow" result="shape"/>
</filter>
</defs>
</svg>
