<svg width="26" height="26" viewBox="0 0 26 26" fill="none" xmlns="http://www.w3.org/2000/svg">
<path d="M5.89073 20.4094V24.3521H3.85944C3.64395 24.3521 3.43729 24.4389 3.28491 24.5934C3.13253 24.7479 3.04693 24.9575 3.04693 25.176C3.04693 25.3946 3.13253 25.6041 3.28491 25.7587C3.43729 25.9132 3.64395 26 3.85944 26H22.141C22.3565 26 22.5632 25.9132 22.7156 25.7587C22.8679 25.6041 22.9535 25.3946 22.9535 25.176C22.9535 24.9575 22.8679 24.7479 22.7156 24.5934C22.5632 24.4389 22.3565 24.3521 22.141 24.3521H18.8219V19.2559H25.1879C25.3458 19.2556 25.5002 19.2087 25.6323 19.1209C25.7643 19.0331 25.8682 18.9082 25.9314 18.7615C25.9953 18.6139 26.0152 18.4505 25.9884 18.2916C25.9617 18.1327 25.8896 17.9853 25.7811 17.8675L22.4335 14.2421H24.217C24.3665 14.2419 24.5131 14.1999 24.6406 14.1207C24.7681 14.0415 24.8716 13.9281 24.9397 13.7931C25.0077 13.658 25.0377 13.5066 25.0263 13.3554C25.0149 13.2042 24.9626 13.0591 24.8751 12.9361L21.2919 7.87284H22.1938C22.3417 7.87283 22.4869 7.83187 22.6135 7.75438C22.7402 7.67689 22.8435 7.56581 22.9125 7.43312C22.9815 7.30043 23.0134 7.15116 23.0049 7.00141C22.9964 6.85166 22.9477 6.70711 22.8642 6.58334L18.6878 0.358314C18.6132 0.247853 18.5132 0.157496 18.3964 0.0950623C18.2796 0.0326287 18.1495 0 18.0175 0C17.8855 0 17.7554 0.0326287 17.6386 0.0950623C17.5218 0.157496 17.4218 0.247853 17.3472 0.358314L13.1587 6.58746C13.0769 6.71003 13.0292 6.85267 13.0206 7.00039C13.012 7.1481 13.0427 7.29545 13.1096 7.42695C13.1766 7.55845 13.2772 7.66925 13.4009 7.74771C13.5246 7.82617 13.6669 7.86939 13.8127 7.87284H14.7106L12.3299 11.2346C12.2365 11.1275 12.139 11.0286 12.0374 10.9297C12.126 10.55 12.1764 10.1621 12.1877 9.77208C12.1775 8.98933 12.004 8.21764 11.6786 7.50777C11.3532 6.7979 10.8833 6.16595 10.2997 5.65348C9.71619 5.14101 9.03227 4.75964 8.29295 4.53445C7.55364 4.30927 6.77568 4.24538 6.01027 4.34698C5.24485 4.44858 4.50933 4.71337 3.85207 5.12393C3.19481 5.53449 2.63073 6.08152 2.19691 6.72903C1.7631 7.37654 1.46939 8.10986 1.33511 8.88074C1.20084 9.65163 1.22903 10.4426 1.41784 11.2016C0.522305 12.1446 0.0152198 13.3985 0 14.7076C0 17.6285 2.53504 20.0139 5.89073 20.4094ZM17.1969 24.3521H7.51576V20.4424C8.77907 20.3504 10.0003 19.9428 11.0705 19.2559H17.1969V24.3521ZM16.9694 7.53502C17.058 7.41203 17.1113 7.26653 17.1233 7.11468C17.1353 6.96284 17.1055 6.8106 17.0373 6.67486C16.9691 6.53913 16.8652 6.42522 16.737 6.34579C16.6088 6.26637 16.4614 6.22452 16.3112 6.22492H15.3646L18.0094 2.28226L20.6582 6.22492H19.7075C19.558 6.22508 19.4114 6.26708 19.2839 6.3463C19.1564 6.42553 19.0529 6.5389 18.9849 6.67393C18.9168 6.80896 18.8868 6.96042 18.8982 7.11162C18.9096 7.26283 18.9619 7.40791 19.0494 7.5309L22.6326 12.59H20.5607C20.4028 12.5903 20.2484 12.6372 20.1164 12.725C19.9843 12.8128 19.8804 12.9377 19.8172 13.0844C19.7533 13.232 19.7335 13.3954 19.7602 13.5543C19.7869 13.7132 19.859 13.8606 19.9675 13.9784L23.3151 17.6038H12.7077L16.0553 13.9784C16.1638 13.8606 16.2359 13.7132 16.2626 13.5543C16.2894 13.3954 16.2695 13.232 16.2056 13.0844C16.1424 12.9377 16.0385 12.8128 15.9065 12.725C15.7744 12.6372 15.62 12.5903 15.4621 12.59H13.4065L16.9694 7.53502ZM2.88849 12.0421C3.00881 11.9314 3.09364 11.7866 3.13202 11.6265C3.1704 11.4664 3.16058 11.2983 3.10381 11.144C2.88908 10.5618 2.81476 9.93605 2.88705 9.31885C2.95934 8.70165 3.17615 8.11094 3.51938 7.596C3.86262 7.08107 4.32232 6.65684 4.86012 6.35874C5.39793 6.06063 5.99824 5.89729 6.61097 5.88234C7.22369 5.86739 7.83106 6.00126 8.38238 6.27279C8.9337 6.54432 9.41299 6.94563 9.78024 7.44322C10.1475 7.94082 10.3921 8.52028 10.4936 9.13324C10.595 9.74619 10.5505 10.3749 10.3636 10.9668C10.3138 11.1258 10.3128 11.2965 10.3606 11.4561C10.4085 11.6157 10.5031 11.7569 10.6318 11.8608C10.9096 12.0813 11.1593 12.3359 11.3752 12.6189L11.1518 12.9361C11.0643 13.0591 11.012 13.2042 11.0006 13.3554C10.9892 13.5066 11.0192 13.658 11.0872 13.7931C11.1553 13.9281 11.2587 14.0415 11.3863 14.1207C11.5138 14.1999 11.6604 14.2419 11.8099 14.2421H13.5974L10.3027 17.8016C9.28298 18.4817 8.08617 18.8375 6.86575 18.8233H6.71949C3.91632 18.7574 1.62503 16.9364 1.62503 14.7076C1.63907 14.1982 1.75885 13.6975 1.97655 13.2383C2.19425 12.779 2.50499 12.3714 2.88849 12.0421Z" fill="#0B132A"/>
</svg>
