<svg width="60" height="60" viewBox="0 0 60 60" fill="none" xmlns="http://www.w3.org/2000/svg">
<circle cx="30" cy="30" r="30" fill="#0B132A"/>
<path d="M21.797 37.2106V41.6461H19.4532C19.2046 41.6461 18.9661 41.7437 18.7903 41.9176C18.6145 42.0914 18.5157 42.3272 18.5157 42.573C18.5157 42.8189 18.6145 43.0547 18.7903 43.2285C18.9661 43.4023 19.2046 43.5 19.4532 43.5H40.5473C40.796 43.5 41.0344 43.4023 41.2103 43.2285C41.3861 43.0547 41.4848 42.8189 41.4848 42.573C41.4848 42.3272 41.3861 42.0914 41.2103 41.9176C41.0344 41.7437 40.796 41.6461 40.5473 41.6461H36.7176V35.9129H44.063C44.2452 35.9126 44.4233 35.8598 44.5757 35.7611C44.728 35.6623 44.848 35.5218 44.9208 35.3567C44.9946 35.1906 45.0175 35.0069 44.9867 34.8281C44.9558 34.6493 44.8726 34.4834 44.7474 34.3509L40.8848 30.2723H42.9427C43.1152 30.2721 43.2844 30.2249 43.4315 30.1358C43.5786 30.0466 43.698 29.9191 43.7765 29.7672C43.8551 29.6153 43.8896 29.4449 43.8765 29.2748C43.8634 29.1047 43.803 28.9415 43.7021 28.8031L39.5676 23.1069H40.6083C40.7789 23.1069 40.9464 23.0609 41.0925 22.9737C41.2386 22.8865 41.3579 22.7615 41.4375 22.6123C41.5171 22.463 41.554 22.2951 41.5441 22.1266C41.5343 21.9581 41.4781 21.7955 41.3817 21.6563L36.5629 14.6531C36.4768 14.5288 36.3614 14.4272 36.2266 14.3569C36.0918 14.2867 35.9418 14.25 35.7894 14.25C35.6371 14.25 35.487 14.2867 35.3523 14.3569C35.2175 14.4272 35.1021 14.5288 35.016 14.6531L30.1831 21.6609C30.0887 21.7988 30.0337 21.9593 30.0238 22.1254C30.0138 22.2916 30.0493 22.4574 30.1265 22.6053C30.2037 22.7533 30.3198 22.8779 30.4625 22.9662C30.6053 23.0544 30.7695 23.1031 30.9378 23.1069H31.9737L29.2268 26.8889C29.119 26.7684 29.0065 26.6572 28.8893 26.546C28.9915 26.1188 29.0496 25.6824 29.0627 25.2436C29.051 24.363 28.8508 23.4948 28.4753 22.6962C28.0998 21.8976 27.5576 21.1867 26.8843 20.6102C26.211 20.0336 25.4218 19.6046 24.5688 19.3513C23.7157 19.0979 22.8181 19.026 21.9349 19.1403C21.0518 19.2546 20.2031 19.5525 19.4447 20.0144C18.6863 20.4763 18.0355 21.0917 17.5349 21.8202C17.0343 22.5486 16.6955 23.3736 16.5405 24.2408C16.3856 25.1081 16.4181 25.9979 16.636 26.8519C15.6027 27.9127 15.0176 29.3233 15 30.7961C15 34.0821 17.9251 36.7657 21.797 37.2106ZM34.8425 41.6461H23.672V37.2477C25.1297 37.1442 26.5388 36.6856 27.7737 35.9129H34.8425V41.6461ZM34.58 22.7269C34.6823 22.5885 34.7438 22.4248 34.7576 22.254C34.7714 22.0832 34.7371 21.9119 34.6584 21.7592C34.5798 21.6065 34.4598 21.4784 34.3119 21.389C34.164 21.2997 33.994 21.2526 33.8206 21.253H32.7284L35.7801 16.8175L38.8364 21.253H37.7395C37.5669 21.2532 37.3978 21.3005 37.2507 21.3896C37.1035 21.4787 36.9841 21.6063 36.9056 21.7582C36.8271 21.9101 36.7925 22.0805 36.8056 22.2506C36.8188 22.4207 36.8791 22.5839 36.9801 22.7223L41.1145 28.4138H38.7239C38.5417 28.4141 38.3635 28.4668 38.2112 28.5656C38.0588 28.6643 37.9389 28.8049 37.866 28.97C37.7923 29.136 37.7694 29.3198 37.8002 29.4985C37.831 29.6773 37.9142 29.8432 38.0395 29.9757L41.902 34.0543H29.6628L33.5253 29.9757C33.6506 29.8432 33.7338 29.6773 33.7646 29.4985C33.7954 29.3198 33.7725 29.136 33.6988 28.97C33.6259 28.8049 33.506 28.6643 33.3536 28.5656C33.2013 28.4668 33.0231 28.4141 32.8409 28.4138H30.469L34.58 22.7269ZM18.3329 27.7974C18.4717 27.6728 18.5696 27.51 18.6139 27.3298C18.6582 27.1497 18.6468 26.9606 18.5813 26.787C18.3335 26.1321 18.2478 25.4281 18.3312 24.7337C18.4146 24.0394 18.6648 23.3748 19.0608 22.7955C19.4569 22.2162 19.9873 21.7389 20.6078 21.4036C21.2284 21.0682 21.921 20.8845 22.628 20.8676C23.335 20.8508 24.0358 21.0014 24.672 21.3069C25.3081 21.6124 25.8611 22.0638 26.2849 22.6236C26.7087 23.1834 26.9909 23.8353 27.108 24.5249C27.225 25.2145 27.1736 25.9217 26.958 26.5877C26.9005 26.7666 26.8993 26.9585 26.9546 27.1381C27.0098 27.3177 27.1189 27.4765 27.2674 27.5934C27.588 27.8414 27.8761 28.1279 28.1252 28.4462L27.8674 28.8031C27.7665 28.9415 27.7061 29.1047 27.693 29.2748C27.6798 29.4449 27.7144 29.6153 27.793 29.7672C27.8715 29.9191 27.9909 30.0466 28.138 30.1358C28.2851 30.2249 28.4543 30.2721 28.6268 30.2723H30.6893L26.8877 34.2768C25.7111 35.0419 24.3302 35.4422 22.922 35.4262H22.7533C19.5188 35.352 16.875 33.3035 16.875 30.7961C16.8912 30.223 17.0294 29.6597 17.2806 29.143C17.5318 28.6263 17.8904 28.1678 18.3329 27.7974Z" fill="white"/>
</svg>
