<svg width="43" height="43" viewBox="0 0 43 43" fill="none" xmlns="http://www.w3.org/2000/svg">
<circle cx="21.5" cy="21.5" r="21" fill="white" stroke="#0B132A"/>
<path d="M27.1576 24.1517C26.5823 24.1546 26.0151 24.2894 25.4977 24.5462C24.9803 24.8029 24.5259 25.175 24.1681 25.635L18.5505 22.0483C18.7552 21.3735 18.7552 20.6512 18.5505 19.9764L24.1681 16.3897C24.7383 17.1107 25.54 17.6024 26.4311 17.7776C27.3223 17.9528 28.2454 17.8002 29.0369 17.3469C29.8285 16.8936 30.4373 16.1687 30.7557 15.3008C31.0741 14.4329 31.0814 13.478 30.7763 12.6051C30.4713 11.7322 29.8736 10.9978 29.089 10.5319C28.3045 10.066 27.3839 9.89868 26.4902 10.0596C25.5964 10.2206 24.7874 10.6994 24.2062 11.4113C23.6251 12.1231 23.3094 13.0221 23.3151 13.9488C23.3187 14.2998 23.3705 14.6485 23.4688 14.9848L17.8511 18.5715C17.3552 17.9339 16.6773 17.4696 15.9114 17.2431C15.1456 17.0166 14.3297 17.0389 13.5768 17.3072C12.824 17.5754 12.1715 18.0761 11.7098 18.74C11.248 19.4039 11 20.198 11 21.0123C11 21.8266 11.248 22.6208 11.7098 23.2847C12.1715 23.9486 12.824 24.4493 13.5768 24.7175C14.3297 24.9857 15.1456 25.0081 15.9114 24.7816C16.6773 24.555 17.3552 24.0908 17.8511 23.4532L23.4688 27.0399C23.3705 27.3762 23.3187 27.7249 23.3151 28.0758C23.3151 28.852 23.5405 29.6107 23.9627 30.256C24.3849 30.9013 24.985 31.4043 25.6871 31.7013C26.3892 31.9983 27.1618 32.076 27.9072 31.9246C28.6525 31.7732 29.3372 31.3994 29.8746 30.8506C30.4119 30.3018 30.7779 29.6026 30.9262 28.8414C31.0744 28.0802 30.9983 27.2912 30.7075 26.5741C30.4167 25.8571 29.9242 25.2442 29.2923 24.813C28.6604 24.3818 27.9175 24.1517 27.1576 24.1517ZM27.1576 11.5944C27.6135 11.5944 28.0593 11.7324 28.4384 11.9912C28.8175 12.2499 29.113 12.6176 29.2875 13.0478C29.462 13.478 29.5077 13.9515 29.4187 14.4082C29.3298 14.8649 29.1102 15.2844 28.7878 15.6137C28.4653 15.943 28.0545 16.1673 27.6073 16.2581C27.1601 16.349 26.6966 16.3023 26.2753 16.1241C25.854 15.9459 25.494 15.6441 25.2406 15.2569C24.9873 14.8697 24.8521 14.4145 24.8521 13.9488C24.8521 13.3244 25.095 12.7255 25.5273 12.284C25.9597 11.8424 26.5461 11.5944 27.1576 11.5944ZM14.8617 23.3668C14.4057 23.3668 13.96 23.2288 13.5809 22.97C13.2017 22.7113 12.9062 22.3436 12.7318 21.9134C12.5573 21.4831 12.5116 21.0097 12.6006 20.553C12.6895 20.0963 12.9091 19.6767 13.2315 19.3475C13.5539 19.0182 13.9647 18.7939 14.412 18.7031C14.8592 18.6122 15.3227 18.6589 15.744 18.8371C16.1653 19.0153 16.5253 19.3171 16.7787 19.7043C17.032 20.0914 17.1672 20.5467 17.1672 21.0123C17.1672 21.6368 16.9243 22.2357 16.4919 22.6772C16.0596 23.1188 15.4732 23.3668 14.8617 23.3668ZM27.1576 30.4303C26.7016 30.4303 26.2558 30.2922 25.8767 30.0335C25.4976 29.7748 25.2021 29.4071 25.0276 28.9769C24.8531 28.5466 24.8074 28.0732 24.8964 27.6165C24.9853 27.1598 25.2049 26.7402 25.5273 26.411C25.8498 26.0817 26.2606 25.8574 26.7078 25.7666C27.155 25.6757 27.6185 25.7224 28.0398 25.9006C28.4611 26.0788 28.8211 26.3806 29.0745 26.7677C29.3278 27.1549 29.463 27.6102 29.463 28.0758C29.463 28.7003 29.2201 29.2992 28.7878 29.7407C28.3554 30.1823 27.769 30.4303 27.1576 30.4303Z" fill="black"/>
</svg>
