<svg width="123" height="125" viewBox="0 0 123 125" fill="none" xmlns="http://www.w3.org/2000/svg">
<path d="M24.8653 13.7306C17.6579 44.1149 9.7662 74.4956 4.08111 105.221C3.03193 110.892 -0.229059 125.868 4.46719 122.517C11.7717 117.303 15.9361 102.491 19.074 94.8701C25.6864 78.8116 31.5424 62.5971 39.7295 47.228C47.5941 32.4642 75.6781 -9.21056 66.6266 4.85801C53.6212 25.072 37.4374 43.1771 24.7366 63.5587C17.8162 74.6641 29.1236 66.9735 33.7452 63.3658C39.89 58.5691 45.4487 53.0618 51.6337 48.321C54.4425 46.168 54.0213 47.0162 52.1485 48.9639C49.0522 52.1839 41.2764 62.2488 50.6041 55.1362C51.7891 54.2326 64.1672 44.1255 56.3954 45.2348C55.2433 45.3993 54.7146 46.1915 57.4893 45.042C63.6298 42.498 69.2361 38.3729 74.2839 34.1119C80.0627 29.2339 87.5707 18.2973 73.8335 22.7318C69.3308 24.1853 46.7168 37.9289 60.2562 42.2773C70.0616 45.4264 79.9603 40.6773 88.8264 37.1338C93.2149 35.3798 86.3633 45.8512 85.8664 47.0351C83.7513 52.0747 86.1636 53.1858 90.6281 53.9789C96.9208 55.0967 99.6096 52.0281 103.626 47.5494C109.204 41.3301 113.266 36.6246 121 33.4047" stroke="black" stroke-width="3" stroke-linecap="round" stroke-linejoin="round"/>
</svg>
