<svg width="111" height="74" viewBox="0 0 111 74" fill="none" xmlns="http://www.w3.org/2000/svg">
<path d="M16.4511 8.43127C12.1577 28.953 8.39285 49.7017 2.6989 69.9554C1.50768 74.1927 2.13112 70.8899 2.45111 68.5933C4.76989 51.9514 7.51698 35.6871 15.3361 20.3502C16.0243 19.0003 26.5452 2.63053 24.8759 11.0421C24.2364 14.2648 14.3331 36.6477 18.929 38.2852C25.0142 40.4534 33.189 25.7623 32.8671 21.4853C32.3798 15.0118 21.5542 28.4433 21.1591 31.7015C19.965 41.5479 37.9498 27.2828 39.991 25.5718C40.7359 24.9473 45.1946 21.849 45.1946 20.4637C45.1946 16.4363 40.9082 27.5185 39.2477 31.2474C36.0573 38.4117 34.443 43.5228 42.7167 35.2204C47.5744 30.3458 50.3618 23.6509 55.4778 19.1015C59.5062 15.5192 55.0286 26.6733 54.6105 27.615C51.777 33.9972 65.1255 21.0701 66.6282 19.5556C70.1978 15.958 78.646 7.38324 78.646 2.01778C78.646 1.66971 69.8453 6.52146 73.1946 8.77181C79.5039 13.011 89.1988 4.45015 95.3717 5.70696C97.0797 6.05473 97.2583 9.71868 98.0973 10.8718C100.666 14.4026 105.005 14.0381 109 14.561" stroke="black" stroke-width="3" stroke-linecap="round" stroke-linejoin="round"/>
</svg>
