<svg width="15" height="15" viewBox="0 0 15 15" fill="none" xmlns="http://www.w3.org/2000/svg">
<path d="M7.5 14.0625C5.75952 14.0625 4.09032 13.3711 2.85961 12.1404C1.6289 10.9097 0.9375 9.24048 0.9375 7.5C0.9375 5.75952 1.6289 4.09032 2.85961 2.85961C4.09032 1.6289 5.75952 0.9375 7.5 0.9375C9.24048 0.9375 10.9097 1.6289 12.1404 2.85961C13.3711 4.09032 14.0625 5.75952 14.0625 7.5C14.0625 9.24048 13.3711 10.9097 12.1404 12.1404C10.9097 13.3711 9.24048 14.0625 7.5 14.0625ZM7.5 15C9.48912 15 11.3968 14.2098 12.8033 12.8033C14.2098 11.3968 15 9.48912 15 7.5C15 5.51088 14.2098 3.60322 12.8033 2.1967C11.3968 0.790176 9.48912 0 7.5 0C5.51088 0 3.60322 0.790176 2.1967 2.1967C0.790176 3.60322 0 5.51088 0 7.5C0 9.48912 0.790176 11.3968 2.1967 12.8033C3.60322 14.2098 5.51088 15 7.5 15Z" fill="#90969D"/>
<path d="M8.37183 6.17625L6.22495 6.44531L6.14808 6.80156L6.56996 6.87937C6.84558 6.945 6.89996 7.04438 6.83996 7.31906L6.14808 10.5703C5.96621 11.4113 6.24652 11.8069 6.90558 11.8069C7.41652 11.8069 8.00996 11.5706 8.27902 11.2463L8.36152 10.8563C8.17402 11.0213 7.90027 11.0869 7.71839 11.0869C7.46058 11.0869 7.36683 10.9059 7.43339 10.5872L8.37183 6.17625ZM8.43746 4.21875C8.43746 4.46739 8.33868 4.70585 8.16287 4.88166C7.98705 5.05748 7.7486 5.15625 7.49996 5.15625C7.25131 5.15625 7.01286 5.05748 6.83704 4.88166C6.66123 4.70585 6.56246 4.46739 6.56246 4.21875C6.56246 3.97011 6.66123 3.73165 6.83704 3.55584C7.01286 3.38002 7.25131 3.28125 7.49996 3.28125C7.7486 3.28125 7.98705 3.38002 8.16287 3.55584C8.33868 3.73165 8.43746 3.97011 8.43746 4.21875Z" fill="#90969D"/>
</svg>
