<svg width="24" height="20" viewBox="0 0 24 20" fill="none" xmlns="http://www.w3.org/2000/svg">
<path d="M7.66973 19.2335C16.4285 19.2335 21.2532 11.8418 21.2532 5.43064C21.2532 5.20437 21.2532 4.97809 21.2532 4.82724C22.2182 4.14841 22.9605 3.31873 23.6285 2.33819C22.7378 2.71532 21.8471 3.01702 20.8821 3.09245C21.8471 2.48905 22.5893 1.50851 22.9605 0.377128C22.0697 0.905107 21.0306 1.28224 19.9914 1.50851C19.1007 0.527979 17.913 0 16.5027 0C13.8306 0 11.7522 2.18734 11.7522 4.82724C11.7522 5.20437 11.8264 5.5815 11.9007 5.95862C7.81819 5.73235 4.32953 3.77128 1.95427 0.829682C1.58314 1.58394 1.28623 2.41362 1.28623 3.31873C1.28623 4.97809 2.10272 6.4866 3.43881 7.39171C2.62231 7.39171 1.95427 7.16543 1.28623 6.78831V6.86373C1.28623 9.20192 2.91922 11.163 5.14602 11.6155C4.77489 11.7664 4.32953 11.7664 3.88417 11.7664C3.58726 11.7664 3.29035 11.7664 2.99345 11.691C3.58726 13.652 5.3687 15.0097 7.44705 15.0851C5.81406 16.3674 3.73571 17.197 1.50891 17.197C1.13778 17.197 0.766642 17.197 0.395508 17.1216C2.47386 18.4039 4.99757 19.2335 7.66973 19.2335Z" fill="#0B132A"/>
</svg>
