<svg width="175" height="62" viewBox="0 0 175 62" fill="none" xmlns="http://www.w3.org/2000/svg">
<path d="M82.642 20.09C81.814 20.09 81.028 19.922 80.284 19.586C79.552 19.25 78.904 18.788 78.34 18.2C77.788 17.6 77.356 16.904 77.044 16.112C76.732 15.32 76.576 14.462 76.576 13.538C76.576 12.662 76.732 11.84 77.044 11.072C77.356 10.292 77.794 9.608 78.358 9.02C78.922 8.432 79.582 7.97 80.338 7.634C81.094 7.298 81.916 7.13 82.804 7.13C84.004 7.13 85.03 7.388 85.882 7.904C86.746 8.408 87.394 9.08 87.826 9.92L85.972 11.288C85.648 10.652 85.192 10.166 84.604 9.83C84.028 9.494 83.398 9.326 82.714 9.326C82.174 9.326 81.682 9.44 81.238 9.668C80.794 9.896 80.41 10.208 80.086 10.604C79.762 11 79.51 11.456 79.33 11.972C79.162 12.488 79.078 13.034 79.078 13.61C79.078 14.222 79.168 14.786 79.348 15.302C79.54 15.818 79.804 16.268 80.14 16.652C80.488 17.036 80.89 17.342 81.346 17.57C81.802 17.786 82.306 17.894 82.858 17.894C83.506 17.894 84.124 17.726 84.712 17.39C85.312 17.054 85.87 16.562 86.386 15.914V18.362C85.318 19.514 84.07 20.09 82.642 20.09ZM86.206 15.248H83.632V13.43H88.258V20H86.206V15.248ZM91.275 20V7.22H93.759V17.822H100.275V20H91.275ZM107.859 20.09C106.923 20.09 106.071 19.91 105.303 19.55C104.547 19.19 103.893 18.704 103.341 18.092C102.801 17.468 102.381 16.772 102.081 16.004C101.781 15.224 101.631 14.426 101.631 13.61C101.631 12.758 101.787 11.948 102.099 11.18C102.423 10.4 102.861 9.71 103.413 9.11C103.977 8.498 104.637 8.018 105.393 7.67C106.161 7.31 107.001 7.13 107.913 7.13C108.837 7.13 109.677 7.316 110.433 7.688C111.201 8.06 111.855 8.558 112.395 9.182C112.935 9.806 113.355 10.502 113.655 11.27C113.955 12.038 114.105 12.83 114.105 13.646C114.105 14.486 113.949 15.296 113.637 16.076C113.325 16.844 112.887 17.534 112.323 18.146C111.771 18.746 111.111 19.22 110.343 19.568C109.587 19.916 108.759 20.09 107.859 20.09ZM104.151 13.61C104.151 14.162 104.235 14.696 104.403 15.212C104.571 15.728 104.811 16.19 105.123 16.598C105.447 16.994 105.837 17.312 106.293 17.552C106.761 17.78 107.289 17.894 107.877 17.894C108.477 17.894 109.011 17.774 109.479 17.534C109.947 17.282 110.337 16.952 110.649 16.544C110.961 16.124 111.195 15.662 111.351 15.158C111.519 14.642 111.603 14.126 111.603 13.61C111.603 13.058 111.513 12.53 111.333 12.026C111.165 11.51 110.919 11.054 110.595 10.658C110.283 10.25 109.893 9.932 109.425 9.704C108.969 9.464 108.453 9.344 107.877 9.344C107.265 9.344 106.725 9.47 106.257 9.722C105.801 9.962 105.417 10.286 105.105 10.694C104.793 11.102 104.553 11.558 104.385 12.062C104.229 12.566 104.151 13.082 104.151 13.61ZM127.207 16.706C127.207 17.426 127.021 18.032 126.649 18.524C126.277 19.004 125.773 19.37 125.137 19.622C124.513 19.874 123.829 20 123.085 20H116.911V7.22H123.751C124.351 7.22 124.867 7.382 125.299 7.706C125.743 8.018 126.079 8.426 126.307 8.93C126.547 9.422 126.667 9.938 126.667 10.478C126.667 11.09 126.511 11.672 126.199 12.224C125.887 12.776 125.431 13.184 124.831 13.448C125.563 13.664 126.139 14.054 126.559 14.618C126.991 15.182 127.207 15.878 127.207 16.706ZM124.705 16.238C124.705 15.914 124.639 15.626 124.507 15.374C124.375 15.11 124.195 14.906 123.967 14.762C123.751 14.606 123.499 14.528 123.211 14.528H119.395V17.894H123.085C123.385 17.894 123.655 17.822 123.895 17.678C124.147 17.522 124.345 17.318 124.489 17.066C124.633 16.814 124.705 16.538 124.705 16.238ZM119.395 9.344V12.566H122.707C122.983 12.566 123.235 12.5 123.463 12.368C123.691 12.236 123.871 12.05 124.003 11.81C124.147 11.57 124.219 11.282 124.219 10.946C124.219 10.622 124.153 10.34 124.021 10.1C123.901 9.86 123.733 9.674 123.517 9.542C123.313 9.41 123.079 9.344 122.815 9.344H119.395ZM133.238 7.22H135.758L140.456 20H137.9L136.712 16.814H132.248L131.078 20H128.522L133.238 7.22ZM136.262 15.068L134.498 9.794L132.662 15.068H136.262ZM142.758 20V7.22H145.242V17.822H151.758V20H142.758ZM77.332 37V24.22H82.75C83.338 24.22 83.878 24.34 84.37 24.58C84.862 24.82 85.288 25.144 85.648 25.552C86.02 25.96 86.308 26.416 86.512 26.92C86.716 27.424 86.818 27.94 86.818 28.468C86.818 29.188 86.65 29.872 86.314 30.52C85.978 31.168 85.516 31.696 84.928 32.104C84.34 32.512 83.644 32.716 82.84 32.716H79.816V37H77.332ZM79.816 30.538H82.696C82.996 30.538 83.266 30.454 83.506 30.286C83.746 30.118 83.938 29.878 84.082 29.566C84.226 29.242 84.298 28.876 84.298 28.468C84.298 28.024 84.214 27.646 84.046 27.334C83.89 27.022 83.68 26.788 83.416 26.632C83.164 26.476 82.888 26.398 82.588 26.398H79.816V30.538ZM92.0068 24.22H94.5268L99.2248 37H96.6688L95.4808 33.814H91.0168L89.8468 37H87.2908L92.0068 24.22ZM95.0308 32.068L93.2668 26.794L91.4308 32.068H95.0308ZM108.982 27.568C108.898 27.484 108.742 27.37 108.514 27.226C108.298 27.082 108.028 26.944 107.704 26.812C107.392 26.68 107.05 26.566 106.678 26.47C106.306 26.362 105.928 26.308 105.544 26.308C104.872 26.308 104.362 26.434 104.014 26.686C103.678 26.938 103.51 27.292 103.51 27.748C103.51 28.096 103.618 28.372 103.834 28.576C104.05 28.78 104.374 28.954 104.806 29.098C105.238 29.242 105.778 29.398 106.426 29.566C107.266 29.77 107.992 30.022 108.604 30.322C109.228 30.61 109.702 30.994 110.026 31.474C110.362 31.942 110.53 32.566 110.53 33.346C110.53 34.03 110.404 34.618 110.152 35.11C109.9 35.59 109.552 35.98 109.108 36.28C108.664 36.58 108.16 36.802 107.596 36.946C107.032 37.078 106.432 37.144 105.796 37.144C105.16 37.144 104.524 37.078 103.888 36.946C103.252 36.814 102.64 36.628 102.052 36.388C101.464 36.136 100.924 35.836 100.432 35.488L101.53 33.346C101.638 33.454 101.83 33.598 102.106 33.778C102.382 33.946 102.718 34.12 103.114 34.3C103.51 34.468 103.942 34.612 104.41 34.732C104.878 34.852 105.352 34.912 105.832 34.912C106.504 34.912 107.014 34.798 107.362 34.57C107.71 34.342 107.884 34.018 107.884 33.598C107.884 33.214 107.746 32.914 107.47 32.698C107.194 32.482 106.81 32.296 106.318 32.14C105.826 31.972 105.244 31.792 104.572 31.6C103.768 31.372 103.096 31.12 102.556 30.844C102.016 30.556 101.614 30.196 101.35 29.764C101.086 29.332 100.954 28.792 100.954 28.144C100.954 27.268 101.158 26.536 101.566 25.948C101.986 25.348 102.55 24.898 103.258 24.598C103.966 24.286 104.752 24.13 105.616 24.13C106.216 24.13 106.78 24.196 107.308 24.328C107.848 24.46 108.352 24.634 108.82 24.85C109.288 25.066 109.708 25.3 110.08 25.552L108.982 27.568ZM120.921 27.568C120.837 27.484 120.681 27.37 120.453 27.226C120.237 27.082 119.967 26.944 119.643 26.812C119.331 26.68 118.989 26.566 118.617 26.47C118.245 26.362 117.867 26.308 117.483 26.308C116.811 26.308 116.301 26.434 115.953 26.686C115.617 26.938 115.449 27.292 115.449 27.748C115.449 28.096 115.557 28.372 115.773 28.576C115.989 28.78 116.313 28.954 116.745 29.098C117.177 29.242 117.717 29.398 118.365 29.566C119.205 29.77 119.931 30.022 120.543 30.322C121.167 30.61 121.641 30.994 121.965 31.474C122.301 31.942 122.469 32.566 122.469 33.346C122.469 34.03 122.343 34.618 122.091 35.11C121.839 35.59 121.491 35.98 121.047 36.28C120.603 36.58 120.099 36.802 119.535 36.946C118.971 37.078 118.371 37.144 117.735 37.144C117.099 37.144 116.463 37.078 115.827 36.946C115.191 36.814 114.579 36.628 113.991 36.388C113.403 36.136 112.863 35.836 112.371 35.488L113.469 33.346C113.577 33.454 113.769 33.598 114.045 33.778C114.321 33.946 114.657 34.12 115.053 34.3C115.449 34.468 115.881 34.612 116.349 34.732C116.817 34.852 117.291 34.912 117.771 34.912C118.443 34.912 118.953 34.798 119.301 34.57C119.649 34.342 119.823 34.018 119.823 33.598C119.823 33.214 119.685 32.914 119.409 32.698C119.133 32.482 118.749 32.296 118.257 32.14C117.765 31.972 117.183 31.792 116.511 31.6C115.707 31.372 115.035 31.12 114.495 30.844C113.955 30.556 113.553 30.196 113.289 29.764C113.025 29.332 112.893 28.792 112.893 28.144C112.893 27.268 113.097 26.536 113.505 25.948C113.925 25.348 114.489 24.898 115.197 24.598C115.905 24.286 116.691 24.13 117.555 24.13C118.155 24.13 118.719 24.196 119.247 24.328C119.787 24.46 120.291 24.634 120.759 24.85C121.227 25.066 121.647 25.3 122.019 25.552L120.921 27.568ZM125.246 37V24.22H130.664C131.252 24.22 131.792 24.34 132.284 24.58C132.776 24.82 133.202 25.144 133.562 25.552C133.934 25.96 134.222 26.416 134.426 26.92C134.63 27.424 134.732 27.94 134.732 28.468C134.732 29.188 134.564 29.872 134.228 30.52C133.892 31.168 133.43 31.696 132.842 32.104C132.254 32.512 131.558 32.716 130.754 32.716H127.73V37H125.246ZM127.73 30.538H130.61C130.91 30.538 131.18 30.454 131.42 30.286C131.66 30.118 131.852 29.878 131.996 29.566C132.14 29.242 132.212 28.876 132.212 28.468C132.212 28.024 132.128 27.646 131.96 27.334C131.804 27.022 131.594 26.788 131.33 26.632C131.078 26.476 130.802 26.398 130.502 26.398H127.73V30.538ZM142.815 37.09C141.879 37.09 141.027 36.91 140.259 36.55C139.503 36.19 138.849 35.704 138.297 35.092C137.757 34.468 137.337 33.772 137.037 33.004C136.737 32.224 136.587 31.426 136.587 30.61C136.587 29.758 136.743 28.948 137.055 28.18C137.379 27.4 137.817 26.71 138.369 26.11C138.933 25.498 139.593 25.018 140.349 24.67C141.117 24.31 141.957 24.13 142.869 24.13C143.793 24.13 144.633 24.316 145.389 24.688C146.157 25.06 146.811 25.558 147.351 26.182C147.891 26.806 148.311 27.502 148.611 28.27C148.911 29.038 149.061 29.83 149.061 30.646C149.061 31.486 148.905 32.296 148.593 33.076C148.281 33.844 147.843 34.534 147.279 35.146C146.727 35.746 146.067 36.22 145.299 36.568C144.543 36.916 143.715 37.09 142.815 37.09ZM139.107 30.61C139.107 31.162 139.191 31.696 139.359 32.212C139.527 32.728 139.767 33.19 140.079 33.598C140.403 33.994 140.793 34.312 141.249 34.552C141.717 34.78 142.245 34.894 142.833 34.894C143.433 34.894 143.967 34.774 144.435 34.534C144.903 34.282 145.293 33.952 145.605 33.544C145.917 33.124 146.151 32.662 146.307 32.158C146.475 31.642 146.559 31.126 146.559 30.61C146.559 30.058 146.469 29.53 146.289 29.026C146.121 28.51 145.875 28.054 145.551 27.658C145.239 27.25 144.849 26.932 144.381 26.704C143.925 26.464 143.409 26.344 142.833 26.344C142.221 26.344 141.681 26.47 141.213 26.722C140.757 26.962 140.373 27.286 140.061 27.694C139.749 28.102 139.509 28.558 139.341 29.062C139.185 29.566 139.107 30.082 139.107 30.61ZM151.867 37V24.22H157.519C158.107 24.22 158.647 24.34 159.139 24.58C159.643 24.82 160.075 25.144 160.435 25.552C160.807 25.96 161.089 26.416 161.281 26.92C161.485 27.424 161.587 27.94 161.587 28.468C161.587 29.008 161.491 29.53 161.299 30.034C161.119 30.526 160.855 30.958 160.507 31.33C160.159 31.702 159.751 31.99 159.283 32.194L162.199 37H159.463L156.835 32.716H154.351V37H151.867ZM154.351 30.538H157.465C157.777 30.538 158.053 30.448 158.293 30.268C158.533 30.076 158.725 29.824 158.869 29.512C159.013 29.2 159.085 28.852 159.085 28.468C159.085 28.06 159.001 27.706 158.833 27.406C158.665 27.094 158.449 26.848 158.185 26.668C157.933 26.488 157.657 26.398 157.357 26.398H154.351V30.538ZM174.155 26.398H170.069V37H167.603V26.398H163.517V24.22H174.155V26.398ZM77.332 54V41.22H79.816V54H77.332ZM85.8664 45.792V54H83.3824V41.22H85.3624L91.9684 49.644V41.238H94.4524V54H92.3824L85.8664 45.792ZM98.0109 54V41.22H102.655C104.047 41.22 105.211 41.508 106.147 42.084C107.083 42.648 107.785 43.416 108.253 44.388C108.721 45.348 108.955 46.416 108.955 47.592C108.955 48.888 108.697 50.016 108.181 50.976C107.665 51.936 106.933 52.68 105.985 53.208C105.049 53.736 103.939 54 102.655 54H98.0109ZM106.453 47.592C106.453 46.764 106.303 46.038 106.003 45.414C105.703 44.778 105.271 44.286 104.707 43.938C104.143 43.578 103.459 43.398 102.655 43.398H100.495V51.822H102.655C103.471 51.822 104.161 51.642 104.725 51.282C105.289 50.91 105.715 50.406 106.003 49.77C106.303 49.122 106.453 48.396 106.453 47.592ZM120.67 51.822V54H111.796V41.22H120.508V43.398H114.28V46.476H119.662V48.492H114.28V51.822H120.67ZM124.838 41.22L128.006 45.936L131.156 41.22H133.856L129.428 47.7L133.712 54H131.012L128.006 49.464L124.982 54H122.264L126.548 47.7L122.12 41.22H124.838Z" fill="#0B132A"/>
<circle cx="31" cy="31" r="31" fill="#0B132A"/>
<path d="M41.6634 12C32.9985 12 17.0128 12.0273 17.0128 12.0273C17.0128 15.7536 16.9841 50 17.0127 50H41.6542C44.0522 50 46 48.069 46 45.6918V16.3082C46.0092 13.931 44.0614 12 41.6634 12ZM44.5391 45.6918C44.5391 47.2675 43.2528 48.5427 41.6634 48.5427H18.4828V13.4573H41.6634C43.2528 13.4573 44.5391 14.7325 44.5391 16.3082V45.6918ZM37.7402 43.2363C37.7402 43.6371 37.4095 43.965 37.0052 43.965H26.0259C25.6217 43.965 25.2909 43.6371 25.2909 43.2363C25.2909 42.8356 25.6217 42.5077 26.0259 42.5077H37.0052C37.4095 42.5077 37.7402 42.8356 37.7402 43.2363Z" fill="white"/>
<path fill-rule="evenodd" clip-rule="evenodd" d="M31 37C35.9706 37 40 32.7467 40 27.5C40 22.2533 35.9706 18 31 18C26.0294 18 22 22.2533 22 27.5C22 32.7467 26.0294 37 31 37ZM31.1548 19.8999L32.858 23.6795L35.6645 22.7397L34.7355 25.6203L38.3355 27.6021L34.7355 29.4203L35.6645 32.301L32.858 31.4225L31.1548 35.2429L29.3742 31.4225L26.6258 32.301L27.5161 29.4203L23.7225 27.6021L27.5161 25.6203L26.4516 22.7397L29.258 23.6386L31.1548 19.8999Z" fill="white"/>
</svg>
