<svg width="99" height="124" viewBox="0 0 99 124" fill="none" xmlns="http://www.w3.org/2000/svg">
<path d="M15.8336 88.09C15.0056 88.09 14.2196 87.922 13.4756 87.586C12.7436 87.25 12.0956 86.788 11.5316 86.2C10.9796 85.6 10.5476 84.904 10.2356 84.112C9.9236 83.32 9.7676 82.462 9.7676 81.538C9.7676 80.662 9.9236 79.84 10.2356 79.072C10.5476 78.292 10.9856 77.608 11.5496 77.02C12.1136 76.432 12.7736 75.97 13.5296 75.634C14.2856 75.298 15.1076 75.13 15.9956 75.13C17.1956 75.13 18.2216 75.388 19.0736 75.904C19.9376 76.408 20.5856 77.08 21.0176 77.92L19.1636 79.288C18.8396 78.652 18.3836 78.166 17.7956 77.83C17.2196 77.494 16.5896 77.326 15.9056 77.326C15.3656 77.326 14.8736 77.44 14.4296 77.668C13.9856 77.896 13.6016 78.208 13.2776 78.604C12.9536 79 12.7016 79.456 12.5216 79.972C12.3536 80.488 12.2696 81.034 12.2696 81.61C12.2696 82.222 12.3596 82.786 12.5396 83.302C12.7316 83.818 12.9956 84.268 13.3316 84.652C13.6796 85.036 14.0816 85.342 14.5376 85.57C14.9936 85.786 15.4976 85.894 16.0496 85.894C16.6976 85.894 17.3156 85.726 17.9036 85.39C18.5036 85.054 19.0616 84.562 19.5776 83.914V86.362C18.5096 87.514 17.2616 88.09 15.8336 88.09ZM19.3976 83.248H16.8236V81.43H21.4496V88H19.3976V83.248ZM24.4666 88V75.22H26.9506V85.822H33.4666V88H24.4666ZM41.051 88.09C40.115 88.09 39.263 87.91 38.495 87.55C37.739 87.19 37.085 86.704 36.533 86.092C35.993 85.468 35.573 84.772 35.273 84.004C34.973 83.224 34.823 82.426 34.823 81.61C34.823 80.758 34.979 79.948 35.291 79.18C35.615 78.4 36.053 77.71 36.605 77.11C37.169 76.498 37.829 76.018 38.585 75.67C39.353 75.31 40.193 75.13 41.105 75.13C42.029 75.13 42.869 75.316 43.625 75.688C44.393 76.06 45.047 76.558 45.587 77.182C46.127 77.806 46.547 78.502 46.847 79.27C47.147 80.038 47.297 80.83 47.297 81.646C47.297 82.486 47.141 83.296 46.829 84.076C46.517 84.844 46.079 85.534 45.515 86.146C44.963 86.746 44.303 87.22 43.535 87.568C42.779 87.916 41.951 88.09 41.051 88.09ZM37.343 81.61C37.343 82.162 37.427 82.696 37.595 83.212C37.763 83.728 38.003 84.19 38.315 84.598C38.639 84.994 39.029 85.312 39.485 85.552C39.953 85.78 40.481 85.894 41.069 85.894C41.669 85.894 42.203 85.774 42.671 85.534C43.139 85.282 43.529 84.952 43.841 84.544C44.153 84.124 44.387 83.662 44.543 83.158C44.711 82.642 44.795 82.126 44.795 81.61C44.795 81.058 44.705 80.53 44.525 80.026C44.357 79.51 44.111 79.054 43.787 78.658C43.475 78.25 43.085 77.932 42.617 77.704C42.161 77.464 41.645 77.344 41.069 77.344C40.457 77.344 39.917 77.47 39.449 77.722C38.993 77.962 38.609 78.286 38.297 78.694C37.985 79.102 37.745 79.558 37.577 80.062C37.421 80.566 37.343 81.082 37.343 81.61ZM60.3985 84.706C60.3985 85.426 60.2125 86.032 59.8405 86.524C59.4685 87.004 58.9645 87.37 58.3285 87.622C57.7045 87.874 57.0205 88 56.2765 88H50.1025V75.22H56.9425C57.5425 75.22 58.0585 75.382 58.4905 75.706C58.9345 76.018 59.2705 76.426 59.4985 76.93C59.7385 77.422 59.8585 77.938 59.8585 78.478C59.8585 79.09 59.7025 79.672 59.3905 80.224C59.0785 80.776 58.6225 81.184 58.0225 81.448C58.7545 81.664 59.3305 82.054 59.7505 82.618C60.1825 83.182 60.3985 83.878 60.3985 84.706ZM57.8965 84.238C57.8965 83.914 57.8305 83.626 57.6985 83.374C57.5665 83.11 57.3865 82.906 57.1585 82.762C56.9425 82.606 56.6905 82.528 56.4025 82.528H52.5865V85.894H56.2765C56.5765 85.894 56.8465 85.822 57.0865 85.678C57.3385 85.522 57.5365 85.318 57.6805 85.066C57.8245 84.814 57.8965 84.538 57.8965 84.238ZM52.5865 77.344V80.566H55.8985C56.1745 80.566 56.4265 80.5 56.6545 80.368C56.8825 80.236 57.0625 80.05 57.1945 79.81C57.3385 79.57 57.4105 79.282 57.4105 78.946C57.4105 78.622 57.3445 78.34 57.2125 78.1C57.0925 77.86 56.9245 77.674 56.7085 77.542C56.5045 77.41 56.2705 77.344 56.0065 77.344H52.5865ZM66.4296 75.22H68.9496L73.6476 88H71.0916L69.9036 84.814H65.4396L64.2696 88H61.7136L66.4296 75.22ZM69.4536 83.068L67.6896 77.794L65.8536 83.068H69.4536ZM75.9494 88V75.22H78.4334V85.822H84.9494V88H75.9494ZM1.62731 105V92.22H7.04531C7.63331 92.22 8.17331 92.34 8.66531 92.58C9.15731 92.82 9.58331 93.144 9.94331 93.552C10.3153 93.96 10.6033 94.416 10.8073 94.92C11.0113 95.424 11.1133 95.94 11.1133 96.468C11.1133 97.188 10.9453 97.872 10.6093 98.52C10.2733 99.168 9.81131 99.696 9.22331 100.104C8.63531 100.512 7.93931 100.716 7.13531 100.716H4.11131V105H1.62731ZM4.11131 98.538H6.99131C7.29131 98.538 7.56131 98.454 7.80131 98.286C8.04131 98.118 8.23331 97.878 8.37731 97.566C8.52131 97.242 8.59331 96.876 8.59331 96.468C8.59331 96.024 8.50931 95.646 8.34131 95.334C8.18531 95.022 7.97531 94.788 7.71131 94.632C7.45931 94.476 7.18331 94.398 6.88331 94.398H4.11131V98.538ZM16.3021 92.22H18.8221L23.5201 105H20.9641L19.7761 101.814H15.3121L14.1421 105H11.5861L16.3021 92.22ZM19.3261 100.068L17.5621 94.794L15.7261 100.068H19.3261ZM33.2776 95.568C33.1936 95.484 33.0376 95.37 32.8096 95.226C32.5936 95.082 32.3236 94.944 31.9996 94.812C31.6876 94.68 31.3456 94.566 30.9736 94.47C30.6016 94.362 30.2236 94.308 29.8396 94.308C29.1676 94.308 28.6576 94.434 28.3096 94.686C27.9736 94.938 27.8056 95.292 27.8056 95.748C27.8056 96.096 27.9136 96.372 28.1296 96.576C28.3456 96.78 28.6696 96.954 29.1016 97.098C29.5336 97.242 30.0736 97.398 30.7216 97.566C31.5616 97.77 32.2876 98.022 32.8996 98.322C33.5236 98.61 33.9976 98.994 34.3216 99.474C34.6576 99.942 34.8256 100.566 34.8256 101.346C34.8256 102.03 34.6996 102.618 34.4476 103.11C34.1956 103.59 33.8476 103.98 33.4036 104.28C32.9596 104.58 32.4556 104.802 31.8916 104.946C31.3276 105.078 30.7276 105.144 30.0916 105.144C29.4556 105.144 28.8196 105.078 28.1836 104.946C27.5476 104.814 26.9356 104.628 26.3476 104.388C25.7596 104.136 25.2196 103.836 24.7276 103.488L25.8256 101.346C25.9336 101.454 26.1256 101.598 26.4016 101.778C26.6776 101.946 27.0136 102.12 27.4096 102.3C27.8056 102.468 28.2376 102.612 28.7056 102.732C29.1736 102.852 29.6476 102.912 30.1276 102.912C30.7996 102.912 31.3096 102.798 31.6576 102.57C32.0056 102.342 32.1796 102.018 32.1796 101.598C32.1796 101.214 32.0416 100.914 31.7656 100.698C31.4896 100.482 31.1056 100.296 30.6136 100.14C30.1216 99.972 29.5396 99.792 28.8676 99.6C28.0636 99.372 27.3916 99.12 26.8516 98.844C26.3116 98.556 25.9096 98.196 25.6456 97.764C25.3816 97.332 25.2496 96.792 25.2496 96.144C25.2496 95.268 25.4536 94.536 25.8616 93.948C26.2816 93.348 26.8456 92.898 27.5536 92.598C28.2616 92.286 29.0476 92.13 29.9116 92.13C30.5116 92.13 31.0756 92.196 31.6036 92.328C32.1436 92.46 32.6476 92.634 33.1156 92.85C33.5836 93.066 34.0036 93.3 34.3756 93.552L33.2776 95.568ZM45.2167 95.568C45.1327 95.484 44.9767 95.37 44.7487 95.226C44.5327 95.082 44.2627 94.944 43.9387 94.812C43.6267 94.68 43.2847 94.566 42.9127 94.47C42.5407 94.362 42.1627 94.308 41.7787 94.308C41.1067 94.308 40.5967 94.434 40.2487 94.686C39.9127 94.938 39.7447 95.292 39.7447 95.748C39.7447 96.096 39.8527 96.372 40.0687 96.576C40.2847 96.78 40.6087 96.954 41.0407 97.098C41.4727 97.242 42.0127 97.398 42.6607 97.566C43.5007 97.77 44.2267 98.022 44.8387 98.322C45.4627 98.61 45.9367 98.994 46.2607 99.474C46.5967 99.942 46.7647 100.566 46.7647 101.346C46.7647 102.03 46.6387 102.618 46.3867 103.11C46.1347 103.59 45.7867 103.98 45.3427 104.28C44.8987 104.58 44.3947 104.802 43.8307 104.946C43.2667 105.078 42.6667 105.144 42.0307 105.144C41.3947 105.144 40.7587 105.078 40.1227 104.946C39.4867 104.814 38.8747 104.628 38.2867 104.388C37.6987 104.136 37.1587 103.836 36.6667 103.488L37.7647 101.346C37.8727 101.454 38.0647 101.598 38.3407 101.778C38.6167 101.946 38.9527 102.12 39.3487 102.3C39.7447 102.468 40.1767 102.612 40.6447 102.732C41.1127 102.852 41.5867 102.912 42.0667 102.912C42.7387 102.912 43.2487 102.798 43.5967 102.57C43.9447 102.342 44.1187 102.018 44.1187 101.598C44.1187 101.214 43.9807 100.914 43.7047 100.698C43.4287 100.482 43.0447 100.296 42.5527 100.14C42.0607 99.972 41.4787 99.792 40.8067 99.6C40.0027 99.372 39.3307 99.12 38.7907 98.844C38.2507 98.556 37.8487 98.196 37.5847 97.764C37.3207 97.332 37.1887 96.792 37.1887 96.144C37.1887 95.268 37.3927 94.536 37.8007 93.948C38.2207 93.348 38.7847 92.898 39.4927 92.598C40.2007 92.286 40.9867 92.13 41.8507 92.13C42.4507 92.13 43.0147 92.196 43.5427 92.328C44.0827 92.46 44.5867 92.634 45.0547 92.85C45.5227 93.066 45.9427 93.3 46.3147 93.552L45.2167 95.568ZM49.5418 105V92.22H54.9598C55.5478 92.22 56.0878 92.34 56.5798 92.58C57.0718 92.82 57.4978 93.144 57.8578 93.552C58.2298 93.96 58.5178 94.416 58.7218 94.92C58.9258 95.424 59.0278 95.94 59.0278 96.468C59.0278 97.188 58.8598 97.872 58.5238 98.52C58.1878 99.168 57.7258 99.696 57.1378 100.104C56.5498 100.512 55.8538 100.716 55.0498 100.716H52.0258V105H49.5418ZM52.0258 98.538H54.9058C55.2058 98.538 55.4758 98.454 55.7158 98.286C55.9558 98.118 56.1478 97.878 56.2918 97.566C56.4358 97.242 56.5078 96.876 56.5078 96.468C56.5078 96.024 56.4238 95.646 56.2558 95.334C56.0998 95.022 55.8898 94.788 55.6258 94.632C55.3738 94.476 55.0978 94.398 54.7978 94.398H52.0258V98.538ZM67.1106 105.09C66.1746 105.09 65.3226 104.91 64.5546 104.55C63.7986 104.19 63.1446 103.704 62.5926 103.092C62.0526 102.468 61.6326 101.772 61.3326 101.004C61.0326 100.224 60.8826 99.426 60.8826 98.61C60.8826 97.758 61.0386 96.948 61.3506 96.18C61.6746 95.4 62.1126 94.71 62.6646 94.11C63.2286 93.498 63.8886 93.018 64.6446 92.67C65.4126 92.31 66.2526 92.13 67.1646 92.13C68.0886 92.13 68.9286 92.316 69.6846 92.688C70.4526 93.06 71.1066 93.558 71.6466 94.182C72.1866 94.806 72.6066 95.502 72.9066 96.27C73.2066 97.038 73.3566 97.83 73.3566 98.646C73.3566 99.486 73.2006 100.296 72.8886 101.076C72.5766 101.844 72.1386 102.534 71.5746 103.146C71.0226 103.746 70.3626 104.22 69.5946 104.568C68.8386 104.916 68.0106 105.09 67.1106 105.09ZM63.4026 98.61C63.4026 99.162 63.4866 99.696 63.6546 100.212C63.8226 100.728 64.0626 101.19 64.3746 101.598C64.6986 101.994 65.0886 102.312 65.5446 102.552C66.0126 102.78 66.5406 102.894 67.1286 102.894C67.7286 102.894 68.2626 102.774 68.7306 102.534C69.1986 102.282 69.5886 101.952 69.9006 101.544C70.2126 101.124 70.4466 100.662 70.6026 100.158C70.7706 99.642 70.8546 99.126 70.8546 98.61C70.8546 98.058 70.7646 97.53 70.5846 97.026C70.4166 96.51 70.1706 96.054 69.8466 95.658C69.5346 95.25 69.1446 94.932 68.6766 94.704C68.2206 94.464 67.7046 94.344 67.1286 94.344C66.5166 94.344 65.9766 94.47 65.5086 94.722C65.0526 94.962 64.6686 95.286 64.3566 95.694C64.0446 96.102 63.8046 96.558 63.6366 97.062C63.4806 97.566 63.4026 98.082 63.4026 98.61ZM76.1621 105V92.22H81.8141C82.4021 92.22 82.9421 92.34 83.4341 92.58C83.9381 92.82 84.3701 93.144 84.7301 93.552C85.1021 93.96 85.3841 94.416 85.5761 94.92C85.7801 95.424 85.8821 95.94 85.8821 96.468C85.8821 97.008 85.7861 97.53 85.5941 98.034C85.4141 98.526 85.1501 98.958 84.8021 99.33C84.4541 99.702 84.0461 99.99 83.5781 100.194L86.4941 105H83.7581L81.1301 100.716H78.6461V105H76.1621ZM78.6461 98.538H81.7601C82.0721 98.538 82.3481 98.448 82.5881 98.268C82.8281 98.076 83.0201 97.824 83.1641 97.512C83.3081 97.2 83.3801 96.852 83.3801 96.468C83.3801 96.06 83.2961 95.706 83.1281 95.406C82.9601 95.094 82.7441 94.848 82.4801 94.668C82.2281 94.488 81.9521 94.398 81.6521 94.398H78.6461V98.538ZM98.4502 94.398H94.3642V105H91.8982V94.398H87.8122V92.22H98.4502V94.398ZM21.9265 122V109.22H24.4105V122H21.9265ZM30.4609 113.792V122H27.9769V109.22H29.9569L36.5629 117.644V109.238H39.0469V122H36.9769L30.4609 113.792ZM42.6054 122V109.22H47.2494C48.6414 109.22 49.8054 109.508 50.7414 110.084C51.6774 110.648 52.3794 111.416 52.8474 112.388C53.3154 113.348 53.5494 114.416 53.5494 115.592C53.5494 116.888 53.2914 118.016 52.7754 118.976C52.2594 119.936 51.5274 120.68 50.5794 121.208C49.6434 121.736 48.5334 122 47.2494 122H42.6054ZM51.0474 115.592C51.0474 114.764 50.8974 114.038 50.5974 113.414C50.2974 112.778 49.8654 112.286 49.3014 111.938C48.7374 111.578 48.0534 111.398 47.2494 111.398H45.0894V119.822H47.2494C48.0654 119.822 48.7554 119.642 49.3194 119.282C49.8834 118.91 50.3094 118.406 50.5974 117.77C50.8974 117.122 51.0474 116.396 51.0474 115.592ZM65.2642 119.822V122H56.3902V109.22H65.1022V111.398H58.8742V114.476H64.2562V116.492H58.8742V119.822H65.2642ZM69.4328 109.22L72.6008 113.936L75.7508 109.22H78.4508L74.0228 115.7L78.3068 122H75.6068L72.6008 117.464L69.5768 122H66.8588L71.1428 115.7L66.7148 109.22H69.4328Z" fill="white"/>
<circle cx="49" cy="31" r="31" fill="white"/>
<path d="M59.6634 12C50.9985 12 35.0128 12.0273 35.0128 12.0273C35.0128 15.7536 34.9841 50 35.0127 50H59.6542C62.0522 50 64 48.069 64 45.6918V16.3082C64.0092 13.931 62.0614 12 59.6634 12ZM62.5391 45.6918C62.5391 47.2675 61.2528 48.5427 59.6634 48.5427H36.4828V13.4573H59.6634C61.2528 13.4573 62.5391 14.7325 62.5391 16.3082V45.6918ZM55.7402 43.2363C55.7402 43.6371 55.4095 43.965 55.0052 43.965H44.0259C43.6217 43.965 43.2909 43.6371 43.2909 43.2363C43.2909 42.8356 43.6217 42.5077 44.0259 42.5077H55.0052C55.4095 42.5077 55.7402 42.8356 55.7402 43.2363Z" fill="#0B132A"/>
<path fill-rule="evenodd" clip-rule="evenodd" d="M49 37C53.9706 37 58 32.7467 58 27.5C58 22.2533 53.9706 18 49 18C44.0294 18 40 22.2533 40 27.5C40 32.7467 44.0294 37 49 37ZM49.1548 19.8999L50.858 23.6795L53.6645 22.7397L52.7355 25.6203L56.3355 27.6021L52.7355 29.4203L53.6645 32.301L50.858 31.4225L49.1548 35.2429L47.3742 31.4225L44.6258 32.301L45.5161 29.4203L41.7225 27.6021L45.5161 25.6203L44.4516 22.7397L47.258 23.6386L49.1548 19.8999Z" fill="#0B132A"/>
</svg>
